M48
; DRILL file KiCad 10.0.1 date 2026-05-11T21:42:50
; FORMAT={-:-/ absolute / metric / decimal}
; #@! TF.CreationDate,2026-05-11T21:42:50+02:00
; #@! TF.GenerationSoftware,Kicad,Pcbnew,10.0.1
; #@! TF.FileFunction,MixedPlating,1,2
FMAT,2
METRIC
; #@! TA.AperFunction,Plated,PTH,ViaDrill
T1C0.300
; #@! TA.AperFunction,Plated,PTH,ComponentDrill
T2C0.300
; #@! TA.AperFunction,Plated,PTH,ComponentDrill
T3C0.600
; #@! TA.AperFunction,Plated,PTH,ComponentDrill
T4C1.000
; #@! TA.AperFunction,Plated,PTH,ComponentDrill
T5C2.700
%
G90
G05
T1
X209.285Y-139.803
X209.285Y-140.603
X209.285Y-141.403
X209.285Y-142.203
X209.285Y-143.003
X209.285Y-143.803
X209.625Y-109.2
X209.625Y-122.25
X209.625Y-123.175
X210.085Y-139.803
X210.085Y-140.603
X210.085Y-141.403
X210.085Y-142.203
X210.085Y-143.003
X210.085Y-143.803
X211.025Y-94.975
X211.6Y-114.4
X211.875Y-105.85
X211.95Y-102.35
X212.385Y-135.753
X212.385Y-136.553
X212.385Y-137.353
X212.385Y-138.153
X212.6Y-99.2
X213.185Y-135.753
X213.185Y-136.553
X213.185Y-137.353
X213.185Y-138.153
X213.3Y-117.3
X214.174Y-117.326
X214.7Y-100.8
X214.7Y-102.5
X214.762Y-104.137
X214.837Y-105.812
X215.024Y-117.326
X215.75Y-87.5
X215.95Y-97.9
X217.95Y-126.05
X218.925Y-113.525
X219.175Y-94.15
X220.386Y-107.284
X220.6Y-126.85
X220.825Y-113.55
X220.85Y-94.15
X221.25Y-131.05
X221.325Y-111.175
X221.7Y-116.2
X221.7Y-117.6
X221.7Y-118.9
X221.7Y-120.275
X222.5Y-94.15
X223.0Y-117.6
X223.45Y-87.525
X224.0Y-107.5
X224.15Y-94.2
X224.45Y-139.85
X224.45Y-140.65
X224.45Y-141.45
X224.45Y-142.25
X224.45Y-143.05
X224.45Y-143.85
X224.825Y-107.325
X224.95Y-131.5
X225.25Y-139.85
X225.25Y-140.65
X225.25Y-141.45
X225.25Y-142.25
X225.25Y-143.05
X225.25Y-143.85
X225.605Y-107.105
X226.05Y-128.1
X226.9Y-92.275
X227.275Y-128.923
X227.365Y-128.128
X227.45Y-135.705
X227.45Y-136.505
X227.45Y-137.305
X227.45Y-138.105
X227.774Y-119.702
X227.9Y-117.2
X228.079Y-127.769
X228.203Y-113.354
X228.25Y-135.705
X228.25Y-136.505
X228.25Y-137.305
X228.25Y-138.105
X228.4Y-114.276
X228.7Y-117.2
X228.974Y-119.176
X229.0Y-97.1
X229.0Y-98.786
X229.0Y-100.35
X229.349Y-117.851
X229.5Y-114.8
X229.53Y-117.071
X229.6Y-92.3
X230.3Y-128.106
X230.5Y-132.15
X231.35Y-94.75
X232.15Y-109.299
X232.275Y-116.8
X232.356Y-110.072
X232.418Y-114.332
X232.6Y-132.25
X232.721Y-110.783
X232.874Y-120.576
X232.874Y-120.576
X232.95Y-96.3
X232.95Y-98.0
X233.2Y-127.326
X233.226Y-125.6
X233.829Y-126.126
X233.876Y-117.274
X234.251Y-115.649
X234.475Y-126.616
X234.7Y-86.95
X234.75Y-90.05
X234.999Y-110.451
X235.5Y-101.7
X235.6Y-134.725
X236.375Y-114.35
X236.375Y-118.225
X236.4Y-104.3
X236.475Y-92.425
X236.475Y-94.965
X236.525Y-98.325
X236.65Y-84.0
X237.6Y-103.1
X237.6Y-104.3
X237.7Y-111.2
X238.65Y-113.5
X238.7Y-115.55
X238.7Y-117.7
X239.1Y-109.7
X239.1Y-111.2
X239.307Y-100.907
X239.385Y-139.95
X239.385Y-140.75
X239.385Y-141.55
X239.385Y-142.35
X239.385Y-143.15
X239.385Y-143.95
X240.1Y-104.3
X240.185Y-139.95
X240.185Y-140.75
X240.185Y-141.55
X240.185Y-142.35
X240.185Y-143.15
X240.185Y-143.95
X240.512Y-104.986
X240.9Y-117.7
X240.9Y-119.8
X241.119Y-105.506
X242.535Y-135.75
X242.535Y-136.55
X242.535Y-137.35
X242.535Y-138.15
X243.335Y-135.75
X243.335Y-136.55
X243.335Y-137.35
X243.335Y-138.15
X245.075Y-102.675
X247.3Y-87.35
X248.775Y-100.875
X249.55Y-125.4
X251.05Y-123.9
X251.05Y-125.4
X255.2Y-104.85
X255.2Y-106.2
X255.2Y-108.175
X255.2Y-109.525
X255.2Y-111.575
X255.2Y-112.925
X255.2Y-115.0
X255.2Y-116.35
X255.875Y-91.6
X257.8Y-107.5
X257.8Y-108.85
X258.275Y-142.875
X258.3Y-144.025
X258.9Y-110.6
X259.675Y-142.875
X259.7Y-144.025
X261.1Y-142.85
X261.125Y-144.0
X262.475Y-142.85
X262.5Y-144.0
X263.09Y-95.26
X264.05Y-138.775
X264.05Y-140.15
X264.05Y-141.5
X264.05Y-142.875
X264.075Y-137.575
X264.075Y-144.025
X265.275Y-91.75
X266.345Y-101.55
X266.345Y-103.45
X266.345Y-105.35
X267.8Y-99.675
X269.25Y-91.775
X269.3Y-95.15
X273.4Y-116.925
X273.4Y-124.25
X273.4Y-130.925
X273.4Y-144.2
X273.45Y-137.55
X273.5Y-91.75
X273.5Y-99.45
X273.525Y-107.95
T2
X227.5Y-123.45
X227.5Y-125.05
X228.65Y-122.3
X228.65Y-123.45
X228.65Y-125.05
X228.65Y-126.2
X230.25Y-122.3
X230.25Y-123.45
X230.25Y-125.05
X230.25Y-126.2
X231.4Y-123.45
X231.4Y-125.05
X260.545Y-102.1
X260.545Y-103.4
X261.845Y-102.1
X261.845Y-103.4
X263.145Y-102.1
X263.145Y-103.4
X264.445Y-102.1
X264.445Y-103.4
T4
X244.71Y-94.41
X247.25Y-94.41
X249.79Y-94.41
T5
X260.05Y-121.575
X260.05Y-128.775
T3
G00X266.6Y-118.425
M15
G01X265.5Y-118.425
M16
G05
G00X266.6Y-131.925
M15
G01X265.5Y-131.925
M16
G05
M30
