%TF.GenerationSoftware,KiCad,Pcbnew,10.0.1*%
%TF.CreationDate,2026-05-11T21:52:55+02:00*%
%TF.ProjectId,DrohneV1,44726f68-6e65-4563-912e-6b696361645f,rev?*%
%TF.SameCoordinates,Original*%
%TF.FileFunction,Legend,Bot*%
%TF.FilePolarity,Positive*%
%FSLAX46Y46*%
G04 Gerber Fmt 4.6, Leading zero omitted, Abs format (unit mm)*
G04 Created by KiCad (PCBNEW 10.0.1) date 2026-05-11 21:52:55*
%MOMM*%
%LPD*%
G01*
G04 APERTURE LIST*
G04 Aperture macros list*
%AMRoundRect*
0 Rectangle with rounded corners*
0 $1 Rounding radius*
0 $2 $3 $4 $5 $6 $7 $8 $9 X,Y pos of 4 corners*
0 Add a 4 corners polygon primitive as box body*
4,1,4,$2,$3,$4,$5,$6,$7,$8,$9,$2,$3,0*
0 Add four circle primitives for the rounded corners*
1,1,$1+$1,$2,$3*
1,1,$1+$1,$4,$5*
1,1,$1+$1,$6,$7*
1,1,$1+$1,$8,$9*
0 Add four rect primitives between the rounded corners*
20,1,$1+$1,$2,$3,$4,$5,0*
20,1,$1+$1,$4,$5,$6,$7,0*
20,1,$1+$1,$6,$7,$8,$9,0*
20,1,$1+$1,$8,$9,$2,$3,0*%
G04 Aperture macros list end*
%ADD10C,0.150000*%
%ADD11C,0.100000*%
%ADD12C,0.120000*%
%ADD13RoundRect,0.225000X-0.225000X-0.250000X0.225000X-0.250000X0.225000X0.250000X-0.225000X0.250000X0*%
%ADD14RoundRect,0.250000X-0.325000X-0.650000X0.325000X-0.650000X0.325000X0.650000X-0.325000X0.650000X0*%
%ADD15C,4.100000*%
%ADD16RoundRect,1.025000X-1.025000X1.025000X-1.025000X-1.025000X1.025000X-1.025000X1.025000X1.025000X0*%
%ADD17R,2.000000X0.900000*%
%ADD18RoundRect,0.200000X-0.200000X-0.275000X0.200000X-0.275000X0.200000X0.275000X-0.200000X0.275000X0*%
%ADD19RoundRect,0.250000X-0.300000X-0.300000X0.300000X-0.300000X0.300000X0.300000X-0.300000X0.300000X0*%
%ADD20R,0.500000X1.100000*%
%ADD21R,3.200000X0.600000*%
%ADD22R,0.600000X0.800000*%
%ADD23R,4.410000X3.750000*%
%ADD24R,1.700000X1.700000*%
%ADD25C,1.700000*%
G04 APERTURE END LIST*
D10*
X250514285Y-137536104D02*
X250552381Y-137574200D01*
X250552381Y-137574200D02*
X250666666Y-137612295D01*
X250666666Y-137612295D02*
X250742857Y-137612295D01*
X250742857Y-137612295D02*
X250857143Y-137574200D01*
X250857143Y-137574200D02*
X250933333Y-137498009D01*
X250933333Y-137498009D02*
X250971428Y-137421819D01*
X250971428Y-137421819D02*
X251009524Y-137269438D01*
X251009524Y-137269438D02*
X251009524Y-137155152D01*
X251009524Y-137155152D02*
X250971428Y-137002771D01*
X250971428Y-137002771D02*
X250933333Y-136926580D01*
X250933333Y-136926580D02*
X250857143Y-136850390D01*
X250857143Y-136850390D02*
X250742857Y-136812295D01*
X250742857Y-136812295D02*
X250666666Y-136812295D01*
X250666666Y-136812295D02*
X250552381Y-136850390D01*
X250552381Y-136850390D02*
X250514285Y-136888485D01*
X249752381Y-137612295D02*
X250209524Y-137612295D01*
X249980952Y-137612295D02*
X249980952Y-136812295D01*
X249980952Y-136812295D02*
X250057143Y-136926580D01*
X250057143Y-136926580D02*
X250133333Y-137002771D01*
X250133333Y-137002771D02*
X250209524Y-137040866D01*
X249257142Y-136812295D02*
X249180952Y-136812295D01*
X249180952Y-136812295D02*
X249104761Y-136850390D01*
X249104761Y-136850390D02*
X249066666Y-136888485D01*
X249066666Y-136888485D02*
X249028571Y-136964676D01*
X249028571Y-136964676D02*
X248990476Y-137117057D01*
X248990476Y-137117057D02*
X248990476Y-137307533D01*
X248990476Y-137307533D02*
X249028571Y-137459914D01*
X249028571Y-137459914D02*
X249066666Y-137536104D01*
X249066666Y-137536104D02*
X249104761Y-137574200D01*
X249104761Y-137574200D02*
X249180952Y-137612295D01*
X249180952Y-137612295D02*
X249257142Y-137612295D01*
X249257142Y-137612295D02*
X249333333Y-137574200D01*
X249333333Y-137574200D02*
X249371428Y-137536104D01*
X249371428Y-137536104D02*
X249409523Y-137459914D01*
X249409523Y-137459914D02*
X249447619Y-137307533D01*
X249447619Y-137307533D02*
X249447619Y-137117057D01*
X249447619Y-137117057D02*
X249409523Y-136964676D01*
X249409523Y-136964676D02*
X249371428Y-136888485D01*
X249371428Y-136888485D02*
X249333333Y-136850390D01*
X249333333Y-136850390D02*
X249257142Y-136812295D01*
X250788096Y-135288485D02*
X250750000Y-135250390D01*
X250750000Y-135250390D02*
X250673810Y-135212295D01*
X250673810Y-135212295D02*
X250483334Y-135212295D01*
X250483334Y-135212295D02*
X250407143Y-135250390D01*
X250407143Y-135250390D02*
X250369048Y-135288485D01*
X250369048Y-135288485D02*
X250330953Y-135364676D01*
X250330953Y-135364676D02*
X250330953Y-135440866D01*
X250330953Y-135440866D02*
X250369048Y-135555152D01*
X250369048Y-135555152D02*
X250826191Y-136012295D01*
X250826191Y-136012295D02*
X250330953Y-136012295D01*
X249607143Y-135212295D02*
X249988095Y-135212295D01*
X249988095Y-135212295D02*
X250026191Y-135593247D01*
X250026191Y-135593247D02*
X249988095Y-135555152D01*
X249988095Y-135555152D02*
X249911905Y-135517057D01*
X249911905Y-135517057D02*
X249721429Y-135517057D01*
X249721429Y-135517057D02*
X249645238Y-135555152D01*
X249645238Y-135555152D02*
X249607143Y-135593247D01*
X249607143Y-135593247D02*
X249569048Y-135669438D01*
X249569048Y-135669438D02*
X249569048Y-135859914D01*
X249569048Y-135859914D02*
X249607143Y-135936104D01*
X249607143Y-135936104D02*
X249645238Y-135974200D01*
X249645238Y-135974200D02*
X249721429Y-136012295D01*
X249721429Y-136012295D02*
X249911905Y-136012295D01*
X249911905Y-136012295D02*
X249988095Y-135974200D01*
X249988095Y-135974200D02*
X250026191Y-135936104D01*
X249340476Y-135212295D02*
X249073809Y-136012295D01*
X249073809Y-136012295D02*
X248807143Y-135212295D01*
X248616667Y-135212295D02*
X248083333Y-136012295D01*
X248083333Y-135212295D02*
X248616667Y-136012295D01*
X247854762Y-135212295D02*
X247321428Y-135212295D01*
X247321428Y-135212295D02*
X247664286Y-136012295D01*
X246559523Y-136012295D02*
X246826190Y-135631342D01*
X247016666Y-136012295D02*
X247016666Y-135212295D01*
X247016666Y-135212295D02*
X246711904Y-135212295D01*
X246711904Y-135212295D02*
X246635714Y-135250390D01*
X246635714Y-135250390D02*
X246597619Y-135288485D01*
X246597619Y-135288485D02*
X246559523Y-135364676D01*
X246559523Y-135364676D02*
X246559523Y-135478961D01*
X246559523Y-135478961D02*
X246597619Y-135555152D01*
X246597619Y-135555152D02*
X246635714Y-135593247D01*
X246635714Y-135593247D02*
X246711904Y-135631342D01*
X246711904Y-135631342D02*
X247016666Y-135631342D01*
X245797619Y-136012295D02*
X246254762Y-136012295D01*
X246026190Y-136012295D02*
X246026190Y-135212295D01*
X246026190Y-135212295D02*
X246102381Y-135326580D01*
X246102381Y-135326580D02*
X246178571Y-135402771D01*
X246178571Y-135402771D02*
X246254762Y-135440866D01*
X245492857Y-135288485D02*
X245454761Y-135250390D01*
X245454761Y-135250390D02*
X245378571Y-135212295D01*
X245378571Y-135212295D02*
X245188095Y-135212295D01*
X245188095Y-135212295D02*
X245111904Y-135250390D01*
X245111904Y-135250390D02*
X245073809Y-135288485D01*
X245073809Y-135288485D02*
X245035714Y-135364676D01*
X245035714Y-135364676D02*
X245035714Y-135440866D01*
X245035714Y-135440866D02*
X245073809Y-135555152D01*
X245073809Y-135555152D02*
X245530952Y-136012295D01*
X245530952Y-136012295D02*
X245035714Y-136012295D01*
X244273809Y-136012295D02*
X244730952Y-136012295D01*
X244502380Y-136012295D02*
X244502380Y-135212295D01*
X244502380Y-135212295D02*
X244578571Y-135326580D01*
X244578571Y-135326580D02*
X244654761Y-135402771D01*
X244654761Y-135402771D02*
X244730952Y-135440866D01*
X243778570Y-135212295D02*
X243702380Y-135212295D01*
X243702380Y-135212295D02*
X243626189Y-135250390D01*
X243626189Y-135250390D02*
X243588094Y-135288485D01*
X243588094Y-135288485D02*
X243549999Y-135364676D01*
X243549999Y-135364676D02*
X243511904Y-135517057D01*
X243511904Y-135517057D02*
X243511904Y-135707533D01*
X243511904Y-135707533D02*
X243549999Y-135859914D01*
X243549999Y-135859914D02*
X243588094Y-135936104D01*
X243588094Y-135936104D02*
X243626189Y-135974200D01*
X243626189Y-135974200D02*
X243702380Y-136012295D01*
X243702380Y-136012295D02*
X243778570Y-136012295D01*
X243778570Y-136012295D02*
X243854761Y-135974200D01*
X243854761Y-135974200D02*
X243892856Y-135936104D01*
X243892856Y-135936104D02*
X243930951Y-135859914D01*
X243930951Y-135859914D02*
X243969047Y-135707533D01*
X243969047Y-135707533D02*
X243969047Y-135517057D01*
X243969047Y-135517057D02*
X243930951Y-135364676D01*
X243930951Y-135364676D02*
X243892856Y-135288485D01*
X243892856Y-135288485D02*
X243854761Y-135250390D01*
X243854761Y-135250390D02*
X243778570Y-135212295D01*
X250083334Y-133188485D02*
X250045238Y-133150390D01*
X250045238Y-133150390D02*
X249969048Y-133112295D01*
X249969048Y-133112295D02*
X249778572Y-133112295D01*
X249778572Y-133112295D02*
X249702381Y-133150390D01*
X249702381Y-133150390D02*
X249664286Y-133188485D01*
X249664286Y-133188485D02*
X249626191Y-133264676D01*
X249626191Y-133264676D02*
X249626191Y-133340866D01*
X249626191Y-133340866D02*
X249664286Y-133455152D01*
X249664286Y-133455152D02*
X250121429Y-133912295D01*
X250121429Y-133912295D02*
X249626191Y-133912295D01*
X248902381Y-133112295D02*
X249283333Y-133112295D01*
X249283333Y-133112295D02*
X249321429Y-133493247D01*
X249321429Y-133493247D02*
X249283333Y-133455152D01*
X249283333Y-133455152D02*
X249207143Y-133417057D01*
X249207143Y-133417057D02*
X249016667Y-133417057D01*
X249016667Y-133417057D02*
X248940476Y-133455152D01*
X248940476Y-133455152D02*
X248902381Y-133493247D01*
X248902381Y-133493247D02*
X248864286Y-133569438D01*
X248864286Y-133569438D02*
X248864286Y-133759914D01*
X248864286Y-133759914D02*
X248902381Y-133836104D01*
X248902381Y-133836104D02*
X248940476Y-133874200D01*
X248940476Y-133874200D02*
X249016667Y-133912295D01*
X249016667Y-133912295D02*
X249207143Y-133912295D01*
X249207143Y-133912295D02*
X249283333Y-133874200D01*
X249283333Y-133874200D02*
X249321429Y-133836104D01*
X248635714Y-133112295D02*
X248369047Y-133912295D01*
X248369047Y-133912295D02*
X248102381Y-133112295D01*
X247835714Y-133912295D02*
X247835714Y-133112295D01*
X247835714Y-133112295D02*
X247530952Y-133112295D01*
X247530952Y-133112295D02*
X247454762Y-133150390D01*
X247454762Y-133150390D02*
X247416667Y-133188485D01*
X247416667Y-133188485D02*
X247378571Y-133264676D01*
X247378571Y-133264676D02*
X247378571Y-133378961D01*
X247378571Y-133378961D02*
X247416667Y-133455152D01*
X247416667Y-133455152D02*
X247454762Y-133493247D01*
X247454762Y-133493247D02*
X247530952Y-133531342D01*
X247530952Y-133531342D02*
X247835714Y-133531342D01*
X246921429Y-133912295D02*
X246997619Y-133874200D01*
X246997619Y-133874200D02*
X247035714Y-133836104D01*
X247035714Y-133836104D02*
X247073810Y-133759914D01*
X247073810Y-133759914D02*
X247073810Y-133531342D01*
X247073810Y-133531342D02*
X247035714Y-133455152D01*
X247035714Y-133455152D02*
X246997619Y-133417057D01*
X246997619Y-133417057D02*
X246921429Y-133378961D01*
X246921429Y-133378961D02*
X246807143Y-133378961D01*
X246807143Y-133378961D02*
X246730952Y-133417057D01*
X246730952Y-133417057D02*
X246692857Y-133455152D01*
X246692857Y-133455152D02*
X246654762Y-133531342D01*
X246654762Y-133531342D02*
X246654762Y-133759914D01*
X246654762Y-133759914D02*
X246692857Y-133836104D01*
X246692857Y-133836104D02*
X246730952Y-133874200D01*
X246730952Y-133874200D02*
X246807143Y-133912295D01*
X246807143Y-133912295D02*
X246921429Y-133912295D01*
X246197619Y-133912295D02*
X246273809Y-133874200D01*
X246273809Y-133874200D02*
X246311904Y-133798009D01*
X246311904Y-133798009D02*
X246311904Y-133112295D01*
X245969047Y-133378961D02*
X245778571Y-133912295D01*
X245588094Y-133378961D02*
X245778571Y-133912295D01*
X245778571Y-133912295D02*
X245854761Y-134102771D01*
X245854761Y-134102771D02*
X245892856Y-134140866D01*
X245892856Y-134140866D02*
X245969047Y-134178961D01*
X245283332Y-133912295D02*
X245283332Y-133378961D01*
X245283332Y-133455152D02*
X245245237Y-133417057D01*
X245245237Y-133417057D02*
X245169047Y-133378961D01*
X245169047Y-133378961D02*
X245054761Y-133378961D01*
X245054761Y-133378961D02*
X244978570Y-133417057D01*
X244978570Y-133417057D02*
X244940475Y-133493247D01*
X244940475Y-133493247D02*
X244940475Y-133912295D01*
X244940475Y-133493247D02*
X244902380Y-133417057D01*
X244902380Y-133417057D02*
X244826189Y-133378961D01*
X244826189Y-133378961D02*
X244711904Y-133378961D01*
X244711904Y-133378961D02*
X244635713Y-133417057D01*
X244635713Y-133417057D02*
X244597618Y-133493247D01*
X244597618Y-133493247D02*
X244597618Y-133912295D01*
X243911903Y-133874200D02*
X243988094Y-133912295D01*
X243988094Y-133912295D02*
X244140475Y-133912295D01*
X244140475Y-133912295D02*
X244216665Y-133874200D01*
X244216665Y-133874200D02*
X244254761Y-133798009D01*
X244254761Y-133798009D02*
X244254761Y-133493247D01*
X244254761Y-133493247D02*
X244216665Y-133417057D01*
X244216665Y-133417057D02*
X244140475Y-133378961D01*
X244140475Y-133378961D02*
X243988094Y-133378961D01*
X243988094Y-133378961D02*
X243911903Y-133417057D01*
X243911903Y-133417057D02*
X243873808Y-133493247D01*
X243873808Y-133493247D02*
X243873808Y-133569438D01*
X243873808Y-133569438D02*
X244254761Y-133645628D01*
X243530951Y-133912295D02*
X243530951Y-133378961D01*
X243530951Y-133531342D02*
X243492856Y-133455152D01*
X243492856Y-133455152D02*
X243454761Y-133417057D01*
X243454761Y-133417057D02*
X243378570Y-133378961D01*
X243378570Y-133378961D02*
X243302380Y-133378961D01*
X242616666Y-133912295D02*
X243073809Y-133912295D01*
X242845237Y-133912295D02*
X242845237Y-133112295D01*
X242845237Y-133112295D02*
X242921428Y-133226580D01*
X242921428Y-133226580D02*
X242997618Y-133302771D01*
X242997618Y-133302771D02*
X243073809Y-133340866D01*
X250483332Y-139136104D02*
X250521428Y-139174200D01*
X250521428Y-139174200D02*
X250635713Y-139212295D01*
X250635713Y-139212295D02*
X250711904Y-139212295D01*
X250711904Y-139212295D02*
X250826190Y-139174200D01*
X250826190Y-139174200D02*
X250902380Y-139098009D01*
X250902380Y-139098009D02*
X250940475Y-139021819D01*
X250940475Y-139021819D02*
X250978571Y-138869438D01*
X250978571Y-138869438D02*
X250978571Y-138755152D01*
X250978571Y-138755152D02*
X250940475Y-138602771D01*
X250940475Y-138602771D02*
X250902380Y-138526580D01*
X250902380Y-138526580D02*
X250826190Y-138450390D01*
X250826190Y-138450390D02*
X250711904Y-138412295D01*
X250711904Y-138412295D02*
X250635713Y-138412295D01*
X250635713Y-138412295D02*
X250521428Y-138450390D01*
X250521428Y-138450390D02*
X250483332Y-138488485D01*
X250102380Y-139212295D02*
X249949999Y-139212295D01*
X249949999Y-139212295D02*
X249873809Y-139174200D01*
X249873809Y-139174200D02*
X249835713Y-139136104D01*
X249835713Y-139136104D02*
X249759523Y-139021819D01*
X249759523Y-139021819D02*
X249721428Y-138869438D01*
X249721428Y-138869438D02*
X249721428Y-138564676D01*
X249721428Y-138564676D02*
X249759523Y-138488485D01*
X249759523Y-138488485D02*
X249797618Y-138450390D01*
X249797618Y-138450390D02*
X249873809Y-138412295D01*
X249873809Y-138412295D02*
X250026190Y-138412295D01*
X250026190Y-138412295D02*
X250102380Y-138450390D01*
X250102380Y-138450390D02*
X250140475Y-138488485D01*
X250140475Y-138488485D02*
X250178571Y-138564676D01*
X250178571Y-138564676D02*
X250178571Y-138755152D01*
X250178571Y-138755152D02*
X250140475Y-138831342D01*
X250140475Y-138831342D02*
X250102380Y-138869438D01*
X250102380Y-138869438D02*
X250026190Y-138907533D01*
X250026190Y-138907533D02*
X249873809Y-138907533D01*
X249873809Y-138907533D02*
X249797618Y-138869438D01*
X249797618Y-138869438D02*
X249759523Y-138831342D01*
X249759523Y-138831342D02*
X249721428Y-138755152D01*
X250083334Y-130788485D02*
X250045238Y-130750390D01*
X250045238Y-130750390D02*
X249969048Y-130712295D01*
X249969048Y-130712295D02*
X249778572Y-130712295D01*
X249778572Y-130712295D02*
X249702381Y-130750390D01*
X249702381Y-130750390D02*
X249664286Y-130788485D01*
X249664286Y-130788485D02*
X249626191Y-130864676D01*
X249626191Y-130864676D02*
X249626191Y-130940866D01*
X249626191Y-130940866D02*
X249664286Y-131055152D01*
X249664286Y-131055152D02*
X250121429Y-131512295D01*
X250121429Y-131512295D02*
X249626191Y-131512295D01*
X248902381Y-130712295D02*
X249283333Y-130712295D01*
X249283333Y-130712295D02*
X249321429Y-131093247D01*
X249321429Y-131093247D02*
X249283333Y-131055152D01*
X249283333Y-131055152D02*
X249207143Y-131017057D01*
X249207143Y-131017057D02*
X249016667Y-131017057D01*
X249016667Y-131017057D02*
X248940476Y-131055152D01*
X248940476Y-131055152D02*
X248902381Y-131093247D01*
X248902381Y-131093247D02*
X248864286Y-131169438D01*
X248864286Y-131169438D02*
X248864286Y-131359914D01*
X248864286Y-131359914D02*
X248902381Y-131436104D01*
X248902381Y-131436104D02*
X248940476Y-131474200D01*
X248940476Y-131474200D02*
X249016667Y-131512295D01*
X249016667Y-131512295D02*
X249207143Y-131512295D01*
X249207143Y-131512295D02*
X249283333Y-131474200D01*
X249283333Y-131474200D02*
X249321429Y-131436104D01*
X248635714Y-130712295D02*
X248369047Y-131512295D01*
X248369047Y-131512295D02*
X248102381Y-130712295D01*
X247835714Y-131512295D02*
X247835714Y-130712295D01*
X247835714Y-130712295D02*
X247530952Y-130712295D01*
X247530952Y-130712295D02*
X247454762Y-130750390D01*
X247454762Y-130750390D02*
X247416667Y-130788485D01*
X247416667Y-130788485D02*
X247378571Y-130864676D01*
X247378571Y-130864676D02*
X247378571Y-130978961D01*
X247378571Y-130978961D02*
X247416667Y-131055152D01*
X247416667Y-131055152D02*
X247454762Y-131093247D01*
X247454762Y-131093247D02*
X247530952Y-131131342D01*
X247530952Y-131131342D02*
X247835714Y-131131342D01*
X246921429Y-131512295D02*
X246997619Y-131474200D01*
X246997619Y-131474200D02*
X247035714Y-131436104D01*
X247035714Y-131436104D02*
X247073810Y-131359914D01*
X247073810Y-131359914D02*
X247073810Y-131131342D01*
X247073810Y-131131342D02*
X247035714Y-131055152D01*
X247035714Y-131055152D02*
X246997619Y-131017057D01*
X246997619Y-131017057D02*
X246921429Y-130978961D01*
X246921429Y-130978961D02*
X246807143Y-130978961D01*
X246807143Y-130978961D02*
X246730952Y-131017057D01*
X246730952Y-131017057D02*
X246692857Y-131055152D01*
X246692857Y-131055152D02*
X246654762Y-131131342D01*
X246654762Y-131131342D02*
X246654762Y-131359914D01*
X246654762Y-131359914D02*
X246692857Y-131436104D01*
X246692857Y-131436104D02*
X246730952Y-131474200D01*
X246730952Y-131474200D02*
X246807143Y-131512295D01*
X246807143Y-131512295D02*
X246921429Y-131512295D01*
X246197619Y-131512295D02*
X246273809Y-131474200D01*
X246273809Y-131474200D02*
X246311904Y-131398009D01*
X246311904Y-131398009D02*
X246311904Y-130712295D01*
X245969047Y-130978961D02*
X245778571Y-131512295D01*
X245588094Y-130978961D02*
X245778571Y-131512295D01*
X245778571Y-131512295D02*
X245854761Y-131702771D01*
X245854761Y-131702771D02*
X245892856Y-131740866D01*
X245892856Y-131740866D02*
X245969047Y-131778961D01*
X245283332Y-131512295D02*
X245283332Y-130978961D01*
X245283332Y-131055152D02*
X245245237Y-131017057D01*
X245245237Y-131017057D02*
X245169047Y-130978961D01*
X245169047Y-130978961D02*
X245054761Y-130978961D01*
X245054761Y-130978961D02*
X244978570Y-131017057D01*
X244978570Y-131017057D02*
X244940475Y-131093247D01*
X244940475Y-131093247D02*
X244940475Y-131512295D01*
X244940475Y-131093247D02*
X244902380Y-131017057D01*
X244902380Y-131017057D02*
X244826189Y-130978961D01*
X244826189Y-130978961D02*
X244711904Y-130978961D01*
X244711904Y-130978961D02*
X244635713Y-131017057D01*
X244635713Y-131017057D02*
X244597618Y-131093247D01*
X244597618Y-131093247D02*
X244597618Y-131512295D01*
X243911903Y-131474200D02*
X243988094Y-131512295D01*
X243988094Y-131512295D02*
X244140475Y-131512295D01*
X244140475Y-131512295D02*
X244216665Y-131474200D01*
X244216665Y-131474200D02*
X244254761Y-131398009D01*
X244254761Y-131398009D02*
X244254761Y-131093247D01*
X244254761Y-131093247D02*
X244216665Y-131017057D01*
X244216665Y-131017057D02*
X244140475Y-130978961D01*
X244140475Y-130978961D02*
X243988094Y-130978961D01*
X243988094Y-130978961D02*
X243911903Y-131017057D01*
X243911903Y-131017057D02*
X243873808Y-131093247D01*
X243873808Y-131093247D02*
X243873808Y-131169438D01*
X243873808Y-131169438D02*
X244254761Y-131245628D01*
X243530951Y-131512295D02*
X243530951Y-130978961D01*
X243530951Y-131131342D02*
X243492856Y-131055152D01*
X243492856Y-131055152D02*
X243454761Y-131017057D01*
X243454761Y-131017057D02*
X243378570Y-130978961D01*
X243378570Y-130978961D02*
X243302380Y-130978961D01*
X243073809Y-130788485D02*
X243035713Y-130750390D01*
X243035713Y-130750390D02*
X242959523Y-130712295D01*
X242959523Y-130712295D02*
X242769047Y-130712295D01*
X242769047Y-130712295D02*
X242692856Y-130750390D01*
X242692856Y-130750390D02*
X242654761Y-130788485D01*
X242654761Y-130788485D02*
X242616666Y-130864676D01*
X242616666Y-130864676D02*
X242616666Y-130940866D01*
X242616666Y-130940866D02*
X242654761Y-131055152D01*
X242654761Y-131055152D02*
X243111904Y-131512295D01*
X243111904Y-131512295D02*
X242616666Y-131512295D01*
X266364285Y-125212295D02*
X266630952Y-124831342D01*
X266821428Y-125212295D02*
X266821428Y-124412295D01*
X266821428Y-124412295D02*
X266516666Y-124412295D01*
X266516666Y-124412295D02*
X266440476Y-124450390D01*
X266440476Y-124450390D02*
X266402381Y-124488485D01*
X266402381Y-124488485D02*
X266364285Y-124564676D01*
X266364285Y-124564676D02*
X266364285Y-124678961D01*
X266364285Y-124678961D02*
X266402381Y-124755152D01*
X266402381Y-124755152D02*
X266440476Y-124793247D01*
X266440476Y-124793247D02*
X266516666Y-124831342D01*
X266516666Y-124831342D02*
X266821428Y-124831342D01*
X266059524Y-124488485D02*
X266021428Y-124450390D01*
X266021428Y-124450390D02*
X265945238Y-124412295D01*
X265945238Y-124412295D02*
X265754762Y-124412295D01*
X265754762Y-124412295D02*
X265678571Y-124450390D01*
X265678571Y-124450390D02*
X265640476Y-124488485D01*
X265640476Y-124488485D02*
X265602381Y-124564676D01*
X265602381Y-124564676D02*
X265602381Y-124640866D01*
X265602381Y-124640866D02*
X265640476Y-124755152D01*
X265640476Y-124755152D02*
X266097619Y-125212295D01*
X266097619Y-125212295D02*
X265602381Y-125212295D01*
X265145238Y-124755152D02*
X265221428Y-124717057D01*
X265221428Y-124717057D02*
X265259523Y-124678961D01*
X265259523Y-124678961D02*
X265297619Y-124602771D01*
X265297619Y-124602771D02*
X265297619Y-124564676D01*
X265297619Y-124564676D02*
X265259523Y-124488485D01*
X265259523Y-124488485D02*
X265221428Y-124450390D01*
X265221428Y-124450390D02*
X265145238Y-124412295D01*
X265145238Y-124412295D02*
X264992857Y-124412295D01*
X264992857Y-124412295D02*
X264916666Y-124450390D01*
X264916666Y-124450390D02*
X264878571Y-124488485D01*
X264878571Y-124488485D02*
X264840476Y-124564676D01*
X264840476Y-124564676D02*
X264840476Y-124602771D01*
X264840476Y-124602771D02*
X264878571Y-124678961D01*
X264878571Y-124678961D02*
X264916666Y-124717057D01*
X264916666Y-124717057D02*
X264992857Y-124755152D01*
X264992857Y-124755152D02*
X265145238Y-124755152D01*
X265145238Y-124755152D02*
X265221428Y-124793247D01*
X265221428Y-124793247D02*
X265259523Y-124831342D01*
X265259523Y-124831342D02*
X265297619Y-124907533D01*
X265297619Y-124907533D02*
X265297619Y-125059914D01*
X265297619Y-125059914D02*
X265259523Y-125136104D01*
X265259523Y-125136104D02*
X265221428Y-125174200D01*
X265221428Y-125174200D02*
X265145238Y-125212295D01*
X265145238Y-125212295D02*
X264992857Y-125212295D01*
X264992857Y-125212295D02*
X264916666Y-125174200D01*
X264916666Y-125174200D02*
X264878571Y-125136104D01*
X264878571Y-125136104D02*
X264840476Y-125059914D01*
X264840476Y-125059914D02*
X264840476Y-124907533D01*
X264840476Y-124907533D02*
X264878571Y-124831342D01*
X264878571Y-124831342D02*
X264916666Y-124793247D01*
X264916666Y-124793247D02*
X264992857Y-124755152D01*
X258790475Y-133212295D02*
X258790475Y-132412295D01*
X258790475Y-132412295D02*
X258599999Y-132412295D01*
X258599999Y-132412295D02*
X258485713Y-132450390D01*
X258485713Y-132450390D02*
X258409523Y-132526580D01*
X258409523Y-132526580D02*
X258371428Y-132602771D01*
X258371428Y-132602771D02*
X258333332Y-132755152D01*
X258333332Y-132755152D02*
X258333332Y-132869438D01*
X258333332Y-132869438D02*
X258371428Y-133021819D01*
X258371428Y-133021819D02*
X258409523Y-133098009D01*
X258409523Y-133098009D02*
X258485713Y-133174200D01*
X258485713Y-133174200D02*
X258599999Y-133212295D01*
X258599999Y-133212295D02*
X258790475Y-133212295D01*
X257571428Y-133212295D02*
X258028571Y-133212295D01*
X257799999Y-133212295D02*
X257799999Y-132412295D01*
X257799999Y-132412295D02*
X257876190Y-132526580D01*
X257876190Y-132526580D02*
X257952380Y-132602771D01*
X257952380Y-132602771D02*
X258028571Y-132640866D01*
D11*
X265688094Y-135107419D02*
X265688094Y-135916942D01*
X265688094Y-135916942D02*
X265640475Y-136012180D01*
X265640475Y-136012180D02*
X265592856Y-136059800D01*
X265592856Y-136059800D02*
X265497618Y-136107419D01*
X265497618Y-136107419D02*
X265307142Y-136107419D01*
X265307142Y-136107419D02*
X265211904Y-136059800D01*
X265211904Y-136059800D02*
X265164285Y-136012180D01*
X265164285Y-136012180D02*
X265116666Y-135916942D01*
X265116666Y-135916942D02*
X265116666Y-135107419D01*
X264116666Y-136107419D02*
X264688094Y-136107419D01*
X264402380Y-136107419D02*
X264402380Y-135107419D01*
X264402380Y-135107419D02*
X264497618Y-135250276D01*
X264497618Y-135250276D02*
X264592856Y-135345514D01*
X264592856Y-135345514D02*
X264688094Y-135393133D01*
X263735713Y-135202657D02*
X263688094Y-135155038D01*
X263688094Y-135155038D02*
X263592856Y-135107419D01*
X263592856Y-135107419D02*
X263354761Y-135107419D01*
X263354761Y-135107419D02*
X263259523Y-135155038D01*
X263259523Y-135155038D02*
X263211904Y-135202657D01*
X263211904Y-135202657D02*
X263164285Y-135297895D01*
X263164285Y-135297895D02*
X263164285Y-135393133D01*
X263164285Y-135393133D02*
X263211904Y-135535990D01*
X263211904Y-135535990D02*
X263783332Y-136107419D01*
X263783332Y-136107419D02*
X263164285Y-136107419D01*
%TO.C,C10*%
D12*
X252634420Y-136715000D02*
X252915580Y-136715000D01*
X252634420Y-137735000D02*
X252915580Y-137735000D01*
%TO.C,25VX7R1210*%
X252634420Y-135115000D02*
X252915580Y-135115000D01*
X252634420Y-136135000D02*
X252915580Y-136135000D01*
%TO.C,25VPolymer1*%
X252063748Y-132665000D02*
X253486252Y-132665000D01*
X252063748Y-134485000D02*
X253486252Y-134485000D01*
%TO.C,C9*%
X252634420Y-138315000D02*
X252915580Y-138315000D01*
X252634420Y-139335000D02*
X252915580Y-139335000D01*
%TO.C,25VPolymer2*%
X252063748Y-130265000D02*
X253486252Y-130265000D01*
X252063748Y-132085000D02*
X253486252Y-132085000D01*
%TO.C,R28*%
X262312742Y-124327500D02*
X262787258Y-124327500D01*
X262312742Y-125372500D02*
X262787258Y-125372500D01*
%TO.C,D1*%
X259590000Y-131750000D02*
X263450000Y-131750000D01*
X259590000Y-133750000D02*
X259590000Y-131750000D01*
X259590000Y-133750000D02*
X263450000Y-133750000D01*
%TO.C,U12*%
D11*
X262245000Y-134750000D02*
X262245000Y-140650000D01*
X262245000Y-134750000D02*
X262045000Y-134750000D01*
X262245000Y-140650000D02*
X262045000Y-140650000D01*
X261275000Y-134750000D02*
X260775000Y-134750000D01*
X261185000Y-140650000D02*
X260785000Y-140650000D01*
X259895000Y-140650000D02*
X259495000Y-140650000D01*
X258225000Y-140650000D02*
X258625000Y-140650000D01*
X257145000Y-134750000D02*
X257345000Y-134750000D01*
X257145000Y-140650000D02*
X257345000Y-140650000D01*
X257145000Y-140650000D02*
X257145000Y-134750000D01*
%TD*%
%LPC*%
D13*
%TO.C,C10*%
X252000000Y-137225000D03*
X253550000Y-137225000D03*
%TD*%
%TO.C,25VX7R1210*%
X252000000Y-135625000D03*
X253550000Y-135625000D03*
%TD*%
D14*
%TO.C,25VPolymer1*%
X251300000Y-133575000D03*
X254250000Y-133575000D03*
%TD*%
D13*
%TO.C,C9*%
X252000000Y-138825000D03*
X253550000Y-138825000D03*
%TD*%
D14*
%TO.C,25VPolymer2*%
X251300000Y-131175000D03*
X254250000Y-131175000D03*
%TD*%
D15*
%TO.C,J3*%
X260050000Y-128775000D03*
D16*
X260050000Y-121575000D03*
D17*
X266050000Y-131925000D03*
X266050000Y-118425000D03*
%TD*%
D18*
%TO.C,R28*%
X261725000Y-124850000D03*
X263375000Y-124850000D03*
%TD*%
D19*
%TO.C,D1*%
X263200000Y-132750000D03*
X260400000Y-132750000D03*
%TD*%
D20*
%TO.C,U12*%
X260380000Y-134925000D03*
X259110000Y-134925000D03*
D21*
X259029000Y-135175000D03*
D20*
X257840000Y-134925000D03*
X261650000Y-134925000D03*
D22*
X261600000Y-140625000D03*
X260330000Y-140625000D03*
D23*
X259695000Y-138350000D03*
D22*
X259060000Y-140625000D03*
X257790000Y-140625000D03*
%TD*%
D24*
%TO.C,J1*%
X244710000Y-94410000D03*
D25*
X247250000Y-94410000D03*
X249790000Y-94410000D03*
%TD*%
%LPD*%
M02*
