%TF.GenerationSoftware,KiCad,Pcbnew,10.0.1*%
%TF.CreationDate,2026-05-11T21:52:55+02:00*%
%TF.ProjectId,DrohneV1,44726f68-6e65-4563-912e-6b696361645f,rev?*%
%TF.SameCoordinates,Original*%
%TF.FileFunction,Paste,Top*%
%TF.FilePolarity,Positive*%
%FSLAX46Y46*%
G04 Gerber Fmt 4.6, Leading zero omitted, Abs format (unit mm)*
G04 Created by KiCad (PCBNEW 10.0.1) date 2026-05-11 21:52:55*
%MOMM*%
%LPD*%
G01*
G04 APERTURE LIST*
G04 Aperture macros list*
%AMRoundRect*
0 Rectangle with rounded corners*
0 $1 Rounding radius*
0 $2 $3 $4 $5 $6 $7 $8 $9 X,Y pos of 4 corners*
0 Add a 4 corners polygon primitive as box body*
4,1,4,$2,$3,$4,$5,$6,$7,$8,$9,$2,$3,0*
0 Add four circle primitives for the rounded corners*
1,1,$1+$1,$2,$3*
1,1,$1+$1,$4,$5*
1,1,$1+$1,$6,$7*
1,1,$1+$1,$8,$9*
0 Add four rect primitives between the rounded corners*
20,1,$1+$1,$2,$3,$4,$5,0*
20,1,$1+$1,$4,$5,$6,$7,0*
20,1,$1+$1,$6,$7,$8,$9,0*
20,1,$1+$1,$8,$9,$2,$3,0*%
G04 Aperture macros list end*
%ADD10R,2.400000X0.740000*%
%ADD11RoundRect,0.200000X0.275000X-0.200000X0.275000X0.200000X-0.275000X0.200000X-0.275000X-0.200000X0*%
%ADD12R,0.500000X0.750000*%
%ADD13R,1.500000X1.500000*%
%ADD14R,0.400000X0.450000*%
%ADD15R,0.400000X0.350000*%
%ADD16R,0.900000X0.450000*%
%ADD17R,1.200000X0.300000*%
%ADD18R,0.300000X1.200000*%
%ADD19R,0.400000X0.250000*%
%ADD20R,0.250000X0.400000*%
%ADD21R,1.170000X1.170000*%
%ADD22RoundRect,0.250000X-0.450000X0.262500X-0.450000X-0.262500X0.450000X-0.262500X0.450000X0.262500X0*%
%ADD23RoundRect,0.250000X0.450000X-0.262500X0.450000X0.262500X-0.450000X0.262500X-0.450000X-0.262500X0*%
%ADD24RoundRect,0.225000X-0.250000X0.225000X-0.250000X-0.225000X0.250000X-0.225000X0.250000X0.225000X0*%
%ADD25RoundRect,0.200000X-0.200000X-0.275000X0.200000X-0.275000X0.200000X0.275000X-0.200000X0.275000X0*%
%ADD26RoundRect,0.250000X0.475000X-0.250000X0.475000X0.250000X-0.475000X0.250000X-0.475000X-0.250000X0*%
%ADD27RoundRect,0.250000X0.325000X1.100000X-0.325000X1.100000X-0.325000X-1.100000X0.325000X-1.100000X0*%
%ADD28RoundRect,0.200000X-0.275000X0.200000X-0.275000X-0.200000X0.275000X-0.200000X0.275000X0.200000X0*%
%ADD29RoundRect,0.250000X-0.325000X-1.100000X0.325000X-1.100000X0.325000X1.100000X-0.325000X1.100000X0*%
%ADD30RoundRect,0.112500X-0.112500X0.350000X-0.112500X-0.350000X0.112500X-0.350000X0.112500X0.350000X0*%
%ADD31RoundRect,0.225000X0.250000X-0.225000X0.250000X0.225000X-0.250000X0.225000X-0.250000X-0.225000X0*%
%ADD32RoundRect,0.200000X0.200000X0.275000X-0.200000X0.275000X-0.200000X-0.275000X0.200000X-0.275000X0*%
%ADD33RoundRect,0.225000X0.225000X0.250000X-0.225000X0.250000X-0.225000X-0.250000X0.225000X-0.250000X0*%
%ADD34RoundRect,0.225000X-0.225000X-0.250000X0.225000X-0.250000X0.225000X0.250000X-0.225000X0.250000X0*%
%ADD35RoundRect,0.250000X0.362500X1.425000X-0.362500X1.425000X-0.362500X-1.425000X0.362500X-1.425000X0*%
%ADD36R,2.950000X3.500000*%
%ADD37R,3.100000X2.600000*%
%ADD38R,0.600000X1.550000*%
G04 APERTURE END LIST*
D10*
%TO.C,J2*%
X240400000Y-90090000D03*
X236500000Y-90090000D03*
X240400000Y-88820000D03*
X236500000Y-88820000D03*
X240400000Y-87550000D03*
X236500000Y-87550000D03*
X240400000Y-86280000D03*
X236500000Y-86280000D03*
X240400000Y-85010000D03*
X236500000Y-85010000D03*
%TD*%
D11*
%TO.C,R38*%
X211050000Y-107625000D03*
X211050000Y-109275000D03*
%TD*%
D12*
%TO.C,U17*%
X252825000Y-145800000D03*
D13*
X251770000Y-144400000D03*
X251770000Y-142700000D03*
D12*
X251555000Y-145800000D03*
X250285000Y-145800000D03*
D13*
X250070000Y-144400000D03*
X250070000Y-142700000D03*
D12*
X249015000Y-145800000D03*
D14*
X248965000Y-140400000D03*
D15*
X248965000Y-139800000D03*
X252775000Y-139800000D03*
D16*
X252685000Y-140400000D03*
X251585000Y-140400000D03*
D15*
X251505000Y-139800000D03*
D16*
X250485000Y-140400000D03*
D15*
X250235000Y-139800000D03*
%TD*%
D12*
%TO.C,U11*%
X211025000Y-139897917D03*
D13*
X212080000Y-141297917D03*
X212080000Y-142997917D03*
D12*
X212295000Y-139897917D03*
X213565000Y-139897917D03*
D13*
X213780000Y-141297917D03*
X213780000Y-142997917D03*
D12*
X214835000Y-139897917D03*
D14*
X214885000Y-145297917D03*
D15*
X214885000Y-145897917D03*
X211075000Y-145897917D03*
D16*
X211165000Y-145297917D03*
X212265000Y-145297917D03*
D15*
X212345000Y-145897917D03*
D16*
X213365000Y-145297917D03*
D15*
X213615000Y-145897917D03*
%TD*%
D12*
%TO.C,U16*%
X241130000Y-140000000D03*
D13*
X242185000Y-141400000D03*
X242185000Y-143100000D03*
D12*
X242400000Y-140000000D03*
X243670000Y-140000000D03*
D13*
X243885000Y-141400000D03*
X243885000Y-143100000D03*
D12*
X244940000Y-140000000D03*
D14*
X244990000Y-145400000D03*
D15*
X244990000Y-146000000D03*
X241180000Y-146000000D03*
D16*
X241270000Y-145400000D03*
X242370000Y-145400000D03*
D15*
X242450000Y-146000000D03*
D16*
X243470000Y-145400000D03*
D15*
X243720000Y-146000000D03*
%TD*%
D12*
%TO.C,U14*%
X226140000Y-139950000D03*
D13*
X227195000Y-141350000D03*
X227195000Y-143050000D03*
D12*
X227410000Y-139950000D03*
X228680000Y-139950000D03*
D13*
X228895000Y-141350000D03*
X228895000Y-143050000D03*
D12*
X229950000Y-139950000D03*
D14*
X230000000Y-145350000D03*
D15*
X230000000Y-145950000D03*
X226190000Y-145950000D03*
D16*
X226280000Y-145350000D03*
X227380000Y-145350000D03*
D15*
X227460000Y-145950000D03*
D16*
X228480000Y-145350000D03*
D15*
X228730000Y-145950000D03*
%TD*%
D12*
%TO.C,U15*%
X237840000Y-145750000D03*
D13*
X236785000Y-144350000D03*
X236785000Y-142650000D03*
D12*
X236570000Y-145750000D03*
X235300000Y-145750000D03*
D13*
X235085000Y-144350000D03*
X235085000Y-142650000D03*
D12*
X234030000Y-145750000D03*
D14*
X233980000Y-140350000D03*
D15*
X233980000Y-139750000D03*
X237790000Y-139750000D03*
D16*
X237700000Y-140350000D03*
X236600000Y-140350000D03*
D15*
X236520000Y-139750000D03*
D16*
X235500000Y-140350000D03*
D15*
X235250000Y-139750000D03*
%TD*%
D12*
%TO.C,U13*%
X222745000Y-145702799D03*
D13*
X221690000Y-144302799D03*
X221690000Y-142602799D03*
D12*
X221475000Y-145702799D03*
X220205000Y-145702799D03*
D13*
X219990000Y-144302799D03*
X219990000Y-142602799D03*
D12*
X218935000Y-145702799D03*
D14*
X218885000Y-140302799D03*
D15*
X218885000Y-139702799D03*
X222695000Y-139702799D03*
D16*
X222605000Y-140302799D03*
X221505000Y-140302799D03*
D15*
X221425000Y-139702799D03*
D16*
X220405000Y-140302799D03*
D15*
X220155000Y-139702799D03*
%TD*%
D17*
%TO.C,U2*%
X231050000Y-104850000D03*
X231050000Y-105350000D03*
X231050000Y-105850000D03*
X231050000Y-106350000D03*
X231050000Y-106850000D03*
X231050000Y-107350000D03*
X231050000Y-107850000D03*
X231050000Y-108350000D03*
X231050000Y-108850000D03*
X231050000Y-109350000D03*
X231050000Y-109850000D03*
X231050000Y-110350000D03*
D18*
X229550000Y-111850000D03*
X229050000Y-111850000D03*
X228550000Y-111850000D03*
X228050000Y-111850000D03*
X227550000Y-111850000D03*
X227050000Y-111850000D03*
X226550000Y-111850000D03*
X226050000Y-111850000D03*
X225550000Y-111850000D03*
X225050000Y-111850000D03*
X224550000Y-111850000D03*
X224050000Y-111850000D03*
D17*
X222550000Y-110350000D03*
X222550000Y-109850000D03*
X222550000Y-109350000D03*
X222550000Y-108850000D03*
X222550000Y-108350000D03*
X222550000Y-107850000D03*
X222550000Y-107350000D03*
X222550000Y-106850000D03*
X222550000Y-106350000D03*
X222550000Y-105850000D03*
X222550000Y-105350000D03*
X222550000Y-104850000D03*
D18*
X224050000Y-103350000D03*
X224550000Y-103350000D03*
X225050000Y-103350000D03*
X225550000Y-103350000D03*
X226050000Y-103350000D03*
X226550000Y-103350000D03*
X227050000Y-103350000D03*
X227550000Y-103350000D03*
X228050000Y-103350000D03*
X228550000Y-103350000D03*
X229050000Y-103350000D03*
X229550000Y-103350000D03*
%TD*%
D19*
%TO.C,U18*%
X226700000Y-122000000D03*
X226700000Y-122500000D03*
X226700000Y-123000000D03*
X226700000Y-123500000D03*
X226700000Y-124000000D03*
X226700000Y-124500000D03*
X226700000Y-125000000D03*
X226700000Y-125500000D03*
X226700000Y-126000000D03*
X226700000Y-126500000D03*
D20*
X227200000Y-127000000D03*
X227700000Y-127000000D03*
X228200000Y-127000000D03*
X228700000Y-127000000D03*
X229200000Y-127000000D03*
X229700000Y-127000000D03*
X230200000Y-127000000D03*
X230700000Y-127000000D03*
X231200000Y-127000000D03*
X231700000Y-127000000D03*
D19*
X232200000Y-126500000D03*
X232200000Y-126000000D03*
X232200000Y-125500000D03*
X232200000Y-125000000D03*
X232200000Y-124500000D03*
X232200000Y-124000000D03*
X232200000Y-123500000D03*
X232200000Y-123000000D03*
X232200000Y-122500000D03*
X232200000Y-122000000D03*
D20*
X231700000Y-121500000D03*
X231200000Y-121500000D03*
X230700000Y-121500000D03*
X230200000Y-121500000D03*
X229700000Y-121500000D03*
X229200000Y-121500000D03*
X228700000Y-121500000D03*
X228200000Y-121500000D03*
X227700000Y-121500000D03*
X227200000Y-121500000D03*
D21*
X227850000Y-122650000D03*
X227850000Y-124250000D03*
X227850000Y-125850000D03*
X229450000Y-122650000D03*
X229450000Y-124250000D03*
X229450000Y-125850000D03*
X231050000Y-122650000D03*
X231050000Y-124250000D03*
X231050000Y-125850000D03*
%TD*%
D22*
%TO.C,R9*%
X234050000Y-132237500D03*
X234050000Y-134062500D03*
%TD*%
D23*
%TO.C,R18*%
X217250000Y-110162500D03*
X217250000Y-108337500D03*
%TD*%
D24*
%TO.C,C7*%
X225200000Y-117875000D03*
X225200000Y-119425000D03*
%TD*%
D25*
%TO.C,R22*%
X216075000Y-100787500D03*
X217725000Y-100787500D03*
%TD*%
D26*
%TO.C,C12*%
X240585000Y-137850000D03*
X240585000Y-135950000D03*
%TD*%
D27*
%TO.C,Cin1*%
X262250000Y-108150000D03*
X259300000Y-108150000D03*
%TD*%
D25*
%TO.C,R15*%
X234375000Y-109450000D03*
X236025000Y-109450000D03*
%TD*%
D22*
%TO.C,R7*%
X218885000Y-132240299D03*
X218885000Y-134065299D03*
%TD*%
D28*
%TO.C,R29*%
X216935000Y-143577799D03*
X216935000Y-145227799D03*
%TD*%
D29*
%TO.C,Cout1*%
X250695000Y-105450000D03*
X253645000Y-105450000D03*
%TD*%
D30*
%TO.C,D2*%
X249325000Y-97087500D03*
X248025000Y-97087500D03*
X248675000Y-98862500D03*
%TD*%
D31*
%TO.C,C17*%
X219175000Y-97450000D03*
X219175000Y-95900000D03*
%TD*%
D24*
%TO.C,R1*%
X232100000Y-118225000D03*
X232100000Y-119775000D03*
%TD*%
D29*
%TO.C,Cout2*%
X250695000Y-108850000D03*
X253645000Y-108850000D03*
%TD*%
D32*
%TO.C,R17*%
X236020000Y-106145000D03*
X234370000Y-106145000D03*
%TD*%
D33*
%TO.C,C4*%
X236575000Y-125250000D03*
X235025000Y-125250000D03*
%TD*%
D28*
%TO.C,R33*%
X247082928Y-143653193D03*
X247082928Y-145303193D03*
%TD*%
D32*
%TO.C,R35*%
X228275000Y-96300000D03*
X226625000Y-96300000D03*
%TD*%
D24*
%TO.C,C5*%
X226800000Y-117875000D03*
X226800000Y-119425000D03*
%TD*%
D32*
%TO.C,R20*%
X224375000Y-113850000D03*
X222725000Y-113850000D03*
%TD*%
D33*
%TO.C,C19*%
X217687500Y-105812500D03*
X216137500Y-105812500D03*
%TD*%
D28*
%TO.C,R31*%
X232100000Y-143625000D03*
X232100000Y-145275000D03*
%TD*%
D34*
%TO.C,C_VDD24*%
X219025000Y-110200000D03*
X220575000Y-110200000D03*
%TD*%
D35*
%TO.C,R3*%
X235612500Y-136900000D03*
X229687500Y-136900000D03*
%TD*%
D11*
%TO.C,R25*%
X219312500Y-106637500D03*
X219312500Y-104987500D03*
%TD*%
D31*
%TO.C,C15*%
X232950000Y-101025000D03*
X232950000Y-99475000D03*
%TD*%
D33*
%TO.C,C18*%
X217675000Y-102487500D03*
X216125000Y-102487500D03*
%TD*%
D31*
%TO.C,Cboot1*%
X261440000Y-98075000D03*
X261440000Y-96525000D03*
%TD*%
D29*
%TO.C,Cout4*%
X250695000Y-115650000D03*
X253645000Y-115650000D03*
%TD*%
D24*
%TO.C,Rfbt1*%
X264740000Y-96525000D03*
X264740000Y-98075000D03*
%TD*%
D34*
%TO.C,C_VDD48*%
X232925000Y-104500000D03*
X234475000Y-104500000D03*
%TD*%
%TO.C,C8*%
X221825000Y-123550000D03*
X223375000Y-123550000D03*
%TD*%
D33*
%TO.C,C23*%
X231375000Y-99600000D03*
X229825000Y-99600000D03*
%TD*%
D25*
%TO.C,R27*%
X221675000Y-99100000D03*
X223325000Y-99100000D03*
%TD*%
D26*
%TO.C,C14*%
X210485000Y-137652799D03*
X210485000Y-135752799D03*
%TD*%
D28*
%TO.C,R34*%
X252435000Y-133975000D03*
X252435000Y-135625000D03*
%TD*%
D22*
%TO.C,R8*%
X232000000Y-140187500D03*
X232000000Y-142012500D03*
%TD*%
D34*
%TO.C,C_VBAT1*%
X232925000Y-102600000D03*
X234475000Y-102600000D03*
%TD*%
D31*
%TO.C,Cvcc1*%
X263090000Y-98075000D03*
X263090000Y-96525000D03*
%TD*%
D29*
%TO.C,Cout3*%
X250695000Y-112250000D03*
X253645000Y-112250000D03*
%TD*%
D24*
%TO.C,C6*%
X223600000Y-119750000D03*
X223600000Y-121300000D03*
%TD*%
D28*
%TO.C,R16*%
X220850000Y-95850000D03*
X220850000Y-97500000D03*
%TD*%
D34*
%TO.C,R5*%
X235025000Y-122050000D03*
X236575000Y-122050000D03*
%TD*%
D25*
%TO.C,R19*%
X234375000Y-107800000D03*
X236025000Y-107800000D03*
%TD*%
D28*
%TO.C,R14*%
X237600000Y-106175000D03*
X237600000Y-107825000D03*
%TD*%
D33*
%TO.C,C22*%
X231375000Y-97950000D03*
X229825000Y-97950000D03*
%TD*%
D25*
%TO.C,R21*%
X218375000Y-99075000D03*
X220025000Y-99075000D03*
%TD*%
D24*
%TO.C,Rfbb1*%
X266340000Y-98125000D03*
X266340000Y-99675000D03*
%TD*%
D33*
%TO.C,C_VDD36*%
X231025000Y-113700000D03*
X229475000Y-113700000D03*
%TD*%
%TO.C,Chf1*%
X262050000Y-110650000D03*
X260500000Y-110650000D03*
%TD*%
D36*
%TO.C,L1*%
X251695000Y-100050000D03*
X257145000Y-100050000D03*
%TD*%
D22*
%TO.C,R11*%
X249085000Y-132287500D03*
X249085000Y-134112500D03*
%TD*%
D24*
%TO.C,R13*%
X233700000Y-118225000D03*
X233700000Y-119775000D03*
%TD*%
D22*
%TO.C,R6*%
X216835000Y-139940299D03*
X216835000Y-141765299D03*
%TD*%
D26*
%TO.C,C13*%
X225600000Y-137800000D03*
X225600000Y-135900000D03*
%TD*%
D35*
%TO.C,R2*%
X250747500Y-136950000D03*
X244822500Y-136950000D03*
%TD*%
D37*
%TO.C,U1*%
X262495000Y-102750000D03*
D38*
X260590000Y-105450000D03*
X261860000Y-105450000D03*
X263130000Y-105450000D03*
X264400000Y-105450000D03*
X264400000Y-100050000D03*
X263130000Y-100050000D03*
X261860000Y-100050000D03*
X260590000Y-100050000D03*
%TD*%
D33*
%TO.C,C16*%
X220575000Y-108300000D03*
X219025000Y-108300000D03*
%TD*%
D11*
%TO.C,R23*%
X219300000Y-103300000D03*
X219300000Y-101650000D03*
%TD*%
D28*
%TO.C,R30*%
X222385000Y-133927799D03*
X222385000Y-135577799D03*
%TD*%
%TO.C,R32*%
X237450000Y-133979882D03*
X237450000Y-135629882D03*
%TD*%
D32*
%TO.C,R36*%
X228275000Y-97950000D03*
X226625000Y-97950000D03*
%TD*%
D35*
%TO.C,R12*%
X220497500Y-137002799D03*
X214572500Y-137002799D03*
%TD*%
D33*
%TO.C,C21*%
X231375000Y-96300000D03*
X229825000Y-96300000D03*
%TD*%
D25*
%TO.C,R24*%
X216087500Y-104137500D03*
X217737500Y-104137500D03*
%TD*%
D34*
%TO.C,R4*%
X235025000Y-123650000D03*
X236575000Y-123650000D03*
%TD*%
D31*
%TO.C,C1*%
X238200000Y-121975000D03*
X238200000Y-120425000D03*
%TD*%
D28*
%TO.C,R26*%
X224150000Y-95875000D03*
X224150000Y-97525000D03*
%TD*%
D32*
%TO.C,R37*%
X228275000Y-99600000D03*
X226625000Y-99600000D03*
%TD*%
D31*
%TO.C,C20*%
X222500000Y-97475000D03*
X222500000Y-95925000D03*
%TD*%
D22*
%TO.C,R10*%
X246985000Y-140295374D03*
X246985000Y-142120374D03*
%TD*%
M02*
