%TF.GenerationSoftware,KiCad,Pcbnew,10.0.1*%
%TF.CreationDate,2026-05-11T21:52:55+02:00*%
%TF.ProjectId,DrohneV1,44726f68-6e65-4563-912e-6b696361645f,rev?*%
%TF.SameCoordinates,Original*%
%TF.FileFunction,Copper,L2,Bot*%
%TF.FilePolarity,Positive*%
%FSLAX46Y46*%
G04 Gerber Fmt 4.6, Leading zero omitted, Abs format (unit mm)*
G04 Created by KiCad (PCBNEW 10.0.1) date 2026-05-11 21:52:55*
%MOMM*%
%LPD*%
G01*
G04 APERTURE LIST*
G04 Aperture macros list*
%AMRoundRect*
0 Rectangle with rounded corners*
0 $1 Rounding radius*
0 $2 $3 $4 $5 $6 $7 $8 $9 X,Y pos of 4 corners*
0 Add a 4 corners polygon primitive as box body*
4,1,4,$2,$3,$4,$5,$6,$7,$8,$9,$2,$3,0*
0 Add four circle primitives for the rounded corners*
1,1,$1+$1,$2,$3*
1,1,$1+$1,$4,$5*
1,1,$1+$1,$6,$7*
1,1,$1+$1,$8,$9*
0 Add four rect primitives between the rounded corners*
20,1,$1+$1,$2,$3,$4,$5,0*
20,1,$1+$1,$4,$5,$6,$7,0*
20,1,$1+$1,$6,$7,$8,$9,0*
20,1,$1+$1,$8,$9,$2,$3,0*%
G04 Aperture macros list end*
%TA.AperFunction,SMDPad,CuDef*%
%ADD10RoundRect,0.225000X-0.225000X-0.250000X0.225000X-0.250000X0.225000X0.250000X-0.225000X0.250000X0*%
%TD*%
%TA.AperFunction,SMDPad,CuDef*%
%ADD11RoundRect,0.250000X-0.325000X-0.650000X0.325000X-0.650000X0.325000X0.650000X-0.325000X0.650000X0*%
%TD*%
%TA.AperFunction,ComponentPad*%
%ADD12C,4.100000*%
%TD*%
%TA.AperFunction,ComponentPad*%
%ADD13RoundRect,1.025000X-1.025000X1.025000X-1.025000X-1.025000X1.025000X-1.025000X1.025000X1.025000X0*%
%TD*%
%TA.AperFunction,ComponentPad*%
%ADD14R,2.000000X0.900000*%
%TD*%
%TA.AperFunction,SMDPad,CuDef*%
%ADD15RoundRect,0.200000X-0.200000X-0.275000X0.200000X-0.275000X0.200000X0.275000X-0.200000X0.275000X0*%
%TD*%
%TA.AperFunction,SMDPad,CuDef*%
%ADD16RoundRect,0.250000X-0.300000X-0.300000X0.300000X-0.300000X0.300000X0.300000X-0.300000X0.300000X0*%
%TD*%
%TA.AperFunction,SMDPad,CuDef*%
%ADD17R,0.400000X0.350000*%
%TD*%
%TA.AperFunction,SMDPad,CuDef*%
%ADD18R,0.500000X1.100000*%
%TD*%
%TA.AperFunction,SMDPad,CuDef*%
%ADD19R,0.900000X0.450000*%
%TD*%
%TA.AperFunction,SMDPad,CuDef*%
%ADD20R,3.200000X0.600000*%
%TD*%
%TA.AperFunction,SMDPad,CuDef*%
%ADD21R,0.400000X0.450000*%
%TD*%
%TA.AperFunction,SMDPad,CuDef*%
%ADD22R,0.500000X0.750000*%
%TD*%
%TA.AperFunction,SMDPad,CuDef*%
%ADD23R,0.600000X0.800000*%
%TD*%
%TA.AperFunction,SMDPad,CuDef*%
%ADD24R,1.500000X1.500000*%
%TD*%
%TA.AperFunction,SMDPad,CuDef*%
%ADD25R,4.410000X3.750000*%
%TD*%
%TA.AperFunction,ComponentPad*%
%ADD26C,0.600000*%
%TD*%
%TA.AperFunction,HeatsinkPad*%
%ADD27R,4.500000X4.500000*%
%TD*%
%TA.AperFunction,ComponentPad*%
%ADD28R,1.700000X1.700000*%
%TD*%
%TA.AperFunction,ComponentPad*%
%ADD29C,1.700000*%
%TD*%
%TA.AperFunction,SMDPad,CuDef*%
%ADD30R,4.900000X2.950000*%
%TD*%
%TA.AperFunction,ViaPad*%
%ADD31C,0.600000*%
%TD*%
%TA.AperFunction,ViaPad*%
%ADD32C,0.500000*%
%TD*%
%TA.AperFunction,Conductor*%
%ADD33C,0.300000*%
%TD*%
%TA.AperFunction,Conductor*%
%ADD34C,0.400000*%
%TD*%
%TA.AperFunction,Conductor*%
%ADD35C,0.200000*%
%TD*%
%TA.AperFunction,Conductor*%
%ADD36C,0.500000*%
%TD*%
G04 APERTURE END LIST*
D10*
%TO.P,C10,1*%
%TO.N,GND*%
X252000000Y-137225000D03*
%TO.P,C10,2*%
%TO.N,/VAkku +*%
X253550000Y-137225000D03*
%TD*%
%TO.P,25VX7R1210,1*%
%TO.N,GND*%
X252000000Y-135625000D03*
%TO.P,25VX7R1210,2*%
%TO.N,/VAkku +*%
X253550000Y-135625000D03*
%TD*%
D11*
%TO.P,25VPolymer1,1*%
%TO.N,GND*%
X251300000Y-133575000D03*
%TO.P,25VPolymer1,2*%
%TO.N,/VAkku +*%
X254250000Y-133575000D03*
%TD*%
D10*
%TO.P,C9,1*%
%TO.N,GND*%
X252000000Y-138825000D03*
%TO.P,C9,2*%
%TO.N,/VAkku +*%
X253550000Y-138825000D03*
%TD*%
D11*
%TO.P,25VPolymer2,1*%
%TO.N,GND*%
X251300000Y-131175000D03*
%TO.P,25VPolymer2,2*%
%TO.N,/VAkku +*%
X254250000Y-131175000D03*
%TD*%
D12*
%TO.P,J3,2,Pin_2_2*%
%TO.N,/VAkku -*%
X260050000Y-128775000D03*
D13*
%TO.P,J3,1,Pin_1_1*%
%TO.N,/VAkku +*%
X260050000Y-121575000D03*
D14*
%TO.P,J3,*%
%TO.N,*%
X266050000Y-131925000D03*
X266050000Y-118425000D03*
%TD*%
D15*
%TO.P,R28,1*%
%TO.N,/VAkku +*%
X261725000Y-124850000D03*
%TO.P,R28,2*%
%TO.N,Net-(D1-A)*%
X263375000Y-124850000D03*
%TD*%
D16*
%TO.P,D1,2,A_2*%
%TO.N,Net-(D1-A)*%
X263200000Y-132750000D03*
%TO.P,D1,1,K_1*%
%TO.N,/VAkku -*%
X260400000Y-132750000D03*
%TD*%
D17*
%TO.P,U12,S,S_S*%
%TO.N,/VAkku -*%
X260380000Y-134600000D03*
D18*
X260380000Y-134925000D03*
D19*
X260130000Y-135200000D03*
D17*
X259110000Y-134600000D03*
D18*
X259110000Y-134925000D03*
D19*
X259030000Y-135200000D03*
D20*
X259029000Y-135175000D03*
D19*
X257930000Y-135200000D03*
D17*
X257840000Y-134600000D03*
D18*
X257840000Y-134925000D03*
D17*
%TO.P,U12,G,G_G*%
%TO.N,Net-(D1-A)*%
X261650000Y-134600000D03*
D18*
X261650000Y-134925000D03*
D21*
X261650000Y-135200000D03*
D22*
%TO.P,U12,D,D_D*%
%TO.N,GND*%
X261600000Y-140600000D03*
D23*
X261600000Y-140625000D03*
D24*
X260545000Y-137500000D03*
X260545000Y-139200000D03*
D22*
X260330000Y-140600000D03*
D23*
X260330000Y-140625000D03*
D25*
X259695000Y-138350000D03*
D22*
X259060000Y-140600000D03*
D23*
X259060000Y-140625000D03*
D24*
X258845000Y-137500000D03*
X258845000Y-139200000D03*
D22*
X257790000Y-140600000D03*
D23*
X257790000Y-140625000D03*
%TD*%
D26*
%TO.P,U18,41,HeatPad_41*%
%TO.N,GND*%
X227500000Y-123450000D03*
X227500000Y-125050000D03*
X228650000Y-122300000D03*
X228650000Y-123450000D03*
X228650000Y-125050000D03*
X228650000Y-126200000D03*
D27*
X229450000Y-124250000D03*
D26*
X230250000Y-122300000D03*
X230250000Y-123450000D03*
X230250000Y-125050000D03*
X230250000Y-126200000D03*
X231400000Y-123450000D03*
X231400000Y-125050000D03*
%TD*%
D28*
%TO.P,J1,1,Pin_1_1*%
%TO.N,GND*%
X244710000Y-94410000D03*
D29*
%TO.P,J1,2,Pin_2_2*%
%TO.N,/DShot*%
X247250000Y-94410000D03*
%TO.P,J1,3,Pin_3_3*%
%TO.N,/3V3 Ext*%
X249790000Y-94410000D03*
%TD*%
D26*
%TO.P,U1,9,GND_9*%
%TO.N,GND*%
X260545000Y-103400000D03*
X261845000Y-103400000D03*
X263145000Y-103400000D03*
X264445000Y-103400000D03*
D30*
X262495000Y-102750000D03*
D26*
X260545000Y-102100000D03*
X261845000Y-102100000D03*
X263145000Y-102100000D03*
X264445000Y-102100000D03*
%TD*%
D31*
%TO.N,GND*%
X234750000Y-90050000D03*
X234700000Y-86950000D03*
X247300000Y-87350000D03*
%TO.N,+3.3V*%
X233875735Y-117274265D03*
%TO.N,GND*%
X232275000Y-116800000D03*
%TO.N,/ENABLE*%
X232874265Y-120575735D03*
X232874265Y-120575735D03*
%TO.N,+3.3V*%
X236375000Y-118225000D03*
%TO.N,GND*%
X221325000Y-111175000D03*
%TO.N,GNDA*%
X220385735Y-107284265D03*
X214837500Y-105812500D03*
X214700000Y-102500000D03*
%TO.N,/SOB*%
X229000000Y-98786271D03*
%TO.N,GND*%
X257800000Y-108850000D03*
X257800000Y-107500000D03*
%TO.N,/Phase A*%
X213300000Y-117300000D03*
%TO.N,/Phase C*%
X215023530Y-117326470D03*
%TO.N,/Phase B*%
X214174265Y-117325735D03*
%TO.N,GNDA*%
X224150000Y-94200000D03*
X212600000Y-99200000D03*
X214700000Y-100800000D03*
X214762500Y-104137500D03*
X232950000Y-98000000D03*
%TO.N,GND*%
X259675000Y-142875000D03*
X251050000Y-125400000D03*
X251050000Y-123900000D03*
X249550000Y-125400000D03*
X262475000Y-142850000D03*
X259700000Y-144025000D03*
X258300000Y-144025000D03*
X264075000Y-144025000D03*
X264050000Y-142875000D03*
X264050000Y-141500000D03*
X258275000Y-142875000D03*
X261100000Y-142850000D03*
X264050000Y-138775000D03*
X262500000Y-144000000D03*
X264075000Y-137575000D03*
X264050000Y-140150000D03*
X261125000Y-144000000D03*
X255200000Y-115000000D03*
X255200000Y-116350000D03*
X235500000Y-101700000D03*
X273400000Y-144200000D03*
X273450000Y-137550000D03*
X273400000Y-130925000D03*
D32*
%TO.N,Net-(U18-SPB)*%
X235600000Y-134725000D03*
%TO.N,GND*%
X224950000Y-131500000D03*
X221250000Y-131050000D03*
D31*
%TO.N,Net-(U18-GLB)*%
X232600000Y-132250000D03*
X228079469Y-127769061D03*
%TO.N,+3.3V*%
X236375000Y-114350000D03*
X248775000Y-100875000D03*
X232417892Y-114332108D03*
X239306765Y-100906765D03*
X236650000Y-84000000D03*
%TO.N,GND*%
X273525000Y-107950000D03*
X273400000Y-116925000D03*
X263090000Y-95260000D03*
X242535000Y-137350000D03*
X258900000Y-110600000D03*
X255200000Y-108175000D03*
X227450000Y-136504882D03*
X240900000Y-119800000D03*
X255200000Y-112925000D03*
X243335000Y-136550000D03*
X212385000Y-136552799D03*
X223000000Y-117600000D03*
X213185000Y-137352799D03*
X243335000Y-135750000D03*
X238650000Y-113500000D03*
X220600000Y-126850000D03*
X213185000Y-135752799D03*
X255200000Y-104850000D03*
X212385000Y-138152799D03*
X238700000Y-115550000D03*
X243335000Y-138150000D03*
X226050000Y-128100000D03*
X236475000Y-94965000D03*
X236400000Y-104300000D03*
X211600000Y-114400000D03*
X255875000Y-91600000D03*
X239100000Y-109700000D03*
X273400000Y-124250000D03*
X266345000Y-103450000D03*
X213185000Y-138152799D03*
X269300000Y-95150000D03*
X266345000Y-101550000D03*
X255200000Y-111575000D03*
X236525000Y-98325000D03*
X228250000Y-135704882D03*
X221700000Y-118900000D03*
X227450000Y-135704882D03*
X213185000Y-136552799D03*
X227450000Y-137304882D03*
X221700000Y-120275000D03*
X233200000Y-127326202D03*
X255200000Y-106200000D03*
X218925000Y-113525000D03*
X273500000Y-99450000D03*
X242535000Y-136550000D03*
X228250000Y-138104882D03*
X237600000Y-104300000D03*
X228250000Y-136504882D03*
X267800000Y-99675000D03*
X242535000Y-138150000D03*
X269250000Y-91775000D03*
X242535000Y-135750000D03*
X236475000Y-92425000D03*
X234250735Y-115649265D03*
X228250000Y-137304882D03*
X227450000Y-138104882D03*
X265275000Y-91750000D03*
X212385000Y-137352799D03*
X238700000Y-117700000D03*
X243335000Y-137350000D03*
X237600000Y-103100000D03*
X255200000Y-109525000D03*
X245075000Y-102675000D03*
X239100000Y-111200000D03*
X237700000Y-111200000D03*
X273500000Y-91750000D03*
X240900000Y-117700000D03*
X220825000Y-113550000D03*
X212385000Y-135752799D03*
X221700000Y-117600000D03*
X266345000Y-105350000D03*
X221700000Y-116200000D03*
%TO.N,GNDA*%
X220850000Y-94150000D03*
X222500000Y-94150000D03*
X226900000Y-92275000D03*
X219175000Y-94150000D03*
X215950000Y-97900000D03*
X211875000Y-105850000D03*
X223450000Y-87525000D03*
X229600000Y-92300000D03*
X231350000Y-94750000D03*
X215750000Y-87500000D03*
X211950000Y-102350000D03*
X211025000Y-94975000D03*
X232950000Y-96300000D03*
%TO.N,/VAkku +*%
X210085000Y-140602799D03*
X209625000Y-123175000D03*
X239385000Y-143950000D03*
X225250000Y-143850000D03*
X240185000Y-140750000D03*
X224450000Y-141450000D03*
X225250000Y-140650000D03*
X210085000Y-142202799D03*
X225250000Y-139850000D03*
X210085000Y-143802799D03*
X225250000Y-142250000D03*
X209285000Y-143002799D03*
X209625000Y-122250000D03*
X239385000Y-142350000D03*
X224450000Y-142250000D03*
X225250000Y-143050000D03*
X240185000Y-143950000D03*
X240185000Y-141550000D03*
X224450000Y-139850000D03*
X210085000Y-143002799D03*
X239385000Y-139950000D03*
X209285000Y-141402799D03*
X224450000Y-143050000D03*
X210085000Y-139802799D03*
X239385000Y-143150000D03*
X209285000Y-139802799D03*
X224450000Y-143850000D03*
X209285000Y-143802799D03*
X240185000Y-139950000D03*
X224450000Y-140650000D03*
X225250000Y-141450000D03*
X239385000Y-140750000D03*
X209625000Y-109200000D03*
X209285000Y-140602799D03*
X210085000Y-141402799D03*
X239385000Y-141550000D03*
X240185000Y-143150000D03*
X240185000Y-142350000D03*
X209285000Y-142202799D03*
%TO.N,/ENABLE*%
X234999265Y-110450735D03*
%TO.N,/INLA*%
X225604557Y-107104557D03*
X229349265Y-117850735D03*
%TO.N,/INLB*%
X228974265Y-119175735D03*
X224825000Y-107325000D03*
%TO.N,/INLC*%
X224000000Y-107500000D03*
X227774095Y-119702231D03*
%TO.N,/INHA*%
X229529796Y-117071368D03*
X229500000Y-114800000D03*
%TO.N,/INHB*%
X228700003Y-117200000D03*
X228400000Y-114276470D03*
%TO.N,/INHC*%
X227900000Y-117200000D03*
X228202757Y-113354227D03*
%TO.N,/SWDIO*%
X232721113Y-110783319D03*
X241119146Y-105506466D03*
%TO.N,/SWCLK*%
X232355754Y-110071619D03*
X240511598Y-104985996D03*
%TO.N,/SWO*%
X232149999Y-109298529D03*
X240100000Y-104300000D03*
%TO.N,/Phase A*%
X217950000Y-126050000D03*
%TO.N,/Phase C*%
X230300000Y-128105634D03*
%TO.N,/SOC*%
X229000000Y-97100000D03*
X234474912Y-126616372D03*
%TO.N,/Phase B*%
X227274686Y-128923214D03*
X230500000Y-132150000D03*
%TO.N,Net-(U18-SPB)*%
X227364657Y-128128290D03*
%TO.N,/SOB*%
X233828977Y-126126202D03*
%TO.N,/SOA*%
X229000000Y-100350000D03*
X233226387Y-125600000D03*
%TD*%
%TO.N,+3.3V*%
D33*
X238200000Y-85400000D02*
X238200000Y-99800000D01*
X236650000Y-84000000D02*
X236800000Y-84000000D01*
X236800000Y-84000000D02*
X238200000Y-85400000D01*
X238200000Y-99800000D02*
X239306765Y-100906765D01*
%TO.N,Net-(U18-GLB)*%
D34*
X228111177Y-127800769D02*
X228079469Y-127769061D01*
X228132821Y-127800769D02*
X228111177Y-127800769D01*
X232569552Y-132237500D02*
X228132821Y-127800769D01*
X232600000Y-132250000D02*
X232587500Y-132237500D01*
X232587500Y-132237500D02*
X232569552Y-132237500D01*
%TO.N,+3.3V*%
D33*
X235250000Y-117100000D02*
X236375000Y-118225000D01*
X233875735Y-117274265D02*
X234050000Y-117100000D01*
X234050000Y-117100000D02*
X235250000Y-117100000D01*
%TO.N,/ENABLE*%
D35*
X232874265Y-120549265D02*
X231400000Y-119075000D01*
X232874265Y-120575735D02*
X232874265Y-120549265D01*
X231400000Y-114250000D02*
X234999265Y-110650735D01*
X231400000Y-119075000D02*
X231400000Y-114250000D01*
X234999265Y-110650735D02*
X234999265Y-110450735D01*
%TO.N,/SOA*%
X233226387Y-122907759D02*
X233226387Y-125600000D01*
X229000000Y-100350000D02*
X229000000Y-101062547D01*
X229700000Y-101762547D02*
X229700000Y-113059314D01*
X229700000Y-113059314D02*
X230200000Y-113559314D01*
X229000000Y-101062547D02*
X229700000Y-101762547D01*
X230200000Y-113559314D02*
X230200000Y-119881372D01*
X230200000Y-119881372D02*
X233226387Y-122907759D01*
%TO.N,/SOB*%
X230600000Y-119715686D02*
X233828977Y-122944663D01*
X230100000Y-112893628D02*
X230600000Y-113393628D01*
X230100000Y-99886271D02*
X230100000Y-112893628D01*
X230600000Y-113393628D02*
X230600000Y-119715686D01*
X229000000Y-98786271D02*
X230100000Y-99886271D01*
X233828977Y-122944663D02*
X233828977Y-126126202D01*
%TO.N,/SOC*%
X234474912Y-126525088D02*
X234474912Y-126616372D01*
X234550000Y-126450000D02*
X234474912Y-126525088D01*
X231000000Y-113227942D02*
X231000000Y-119550000D01*
X231000000Y-119550000D02*
X234550000Y-123100000D01*
X230500000Y-98525000D02*
X230500000Y-112727942D01*
X234550000Y-123100000D02*
X234550000Y-126450000D01*
X229075000Y-97100000D02*
X230500000Y-98525000D01*
X230500000Y-112727942D02*
X231000000Y-113227942D01*
X229000000Y-97100000D02*
X229075000Y-97100000D01*
%TO.N,/Phase C*%
X229244366Y-127050000D02*
X230300000Y-128105634D01*
X224750000Y-127050000D02*
X229244366Y-127050000D01*
X215949265Y-118249265D02*
X224750000Y-127050000D01*
X215946325Y-118249265D02*
X215949265Y-118249265D01*
X215023530Y-117326470D02*
X215946325Y-118249265D01*
%TO.N,/Phase B*%
X226764657Y-128413185D02*
X227274686Y-128923214D01*
X226248529Y-127450000D02*
X226764657Y-127966128D01*
X215100000Y-118250000D02*
X224300000Y-127450000D01*
X224300000Y-127450000D02*
X226248529Y-127450000D01*
X226764657Y-127966128D02*
X226764657Y-128413185D01*
X215098530Y-118250000D02*
X215100000Y-118250000D01*
X214174265Y-117325735D02*
X215098530Y-118250000D01*
%TO.N,/Phase A*%
X217950000Y-121950000D02*
X217950000Y-126050000D01*
X213300000Y-117300000D02*
X217950000Y-121950000D01*
%TO.N,GND*%
X248080000Y-130870000D02*
X248080000Y-130900000D01*
%TO.N,Net-(D1-A)*%
D34*
X261650000Y-134000000D02*
X261650000Y-134925000D01*
X263375000Y-124850000D02*
X263375000Y-132275000D01*
X263375000Y-132275000D02*
X261650000Y-134000000D01*
%TO.N,Net-(U18-SPB)*%
D35*
X233925000Y-134725000D02*
X235600000Y-134725000D01*
X227364657Y-128164657D02*
X233925000Y-134725000D01*
X227364657Y-128128290D02*
X227364657Y-128164657D01*
%TO.N,GND*%
X234111202Y-127326202D02*
X242535000Y-135750000D01*
X233200000Y-127326202D02*
X234111202Y-127326202D01*
%TO.N,/Phase B*%
X228151472Y-129800000D02*
X227274686Y-128923214D01*
X230500000Y-132150000D02*
X228151472Y-129801472D01*
X228151472Y-129801472D02*
X228151472Y-129800000D01*
%TO.N,/VAkku +*%
X209625000Y-109200000D02*
X209625000Y-122250000D01*
D36*
X209625000Y-139342799D02*
X210085000Y-139802799D01*
X209625000Y-122250000D02*
X209625000Y-139342799D01*
%TO.N,GND*%
D35*
X220837799Y-128100000D02*
X213185000Y-135752799D01*
X226050000Y-128100000D02*
X220837799Y-128100000D01*
%TO.N,+3.3V*%
D33*
X232417892Y-114332108D02*
X236357108Y-114332108D01*
D35*
X239313530Y-100900000D02*
X239306765Y-100906765D01*
X236357108Y-114332108D02*
X236375000Y-114350000D01*
D36*
X248750000Y-100900000D02*
X239313530Y-100900000D01*
D35*
X248775000Y-100875000D02*
X248750000Y-100900000D01*
%TO.N,GND*%
X233200000Y-127326202D02*
X233223798Y-127350000D01*
X226000000Y-128100000D02*
X225950000Y-128150000D01*
X226050000Y-128100000D02*
X226000000Y-128100000D01*
%TO.N,/INLA*%
X226000000Y-116148529D02*
X227701471Y-117850000D01*
X225604557Y-107104557D02*
X225695434Y-107104557D01*
X227701471Y-117850000D02*
X229348530Y-117850000D01*
X226000000Y-107409123D02*
X226000000Y-116148529D01*
X229348530Y-117850000D02*
X229349265Y-117850735D01*
X225695434Y-107104557D02*
X226000000Y-107409123D01*
%TO.N,/INLB*%
X225000000Y-115950000D02*
X228225735Y-119175735D01*
X228225735Y-119175735D02*
X228974265Y-119175735D01*
X225000000Y-107500000D02*
X225000000Y-115950000D01*
X224825000Y-107325000D02*
X225000000Y-107500000D01*
%TO.N,/INLC*%
X224000000Y-115928136D02*
X224000000Y-107500000D01*
X227774095Y-119702231D02*
X224000000Y-115928136D01*
%TO.N,/INHA*%
X229628632Y-117071368D02*
X229529796Y-117071368D01*
X229500000Y-114800000D02*
X229500000Y-116942736D01*
X229500000Y-116942736D02*
X229628632Y-117071368D01*
%TO.N,/INHB*%
X228700000Y-117199997D02*
X228700000Y-115500000D01*
X228700003Y-117200000D02*
X228700000Y-117199997D01*
X228400000Y-114276470D02*
X228400000Y-114102941D01*
X228400000Y-115200000D02*
X228400000Y-114276470D01*
X228700000Y-115500000D02*
X228400000Y-115200000D01*
%TO.N,/INHC*%
X227900000Y-117200000D02*
X227955486Y-117144514D01*
X228202757Y-113354227D02*
X228329748Y-113227236D01*
X227900000Y-117200000D02*
X227800000Y-117100000D01*
X228329748Y-113227236D02*
X228329748Y-113213508D01*
X227800000Y-117100000D02*
X227800000Y-113756984D01*
X227800000Y-113756984D02*
X228202757Y-113354227D01*
%TO.N,/SWDIO*%
X241119146Y-105506466D02*
X241009612Y-105616000D01*
X237843274Y-108800000D02*
X234176471Y-108800000D01*
X232898055Y-110783319D02*
X232721113Y-110783319D01*
X233400000Y-110281374D02*
X232898055Y-110783319D01*
X234176471Y-108800000D02*
X233400000Y-109576471D01*
X233400000Y-109576471D02*
X233400000Y-110281374D01*
X241009612Y-105616000D02*
X241009612Y-105633662D01*
X241009612Y-105633662D02*
X237843274Y-108800000D01*
%TO.N,/SWCLK*%
X239859998Y-105640002D02*
X237200000Y-108300000D01*
X234100000Y-108300000D02*
X232355754Y-110044246D01*
X240511598Y-104985996D02*
X239859998Y-105637596D01*
X239859998Y-105637596D02*
X239859998Y-105640002D01*
X237200000Y-108300000D02*
X234100000Y-108300000D01*
X232355754Y-110044246D02*
X232355754Y-110071619D01*
%TO.N,/SWO*%
X233648528Y-107800000D02*
X232149999Y-109298529D01*
X240100000Y-104300000D02*
X236600000Y-107800000D01*
X236600000Y-107800000D02*
X233648528Y-107800000D01*
%TD*%
%TA.AperFunction,Conductor*%
%TO.N,/VAkku +*%
G36*
X262059227Y-119400324D02*
G01*
X262094161Y-119405353D01*
X262109154Y-119409758D01*
X262124142Y-119419391D01*
X262141230Y-119424407D01*
X262167905Y-119447518D01*
X262169088Y-119448883D01*
X262196554Y-119503759D01*
X262198199Y-119511328D01*
X262201028Y-119537708D01*
X262198973Y-125258294D01*
X262193936Y-125293230D01*
X262189527Y-125308224D01*
X262179889Y-125323212D01*
X262174869Y-125340299D01*
X262151752Y-125366969D01*
X262150399Y-125368141D01*
X262095493Y-125395598D01*
X262092564Y-125396233D01*
X262087895Y-125397245D01*
X262061490Y-125400062D01*
X258705426Y-125396628D01*
X258705424Y-125396629D01*
X258568502Y-125533271D01*
X258507145Y-125566693D01*
X258480911Y-125569500D01*
X256895454Y-125569500D01*
X256878801Y-125571273D01*
X256789012Y-125580833D01*
X256737943Y-125591834D01*
X256636267Y-125625333D01*
X256636261Y-125625336D01*
X256514911Y-125702633D01*
X256461915Y-125748182D01*
X256367264Y-125856528D01*
X256306964Y-125987169D01*
X256287010Y-126054125D01*
X256265959Y-126196456D01*
X256228475Y-135473451D01*
X256239808Y-135581954D01*
X256251012Y-135633959D01*
X256251016Y-135633975D01*
X256285357Y-135737503D01*
X256363141Y-135858537D01*
X256363150Y-135858548D01*
X256408894Y-135911340D01*
X256408897Y-135911343D01*
X256408901Y-135911347D01*
X256517635Y-136005567D01*
X256517638Y-136005568D01*
X256517639Y-136005569D01*
X256631836Y-136057722D01*
X256684640Y-136103477D01*
X256704324Y-136170517D01*
X256704324Y-136170643D01*
X256701208Y-139217911D01*
X256688281Y-151857799D01*
X256683222Y-151892728D01*
X256678803Y-151907721D01*
X256640969Y-151966461D01*
X256640958Y-151966470D01*
X256639563Y-151967676D01*
X256584773Y-151995049D01*
X256577269Y-151996678D01*
X256550963Y-151999500D01*
X208942330Y-151999500D01*
X208942325Y-151999499D01*
X208942323Y-151999500D01*
X208907389Y-151994475D01*
X208892390Y-151990070D01*
X208833644Y-151952327D01*
X208833615Y-151952293D01*
X208833614Y-151952293D01*
X208833613Y-151952291D01*
X208832457Y-151950958D01*
X208804977Y-151896083D01*
X208803332Y-151888521D01*
X208800500Y-151862168D01*
X208800500Y-139235740D01*
X208805523Y-139200804D01*
X208809927Y-139185806D01*
X208847672Y-139127055D01*
X208847700Y-139127030D01*
X208847699Y-139127030D01*
X208849026Y-139125880D01*
X208903937Y-139098393D01*
X208911531Y-139096743D01*
X208937924Y-139093919D01*
X210456170Y-139094837D01*
X210491095Y-139099879D01*
X210507466Y-139104697D01*
X210564469Y-139140524D01*
X210573401Y-139150410D01*
X210591921Y-139177330D01*
X213476672Y-144850000D01*
X220776493Y-144850000D01*
X223499741Y-139235917D01*
X223499862Y-139235739D01*
X223519503Y-139206684D01*
X223530540Y-139194529D01*
X223588791Y-139158514D01*
X223596388Y-139156379D01*
X223602635Y-139154624D01*
X223636181Y-139150000D01*
X226063084Y-139150000D01*
X226098016Y-139155021D01*
X226113767Y-139159646D01*
X226128506Y-139168998D01*
X226144657Y-139173538D01*
X226171597Y-139196339D01*
X226181137Y-139207094D01*
X226199940Y-139235261D01*
X226200261Y-139235922D01*
X228947762Y-144900000D01*
X235873507Y-144900000D01*
X238621010Y-139235917D01*
X238621131Y-139235739D01*
X238640772Y-139206684D01*
X238651809Y-139194529D01*
X238710060Y-139158514D01*
X238717657Y-139156379D01*
X238723904Y-139154624D01*
X238757450Y-139150000D01*
X240763083Y-139150000D01*
X240798015Y-139155021D01*
X240813766Y-139159646D01*
X240828505Y-139168998D01*
X240844656Y-139173538D01*
X240871596Y-139196339D01*
X240881136Y-139207094D01*
X240899939Y-139235261D01*
X240900260Y-139235922D01*
X243672016Y-144950000D01*
X250353358Y-144950000D01*
X253089780Y-139308763D01*
X253110066Y-119540587D01*
X253115125Y-119505666D01*
X253119545Y-119490670D01*
X253157366Y-119431947D01*
X253158759Y-119430742D01*
X253213599Y-119403344D01*
X253219108Y-119402149D01*
X253221114Y-119401715D01*
X253247408Y-119398899D01*
X262059227Y-119400324D01*
G37*
%TD.AperFunction*%
%TD*%
%TA.AperFunction,Conductor*%
%TO.N,GND*%
G36*
X226180772Y-118958588D02*
G01*
X226187236Y-118964607D01*
X226926911Y-119704282D01*
X226948062Y-119732536D01*
X226963949Y-119761630D01*
X226976735Y-119796866D01*
X227004354Y-119935715D01*
X227004355Y-119935719D01*
X227004356Y-119935722D01*
X227004359Y-119935732D01*
X227004362Y-119935740D01*
X227004367Y-119935754D01*
X227064693Y-120081396D01*
X227064698Y-120081405D01*
X227064708Y-120081422D01*
X227152306Y-120212521D01*
X227152307Y-120212522D01*
X227152309Y-120212525D01*
X227263796Y-120324012D01*
X227263802Y-120324017D01*
X227263806Y-120324020D01*
X227394909Y-120411621D01*
X227394922Y-120411628D01*
X227540593Y-120471966D01*
X227540598Y-120471968D01*
X227665889Y-120496890D01*
X227687628Y-120501214D01*
X227690345Y-120501935D01*
X227695250Y-120502731D01*
X227852939Y-120502731D01*
X227857059Y-120502731D01*
X227864909Y-120500349D01*
X228007592Y-120471968D01*
X228153274Y-120411625D01*
X228284384Y-120324020D01*
X228395884Y-120212520D01*
X228483489Y-120081410D01*
X228514956Y-120005439D01*
X228532961Y-119975096D01*
X228542768Y-119962926D01*
X228600107Y-119923094D01*
X228601831Y-119922520D01*
X228663050Y-119918128D01*
X228670676Y-119919503D01*
X228696095Y-119926967D01*
X228740768Y-119945472D01*
X228887778Y-119974714D01*
X228890512Y-119975438D01*
X228895420Y-119976235D01*
X229053109Y-119976235D01*
X229057229Y-119976235D01*
X229065079Y-119973853D01*
X229207762Y-119945472D01*
X229353444Y-119885129D01*
X229391792Y-119859505D01*
X229423615Y-119844280D01*
X229431633Y-119841769D01*
X229501490Y-119840524D01*
X229560932Y-119877243D01*
X229586320Y-119920894D01*
X229598322Y-119956901D01*
X229600459Y-119964017D01*
X229640422Y-120113155D01*
X229640425Y-120113162D01*
X229661981Y-120150497D01*
X229661981Y-120150500D01*
X229661983Y-120150500D01*
X229719476Y-120250083D01*
X229719477Y-120250084D01*
X229719482Y-120250090D01*
X229719488Y-120250097D01*
X229840314Y-120370923D01*
X229840359Y-120370966D01*
X232576961Y-123107568D01*
X232598110Y-123135819D01*
X232610718Y-123158908D01*
X232625887Y-123218337D01*
X232625887Y-125002404D01*
X232620863Y-125037341D01*
X232611523Y-125069148D01*
X232595649Y-125103102D01*
X232517000Y-125220807D01*
X232516990Y-125220824D01*
X232516985Y-125220833D01*
X232456651Y-125366496D01*
X232456644Y-125366527D01*
X232425887Y-125521150D01*
X232425887Y-125521153D01*
X232425887Y-125678846D01*
X232425887Y-125678848D01*
X232425886Y-125678848D01*
X232456644Y-125833471D01*
X232456651Y-125833502D01*
X232516985Y-125979165D01*
X232516990Y-125979174D01*
X232517000Y-125979191D01*
X232604598Y-126110290D01*
X232604599Y-126110291D01*
X232604604Y-126110297D01*
X232716088Y-126221781D01*
X232716094Y-126221786D01*
X232716098Y-126221789D01*
X232847201Y-126309390D01*
X232847214Y-126309397D01*
X232956469Y-126354651D01*
X232992890Y-126369737D01*
X232997882Y-126370729D01*
X233008003Y-126374667D01*
X233011053Y-126377018D01*
X233020519Y-126380353D01*
X233023532Y-126381929D01*
X233023157Y-126382644D01*
X233038980Y-126389683D01*
X233041261Y-126391203D01*
X233044081Y-126392874D01*
X233043992Y-126393024D01*
X233044010Y-126393036D01*
X233043785Y-126393372D01*
X233043599Y-126393686D01*
X233052878Y-126402398D01*
X233066742Y-126409175D01*
X233089145Y-126436447D01*
X233090193Y-126438176D01*
X233098713Y-126454998D01*
X233121913Y-126511007D01*
X233120550Y-126511571D01*
X233129667Y-126540203D01*
X233129811Y-126540172D01*
X233130143Y-126541699D01*
X233130720Y-126543509D01*
X233131665Y-126550952D01*
X233129777Y-126551191D01*
X233132777Y-126559017D01*
X233127286Y-126585395D01*
X233125373Y-126612271D01*
X233120273Y-126619087D01*
X233118539Y-126627421D01*
X233099661Y-126646641D01*
X233083520Y-126668218D01*
X233074267Y-126672495D01*
X233069580Y-126677268D01*
X233036624Y-126689899D01*
X233027830Y-126691895D01*
X233000394Y-126694971D01*
X229808065Y-126695263D01*
X229773132Y-126690243D01*
X229747894Y-126682835D01*
X229695139Y-126651537D01*
X229613083Y-126569481D01*
X229613078Y-126569477D01*
X229547164Y-126531421D01*
X229547164Y-126531422D01*
X229511209Y-126510664D01*
X229511208Y-126510663D01*
X229476152Y-126490423D01*
X229437969Y-126480192D01*
X229323423Y-126449499D01*
X229323420Y-126449499D01*
X229155809Y-126449499D01*
X229155746Y-126449500D01*
X226098440Y-126449500D01*
X226087635Y-126446327D01*
X226076966Y-118935334D01*
X226117221Y-118929553D01*
X226180772Y-118958588D01*
G37*
%TD.AperFunction*%
%TA.AperFunction,Conductor*%
G36*
X236364907Y-83005521D02*
G01*
X236373539Y-83008055D01*
X236385791Y-83015927D01*
X236399967Y-83019277D01*
X236414595Y-83034435D01*
X236432320Y-83045825D01*
X236438372Y-83059075D01*
X236448485Y-83069555D01*
X236452595Y-83090214D01*
X236461349Y-83109379D01*
X236459276Y-83123796D01*
X236462119Y-83138081D01*
X236454406Y-83157684D01*
X236451410Y-83178538D01*
X236441407Y-83190727D01*
X236436540Y-83203100D01*
X236411143Y-83227609D01*
X236406990Y-83230604D01*
X236381911Y-83244590D01*
X236270840Y-83290596D01*
X236270822Y-83290604D01*
X236270807Y-83290613D01*
X236139708Y-83378211D01*
X236139707Y-83378212D01*
X236139701Y-83378217D01*
X236028217Y-83489701D01*
X236028212Y-83489707D01*
X236028211Y-83489708D01*
X235940613Y-83620807D01*
X235940603Y-83620824D01*
X235940598Y-83620833D01*
X235880264Y-83766496D01*
X235880257Y-83766527D01*
X235849500Y-83921150D01*
X235849500Y-83921153D01*
X235849500Y-84078846D01*
X235849500Y-84078848D01*
X235849499Y-84078848D01*
X235880257Y-84233471D01*
X235880264Y-84233502D01*
X235940598Y-84379165D01*
X235940603Y-84379174D01*
X235940613Y-84379191D01*
X236028211Y-84510290D01*
X236028212Y-84510291D01*
X236028217Y-84510297D01*
X236139701Y-84621781D01*
X236139707Y-84621786D01*
X236139711Y-84621789D01*
X236270814Y-84709390D01*
X236270827Y-84709397D01*
X236416498Y-84769735D01*
X236416503Y-84769737D01*
X236571153Y-84800499D01*
X236571156Y-84800500D01*
X236571158Y-84800500D01*
X236614714Y-84800500D01*
X236618072Y-84800682D01*
X236621804Y-84802001D01*
X236646294Y-84805521D01*
X236671538Y-84812934D01*
X236724284Y-84844230D01*
X237500573Y-85620519D01*
X237521723Y-85648771D01*
X237534331Y-85671860D01*
X237549500Y-85731289D01*
X237549500Y-99864069D01*
X237549500Y-99864071D01*
X237549499Y-99864071D01*
X237569262Y-99963417D01*
X237574497Y-99989741D01*
X237600680Y-100052951D01*
X237615923Y-100089749D01*
X237623535Y-100108127D01*
X237648893Y-100146078D01*
X237651305Y-100149688D01*
X237651308Y-100149693D01*
X237694727Y-100214674D01*
X238477139Y-100997085D01*
X238477140Y-100997086D01*
X238498291Y-101025340D01*
X238514178Y-101054434D01*
X238526964Y-101089670D01*
X238537022Y-101140236D01*
X238537029Y-101140267D01*
X238597363Y-101285930D01*
X238597368Y-101285939D01*
X238597378Y-101285956D01*
X238684976Y-101417055D01*
X238684977Y-101417056D01*
X238684982Y-101417062D01*
X238796466Y-101528546D01*
X238796472Y-101528551D01*
X238796476Y-101528554D01*
X238927579Y-101616155D01*
X238927592Y-101616162D01*
X239070849Y-101675500D01*
X239073268Y-101676502D01*
X239221314Y-101705950D01*
X239222266Y-101706156D01*
X239222677Y-101706380D01*
X239223012Y-101706468D01*
X239227920Y-101707265D01*
X239385609Y-101707265D01*
X239389730Y-101707265D01*
X239397583Y-101704882D01*
X239461917Y-101692085D01*
X239536966Y-101677157D01*
X239539709Y-101676689D01*
X239540242Y-101676505D01*
X239540253Y-101676504D01*
X239540255Y-101676503D01*
X239540262Y-101676502D01*
X239540297Y-101676487D01*
X239541769Y-101675983D01*
X239544287Y-101674834D01*
X239568963Y-101664612D01*
X239592230Y-101657555D01*
X239615727Y-101652882D01*
X239639914Y-101650500D01*
X248552175Y-101650500D01*
X248564313Y-101651095D01*
X248576400Y-101652285D01*
X248588425Y-101654069D01*
X248601915Y-101656753D01*
X248608613Y-101658086D01*
X248608614Y-101658086D01*
X248696153Y-101675500D01*
X248853844Y-101675500D01*
X248857964Y-101675500D01*
X248865814Y-101673118D01*
X249008497Y-101644737D01*
X249154179Y-101584394D01*
X249285289Y-101496789D01*
X249396789Y-101385289D01*
X249484394Y-101254179D01*
X249544737Y-101108497D01*
X249575500Y-100953842D01*
X249575500Y-100796158D01*
X249575500Y-100796155D01*
X249575500Y-100795973D01*
X249575065Y-100793972D01*
X249545397Y-100644824D01*
X249544994Y-100642467D01*
X249544738Y-100641508D01*
X249544737Y-100641506D01*
X249544737Y-100641503D01*
X249544735Y-100641498D01*
X249484397Y-100495827D01*
X249484390Y-100495814D01*
X249396789Y-100364711D01*
X249396786Y-100364707D01*
X249396781Y-100364701D01*
X249285297Y-100253217D01*
X249285291Y-100253212D01*
X249285290Y-100253211D01*
X249154191Y-100165613D01*
X249154190Y-100165612D01*
X249154185Y-100165609D01*
X249154172Y-100165602D01*
X249154165Y-100165598D01*
X249008502Y-100105264D01*
X249008471Y-100105257D01*
X248853847Y-100074500D01*
X248853845Y-100074500D01*
X248853842Y-100074500D01*
X248696158Y-100074500D01*
X248696155Y-100074500D01*
X248696153Y-100074500D01*
X248541527Y-100105257D01*
X248541503Y-100105262D01*
X248541483Y-100105269D01*
X248468772Y-100135387D01*
X248445517Y-100142442D01*
X248422025Y-100147116D01*
X248397828Y-100149500D01*
X239602349Y-100149500D01*
X239587780Y-100148641D01*
X239577544Y-100147430D01*
X239544656Y-100138848D01*
X239540262Y-100137028D01*
X239540260Y-100137027D01*
X239540258Y-100137026D01*
X239488623Y-100126755D01*
X239487152Y-100126220D01*
X239486337Y-100126278D01*
X239470445Y-100120148D01*
X239453281Y-100113911D01*
X239452135Y-100113283D01*
X239440156Y-100106408D01*
X239426986Y-100099518D01*
X239425954Y-100098954D01*
X239424417Y-100097414D01*
X239397808Y-100077862D01*
X238899426Y-99579480D01*
X238878274Y-99551224D01*
X238865667Y-99528135D01*
X238850500Y-99468710D01*
X238850500Y-94303707D01*
X245899500Y-94303707D01*
X245899500Y-94516291D01*
X245932752Y-94726239D01*
X245998445Y-94928418D01*
X246090486Y-95109056D01*
X246094951Y-95117820D01*
X246219890Y-95289786D01*
X246219892Y-95289788D01*
X246370216Y-95440112D01*
X246542169Y-95565042D01*
X246542177Y-95565047D01*
X246542179Y-95565048D01*
X246542181Y-95565049D01*
X246542182Y-95565050D01*
X246542200Y-95565060D01*
X246542442Y-95565182D01*
X246731588Y-95661557D01*
X246933757Y-95727246D01*
X247143713Y-95760500D01*
X247143714Y-95760500D01*
X247356286Y-95760500D01*
X247356287Y-95760500D01*
X247566243Y-95727246D01*
X247768412Y-95661557D01*
X247957816Y-95565051D01*
X248048040Y-95499500D01*
X248129786Y-95440109D01*
X248129787Y-95440106D01*
X248129790Y-95440105D01*
X248129792Y-95440104D01*
X248129793Y-95440102D01*
X248129844Y-95440066D01*
X248130605Y-95439290D01*
X248280104Y-95289792D01*
X248280106Y-95289788D01*
X248280109Y-95289786D01*
X248405048Y-95117820D01*
X248405047Y-95117820D01*
X248405051Y-95117816D01*
X248405053Y-95117811D01*
X248413066Y-95106782D01*
X248413071Y-95106778D01*
X248423229Y-95094531D01*
X248430647Y-95086678D01*
X248465566Y-95066294D01*
X248468394Y-95064114D01*
X248469458Y-95064022D01*
X248490985Y-95051457D01*
X248560791Y-95054447D01*
X248614503Y-95090612D01*
X248620707Y-95097771D01*
X248632729Y-95114193D01*
X248634949Y-95117817D01*
X248634951Y-95117820D01*
X248759890Y-95289786D01*
X248759892Y-95289788D01*
X248910216Y-95440112D01*
X249082169Y-95565042D01*
X249082177Y-95565047D01*
X249082179Y-95565048D01*
X249082181Y-95565049D01*
X249082182Y-95565050D01*
X249082200Y-95565060D01*
X249082442Y-95565182D01*
X249271588Y-95661557D01*
X249473757Y-95727246D01*
X249683713Y-95760500D01*
X249683714Y-95760500D01*
X249896286Y-95760500D01*
X249896287Y-95760500D01*
X250106243Y-95727246D01*
X250308412Y-95661557D01*
X250497816Y-95565051D01*
X250588040Y-95499500D01*
X250669786Y-95440109D01*
X250669787Y-95440106D01*
X250669790Y-95440105D01*
X250669792Y-95440104D01*
X250669793Y-95440102D01*
X250669844Y-95440066D01*
X250670605Y-95439290D01*
X250820104Y-95289792D01*
X250820106Y-95289788D01*
X250820109Y-95289786D01*
X250945048Y-95117820D01*
X250945047Y-95117820D01*
X250945051Y-95117816D01*
X250945053Y-95117810D01*
X250965445Y-95089744D01*
X250973730Y-95061529D01*
X251041557Y-94928412D01*
X251107246Y-94726243D01*
X251140500Y-94516287D01*
X251140500Y-94303713D01*
X251107246Y-94093757D01*
X251041557Y-93891588D01*
X250945051Y-93702184D01*
X250945049Y-93702181D01*
X250945048Y-93702179D01*
X250944702Y-93701703D01*
X250944700Y-93701699D01*
X250820112Y-93530216D01*
X250669788Y-93379892D01*
X250669786Y-93379890D01*
X250497820Y-93254951D01*
X250484167Y-93247994D01*
X250330245Y-93169567D01*
X250330240Y-93169565D01*
X250308414Y-93158444D01*
X250308413Y-93158443D01*
X250308412Y-93158443D01*
X250211550Y-93126970D01*
X250115074Y-93095623D01*
X250110552Y-93093770D01*
X250101362Y-93091600D01*
X250096599Y-93091226D01*
X249944957Y-93067208D01*
X249925489Y-93064124D01*
X249896290Y-93059500D01*
X249896287Y-93059500D01*
X249683713Y-93059500D01*
X249683709Y-93059500D01*
X249644776Y-93065666D01*
X249635042Y-93067208D01*
X249597654Y-93073129D01*
X249473763Y-93092752D01*
X249271582Y-93158445D01*
X249082182Y-93254949D01*
X248910210Y-93379892D01*
X248759892Y-93530210D01*
X248759890Y-93530213D01*
X248634952Y-93702179D01*
X248634945Y-93702188D01*
X248634634Y-93702696D01*
X248633499Y-93704177D01*
X248632085Y-93706125D01*
X248632036Y-93706089D01*
X248619060Y-93723041D01*
X248609353Y-93733319D01*
X248549011Y-93768542D01*
X248479205Y-93765550D01*
X248425488Y-93729378D01*
X248419285Y-93722219D01*
X248407274Y-93705811D01*
X248405053Y-93702187D01*
X248405051Y-93702184D01*
X248405050Y-93702182D01*
X248280109Y-93530213D01*
X248129786Y-93379890D01*
X247957820Y-93254951D01*
X247944167Y-93247994D01*
X247790245Y-93169567D01*
X247790240Y-93169565D01*
X247768414Y-93158444D01*
X247768413Y-93158443D01*
X247768412Y-93158443D01*
X247671550Y-93126970D01*
X247575074Y-93095623D01*
X247570552Y-93093770D01*
X247561362Y-93091600D01*
X247556599Y-93091226D01*
X247404957Y-93067208D01*
X247385489Y-93064124D01*
X247356290Y-93059500D01*
X247356287Y-93059500D01*
X247143713Y-93059500D01*
X247143709Y-93059500D01*
X247104776Y-93065666D01*
X247095042Y-93067208D01*
X247057654Y-93073129D01*
X246933763Y-93092752D01*
X246731582Y-93158445D01*
X246542182Y-93254949D01*
X246370210Y-93379892D01*
X246219892Y-93530210D01*
X246094949Y-93702182D01*
X245998445Y-93891580D01*
X245932752Y-94093759D01*
X245899500Y-94303707D01*
X238850500Y-94303707D01*
X238850500Y-85335925D01*
X238825262Y-85209053D01*
X238823177Y-85204645D01*
X238776465Y-85091874D01*
X238776465Y-85091873D01*
X238705277Y-84985331D01*
X238705275Y-84985329D01*
X238705273Y-84985326D01*
X238705272Y-84985325D01*
X237398643Y-83678697D01*
X237383223Y-83659908D01*
X237369912Y-83639987D01*
X237362938Y-83626938D01*
X237362823Y-83627002D01*
X237359243Y-83620549D01*
X237358311Y-83619200D01*
X237323930Y-83567746D01*
X237271789Y-83489711D01*
X237271786Y-83489707D01*
X237271785Y-83489706D01*
X237271784Y-83489704D01*
X237160297Y-83378217D01*
X237160291Y-83378212D01*
X237160290Y-83378211D01*
X237029191Y-83290613D01*
X237029190Y-83290612D01*
X237029185Y-83290609D01*
X237029172Y-83290602D01*
X236921208Y-83245883D01*
X236919520Y-83244522D01*
X236917373Y-83244218D01*
X236890856Y-83227874D01*
X236883851Y-83222229D01*
X236873684Y-83207585D01*
X236866807Y-83202044D01*
X236860037Y-83187931D01*
X236844003Y-83164837D01*
X236841509Y-83095012D01*
X236877161Y-83034923D01*
X236933151Y-83004999D01*
X236938138Y-83003821D01*
X236946458Y-83002851D01*
X236948756Y-83001797D01*
X236951802Y-83002229D01*
X236966644Y-83000500D01*
X277657670Y-83000500D01*
X277692606Y-83005523D01*
X277707604Y-83009927D01*
X277766355Y-83047672D01*
X277767542Y-83049041D01*
X277795018Y-83103902D01*
X277796663Y-83111460D01*
X277799500Y-83137831D01*
X277799500Y-126566902D01*
X277779815Y-126633941D01*
X277727011Y-126679696D01*
X277675511Y-126690902D01*
X264199511Y-126692129D01*
X264132470Y-126672451D01*
X264086710Y-126619651D01*
X264075500Y-126568129D01*
X264075500Y-125684348D01*
X264080522Y-125649415D01*
X264087934Y-125624170D01*
X264119232Y-125571424D01*
X264130469Y-125560188D01*
X264130472Y-125560185D01*
X264218478Y-125414606D01*
X264269086Y-125252196D01*
X264275500Y-125181616D01*
X264275500Y-124518384D01*
X264269086Y-124447804D01*
X264218478Y-124285394D01*
X264130472Y-124139815D01*
X264130470Y-124139813D01*
X264130469Y-124139811D01*
X264010188Y-124019530D01*
X263864606Y-123931522D01*
X263864603Y-123931521D01*
X263822999Y-123918556D01*
X263822999Y-123918557D01*
X263702196Y-123880914D01*
X263702194Y-123880913D01*
X263702192Y-123880913D01*
X263689372Y-123879748D01*
X263689367Y-123879747D01*
X263652778Y-123876423D01*
X263652777Y-123876422D01*
X263633538Y-123874674D01*
X263631616Y-123874500D01*
X263631615Y-123874500D01*
X263118380Y-123874500D01*
X263107390Y-123875498D01*
X263099145Y-123876248D01*
X263082032Y-123877803D01*
X263047805Y-123880913D01*
X262885383Y-123931525D01*
X262879871Y-123934006D01*
X262810658Y-123943565D01*
X262747265Y-123914187D01*
X262709818Y-123855199D01*
X262704988Y-123820888D01*
X262706528Y-119537890D01*
X262706527Y-119537879D01*
X262706527Y-119537854D01*
X262703647Y-119483823D01*
X262703646Y-119483820D01*
X262703646Y-119483807D01*
X262700817Y-119457427D01*
X262692168Y-119403972D01*
X262690523Y-119396403D01*
X262681154Y-119369835D01*
X262648596Y-119277510D01*
X262648591Y-119277499D01*
X262621135Y-119222644D01*
X262621129Y-119222632D01*
X262551089Y-119117816D01*
X262549906Y-119116451D01*
X262498912Y-119065465D01*
X262495644Y-119062633D01*
X262472245Y-119042360D01*
X262414491Y-118999131D01*
X262369386Y-118978537D01*
X262353018Y-118971063D01*
X262353020Y-118971059D01*
X262352998Y-118971054D01*
X262283891Y-118939486D01*
X262251653Y-118924759D01*
X262251646Y-118924756D01*
X262236665Y-118920355D01*
X262236645Y-118920350D01*
X262166197Y-118905012D01*
X262131257Y-118899982D01*
X262110845Y-118898518D01*
X262059309Y-118894824D01*
X262059303Y-118894823D01*
X262059306Y-118894823D01*
X253251762Y-118893399D01*
X253247490Y-118893399D01*
X253247489Y-118893399D01*
X253247487Y-118893399D01*
X253193609Y-118896271D01*
X253193592Y-118896272D01*
X253193578Y-118896273D01*
X253193569Y-118896274D01*
X253167268Y-118899090D01*
X253114221Y-118907645D01*
X253114218Y-118907646D01*
X253112224Y-118908078D01*
X253112165Y-118908091D01*
X253111864Y-118908156D01*
X253111863Y-118908155D01*
X253106446Y-118909330D01*
X253106446Y-118909331D01*
X253106442Y-118909332D01*
X253106439Y-118909333D01*
X253048999Y-118929553D01*
X252987677Y-118951139D01*
X252932841Y-118978534D01*
X252932837Y-118978536D01*
X252828053Y-119048427D01*
X252828047Y-119048432D01*
X252826654Y-119049637D01*
X252732384Y-119158231D01*
X252694560Y-119216958D01*
X252634670Y-119347748D01*
X252634666Y-119347759D01*
X252630250Y-119362741D01*
X252614844Y-119433204D01*
X252614843Y-119433207D01*
X252609790Y-119468093D01*
X252609788Y-119468111D01*
X252604565Y-119540076D01*
X252597352Y-126569325D01*
X252577599Y-126636344D01*
X252524748Y-126682045D01*
X252473363Y-126693198D01*
X235399423Y-126694753D01*
X235393568Y-126693034D01*
X235387577Y-126694187D01*
X235360437Y-126683310D01*
X235332382Y-126675075D01*
X235328385Y-126670463D01*
X235322722Y-126668194D01*
X235305773Y-126644372D01*
X235286622Y-126622275D01*
X235284849Y-126614964D01*
X235282216Y-126611263D01*
X235278300Y-126587949D01*
X235275550Y-126576605D01*
X235275412Y-126573684D01*
X235275412Y-126537527D01*
X235275411Y-126537525D01*
X235271798Y-126519360D01*
X235250855Y-126414073D01*
X235244650Y-126382878D01*
X235244647Y-126382870D01*
X235239208Y-126369738D01*
X235185992Y-126241264D01*
X235185991Y-126241261D01*
X235184306Y-126237192D01*
X235181299Y-126232692D01*
X235166070Y-126200858D01*
X235156165Y-126169223D01*
X235150500Y-126132172D01*
X235150500Y-123020945D01*
X235150500Y-123020943D01*
X235109577Y-122868216D01*
X235109577Y-122868215D01*
X235068887Y-122797738D01*
X235030520Y-122731284D01*
X234918716Y-122619480D01*
X234918715Y-122619479D01*
X234914385Y-122615149D01*
X234913363Y-122614127D01*
X234913320Y-122614085D01*
X233536241Y-121237006D01*
X233515089Y-121208750D01*
X233507597Y-121195029D01*
X233492746Y-121126756D01*
X233492746Y-121126755D01*
X233493270Y-121119431D01*
X233513850Y-121059390D01*
X233580725Y-120959303D01*
X233582736Y-120956557D01*
X233584244Y-120954160D01*
X233585975Y-120949320D01*
X233644002Y-120809232D01*
X233674765Y-120654577D01*
X233674765Y-120496893D01*
X233674765Y-120496890D01*
X233674765Y-120496889D01*
X233674765Y-120496711D01*
X233674341Y-120494762D01*
X233669807Y-120471966D01*
X233656962Y-120407395D01*
X233644004Y-120342245D01*
X233644001Y-120342236D01*
X233636455Y-120324017D01*
X233590273Y-120212523D01*
X233583662Y-120196562D01*
X233583655Y-120196549D01*
X233496054Y-120065446D01*
X233496051Y-120065442D01*
X233496046Y-120065436D01*
X233384562Y-119953952D01*
X233384556Y-119953947D01*
X233384555Y-119953946D01*
X233253456Y-119866348D01*
X233253455Y-119866347D01*
X233253450Y-119866344D01*
X233253437Y-119866337D01*
X233253430Y-119866333D01*
X233107788Y-119806007D01*
X233107774Y-119806002D01*
X233107766Y-119805999D01*
X233107756Y-119805996D01*
X233107751Y-119805995D01*
X233107748Y-119805994D01*
X233002949Y-119785147D01*
X233002947Y-119785147D01*
X233002945Y-119785147D01*
X232969663Y-119773406D01*
X232940289Y-119758041D01*
X232910082Y-119735846D01*
X232049426Y-118875190D01*
X232028274Y-118846934D01*
X232015667Y-118823845D01*
X232000500Y-118764420D01*
X232000500Y-117353113D01*
X233075234Y-117353113D01*
X233105992Y-117507736D01*
X233105999Y-117507767D01*
X233166333Y-117653430D01*
X233166338Y-117653439D01*
X233166348Y-117653456D01*
X233253946Y-117784555D01*
X233253947Y-117784556D01*
X233253952Y-117784562D01*
X233365436Y-117896046D01*
X233365442Y-117896051D01*
X233365446Y-117896054D01*
X233496549Y-117983655D01*
X233496562Y-117983662D01*
X233642233Y-118044000D01*
X233642238Y-118044002D01*
X233796888Y-118074764D01*
X233796891Y-118074765D01*
X233796893Y-118074765D01*
X233954579Y-118074765D01*
X233954580Y-118074764D01*
X234109232Y-118044002D01*
X234254914Y-117983659D01*
X234386024Y-117896054D01*
X234436264Y-117845814D01*
X234482655Y-117799423D01*
X234510905Y-117778275D01*
X234533997Y-117765667D01*
X234593422Y-117750500D01*
X234911362Y-117750500D01*
X234946294Y-117755521D01*
X234971538Y-117762934D01*
X235024284Y-117794230D01*
X235545376Y-118315322D01*
X235550419Y-118322059D01*
X235566526Y-118343575D01*
X235582413Y-118372669D01*
X235595199Y-118407905D01*
X235605257Y-118458471D01*
X235605264Y-118458502D01*
X235665598Y-118604165D01*
X235665603Y-118604174D01*
X235665613Y-118604191D01*
X235753211Y-118735290D01*
X235753212Y-118735291D01*
X235753217Y-118735297D01*
X235864701Y-118846781D01*
X235864707Y-118846786D01*
X235864711Y-118846789D01*
X235995814Y-118934390D01*
X235995827Y-118934397D01*
X236111919Y-118982483D01*
X236141503Y-118994737D01*
X236291075Y-119024488D01*
X236293389Y-119025051D01*
X236296155Y-119025500D01*
X236453844Y-119025500D01*
X236457964Y-119025500D01*
X236465814Y-119023118D01*
X236608497Y-118994737D01*
X236754179Y-118934394D01*
X236885289Y-118846789D01*
X236996789Y-118735289D01*
X237084394Y-118604179D01*
X237144737Y-118458497D01*
X237175500Y-118303842D01*
X237175500Y-118146158D01*
X237175500Y-118146155D01*
X237175500Y-118145973D01*
X237175065Y-118143972D01*
X237145395Y-117994815D01*
X237144983Y-117992403D01*
X237144737Y-117991504D01*
X237136662Y-117972007D01*
X237136661Y-117972006D01*
X237118071Y-117927125D01*
X264549500Y-117927125D01*
X264549500Y-118922876D01*
X264549659Y-118924806D01*
X264549885Y-118926454D01*
X264555907Y-118982482D01*
X264583690Y-119056971D01*
X264606202Y-119117328D01*
X264606206Y-119117335D01*
X264649086Y-119174616D01*
X264692450Y-119232542D01*
X264692452Y-119232544D01*
X264692455Y-119232547D01*
X264807664Y-119318793D01*
X264807671Y-119318797D01*
X264942517Y-119369091D01*
X264942516Y-119369091D01*
X264949444Y-119369835D01*
X265002127Y-119375500D01*
X267097872Y-119375499D01*
X267157483Y-119369091D01*
X267292331Y-119318796D01*
X267407546Y-119232546D01*
X267493796Y-119117331D01*
X267544091Y-118982483D01*
X267550500Y-118922873D01*
X267550499Y-117927128D01*
X267544091Y-117867517D01*
X267535997Y-117845818D01*
X267535997Y-117845812D01*
X267535996Y-117845813D01*
X267493798Y-117732673D01*
X267493797Y-117732671D01*
X267493795Y-117732668D01*
X267493793Y-117732664D01*
X267407547Y-117617455D01*
X267407544Y-117617452D01*
X267407542Y-117617450D01*
X267349616Y-117574086D01*
X267292335Y-117531206D01*
X267292332Y-117531204D01*
X267292330Y-117531203D01*
X267292328Y-117531202D01*
X267157482Y-117480908D01*
X267157483Y-117480908D01*
X267097883Y-117474501D01*
X267097881Y-117474500D01*
X267097873Y-117474500D01*
X267097864Y-117474500D01*
X267096841Y-117474500D01*
X265002123Y-117474500D01*
X265000192Y-117474659D01*
X264998545Y-117474885D01*
X264942516Y-117480908D01*
X264849508Y-117515598D01*
X264807666Y-117531204D01*
X264807665Y-117531205D01*
X264692456Y-117617450D01*
X264692450Y-117617456D01*
X264606205Y-117732665D01*
X264606203Y-117732668D01*
X264555908Y-117867516D01*
X264549500Y-117927125D01*
X237118071Y-117927125D01*
X237084395Y-117845822D01*
X237084388Y-117845812D01*
X236996789Y-117714711D01*
X236996786Y-117714707D01*
X236996781Y-117714701D01*
X236885297Y-117603217D01*
X236885291Y-117603212D01*
X236885290Y-117603211D01*
X236754191Y-117515613D01*
X236754190Y-117515612D01*
X236754185Y-117515609D01*
X236754172Y-117515602D01*
X236754165Y-117515598D01*
X236608502Y-117455264D01*
X236608471Y-117455257D01*
X236558911Y-117445398D01*
X236558909Y-117445398D01*
X236558907Y-117445398D01*
X236525625Y-117433657D01*
X236496249Y-117418291D01*
X236466042Y-117396096D01*
X235664674Y-116594727D01*
X235664671Y-116594724D01*
X235664668Y-116594722D01*
X235619996Y-116564873D01*
X235619996Y-116564874D01*
X235558130Y-116523537D01*
X235558129Y-116523536D01*
X235558127Y-116523535D01*
X235512235Y-116504526D01*
X235439744Y-116474499D01*
X235421490Y-116470868D01*
X235367780Y-116460184D01*
X235314072Y-116449500D01*
X235314071Y-116449500D01*
X235314069Y-116449500D01*
X233985931Y-116449500D01*
X233985929Y-116449500D01*
X233985927Y-116449500D01*
X233881905Y-116470192D01*
X233869875Y-116471977D01*
X233857801Y-116473167D01*
X233845639Y-116473765D01*
X233796888Y-116473765D01*
X233642262Y-116504522D01*
X233642231Y-116504529D01*
X233496568Y-116564863D01*
X233496559Y-116564868D01*
X233496554Y-116564871D01*
X233496549Y-116564874D01*
X233451879Y-116594722D01*
X233365443Y-116652476D01*
X233365442Y-116652477D01*
X233365436Y-116652482D01*
X233253952Y-116763966D01*
X233253947Y-116763972D01*
X233253946Y-116763973D01*
X233166348Y-116895072D01*
X233166338Y-116895089D01*
X233166333Y-116895098D01*
X233105999Y-117040761D01*
X233105992Y-117040792D01*
X233075235Y-117195415D01*
X233075235Y-117195418D01*
X233075235Y-117353111D01*
X233075235Y-117353113D01*
X233075234Y-117353113D01*
X232000500Y-117353113D01*
X232000500Y-115229081D01*
X232005522Y-115194148D01*
X232009433Y-115180829D01*
X232047206Y-115122052D01*
X232110758Y-115093027D01*
X232115955Y-115092280D01*
X232178546Y-115100145D01*
X232178567Y-115100077D01*
X232178965Y-115100197D01*
X232181051Y-115100460D01*
X232184395Y-115101845D01*
X232274344Y-115119737D01*
X232331424Y-115131091D01*
X232334146Y-115131812D01*
X232339047Y-115132608D01*
X232496736Y-115132608D01*
X232500856Y-115132608D01*
X232508706Y-115130226D01*
X232651389Y-115101845D01*
X232797071Y-115041502D01*
X232839119Y-115013405D01*
X232870944Y-114998179D01*
X232902589Y-114988271D01*
X232939635Y-114982608D01*
X235825458Y-114982608D01*
X235860393Y-114987631D01*
X235892202Y-114996971D01*
X235926158Y-115012846D01*
X235995821Y-115059394D01*
X235995823Y-115059395D01*
X235995827Y-115059397D01*
X236141498Y-115119735D01*
X236141503Y-115119737D01*
X236296153Y-115150499D01*
X236296156Y-115150500D01*
X236296158Y-115150500D01*
X236453844Y-115150500D01*
X236453845Y-115150499D01*
X236608497Y-115119737D01*
X236754179Y-115059394D01*
X236885289Y-114971789D01*
X236996789Y-114860289D01*
X237084394Y-114729179D01*
X237144737Y-114583497D01*
X237175500Y-114428842D01*
X237175500Y-114271158D01*
X237175500Y-114271155D01*
X237175500Y-114270973D01*
X237175065Y-114268972D01*
X237145398Y-114119830D01*
X237144983Y-114117403D01*
X237144738Y-114116507D01*
X237144737Y-114116505D01*
X237144737Y-114116503D01*
X237114280Y-114042973D01*
X237084397Y-113970827D01*
X237084390Y-113970814D01*
X236996789Y-113839711D01*
X236996786Y-113839707D01*
X236996781Y-113839701D01*
X236885297Y-113728217D01*
X236885291Y-113728212D01*
X236885290Y-113728211D01*
X236754191Y-113640613D01*
X236754190Y-113640612D01*
X236754185Y-113640609D01*
X236754172Y-113640602D01*
X236754165Y-113640598D01*
X236608502Y-113580264D01*
X236608471Y-113580257D01*
X236453847Y-113549500D01*
X236453845Y-113549500D01*
X236453842Y-113549500D01*
X236296158Y-113549500D01*
X236296155Y-113549500D01*
X236296153Y-113549500D01*
X236141527Y-113580257D01*
X236141511Y-113580260D01*
X236141510Y-113580261D01*
X236141498Y-113580264D01*
X236071835Y-113609119D01*
X235995823Y-113640603D01*
X235990801Y-113643958D01*
X235980554Y-113650805D01*
X235948719Y-113666036D01*
X235917083Y-113675942D01*
X235880030Y-113681608D01*
X233134818Y-113681608D01*
X233099883Y-113676585D01*
X233089029Y-113673398D01*
X233030251Y-113635624D01*
X233001226Y-113572068D01*
X233011166Y-113502919D01*
X233014356Y-113495932D01*
X233039465Y-113459768D01*
X234020028Y-112479206D01*
X235285218Y-111214014D01*
X235304001Y-111198600D01*
X235323918Y-111185291D01*
X235345357Y-111173833D01*
X235350446Y-111171725D01*
X235378444Y-111160129D01*
X235509554Y-111072524D01*
X235621054Y-110961024D01*
X235708659Y-110829914D01*
X235769002Y-110684232D01*
X235799765Y-110529577D01*
X235799765Y-110371893D01*
X235799765Y-110371890D01*
X235799765Y-110371708D01*
X235799330Y-110369706D01*
X235786482Y-110305115D01*
X235769003Y-110217241D01*
X235769000Y-110217233D01*
X235759469Y-110194221D01*
X235759469Y-110194220D01*
X235708665Y-110071568D01*
X235708660Y-110071559D01*
X235708659Y-110071557D01*
X235708655Y-110071549D01*
X235621054Y-109940446D01*
X235621051Y-109940442D01*
X235621046Y-109940436D01*
X235509562Y-109828952D01*
X235509556Y-109828947D01*
X235509555Y-109828946D01*
X235378456Y-109741348D01*
X235378455Y-109741347D01*
X235378450Y-109741344D01*
X235378437Y-109741337D01*
X235378430Y-109741333D01*
X235232767Y-109680999D01*
X235232736Y-109680992D01*
X235078112Y-109650235D01*
X235078110Y-109650235D01*
X235078107Y-109650235D01*
X234920423Y-109650235D01*
X234920420Y-109650235D01*
X234920418Y-109650235D01*
X234765792Y-109680992D01*
X234765761Y-109680999D01*
X234620098Y-109741333D01*
X234620089Y-109741338D01*
X234620072Y-109741348D01*
X234488973Y-109828946D01*
X234488972Y-109828947D01*
X234488966Y-109828952D01*
X234377482Y-109940436D01*
X234377477Y-109940442D01*
X234377476Y-109940443D01*
X234289878Y-110071542D01*
X234289869Y-110071557D01*
X234289864Y-110071568D01*
X234245882Y-110177752D01*
X234244519Y-110179443D01*
X234244214Y-110181595D01*
X234227875Y-110208102D01*
X234222232Y-110215105D01*
X234207585Y-110225275D01*
X234202041Y-110232155D01*
X234187930Y-110238922D01*
X234164841Y-110254955D01*
X234095016Y-110257451D01*
X234034926Y-110221801D01*
X234005000Y-110165813D01*
X234003822Y-110160827D01*
X234002851Y-110152497D01*
X234001796Y-110150198D01*
X234002228Y-110147149D01*
X234000500Y-110132316D01*
X234000500Y-109894397D01*
X234005522Y-109859464D01*
X234012934Y-109834219D01*
X234044228Y-109781477D01*
X234376282Y-109449423D01*
X234404532Y-109428275D01*
X234427624Y-109415667D01*
X234487049Y-109400500D01*
X237754654Y-109400500D01*
X237754717Y-109400501D01*
X237756621Y-109400501D01*
X237764217Y-109400501D01*
X237922328Y-109400501D01*
X237922331Y-109400501D01*
X238075059Y-109359577D01*
X238125178Y-109330639D01*
X238211990Y-109280520D01*
X238323794Y-109168716D01*
X238323794Y-109168714D01*
X238334002Y-109158507D01*
X238334002Y-109158505D01*
X238334507Y-109158001D01*
X238337734Y-109154772D01*
X238344205Y-109148301D01*
X238344208Y-109148300D01*
X238344211Y-109148295D01*
X241143250Y-106349257D01*
X241171501Y-106328109D01*
X241200599Y-106312220D01*
X241235826Y-106299438D01*
X241352643Y-106276203D01*
X241498325Y-106215860D01*
X241629435Y-106128255D01*
X241740935Y-106016755D01*
X241828540Y-105885645D01*
X241888883Y-105739963D01*
X241919646Y-105585308D01*
X241919646Y-105427624D01*
X241919646Y-105427621D01*
X241919646Y-105427439D01*
X241919211Y-105425438D01*
X241889543Y-105276290D01*
X241889140Y-105273933D01*
X241888884Y-105272974D01*
X241888883Y-105272972D01*
X241888883Y-105272969D01*
X241888881Y-105272964D01*
X241828543Y-105127293D01*
X241828536Y-105127280D01*
X241740935Y-104996177D01*
X241740932Y-104996173D01*
X241740927Y-104996167D01*
X241629443Y-104884683D01*
X241629437Y-104884678D01*
X241629436Y-104884677D01*
X241498337Y-104797079D01*
X241498336Y-104797078D01*
X241498331Y-104797075D01*
X241498318Y-104797068D01*
X241498311Y-104797064D01*
X241352669Y-104736738D01*
X241352639Y-104736727D01*
X241352635Y-104736726D01*
X241352625Y-104736724D01*
X241350307Y-104736262D01*
X241350305Y-104736263D01*
X241350299Y-104736261D01*
X241350284Y-104736258D01*
X241317022Y-104724521D01*
X241298430Y-104714796D01*
X241253413Y-104674718D01*
X241249634Y-104669169D01*
X241237563Y-104646823D01*
X241220993Y-104606819D01*
X241133385Y-104475703D01*
X241021903Y-104364221D01*
X241021892Y-104364211D01*
X241021890Y-104364209D01*
X241021884Y-104364204D01*
X241020695Y-104363410D01*
X240970428Y-104329821D01*
X240944175Y-104306238D01*
X240930722Y-104290141D01*
X240904473Y-104235903D01*
X240902633Y-104227066D01*
X240902631Y-104227066D01*
X240893937Y-104185308D01*
X240892114Y-104179000D01*
X240869738Y-104066510D01*
X240869737Y-104066503D01*
X240869735Y-104066498D01*
X240809397Y-103920827D01*
X240809390Y-103920814D01*
X240721789Y-103789711D01*
X240721786Y-103789707D01*
X240721781Y-103789701D01*
X240610297Y-103678217D01*
X240610291Y-103678212D01*
X240610290Y-103678211D01*
X240479191Y-103590613D01*
X240479190Y-103590612D01*
X240479185Y-103590609D01*
X240479172Y-103590602D01*
X240479165Y-103590598D01*
X240333502Y-103530264D01*
X240333471Y-103530257D01*
X240178847Y-103499500D01*
X240178845Y-103499500D01*
X240178842Y-103499500D01*
X240021158Y-103499500D01*
X240021155Y-103499500D01*
X240021153Y-103499500D01*
X239866527Y-103530257D01*
X239866496Y-103530264D01*
X239720833Y-103590598D01*
X239720824Y-103590603D01*
X239720807Y-103590613D01*
X239589708Y-103678211D01*
X239589707Y-103678212D01*
X239589701Y-103678217D01*
X239478217Y-103789701D01*
X239478212Y-103789707D01*
X239478211Y-103789708D01*
X239390613Y-103920807D01*
X239390603Y-103920824D01*
X239390598Y-103920833D01*
X239330272Y-104066475D01*
X239330264Y-104066499D01*
X239330259Y-104066515D01*
X239302839Y-104204357D01*
X239302840Y-104204360D01*
X239291098Y-104237644D01*
X239275733Y-104267018D01*
X239253538Y-104297225D01*
X236400191Y-107150573D01*
X236371940Y-107171722D01*
X236348852Y-107184330D01*
X236289422Y-107199500D01*
X234129500Y-107199500D01*
X234062461Y-107179815D01*
X234016706Y-107127011D01*
X234005500Y-107075500D01*
X234005500Y-83124500D01*
X234025185Y-83057461D01*
X234077989Y-83011706D01*
X234129500Y-83000500D01*
X236329980Y-83000500D01*
X236364907Y-83005521D01*
G37*
%TD.AperFunction*%
%TD*%
%TA.AperFunction,Conductor*%
%TO.N,GND*%
G36*
X277799500Y-126727086D02*
G01*
X277799500Y-151857670D01*
X277799499Y-151857676D01*
X277799500Y-151857679D01*
X277794475Y-151892614D01*
X277790070Y-151907612D01*
X277752327Y-151966355D01*
X277752292Y-151966385D01*
X277752291Y-151966387D01*
X277752289Y-151966387D01*
X277750958Y-151967542D01*
X277696097Y-151995018D01*
X277688539Y-151996663D01*
X277662168Y-151999500D01*
X257316860Y-151999500D01*
X257249821Y-151979815D01*
X257204066Y-151927011D01*
X257193185Y-151866525D01*
X257193781Y-151858316D01*
X257209764Y-136229371D01*
X257229517Y-136162354D01*
X257282368Y-136116653D01*
X257333764Y-136105500D01*
X260775492Y-136105500D01*
X260775501Y-136105500D01*
X260882955Y-136093947D01*
X260934467Y-136082741D01*
X260985854Y-136065637D01*
X261037008Y-136048612D01*
X261037010Y-136048611D01*
X261150770Y-135975500D01*
X261156916Y-135971549D01*
X261223955Y-135951864D01*
X261267289Y-135959681D01*
X261292517Y-135969091D01*
X261352127Y-135975500D01*
X261947872Y-135975499D01*
X262007483Y-135969091D01*
X262142331Y-135918796D01*
X262257546Y-135832546D01*
X262343796Y-135717331D01*
X262394091Y-135582483D01*
X262400500Y-135522873D01*
X262400499Y-134327128D01*
X262400304Y-134325311D01*
X262400304Y-134325306D01*
X262400303Y-134325304D01*
X262400342Y-134324204D01*
X262400321Y-134323806D01*
X262400356Y-134323804D01*
X262401563Y-134290037D01*
X262405809Y-134266506D01*
X262427244Y-134216025D01*
X262428155Y-134214761D01*
X262436799Y-134204601D01*
X262437086Y-134204030D01*
X262437490Y-134203790D01*
X262441057Y-134199597D01*
X262791233Y-133849421D01*
X262819488Y-133828271D01*
X262842576Y-133815665D01*
X262901999Y-133800499D01*
X263549999Y-133800499D01*
X263550008Y-133800499D01*
X263550016Y-133800498D01*
X263550019Y-133800498D01*
X263550025Y-133800497D01*
X263550317Y-133800479D01*
X263551333Y-133800363D01*
X263596459Y-133795753D01*
X263606303Y-133794748D01*
X263606303Y-133794747D01*
X263652797Y-133789999D01*
X263819334Y-133734814D01*
X263968656Y-133642712D01*
X264092712Y-133518656D01*
X264184814Y-133369334D01*
X264239999Y-133202797D01*
X264250500Y-133100009D01*
X264250499Y-132399992D01*
X264248814Y-132383501D01*
X264248812Y-132383484D01*
X264240000Y-132297211D01*
X264239999Y-132297209D01*
X264239999Y-132297203D01*
X264239998Y-132297200D01*
X264235788Y-132284495D01*
X264217346Y-132228841D01*
X264206628Y-132196499D01*
X264184814Y-132130666D01*
X264184812Y-132130662D01*
X264184812Y-132130661D01*
X264114403Y-132016510D01*
X264103010Y-131998039D01*
X264089257Y-131966782D01*
X264080203Y-131934856D01*
X264075500Y-131901030D01*
X264075500Y-131427125D01*
X264549500Y-131427125D01*
X264549500Y-132422876D01*
X264549659Y-132424806D01*
X264549885Y-132426454D01*
X264555907Y-132482482D01*
X264573327Y-132529185D01*
X264606202Y-132617328D01*
X264606206Y-132617335D01*
X264615077Y-132629185D01*
X264692450Y-132732542D01*
X264692452Y-132732544D01*
X264692455Y-132732547D01*
X264807664Y-132818793D01*
X264807671Y-132818797D01*
X264942517Y-132869091D01*
X264942516Y-132869091D01*
X264949444Y-132869835D01*
X265002127Y-132875500D01*
X267097872Y-132875499D01*
X267157483Y-132869091D01*
X267292331Y-132818796D01*
X267407546Y-132732546D01*
X267493796Y-132617331D01*
X267544091Y-132482483D01*
X267550500Y-132422873D01*
X267550499Y-131427128D01*
X267544091Y-131367517D01*
X267528419Y-131325499D01*
X267493797Y-131232671D01*
X267493793Y-131232664D01*
X267407547Y-131117455D01*
X267407544Y-131117452D01*
X267407542Y-131117450D01*
X267349616Y-131074086D01*
X267292335Y-131031206D01*
X267292332Y-131031204D01*
X267292330Y-131031203D01*
X267292328Y-131031202D01*
X267157482Y-130980908D01*
X267157483Y-130980908D01*
X267097883Y-130974501D01*
X267097881Y-130974500D01*
X267097873Y-130974500D01*
X267097864Y-130974500D01*
X267096841Y-130974500D01*
X265002123Y-130974500D01*
X265000192Y-130974659D01*
X264998545Y-130974885D01*
X264942516Y-130980908D01*
X264807666Y-131031204D01*
X264807665Y-131031205D01*
X264692456Y-131117450D01*
X264692450Y-131117456D01*
X264606205Y-131232665D01*
X264606203Y-131232668D01*
X264555908Y-131367516D01*
X264549500Y-131427125D01*
X264075500Y-131427125D01*
X264075500Y-126725092D01*
X264085175Y-126692141D01*
X277791629Y-126690892D01*
X277799500Y-126727086D01*
G37*
%TD.AperFunction*%
%TA.AperFunction,Conductor*%
G36*
X252597193Y-126723484D02*
G01*
X252584427Y-139163963D01*
X252571994Y-139217954D01*
X250070628Y-144374618D01*
X250023659Y-144426345D01*
X249959061Y-144444500D01*
X244066313Y-144444500D01*
X243999274Y-144424815D01*
X243954746Y-144374618D01*
X243906238Y-144274618D01*
X241354755Y-139014641D01*
X241320368Y-138954602D01*
X241301565Y-138926435D01*
X241259300Y-138871651D01*
X241249760Y-138860896D01*
X241249753Y-138860888D01*
X241198173Y-138810492D01*
X241187716Y-138801642D01*
X241171227Y-138787686D01*
X241113010Y-138745150D01*
X241113009Y-138745149D01*
X241113007Y-138745148D01*
X241061140Y-138722183D01*
X241060159Y-138721744D01*
X240956181Y-138674621D01*
X240940444Y-138670000D01*
X240940438Y-138669999D01*
X240869922Y-138654660D01*
X240835006Y-138649642D01*
X240834995Y-138649641D01*
X240763088Y-138644500D01*
X240763083Y-138644500D01*
X238757450Y-138644500D01*
X238757429Y-138644500D01*
X238688439Y-138649233D01*
X238688431Y-138649234D01*
X238654880Y-138653858D01*
X238587166Y-138667969D01*
X238587162Y-138667970D01*
X238573318Y-138671860D01*
X238444230Y-138728555D01*
X238385976Y-138764571D01*
X238277570Y-138854711D01*
X238277567Y-138854714D01*
X238266535Y-138866864D01*
X238266517Y-138866886D01*
X238221989Y-138923574D01*
X238202228Y-138952806D01*
X238166187Y-139015309D01*
X238166185Y-139015312D01*
X235590777Y-144324618D01*
X235543808Y-144376345D01*
X235479210Y-144394500D01*
X229342059Y-144394500D01*
X229275020Y-144374815D01*
X229230492Y-144324618D01*
X229206238Y-144274618D01*
X226654756Y-139014641D01*
X226620369Y-138954602D01*
X226601566Y-138926435D01*
X226559301Y-138871651D01*
X226549761Y-138860896D01*
X226549754Y-138860888D01*
X226498174Y-138810492D01*
X226487717Y-138801642D01*
X226471228Y-138787686D01*
X226413011Y-138745150D01*
X226413010Y-138745149D01*
X226413008Y-138745148D01*
X226361141Y-138722183D01*
X226360160Y-138721744D01*
X226256182Y-138674621D01*
X226240445Y-138670000D01*
X226240439Y-138669999D01*
X226169923Y-138654660D01*
X226135007Y-138649642D01*
X226134996Y-138649641D01*
X226063089Y-138644500D01*
X226063084Y-138644500D01*
X223636181Y-138644500D01*
X223636160Y-138644500D01*
X223567170Y-138649233D01*
X223567162Y-138649234D01*
X223533611Y-138653858D01*
X223465897Y-138667969D01*
X223465893Y-138667970D01*
X223452049Y-138671860D01*
X223322961Y-138728555D01*
X223264707Y-138764571D01*
X223156301Y-138854711D01*
X223156298Y-138854714D01*
X223145266Y-138866864D01*
X223145248Y-138866886D01*
X223100718Y-138923577D01*
X223080955Y-138952811D01*
X223044925Y-139015297D01*
X223044917Y-139015312D01*
X220493763Y-144274618D01*
X220446794Y-144326345D01*
X220382196Y-144344500D01*
X213862770Y-144344500D01*
X213795731Y-144324815D01*
X213752241Y-144276708D01*
X213751178Y-144274618D01*
X212880509Y-142562505D01*
X211042515Y-138948210D01*
X211042508Y-138948199D01*
X211042505Y-138948192D01*
X211008384Y-138890818D01*
X211002696Y-138882551D01*
X210989872Y-138863908D01*
X210982605Y-138854711D01*
X210948483Y-138811524D01*
X210948477Y-138811518D01*
X210948472Y-138811511D01*
X210939555Y-138801642D01*
X210939549Y-138801636D01*
X210833459Y-138712535D01*
X210776467Y-138676715D01*
X210776458Y-138676710D01*
X210650187Y-138619763D01*
X210650182Y-138619761D01*
X210633836Y-138614950D01*
X210633792Y-138614939D01*
X210563327Y-138599566D01*
X210563316Y-138599564D01*
X210528414Y-138594525D01*
X210528392Y-138594523D01*
X210490579Y-138591796D01*
X210425129Y-138567339D01*
X210383292Y-138511380D01*
X210375500Y-138468117D01*
X210375500Y-127524661D01*
X210382838Y-127499667D01*
X220518096Y-127500139D01*
X220523944Y-127540763D01*
X220494928Y-127604323D01*
X220488964Y-127610736D01*
X213462512Y-134650055D01*
X213462516Y-135199996D01*
X213462523Y-135200012D01*
X213463119Y-135200617D01*
X213704301Y-135449440D01*
X213975773Y-135451261D01*
X213975772Y-135451261D01*
X213977765Y-135451274D01*
X214247244Y-135453082D01*
X214247244Y-135453081D01*
X214247245Y-135453082D01*
X220904926Y-128794648D01*
X220933167Y-128773504D01*
X220956261Y-128760892D01*
X221015704Y-128745724D01*
X226179552Y-128746481D01*
X226211784Y-128750749D01*
X226213127Y-128751111D01*
X226226815Y-128755132D01*
X226233263Y-128756534D01*
X226236178Y-128757320D01*
X226263497Y-128774021D01*
X226291600Y-128789364D01*
X226403006Y-128900770D01*
X226403012Y-128900775D01*
X226427503Y-128925266D01*
X226437513Y-128938638D01*
X226448653Y-128953519D01*
X226464540Y-128982613D01*
X226477326Y-129017849D01*
X226504945Y-129156698D01*
X226504946Y-129156702D01*
X226504947Y-129156705D01*
X226504950Y-129156715D01*
X226504953Y-129156723D01*
X226504958Y-129156737D01*
X226565284Y-129302379D01*
X226565289Y-129302388D01*
X226565299Y-129302405D01*
X226652897Y-129433504D01*
X226652898Y-129433505D01*
X226652903Y-129433511D01*
X226764387Y-129544995D01*
X226764393Y-129545000D01*
X226764397Y-129545003D01*
X226895500Y-129632604D01*
X226895513Y-129632611D01*
X227041184Y-129692949D01*
X227041189Y-129692951D01*
X227068160Y-129698315D01*
X227105785Y-129705800D01*
X227105809Y-129705804D01*
X227105833Y-129705809D01*
X227179050Y-129720373D01*
X227212330Y-129732115D01*
X227241707Y-129747482D01*
X227271913Y-129769676D01*
X227660344Y-130158107D01*
X227660345Y-130158109D01*
X227660349Y-130158113D01*
X227670846Y-130170082D01*
X227789821Y-130289057D01*
X227789827Y-130289062D01*
X229652816Y-132152051D01*
X229673967Y-132180305D01*
X229689854Y-132209399D01*
X229702640Y-132244635D01*
X229730259Y-132383484D01*
X229730260Y-132383489D01*
X229730261Y-132383491D01*
X229730264Y-132383501D01*
X229730266Y-132383506D01*
X229730272Y-132383523D01*
X229790598Y-132529165D01*
X229790603Y-132529174D01*
X229790613Y-132529191D01*
X229878211Y-132660290D01*
X229878212Y-132660291D01*
X229878217Y-132660297D01*
X229989701Y-132771781D01*
X229989707Y-132771786D01*
X229989711Y-132771789D01*
X230120814Y-132859390D01*
X230120827Y-132859397D01*
X230266498Y-132919735D01*
X230266503Y-132919737D01*
X230406564Y-132947597D01*
X230413520Y-132948980D01*
X230413521Y-132948981D01*
X230416249Y-132949704D01*
X230421155Y-132950500D01*
X230578844Y-132950500D01*
X230582964Y-132950500D01*
X230590814Y-132948118D01*
X230733497Y-132919737D01*
X230857834Y-132868235D01*
X230879172Y-132859397D01*
X230879172Y-132859396D01*
X230879179Y-132859394D01*
X230978155Y-132793258D01*
X231009981Y-132778032D01*
X231024908Y-132773358D01*
X231094761Y-132772113D01*
X231099304Y-132773359D01*
X231101852Y-132774058D01*
X231156722Y-132805957D01*
X233439085Y-135088320D01*
X233439106Y-135088342D01*
X233440149Y-135089385D01*
X233444479Y-135093715D01*
X233444480Y-135093716D01*
X233556284Y-135205520D01*
X233643095Y-135255639D01*
X233643097Y-135255641D01*
X233681146Y-135277608D01*
X233681149Y-135277611D01*
X233681150Y-135277611D01*
X233693211Y-135284575D01*
X233693212Y-135284575D01*
X233693215Y-135284577D01*
X233845943Y-135325501D01*
X233845946Y-135325501D01*
X234011653Y-135325501D01*
X234013557Y-135325501D01*
X234013620Y-135325500D01*
X235092403Y-135325500D01*
X235127335Y-135330521D01*
X235159149Y-135339863D01*
X235193100Y-135355736D01*
X235244498Y-135390080D01*
X235244511Y-135390087D01*
X235381082Y-135446656D01*
X235381087Y-135446658D01*
X235381091Y-135446658D01*
X235381092Y-135446659D01*
X235381357Y-135446711D01*
X235381358Y-135446712D01*
X235381382Y-135446717D01*
X235526077Y-135475500D01*
X235673920Y-135475500D01*
X235673921Y-135475500D01*
X235730271Y-135464290D01*
X235786623Y-135453081D01*
X235786624Y-135453081D01*
X235794749Y-135451464D01*
X235818913Y-135446658D01*
X235955495Y-135390084D01*
X236078416Y-135307951D01*
X236101792Y-135284575D01*
X236150551Y-135235817D01*
X236182948Y-135203419D01*
X236182951Y-135203416D01*
X236265084Y-135080495D01*
X236321658Y-134943913D01*
X236349881Y-134802032D01*
X236350500Y-134798920D01*
X236350500Y-134651079D01*
X236350500Y-134651076D01*
X236321419Y-134504886D01*
X236319337Y-134500485D01*
X236299286Y-134452075D01*
X236290736Y-134431434D01*
X236265090Y-134369517D01*
X236265085Y-134369508D01*
X236265080Y-134369498D01*
X236182951Y-134246584D01*
X236182948Y-134246580D01*
X236182943Y-134246574D01*
X236078424Y-134142055D01*
X236078418Y-134142050D01*
X236078417Y-134142049D01*
X235955507Y-134059923D01*
X235955506Y-134059922D01*
X235955501Y-134059919D01*
X235955488Y-134059912D01*
X235955481Y-134059908D01*
X235818919Y-134003344D01*
X235818920Y-134003344D01*
X235818917Y-134003343D01*
X235818907Y-134003340D01*
X235818905Y-134003339D01*
X235818900Y-134003338D01*
X235673922Y-133974500D01*
X235673920Y-133974500D01*
X235673918Y-133974500D01*
X235526082Y-133974500D01*
X235526080Y-133974500D01*
X235526078Y-133974500D01*
X235381096Y-134003338D01*
X235381079Y-134003344D01*
X235244517Y-134059908D01*
X235244496Y-134059919D01*
X235244487Y-134059925D01*
X235193949Y-134093695D01*
X235162111Y-134108928D01*
X235130476Y-134118834D01*
X235093422Y-134124500D01*
X234242927Y-134124500D01*
X234207991Y-134119477D01*
X234182749Y-134112065D01*
X234130004Y-134080769D01*
X233115685Y-133066450D01*
X233115680Y-133066445D01*
X233094533Y-133038194D01*
X233087446Y-133025215D01*
X233072594Y-132956942D01*
X233095383Y-132893704D01*
X233106965Y-132877494D01*
X233120173Y-132861906D01*
X233221787Y-132760292D01*
X233221789Y-132760289D01*
X233309394Y-132629179D01*
X233369737Y-132483497D01*
X233400500Y-132328842D01*
X233400500Y-132171158D01*
X233400500Y-132171155D01*
X233400500Y-132170971D01*
X233400064Y-132168966D01*
X233392446Y-132130668D01*
X233369739Y-132016510D01*
X233369736Y-132016501D01*
X233355173Y-131981342D01*
X233309402Y-131870840D01*
X233309397Y-131870827D01*
X233309390Y-131870814D01*
X233221789Y-131739711D01*
X233221786Y-131739707D01*
X233221781Y-131739701D01*
X233110297Y-131628217D01*
X233110291Y-131628212D01*
X233110290Y-131628211D01*
X232979191Y-131540613D01*
X232979190Y-131540612D01*
X232979185Y-131540609D01*
X232979172Y-131540602D01*
X232979165Y-131540598D01*
X232834966Y-131480870D01*
X232824931Y-131476178D01*
X232787097Y-131456382D01*
X232756903Y-131434194D01*
X230430376Y-129107667D01*
X230409227Y-129079417D01*
X230402697Y-129067458D01*
X230387846Y-128999188D01*
X230412262Y-128933724D01*
X230461018Y-128894788D01*
X230468578Y-128891416D01*
X230495124Y-128883002D01*
X230495391Y-128882950D01*
X230533497Y-128875371D01*
X230679179Y-128815028D01*
X230810289Y-128727423D01*
X230921789Y-128615923D01*
X231009394Y-128484813D01*
X231069737Y-128339131D01*
X231100500Y-128184476D01*
X231100500Y-128040974D01*
X231105523Y-128006038D01*
X231109927Y-127991040D01*
X231147669Y-127932291D01*
X231147768Y-127932204D01*
X231149033Y-127931108D01*
X231203928Y-127903625D01*
X231211501Y-127901978D01*
X231237871Y-127899150D01*
X233780818Y-127899977D01*
X233815746Y-127905009D01*
X233840988Y-127912430D01*
X233893714Y-127943732D01*
X240996897Y-135049868D01*
X241502583Y-135050134D01*
X241849902Y-134703204D01*
X241850144Y-134202379D01*
X235551712Y-127898732D01*
X235551712Y-127898731D01*
X235038635Y-127385230D01*
X235038633Y-127385227D01*
X235038632Y-127385227D01*
X235017494Y-127356964D01*
X235010008Y-127343240D01*
X234995186Y-127274962D01*
X234995317Y-127273136D01*
X235014691Y-127214987D01*
X235018868Y-127208490D01*
X235035479Y-127187881D01*
X235096701Y-127126661D01*
X235184306Y-126995551D01*
X235244649Y-126849869D01*
X235275128Y-126696638D01*
X235276107Y-126694766D01*
X252590621Y-126693188D01*
X252597193Y-126723484D01*
G37*
%TD.AperFunction*%
%TD*%
%TA.AperFunction,Conductor*%
%TO.N,GNDA*%
G36*
X233443039Y-83020185D02*
G01*
X233488794Y-83072989D01*
X233500000Y-83124500D01*
X233500000Y-107123082D01*
X233496157Y-107136167D01*
X233497093Y-107149776D01*
X233486505Y-107169037D01*
X233480315Y-107190121D01*
X233470008Y-107199051D01*
X233463438Y-107211006D01*
X233435125Y-107232079D01*
X233422670Y-107238834D01*
X233416743Y-107240423D01*
X233371572Y-107266503D01*
X233370181Y-107267306D01*
X233370124Y-107267337D01*
X233279815Y-107319477D01*
X233279810Y-107319481D01*
X232135338Y-108463954D01*
X232074015Y-108497439D01*
X232071849Y-108497890D01*
X231916507Y-108528790D01*
X231916497Y-108528793D01*
X231770826Y-108589131D01*
X231770813Y-108589138D01*
X231639710Y-108676739D01*
X231639706Y-108676742D01*
X231602770Y-108713680D01*
X231541448Y-108747166D01*
X231515088Y-108750000D01*
X231224500Y-108750000D01*
X231157461Y-108730315D01*
X231111706Y-108677511D01*
X231100500Y-108626000D01*
X231100500Y-98445944D01*
X231100500Y-98445943D01*
X231092893Y-98417555D01*
X231080580Y-98371602D01*
X231059577Y-98293216D01*
X231059575Y-98293212D01*
X231059574Y-98293209D01*
X230980524Y-98156290D01*
X230980521Y-98156286D01*
X230980520Y-98156284D01*
X230868716Y-98044480D01*
X230868715Y-98044479D01*
X230864385Y-98040149D01*
X230864374Y-98040139D01*
X229815950Y-96991715D01*
X229782465Y-96930392D01*
X229782028Y-96928300D01*
X229769737Y-96866503D01*
X229745599Y-96808230D01*
X229709397Y-96720827D01*
X229709390Y-96720814D01*
X229621789Y-96589711D01*
X229621786Y-96589707D01*
X229510292Y-96478213D01*
X229510288Y-96478210D01*
X229379185Y-96390609D01*
X229379172Y-96390602D01*
X229233501Y-96330264D01*
X229233489Y-96330261D01*
X229078845Y-96299500D01*
X229078842Y-96299500D01*
X228921158Y-96299500D01*
X228921155Y-96299500D01*
X228766510Y-96330261D01*
X228766498Y-96330264D01*
X228620827Y-96390602D01*
X228620814Y-96390609D01*
X228489711Y-96478210D01*
X228489707Y-96478213D01*
X228378213Y-96589707D01*
X228378210Y-96589711D01*
X228290609Y-96720814D01*
X228290602Y-96720827D01*
X228230264Y-96866498D01*
X228230261Y-96866510D01*
X228199500Y-97021153D01*
X228199500Y-97178846D01*
X228230261Y-97333489D01*
X228230264Y-97333501D01*
X228290602Y-97479172D01*
X228290609Y-97479185D01*
X228378210Y-97610288D01*
X228378213Y-97610292D01*
X228489707Y-97721786D01*
X228489711Y-97721789D01*
X228620814Y-97809390D01*
X228620821Y-97809394D01*
X228667126Y-97828574D01*
X228721529Y-97872414D01*
X228743595Y-97938708D01*
X228726317Y-98006407D01*
X228675180Y-98054018D01*
X228667127Y-98057696D01*
X228620824Y-98076875D01*
X228620814Y-98076880D01*
X228489711Y-98164481D01*
X228489707Y-98164484D01*
X228378213Y-98275978D01*
X228378210Y-98275982D01*
X228290609Y-98407085D01*
X228290602Y-98407098D01*
X228230264Y-98552769D01*
X228230261Y-98552781D01*
X228199500Y-98707424D01*
X228199500Y-98865117D01*
X228230261Y-99019760D01*
X228230264Y-99019772D01*
X228290602Y-99165443D01*
X228290609Y-99165456D01*
X228378210Y-99296559D01*
X228378213Y-99296563D01*
X228489707Y-99408057D01*
X228489711Y-99408060D01*
X228574976Y-99465033D01*
X228619781Y-99518645D01*
X228628488Y-99587970D01*
X228598333Y-99650998D01*
X228574977Y-99671236D01*
X228489713Y-99728208D01*
X228489707Y-99728213D01*
X228378213Y-99839707D01*
X228378210Y-99839711D01*
X228290609Y-99970814D01*
X228290602Y-99970827D01*
X228230264Y-100116498D01*
X228230261Y-100116510D01*
X228199500Y-100271153D01*
X228199500Y-100428846D01*
X228230261Y-100583489D01*
X228230264Y-100583501D01*
X228290602Y-100729172D01*
X228290609Y-100729185D01*
X228378602Y-100860874D01*
X228384252Y-100878920D01*
X228394477Y-100894830D01*
X228398928Y-100925789D01*
X228399480Y-100927551D01*
X228399500Y-100929765D01*
X228399500Y-100975877D01*
X228399499Y-100975895D01*
X228399499Y-101141601D01*
X228399498Y-101141601D01*
X228440423Y-101294332D01*
X228469358Y-101344447D01*
X228469359Y-101344451D01*
X228469360Y-101344451D01*
X228519479Y-101431261D01*
X228519481Y-101431264D01*
X228638349Y-101550132D01*
X228638355Y-101550137D01*
X229063181Y-101974963D01*
X229096666Y-102036286D01*
X229099500Y-102062644D01*
X229099500Y-108626000D01*
X229079815Y-108693039D01*
X229027011Y-108738794D01*
X228975500Y-108750000D01*
X226724500Y-108750000D01*
X226657461Y-108730315D01*
X226611706Y-108677511D01*
X226600500Y-108626000D01*
X226600500Y-107330064D01*
X226597664Y-107319484D01*
X226597661Y-107319474D01*
X226583466Y-107266498D01*
X226576480Y-107240423D01*
X226559577Y-107177339D01*
X226559575Y-107177335D01*
X226559574Y-107177332D01*
X226480524Y-107040413D01*
X226480518Y-107040405D01*
X226416564Y-106976451D01*
X226383079Y-106915128D01*
X226382648Y-106913062D01*
X226374294Y-106871060D01*
X226359208Y-106834639D01*
X226313954Y-106725384D01*
X226313947Y-106725371D01*
X226226346Y-106594268D01*
X226226343Y-106594264D01*
X226114849Y-106482770D01*
X226114845Y-106482767D01*
X225983742Y-106395166D01*
X225983729Y-106395159D01*
X225838058Y-106334821D01*
X225838046Y-106334818D01*
X225683402Y-106304057D01*
X225683399Y-106304057D01*
X225525715Y-106304057D01*
X225525712Y-106304057D01*
X225371067Y-106334818D01*
X225371055Y-106334821D01*
X225225384Y-106395159D01*
X225225371Y-106395166D01*
X225094271Y-106482765D01*
X225094265Y-106482769D01*
X225074730Y-106502305D01*
X225013407Y-106535789D01*
X224962859Y-106536239D01*
X224903844Y-106524500D01*
X224903842Y-106524500D01*
X224746158Y-106524500D01*
X224746155Y-106524500D01*
X224591510Y-106555261D01*
X224591498Y-106555264D01*
X224445827Y-106615602D01*
X224445814Y-106615609D01*
X224309646Y-106706595D01*
X224308395Y-106704722D01*
X224253352Y-106728096D01*
X224214814Y-106726546D01*
X224078845Y-106699500D01*
X224078842Y-106699500D01*
X223921158Y-106699500D01*
X223921155Y-106699500D01*
X223766510Y-106730261D01*
X223766498Y-106730264D01*
X223620827Y-106790602D01*
X223620814Y-106790609D01*
X223489711Y-106878210D01*
X223489707Y-106878213D01*
X223378213Y-106989707D01*
X223378210Y-106989711D01*
X223290609Y-107120814D01*
X223290602Y-107120827D01*
X223230264Y-107266498D01*
X223230261Y-107266510D01*
X223199500Y-107421153D01*
X223199500Y-107578846D01*
X223230261Y-107733489D01*
X223230264Y-107733501D01*
X223290602Y-107879172D01*
X223290609Y-107879185D01*
X223378602Y-108010874D01*
X223399480Y-108077551D01*
X223399500Y-108079765D01*
X223399500Y-108626000D01*
X223379815Y-108693039D01*
X223327011Y-108738794D01*
X223275500Y-108750000D01*
X210353352Y-108750000D01*
X210286313Y-108730315D01*
X210250247Y-108694887D01*
X210249012Y-108693039D01*
X210246789Y-108689711D01*
X210246788Y-108689710D01*
X210246786Y-108689707D01*
X210135292Y-108578213D01*
X210135288Y-108578210D01*
X210004185Y-108490609D01*
X210004172Y-108490602D01*
X209858501Y-108430264D01*
X209858489Y-108430261D01*
X209703845Y-108399500D01*
X209703842Y-108399500D01*
X209546158Y-108399500D01*
X209546155Y-108399500D01*
X209391510Y-108430261D01*
X209391498Y-108430264D01*
X209245827Y-108490602D01*
X209245814Y-108490609D01*
X209114711Y-108578210D01*
X209114707Y-108578213D01*
X209012181Y-108680740D01*
X208950858Y-108714225D01*
X208881166Y-108709241D01*
X208825233Y-108667369D01*
X208800816Y-108601905D01*
X208800500Y-108593059D01*
X208800500Y-83124500D01*
X208820185Y-83057461D01*
X208872989Y-83011706D01*
X208924500Y-83000500D01*
X233376000Y-83000500D01*
X233443039Y-83020185D01*
G37*
%TD.AperFunction*%
%TD*%
%TA.AperFunction,Conductor*%
%TO.N,GND*%
G36*
X223342539Y-109275185D02*
G01*
X223388294Y-109327989D01*
X223399500Y-109379500D01*
X223399500Y-115841466D01*
X223399499Y-115841484D01*
X223399499Y-115965097D01*
X223393601Y-115985182D01*
X223440423Y-116159922D01*
X223460662Y-116194977D01*
X223460663Y-116194977D01*
X223469358Y-116210037D01*
X223469359Y-116210040D01*
X223469360Y-116210040D01*
X223481422Y-116230932D01*
X223481422Y-116230934D01*
X223519467Y-116296831D01*
X223519477Y-116296847D01*
X223519481Y-116296853D01*
X223519485Y-116296858D01*
X223640314Y-116417687D01*
X223640359Y-116417730D01*
X226040603Y-118817974D01*
X226074088Y-118879297D01*
X226076922Y-118905479D01*
X226083100Y-123253842D01*
X226087403Y-126283502D01*
X226087463Y-126325324D01*
X226067874Y-126392391D01*
X226015135Y-126438221D01*
X225963463Y-126449500D01*
X225067928Y-126449500D01*
X225067927Y-126449499D01*
X225067927Y-126449500D01*
X225032992Y-126444477D01*
X225007750Y-126437065D01*
X224955005Y-126405769D01*
X216437342Y-117888107D01*
X216436855Y-117887620D01*
X216436853Y-117887617D01*
X216317981Y-117768745D01*
X216314684Y-117766215D01*
X216308122Y-117760812D01*
X216302363Y-117755729D01*
X216302339Y-117755691D01*
X216296737Y-117750442D01*
X215870711Y-117324416D01*
X215849561Y-117296163D01*
X215833674Y-117267069D01*
X215820889Y-117231836D01*
X215793268Y-117092980D01*
X215793267Y-117092973D01*
X215782301Y-117066498D01*
X215769801Y-117036321D01*
X215732930Y-116947303D01*
X215732925Y-116947294D01*
X215732920Y-116947284D01*
X215645319Y-116816181D01*
X215645316Y-116816177D01*
X215645311Y-116816171D01*
X215533827Y-116704687D01*
X215533821Y-116704682D01*
X215533820Y-116704681D01*
X215402721Y-116617083D01*
X215402720Y-116617082D01*
X215402715Y-116617079D01*
X215402702Y-116617072D01*
X215402695Y-116617068D01*
X215257032Y-116556734D01*
X215257001Y-116556727D01*
X215102377Y-116525970D01*
X215102375Y-116525970D01*
X215102372Y-116525970D01*
X214944688Y-116525970D01*
X214944685Y-116525970D01*
X214944683Y-116525970D01*
X214790057Y-116556727D01*
X214790026Y-116556734D01*
X214663706Y-116609057D01*
X214629511Y-116617785D01*
X214603359Y-116620597D01*
X214542650Y-116611869D01*
X214407767Y-116555999D01*
X214407736Y-116555992D01*
X214253112Y-116525235D01*
X214253110Y-116525235D01*
X214253107Y-116525235D01*
X214095423Y-116525235D01*
X214095420Y-116525235D01*
X214095418Y-116525235D01*
X213940792Y-116555992D01*
X213940761Y-116555999D01*
X213825018Y-116603940D01*
X213825017Y-116603942D01*
X213825012Y-116603943D01*
X213825013Y-116603943D01*
X213790819Y-116612671D01*
X213769961Y-116614914D01*
X213710263Y-116606600D01*
X213704034Y-116604084D01*
X213681594Y-116592218D01*
X213679261Y-116590659D01*
X213679261Y-116590660D01*
X213679190Y-116590612D01*
X213679141Y-116590584D01*
X213678465Y-116590309D01*
X213533502Y-116530264D01*
X213533471Y-116530257D01*
X213378847Y-116499500D01*
X213378845Y-116499500D01*
X213378842Y-116499500D01*
X213221158Y-116499500D01*
X213221155Y-116499500D01*
X213221153Y-116499500D01*
X213066527Y-116530257D01*
X213066496Y-116530264D01*
X212920833Y-116590598D01*
X212920824Y-116590603D01*
X212920807Y-116590613D01*
X212789708Y-116678211D01*
X212789707Y-116678212D01*
X212789701Y-116678217D01*
X212678217Y-116789701D01*
X212678212Y-116789707D01*
X212678211Y-116789708D01*
X212590613Y-116920807D01*
X212590603Y-116920824D01*
X212590598Y-116920833D01*
X212530264Y-117066496D01*
X212530257Y-117066527D01*
X212499500Y-117221150D01*
X212499500Y-117221153D01*
X212499500Y-117378846D01*
X212499500Y-117378848D01*
X212499499Y-117378848D01*
X212530257Y-117533471D01*
X212530264Y-117533502D01*
X212590598Y-117679165D01*
X212590603Y-117679174D01*
X212590613Y-117679191D01*
X212678211Y-117810290D01*
X212678212Y-117810291D01*
X212678217Y-117810297D01*
X212789701Y-117921781D01*
X212789707Y-117921786D01*
X212789711Y-117921789D01*
X212920814Y-118009390D01*
X212920827Y-118009397D01*
X213066498Y-118069735D01*
X213066503Y-118069737D01*
X213127067Y-118081784D01*
X213204363Y-118097159D01*
X213204364Y-118097160D01*
X213237644Y-118108901D01*
X213267021Y-118124268D01*
X213297227Y-118146462D01*
X217300573Y-122149808D01*
X217321723Y-122178060D01*
X217334331Y-122201149D01*
X217349500Y-122260578D01*
X217349500Y-125452404D01*
X217349499Y-125452405D01*
X217349500Y-125452406D01*
X217344476Y-125487341D01*
X217335136Y-125519148D01*
X217319262Y-125553102D01*
X217240613Y-125670807D01*
X217240603Y-125670824D01*
X217240598Y-125670833D01*
X217180264Y-125816496D01*
X217180257Y-125816527D01*
X217149500Y-125971150D01*
X217149500Y-125971153D01*
X217149500Y-126128846D01*
X217149500Y-126128848D01*
X217149499Y-126128848D01*
X217180257Y-126283471D01*
X217180264Y-126283502D01*
X217240598Y-126429165D01*
X217240603Y-126429174D01*
X217240613Y-126429191D01*
X217328211Y-126560290D01*
X217328212Y-126560291D01*
X217328217Y-126560297D01*
X217439701Y-126671781D01*
X217439707Y-126671786D01*
X217439711Y-126671789D01*
X217570814Y-126759390D01*
X217570827Y-126759397D01*
X217712831Y-126818216D01*
X217716503Y-126819737D01*
X217864616Y-126849198D01*
X217865666Y-126849427D01*
X217866102Y-126849665D01*
X217866247Y-126849703D01*
X217871155Y-126850500D01*
X218028844Y-126850500D01*
X218032964Y-126850500D01*
X218040814Y-126848118D01*
X218183497Y-126819737D01*
X218329179Y-126759394D01*
X218460289Y-126671789D01*
X218571789Y-126560289D01*
X218659394Y-126429179D01*
X218719737Y-126283497D01*
X218750500Y-126128842D01*
X218750500Y-125971158D01*
X218750500Y-125971155D01*
X218750500Y-125970973D01*
X218750065Y-125968972D01*
X218720397Y-125819824D01*
X218719994Y-125817467D01*
X218719738Y-125816508D01*
X218719737Y-125816506D01*
X218719737Y-125816503D01*
X218719735Y-125816498D01*
X218659397Y-125670827D01*
X218659390Y-125670814D01*
X218659379Y-125670797D01*
X218581305Y-125553950D01*
X218581303Y-125553949D01*
X218566071Y-125522111D01*
X218556165Y-125490474D01*
X218550500Y-125453422D01*
X218550500Y-122866926D01*
X218555521Y-122831999D01*
X218558707Y-122821146D01*
X218596477Y-122762365D01*
X218660031Y-122733336D01*
X218729186Y-122743274D01*
X218736172Y-122746464D01*
X218772342Y-122771577D01*
X223276738Y-127275974D01*
X223286750Y-127289348D01*
X223297887Y-127304224D01*
X223303308Y-127314151D01*
X223318162Y-127382424D01*
X223293748Y-127447889D01*
X223237816Y-127489762D01*
X223237808Y-127489765D01*
X223230622Y-127492445D01*
X223187286Y-127500262D01*
X220599721Y-127500142D01*
X220599360Y-127500142D01*
X220599359Y-127500142D01*
X210499494Y-127499672D01*
X210432456Y-127479984D01*
X210386703Y-127427178D01*
X210375500Y-127375672D01*
X210375500Y-123491814D01*
X210377881Y-123467631D01*
X210382557Y-123444123D01*
X210389613Y-123420866D01*
X210394737Y-123408497D01*
X210425500Y-123253842D01*
X210425500Y-123096158D01*
X210425500Y-123096155D01*
X210425500Y-123095973D01*
X210425070Y-123094000D01*
X210394739Y-122941511D01*
X210394738Y-122941508D01*
X210394737Y-122941503D01*
X210394728Y-122941482D01*
X210394728Y-122941480D01*
X210389612Y-122929130D01*
X210382554Y-122905862D01*
X210377882Y-122882370D01*
X210375500Y-122858183D01*
X210375500Y-122566814D01*
X210377881Y-122542631D01*
X210382557Y-122519123D01*
X210389613Y-122495866D01*
X210394737Y-122483497D01*
X210425500Y-122328842D01*
X210425500Y-122171158D01*
X210425500Y-122171155D01*
X210425500Y-122170973D01*
X210425065Y-122168972D01*
X210395397Y-122019824D01*
X210394994Y-122017467D01*
X210394738Y-122016508D01*
X210394737Y-122016506D01*
X210394737Y-122016503D01*
X210394735Y-122016498D01*
X210334397Y-121870827D01*
X210334390Y-121870814D01*
X210334379Y-121870797D01*
X210256305Y-121753950D01*
X210256303Y-121753949D01*
X210241071Y-121722111D01*
X210231165Y-121690474D01*
X210225500Y-121653422D01*
X210225500Y-109797594D01*
X210230522Y-109762661D01*
X210239864Y-109730845D01*
X210255733Y-109696902D01*
X210334390Y-109579185D01*
X210334390Y-109579184D01*
X210334394Y-109579179D01*
X210334396Y-109579173D01*
X210335074Y-109578159D01*
X210336710Y-109573585D01*
X210394737Y-109433497D01*
X210410290Y-109355309D01*
X210442675Y-109293398D01*
X210503390Y-109258824D01*
X210531907Y-109255500D01*
X223275500Y-109255500D01*
X223342539Y-109275185D01*
G37*
%TD.AperFunction*%
%TD*%
%TA.AperFunction,Conductor*%
%TO.N,/VAkku -*%
G36*
X262512262Y-126094685D02*
G01*
X262558017Y-126147489D01*
X262569222Y-126198499D01*
X262591405Y-131688853D01*
X262571991Y-131755971D01*
X262532503Y-131794893D01*
X262431342Y-131857289D01*
X262307289Y-131981342D01*
X262215187Y-132130663D01*
X262215186Y-132130666D01*
X262160001Y-132297203D01*
X262160001Y-132297204D01*
X262160000Y-132297204D01*
X262149500Y-132399983D01*
X262149500Y-132458480D01*
X262129815Y-132525519D01*
X262113181Y-132546161D01*
X261105888Y-133553453D01*
X261105887Y-133553454D01*
X261076000Y-133598183D01*
X261046248Y-133642712D01*
X261046247Y-133642714D01*
X261029223Y-133668190D01*
X260976421Y-133795667D01*
X260976418Y-133795677D01*
X260949500Y-133931004D01*
X260949500Y-134128271D01*
X260941682Y-134171604D01*
X260905908Y-134267517D01*
X260899501Y-134327116D01*
X260899500Y-134327135D01*
X260899501Y-135476000D01*
X260879816Y-135543039D01*
X260827013Y-135588794D01*
X260775501Y-135600000D01*
X256857971Y-135600000D01*
X256790932Y-135580315D01*
X256745177Y-135527511D01*
X256733972Y-135475499D01*
X256771455Y-126198499D01*
X256791410Y-126131540D01*
X256844399Y-126085998D01*
X256895454Y-126075000D01*
X262445223Y-126075000D01*
X262512262Y-126094685D01*
G37*
%TD.AperFunction*%
%TD*%
M02*
