%TF.GenerationSoftware,KiCad,Pcbnew,10.0.1*%
%TF.CreationDate,2026-05-11T21:52:55+02:00*%
%TF.ProjectId,DrohneV1,44726f68-6e65-4563-912e-6b696361645f,rev?*%
%TF.SameCoordinates,Original*%
%TF.FileFunction,Copper,L1,Top*%
%TF.FilePolarity,Positive*%
%FSLAX46Y46*%
G04 Gerber Fmt 4.6, Leading zero omitted, Abs format (unit mm)*
G04 Created by KiCad (PCBNEW 10.0.1) date 2026-05-11 21:52:55*
%MOMM*%
%LPD*%
G01*
G04 APERTURE LIST*
G04 Aperture macros list*
%AMRoundRect*
0 Rectangle with rounded corners*
0 $1 Rounding radius*
0 $2 $3 $4 $5 $6 $7 $8 $9 X,Y pos of 4 corners*
0 Add a 4 corners polygon primitive as box body*
4,1,4,$2,$3,$4,$5,$6,$7,$8,$9,$2,$3,0*
0 Add four circle primitives for the rounded corners*
1,1,$1+$1,$2,$3*
1,1,$1+$1,$4,$5*
1,1,$1+$1,$6,$7*
1,1,$1+$1,$8,$9*
0 Add four rect primitives between the rounded corners*
20,1,$1+$1,$2,$3,$4,$5,0*
20,1,$1+$1,$4,$5,$6,$7,0*
20,1,$1+$1,$6,$7,$8,$9,0*
20,1,$1+$1,$8,$9,$2,$3,0*%
G04 Aperture macros list end*
%TA.AperFunction,SMDPad,CuDef*%
%ADD10R,2.400000X0.740000*%
%TD*%
%TA.AperFunction,SMDPad,CuDef*%
%ADD11RoundRect,0.200000X0.275000X-0.200000X0.275000X0.200000X-0.275000X0.200000X-0.275000X-0.200000X0*%
%TD*%
%TA.AperFunction,ComponentPad*%
%ADD12C,4.100000*%
%TD*%
%TA.AperFunction,ComponentPad*%
%ADD13RoundRect,1.025000X-1.025000X1.025000X-1.025000X-1.025000X1.025000X-1.025000X1.025000X1.025000X0*%
%TD*%
%TA.AperFunction,ComponentPad*%
%ADD14R,2.000000X0.900000*%
%TD*%
%TA.AperFunction,SMDPad,CuDef*%
%ADD15R,0.600000X0.800000*%
%TD*%
%TA.AperFunction,SMDPad,CuDef*%
%ADD16R,0.500000X0.750000*%
%TD*%
%TA.AperFunction,SMDPad,CuDef*%
%ADD17R,1.500000X1.500000*%
%TD*%
%TA.AperFunction,SMDPad,CuDef*%
%ADD18R,4.410000X3.750000*%
%TD*%
%TA.AperFunction,SMDPad,CuDef*%
%ADD19R,0.400000X0.450000*%
%TD*%
%TA.AperFunction,SMDPad,CuDef*%
%ADD20R,0.500000X1.100000*%
%TD*%
%TA.AperFunction,SMDPad,CuDef*%
%ADD21R,0.400000X0.350000*%
%TD*%
%TA.AperFunction,SMDPad,CuDef*%
%ADD22R,0.900000X0.450000*%
%TD*%
%TA.AperFunction,SMDPad,CuDef*%
%ADD23R,3.200000X0.600000*%
%TD*%
%TA.AperFunction,SMDPad,CuDef*%
%ADD24RoundRect,1.250000X3.750000X-1.250000X3.750000X1.250000X-3.750000X1.250000X-3.750000X-1.250000X0*%
%TD*%
%TA.AperFunction,SMDPad,CuDef*%
%ADD25R,1.200000X0.300000*%
%TD*%
%TA.AperFunction,SMDPad,CuDef*%
%ADD26R,0.300000X1.200000*%
%TD*%
%TA.AperFunction,SMDPad,CuDef*%
%ADD27R,0.400000X0.250000*%
%TD*%
%TA.AperFunction,SMDPad,CuDef*%
%ADD28R,0.250000X0.400000*%
%TD*%
%TA.AperFunction,ComponentPad*%
%ADD29C,0.600000*%
%TD*%
%TA.AperFunction,SMDPad,CuDef*%
%ADD30R,1.170000X1.170000*%
%TD*%
%TA.AperFunction,HeatsinkPad*%
%ADD31R,4.500000X4.500000*%
%TD*%
%TA.AperFunction,SMDPad,CuDef*%
%ADD32RoundRect,0.250000X-0.450000X0.262500X-0.450000X-0.262500X0.450000X-0.262500X0.450000X0.262500X0*%
%TD*%
%TA.AperFunction,SMDPad,CuDef*%
%ADD33RoundRect,0.250000X0.450000X-0.262500X0.450000X0.262500X-0.450000X0.262500X-0.450000X-0.262500X0*%
%TD*%
%TA.AperFunction,SMDPad,CuDef*%
%ADD34RoundRect,0.225000X-0.250000X0.225000X-0.250000X-0.225000X0.250000X-0.225000X0.250000X0.225000X0*%
%TD*%
%TA.AperFunction,SMDPad,CuDef*%
%ADD35RoundRect,0.200000X-0.200000X-0.275000X0.200000X-0.275000X0.200000X0.275000X-0.200000X0.275000X0*%
%TD*%
%TA.AperFunction,SMDPad,CuDef*%
%ADD36RoundRect,0.250000X0.475000X-0.250000X0.475000X0.250000X-0.475000X0.250000X-0.475000X-0.250000X0*%
%TD*%
%TA.AperFunction,SMDPad,CuDef*%
%ADD37RoundRect,0.250000X0.325000X1.100000X-0.325000X1.100000X-0.325000X-1.100000X0.325000X-1.100000X0*%
%TD*%
%TA.AperFunction,SMDPad,CuDef*%
%ADD38RoundRect,0.200000X-0.275000X0.200000X-0.275000X-0.200000X0.275000X-0.200000X0.275000X0.200000X0*%
%TD*%
%TA.AperFunction,SMDPad,CuDef*%
%ADD39RoundRect,0.250000X-0.325000X-1.100000X0.325000X-1.100000X0.325000X1.100000X-0.325000X1.100000X0*%
%TD*%
%TA.AperFunction,SMDPad,CuDef*%
%ADD40RoundRect,0.112500X-0.112500X0.350000X-0.112500X-0.350000X0.112500X-0.350000X0.112500X0.350000X0*%
%TD*%
%TA.AperFunction,SMDPad,CuDef*%
%ADD41RoundRect,0.225000X0.250000X-0.225000X0.250000X0.225000X-0.250000X0.225000X-0.250000X-0.225000X0*%
%TD*%
%TA.AperFunction,SMDPad,CuDef*%
%ADD42RoundRect,0.200000X0.200000X0.275000X-0.200000X0.275000X-0.200000X-0.275000X0.200000X-0.275000X0*%
%TD*%
%TA.AperFunction,SMDPad,CuDef*%
%ADD43RoundRect,0.225000X0.225000X0.250000X-0.225000X0.250000X-0.225000X-0.250000X0.225000X-0.250000X0*%
%TD*%
%TA.AperFunction,SMDPad,CuDef*%
%ADD44RoundRect,0.225000X-0.225000X-0.250000X0.225000X-0.250000X0.225000X0.250000X-0.225000X0.250000X0*%
%TD*%
%TA.AperFunction,SMDPad,CuDef*%
%ADD45RoundRect,0.250000X0.362500X1.425000X-0.362500X1.425000X-0.362500X-1.425000X0.362500X-1.425000X0*%
%TD*%
%TA.AperFunction,ComponentPad*%
%ADD46R,1.700000X1.700000*%
%TD*%
%TA.AperFunction,ComponentPad*%
%ADD47C,1.700000*%
%TD*%
%TA.AperFunction,SMDPad,CuDef*%
%ADD48R,2.950000X3.500000*%
%TD*%
%TA.AperFunction,SMDPad,CuDef*%
%ADD49R,0.600000X1.550000*%
%TD*%
%TA.AperFunction,SMDPad,CuDef*%
%ADD50R,4.900000X2.950000*%
%TD*%
%TA.AperFunction,ViaPad*%
%ADD51C,0.600000*%
%TD*%
%TA.AperFunction,ViaPad*%
%ADD52C,0.500000*%
%TD*%
%TA.AperFunction,Conductor*%
%ADD53C,0.200000*%
%TD*%
%TA.AperFunction,Conductor*%
%ADD54C,0.300000*%
%TD*%
%TA.AperFunction,Conductor*%
%ADD55C,0.500000*%
%TD*%
%TA.AperFunction,Conductor*%
%ADD56C,0.400000*%
%TD*%
%TA.AperFunction,Conductor*%
%ADD57C,0.800000*%
%TD*%
%TA.AperFunction,Conductor*%
%ADD58C,0.600000*%
%TD*%
G04 APERTURE END LIST*
D10*
%TO.P,J2,10,~{RESET}_10*%
%TO.N,/NRST*%
X240400000Y-90090000D03*
%TO.P,J2,9,GNDDetect_9*%
%TO.N,GND*%
X236500000Y-90090000D03*
%TO.P,J2,8,NC/TDI_8*%
%TO.N,unconnected-(J2-NC{slash}TDI-Pad8)*%
X240400000Y-88820000D03*
%TO.P,J2,7,KEY_7*%
%TO.N,unconnected-(J2-KEY-Pad7)*%
X236500000Y-88820000D03*
%TO.P,J2,6,SWO/TDO_6*%
%TO.N,/SWO*%
X240400000Y-87550000D03*
%TO.P,J2,5,GND_5*%
%TO.N,GND*%
X236500000Y-87550000D03*
%TO.P,J2,4,SWCLK/TCK_4*%
%TO.N,/SWCLK*%
X240400000Y-86280000D03*
%TO.P,J2,3,GND_3*%
%TO.N,GND*%
X236500000Y-86280000D03*
%TO.P,J2,2,SWDIO/TMS_2*%
%TO.N,/SWDIO*%
X240400000Y-85010000D03*
%TO.P,J2,1,VTref_1*%
%TO.N,+3.3V*%
X236500000Y-85010000D03*
%TD*%
D11*
%TO.P,R38,2*%
%TO.N,GNDA*%
X211050000Y-107625000D03*
%TO.P,R38,1*%
%TO.N,GND*%
X211050000Y-109275000D03*
%TD*%
D12*
%TO.P,J3,2,Pin_2_2*%
%TO.N,/VAkku -*%
X260050000Y-128775000D03*
D13*
%TO.P,J3,1,Pin_1_1*%
%TO.N,/VAkku +*%
X260050000Y-121575000D03*
D14*
%TO.P,J3,*%
%TO.N,*%
X266050000Y-131925000D03*
X266050000Y-118425000D03*
%TD*%
D15*
%TO.P,U17,D,D_D*%
%TO.N,/Phase C*%
X252825000Y-145825000D03*
D16*
X252825000Y-145800000D03*
D17*
X251770000Y-144400000D03*
X251770000Y-142700000D03*
D15*
X251555000Y-145825000D03*
D16*
X251555000Y-145800000D03*
D18*
X250920000Y-143550000D03*
D15*
X250285000Y-145825000D03*
D16*
X250285000Y-145800000D03*
D17*
X250070000Y-144400000D03*
X250070000Y-142700000D03*
D15*
X249015000Y-145825000D03*
D16*
X249015000Y-145800000D03*
D19*
%TO.P,U17,G,G_G*%
%TO.N,Net-(R11-Pad2)*%
X248965000Y-140400000D03*
D20*
X248965000Y-140125000D03*
D21*
X248965000Y-139800000D03*
D20*
%TO.P,U17,S,S_S*%
%TO.N,Net-(U18-SPC)*%
X252775000Y-140125000D03*
D21*
X252775000Y-139800000D03*
D22*
X252685000Y-140400000D03*
D23*
X251586000Y-140375000D03*
D22*
X251585000Y-140400000D03*
D20*
X251505000Y-140125000D03*
D21*
X251505000Y-139800000D03*
D22*
X250485000Y-140400000D03*
D20*
X250235000Y-140125000D03*
D21*
X250235000Y-139800000D03*
%TD*%
D15*
%TO.P,U11,D,D_D*%
%TO.N,/VAkku +*%
X211025000Y-139872917D03*
D16*
X211025000Y-139897917D03*
D17*
X212080000Y-141297917D03*
X212080000Y-142997917D03*
D15*
X212295000Y-139872917D03*
D16*
X212295000Y-139897917D03*
D18*
X212930000Y-142147917D03*
D15*
X213565000Y-139872917D03*
D16*
X213565000Y-139897917D03*
D17*
X213780000Y-141297917D03*
X213780000Y-142997917D03*
D15*
X214835000Y-139872917D03*
D16*
X214835000Y-139897917D03*
D19*
%TO.P,U11,G,G_G*%
%TO.N,Net-(R29-Pad1)*%
X214885000Y-145297917D03*
D20*
X214885000Y-145572917D03*
D21*
X214885000Y-145897917D03*
D20*
%TO.P,U11,S,S_S*%
%TO.N,/Phase A*%
X211075000Y-145572917D03*
D21*
X211075000Y-145897917D03*
D22*
X211165000Y-145297917D03*
D23*
X212264000Y-145322917D03*
D22*
X212265000Y-145297917D03*
D20*
X212345000Y-145572917D03*
D21*
X212345000Y-145897917D03*
D22*
X213365000Y-145297917D03*
D20*
X213615000Y-145572917D03*
D21*
X213615000Y-145897917D03*
%TD*%
D15*
%TO.P,U16,D,D_D*%
%TO.N,/VAkku +*%
X241130000Y-139975000D03*
D16*
X241130000Y-140000000D03*
D17*
X242185000Y-141400000D03*
X242185000Y-143100000D03*
D15*
X242400000Y-139975000D03*
D16*
X242400000Y-140000000D03*
D18*
X243035000Y-142250000D03*
D15*
X243670000Y-139975000D03*
D16*
X243670000Y-140000000D03*
D17*
X243885000Y-141400000D03*
X243885000Y-143100000D03*
D15*
X244940000Y-139975000D03*
D16*
X244940000Y-140000000D03*
D19*
%TO.P,U16,G,G_G*%
%TO.N,Net-(R10-Pad2)*%
X244990000Y-145400000D03*
D20*
X244990000Y-145675000D03*
D21*
X244990000Y-146000000D03*
D20*
%TO.P,U16,S,S_S*%
%TO.N,/Phase C*%
X241180000Y-145675000D03*
D21*
X241180000Y-146000000D03*
D22*
X241270000Y-145400000D03*
D23*
X242369000Y-145425000D03*
D22*
X242370000Y-145400000D03*
D20*
X242450000Y-145675000D03*
D21*
X242450000Y-146000000D03*
D22*
X243470000Y-145400000D03*
D20*
X243720000Y-145675000D03*
D21*
X243720000Y-146000000D03*
%TD*%
D15*
%TO.P,U14,D,D_D*%
%TO.N,/VAkku +*%
X226140000Y-139925000D03*
D16*
X226140000Y-139950000D03*
D17*
X227195000Y-141350000D03*
X227195000Y-143050000D03*
D15*
X227410000Y-139925000D03*
D16*
X227410000Y-139950000D03*
D18*
X228045000Y-142200000D03*
D15*
X228680000Y-139925000D03*
D16*
X228680000Y-139950000D03*
D17*
X228895000Y-141350000D03*
X228895000Y-143050000D03*
D15*
X229950000Y-139925000D03*
D16*
X229950000Y-139950000D03*
D19*
%TO.P,U14,G,G_G*%
%TO.N,Net-(R31-Pad1)*%
X230000000Y-145350000D03*
D20*
X230000000Y-145625000D03*
D21*
X230000000Y-145950000D03*
D20*
%TO.P,U14,S,S_S*%
%TO.N,/Phase B*%
X226190000Y-145625000D03*
D21*
X226190000Y-145950000D03*
D22*
X226280000Y-145350000D03*
D23*
X227379000Y-145375000D03*
D22*
X227380000Y-145350000D03*
D20*
X227460000Y-145625000D03*
D21*
X227460000Y-145950000D03*
D22*
X228480000Y-145350000D03*
D20*
X228730000Y-145625000D03*
D21*
X228730000Y-145950000D03*
%TD*%
D15*
%TO.P,U15,D,D_D*%
%TO.N,/Phase B*%
X237840000Y-145775000D03*
D16*
X237840000Y-145750000D03*
D17*
X236785000Y-144350000D03*
X236785000Y-142650000D03*
D15*
X236570000Y-145775000D03*
D16*
X236570000Y-145750000D03*
D18*
X235935000Y-143500000D03*
D15*
X235300000Y-145775000D03*
D16*
X235300000Y-145750000D03*
D17*
X235085000Y-144350000D03*
X235085000Y-142650000D03*
D15*
X234030000Y-145775000D03*
D16*
X234030000Y-145750000D03*
D19*
%TO.P,U15,G,G_G*%
%TO.N,Net-(R32-Pad1)*%
X233980000Y-140350000D03*
D20*
X233980000Y-140075000D03*
D21*
X233980000Y-139750000D03*
D20*
%TO.P,U15,S,S_S*%
%TO.N,Net-(U18-SPB)*%
X237790000Y-140075000D03*
D21*
X237790000Y-139750000D03*
D22*
X237700000Y-140350000D03*
D23*
X236601000Y-140325000D03*
D22*
X236600000Y-140350000D03*
D20*
X236520000Y-140075000D03*
D21*
X236520000Y-139750000D03*
D22*
X235500000Y-140350000D03*
D20*
X235250000Y-140075000D03*
D21*
X235250000Y-139750000D03*
%TD*%
D15*
%TO.P,U13,D,D_D*%
%TO.N,/Phase A*%
X222745000Y-145727799D03*
D16*
X222745000Y-145702799D03*
D17*
X221690000Y-144302799D03*
X221690000Y-142602799D03*
D15*
X221475000Y-145727799D03*
D16*
X221475000Y-145702799D03*
D18*
X220840000Y-143452799D03*
D15*
X220205000Y-145727799D03*
D16*
X220205000Y-145702799D03*
D17*
X219990000Y-144302799D03*
X219990000Y-142602799D03*
D15*
X218935000Y-145727799D03*
D16*
X218935000Y-145702799D03*
D19*
%TO.P,U13,G,G_G*%
%TO.N,Net-(R30-Pad1)*%
X218885000Y-140302799D03*
D20*
X218885000Y-140027799D03*
D21*
X218885000Y-139702799D03*
D20*
%TO.P,U13,S,S_S*%
%TO.N,Net-(U18-SPA)*%
X222695000Y-140027799D03*
D21*
X222695000Y-139702799D03*
D22*
X222605000Y-140302799D03*
D23*
X221506000Y-140277799D03*
D22*
X221505000Y-140302799D03*
D20*
X221425000Y-140027799D03*
D21*
X221425000Y-139702799D03*
D22*
X220405000Y-140302799D03*
D20*
X220155000Y-140027799D03*
D21*
X220155000Y-139702799D03*
%TD*%
D24*
%TO.P,J5,1,Pin_1_1*%
%TO.N,/Phase B*%
X232050000Y-149500000D03*
%TD*%
D25*
%TO.P,U2,48,VDD_48*%
%TO.N,+3.3V*%
X231050000Y-104850000D03*
%TO.P,U2,47,VSS_47*%
%TO.N,GND*%
X231050000Y-105350000D03*
%TO.P,U2,46,PB9_46*%
%TO.N,unconnected-(U2-PB9-Pad46)*%
X231050000Y-105850000D03*
%TO.P,U2,45,PB8-BOOT0_45*%
%TO.N,/BOOT*%
X231050000Y-106350000D03*
%TO.P,U2,44,PB7_44*%
%TO.N,unconnected-(U2-PB7-Pad44)*%
X231050000Y-106850000D03*
%TO.P,U2,43,PB6_43*%
%TO.N,Net-(U2-PB6)*%
X231050000Y-107350000D03*
%TO.P,U2,42,PB5_42*%
%TO.N,/ENABLE*%
X231050000Y-107850000D03*
%TO.P,U2,41,PB4_41*%
%TO.N,/nFAULT*%
X231050000Y-108350000D03*
%TO.P,U2,40,PB3_40*%
%TO.N,/SWO*%
X231050000Y-108850000D03*
%TO.P,U2,39,PA15_39*%
%TO.N,unconnected-(U2-PA15-Pad39)*%
X231050000Y-109350000D03*
%TO.P,U2,38,PA14_38*%
%TO.N,/SWCLK*%
X231050000Y-109850000D03*
%TO.P,U2,37,PA13_37*%
%TO.N,/SWDIO*%
X231050000Y-110350000D03*
D26*
%TO.P,U2,36,VDD_36*%
%TO.N,+3.3V*%
X229550000Y-111850000D03*
%TO.P,U2,35,VSS_35*%
%TO.N,GND*%
X229050000Y-111850000D03*
%TO.P,U2,34,PA12_34*%
%TO.N,unconnected-(U2-PA12-Pad34)*%
X228550000Y-111850000D03*
%TO.P,U2,33,PA11_33*%
%TO.N,unconnected-(U2-PA11-Pad33)*%
X228050000Y-111850000D03*
%TO.P,U2,32,PA10_32*%
%TO.N,/INHC*%
X227550000Y-111850000D03*
%TO.P,U2,31,PA9_31*%
%TO.N,/INHB*%
X227050000Y-111850000D03*
%TO.P,U2,30,PA8_30*%
%TO.N,/INHA*%
X226550000Y-111850000D03*
%TO.P,U2,29,PB15_29*%
%TO.N,/SDI*%
X226050000Y-111850000D03*
%TO.P,U2,28,PB14_28*%
%TO.N,/SDO*%
X225550000Y-111850000D03*
%TO.P,U2,27,PB13_27*%
%TO.N,/SCLK*%
X225050000Y-111850000D03*
%TO.P,U2,26,PB12_26*%
%TO.N,/nSCS*%
X224550000Y-111850000D03*
%TO.P,U2,25,PB11_25*%
%TO.N,unconnected-(U2-PB11-Pad25)*%
X224050000Y-111850000D03*
D25*
%TO.P,U2,24,VDD_24*%
%TO.N,+3.3V*%
X222550000Y-110350000D03*
%TO.P,U2,23,VSS_23*%
%TO.N,GND*%
X222550000Y-109850000D03*
%TO.P,U2,22,PB10_22*%
%TO.N,unconnected-(U2-PB10-Pad22)*%
X222550000Y-109350000D03*
%TO.P,U2,21,VDDA_21*%
%TO.N,Net-(U2-VDDA)*%
X222550000Y-108850000D03*
%TO.P,U2,20,VREF+_20*%
%TO.N,+3.3V*%
X222550000Y-108350000D03*
%TO.P,U2,19,VSSA_19*%
%TO.N,GNDA*%
X222550000Y-107850000D03*
%TO.P,U2,18,PB2_18*%
%TO.N,/BEMF Phase C*%
X222550000Y-107350000D03*
%TO.P,U2,17,PB1_17*%
%TO.N,/INLC*%
X222550000Y-106850000D03*
%TO.P,U2,16,PB0_16*%
%TO.N,/INLB*%
X222550000Y-106350000D03*
%TO.P,U2,15,PA7_15*%
%TO.N,/INLA*%
X222550000Y-105850000D03*
%TO.P,U2,14,PA6_14*%
%TO.N,unconnected-(U2-PA6-Pad14)*%
X222550000Y-105350000D03*
%TO.P,U2,13,PA5_13*%
%TO.N,/BEMF Phase B*%
X222550000Y-104850000D03*
D26*
%TO.P,U2,12,PA4_12*%
%TO.N,/BEMF Phase A*%
X224050000Y-103350000D03*
%TO.P,U2,11,PA3_11*%
%TO.N,/VBAT Sense*%
X224550000Y-103350000D03*
%TO.P,U2,10,PA2_10*%
%TO.N,Net-(U2-PA2)*%
X225050000Y-103350000D03*
%TO.P,U2,9,PA1_9*%
%TO.N,Net-(U2-PA1)*%
X225550000Y-103350000D03*
%TO.P,U2,8,PA0_8*%
%TO.N,Net-(U2-PA0)*%
X226050000Y-103350000D03*
%TO.P,U2,7,PG10-NRST_7*%
%TO.N,/NRST*%
X226550000Y-103350000D03*
%TO.P,U2,6,PF1-OSC_OUT_6*%
%TO.N,unconnected-(U2-PF1-OSC_OUT-Pad6)*%
X227050000Y-103350000D03*
%TO.P,U2,5,PF0-OSC_IN_5*%
%TO.N,unconnected-(U2-PF0-OSC_IN-Pad5)*%
X227550000Y-103350000D03*
%TO.P,U2,4,PC15-OSC32_OUT_4*%
%TO.N,unconnected-(U2-PC15-OSC32_OUT-Pad4)*%
X228050000Y-103350000D03*
%TO.P,U2,3,PC14-OSC32_IN_3*%
%TO.N,unconnected-(U2-PC14-OSC32_IN-Pad3)*%
X228550000Y-103350000D03*
%TO.P,U2,2,PC13_2*%
%TO.N,unconnected-(U2-PC13-Pad2)*%
X229050000Y-103350000D03*
%TO.P,U2,1,VBAT_1*%
%TO.N,+3.3V*%
X229550000Y-103350000D03*
%TD*%
D24*
%TO.P,J6,1,Pin_1_1*%
%TO.N,/Phase C*%
X247100000Y-149500000D03*
%TD*%
%TO.P,J4,1,Pin_1_1*%
%TO.N,/Phase A*%
X216850000Y-149500000D03*
%TD*%
D27*
%TO.P,U18,1,CPL_1*%
%TO.N,Net-(U18-CPL)*%
X226700000Y-122000000D03*
%TO.P,U18,2,CPH_2*%
%TO.N,Net-(U18-CPH)*%
X226700000Y-122500000D03*
%TO.P,U18,3,VM_3*%
%TO.N,/VAkku +*%
X226700000Y-123000000D03*
%TO.P,U18,4,VDRAIN_4*%
X226700000Y-123500000D03*
%TO.P,U18,5,VCP_5*%
%TO.N,Net-(U18-VCP)*%
X226700000Y-124000000D03*
%TO.P,U18,6,GHA_6*%
%TO.N,Net-(U18-GHA)*%
X226700000Y-124500000D03*
%TO.P,U18,7,SHA_7*%
%TO.N,/Phase A*%
X226700000Y-125000000D03*
%TO.P,U18,8,GLA_8*%
%TO.N,Net-(U18-GLA)*%
X226700000Y-125500000D03*
%TO.P,U18,9,SPA_9*%
%TO.N,Net-(U18-SPA)*%
X226700000Y-126000000D03*
%TO.P,U18,10,SNA_10*%
%TO.N,GND*%
X226700000Y-126500000D03*
D28*
%TO.P,U18,11,SNB_11*%
X227200000Y-127000000D03*
%TO.P,U18,12,SPB_12*%
%TO.N,Net-(U18-SPB)*%
X227700000Y-127000000D03*
%TO.P,U18,13,GLB_13*%
%TO.N,Net-(U18-GLB)*%
X228200000Y-127000000D03*
%TO.P,U18,14,SHB_14*%
%TO.N,/Phase B*%
X228700000Y-127000000D03*
%TO.P,U18,15,GHB_15*%
%TO.N,Net-(U18-GHB)*%
X229200000Y-127000000D03*
%TO.P,U18,16,GHC_16*%
%TO.N,Net-(U18-GHC)*%
X229700000Y-127000000D03*
%TO.P,U18,17,SHC_17*%
%TO.N,/Phase C*%
X230200000Y-127000000D03*
%TO.P,U18,18,GLC_18*%
%TO.N,Net-(U18-GLC)*%
X230700000Y-127000000D03*
%TO.P,U18,19,SPC_19*%
%TO.N,Net-(U18-SPC)*%
X231200000Y-127000000D03*
%TO.P,U18,20,SNC_20*%
%TO.N,GND*%
X231700000Y-127000000D03*
D27*
%TO.P,U18,21,SOC_21*%
%TO.N,/SOC*%
X232200000Y-126500000D03*
%TO.P,U18,22,SOB_22*%
%TO.N,/SOB*%
X232200000Y-126000000D03*
%TO.P,U18,23,SOA_23*%
%TO.N,/SOA*%
X232200000Y-125500000D03*
%TO.P,U18,24,VREF_24*%
%TO.N,+3.3V*%
X232200000Y-125000000D03*
%TO.P,U18,25,AGND_25*%
%TO.N,GND*%
X232200000Y-124500000D03*
%TO.P,U18,26,nFAULT_26*%
%TO.N,/nFAULT*%
X232200000Y-124000000D03*
%TO.P,U18,27,SDO_27*%
%TO.N,/SDO*%
X232200000Y-123500000D03*
%TO.P,U18,28,SDI_28*%
%TO.N,/SDI*%
X232200000Y-123000000D03*
%TO.P,U18,29,SCLK_29*%
%TO.N,/SCLK*%
X232200000Y-122500000D03*
%TO.P,U18,30,nSCS_30*%
%TO.N,/nSCS*%
X232200000Y-122000000D03*
D28*
%TO.P,U18,31,ENABLE_31*%
%TO.N,/ENABLE*%
X231700000Y-121500000D03*
%TO.P,U18,32,INHA_32*%
%TO.N,/INHA*%
X231200000Y-121500000D03*
%TO.P,U18,33,INLA_33*%
%TO.N,/INLA*%
X230700000Y-121500000D03*
%TO.P,U18,34,INHB_34*%
%TO.N,/INHB*%
X230200000Y-121500000D03*
%TO.P,U18,35,INLB_35*%
%TO.N,/INLB*%
X229700000Y-121500000D03*
%TO.P,U18,36,INHC_36*%
%TO.N,/INHC*%
X229200000Y-121500000D03*
%TO.P,U18,37,INLC_37*%
%TO.N,/INLC*%
X228700000Y-121500000D03*
%TO.P,U18,38,DVDD_38*%
%TO.N,Net-(U18-DVDD)*%
X228200000Y-121500000D03*
%TO.P,U18,39,GND_39*%
%TO.N,GND*%
X227700000Y-121500000D03*
%TO.P,U18,40,VGLS_40*%
%TO.N,Net-(U18-VGLS)*%
X227200000Y-121500000D03*
D29*
%TO.P,U18,41,HeatPad_41*%
%TO.N,GND*%
X227500000Y-123450000D03*
X227500000Y-125050000D03*
D30*
X227850000Y-122650000D03*
X227850000Y-124250000D03*
X227850000Y-125850000D03*
D29*
X228650000Y-122300000D03*
X228650000Y-123450000D03*
X228650000Y-125050000D03*
X228650000Y-126200000D03*
D30*
X229450000Y-122650000D03*
X229450000Y-124250000D03*
D31*
X229450000Y-124250000D03*
D30*
X229450000Y-125850000D03*
D29*
X230250000Y-122300000D03*
X230250000Y-123450000D03*
X230250000Y-125050000D03*
X230250000Y-126200000D03*
D30*
X231050000Y-122650000D03*
X231050000Y-124250000D03*
X231050000Y-125850000D03*
D29*
X231400000Y-123450000D03*
X231400000Y-125050000D03*
%TD*%
D32*
%TO.P,R9,1*%
%TO.N,Net-(U18-GLB)*%
X234050000Y-132237500D03*
%TO.P,R9,2*%
%TO.N,Net-(R32-Pad1)*%
X234050000Y-134062500D03*
%TD*%
D33*
%TO.P,R18,1*%
%TO.N,+3.3V*%
X217250000Y-110162500D03*
%TO.P,R18,2*%
%TO.N,Net-(U2-VDDA)*%
X217250000Y-108337500D03*
%TD*%
D34*
%TO.P,C7,1*%
%TO.N,GND*%
X225200000Y-117875000D03*
%TO.P,C7,2*%
%TO.N,Net-(U18-VGLS)*%
X225200000Y-119425000D03*
%TD*%
D35*
%TO.P,R22,1*%
%TO.N,GNDA*%
X216075000Y-100787500D03*
%TO.P,R22,2*%
%TO.N,/BEMF Phase B*%
X217725000Y-100787500D03*
%TD*%
D36*
%TO.P,C12,1*%
%TO.N,/VAkku +*%
X240585000Y-137850000D03*
%TO.P,C12,2*%
%TO.N,GND*%
X240585000Y-135950000D03*
%TD*%
D37*
%TO.P,Cin1,1*%
%TO.N,/VAkku +*%
X262250000Y-108150000D03*
%TO.P,Cin1,2*%
%TO.N,GND*%
X259300000Y-108150000D03*
%TD*%
D35*
%TO.P,R15,1*%
%TO.N,/ENABLE*%
X234375000Y-109450000D03*
%TO.P,R15,2*%
%TO.N,GND*%
X236025000Y-109450000D03*
%TD*%
D32*
%TO.P,R7,1*%
%TO.N,Net-(U18-GLA)*%
X218885000Y-132240299D03*
%TO.P,R7,2*%
%TO.N,Net-(R30-Pad1)*%
X218885000Y-134065299D03*
%TD*%
D38*
%TO.P,R29,1*%
%TO.N,Net-(R29-Pad1)*%
X216935000Y-143577799D03*
%TO.P,R29,2*%
%TO.N,/Phase A*%
X216935000Y-145227799D03*
%TD*%
D39*
%TO.P,Cout1,1*%
%TO.N,+3.3V*%
X250695000Y-105450000D03*
%TO.P,Cout1,2*%
%TO.N,GND*%
X253645000Y-105450000D03*
%TD*%
D40*
%TO.P,D2,1,A_1*%
%TO.N,/3V3 Ext*%
X249325000Y-97087500D03*
%TO.P,D2,2,NC_2*%
%TO.N,unconnected-(D2-NC-Pad2)*%
X248025000Y-97087500D03*
%TO.P,D2,3,K_3*%
%TO.N,+3.3V*%
X248675000Y-98862500D03*
%TD*%
D41*
%TO.P,C17,1*%
%TO.N,/BEMF Phase A*%
X219175000Y-97450000D03*
%TO.P,C17,2*%
%TO.N,GNDA*%
X219175000Y-95900000D03*
%TD*%
D34*
%TO.P,R1,1*%
%TO.N,GND*%
X232100000Y-118225000D03*
%TO.P,R1,2*%
%TO.N,/ENABLE*%
X232100000Y-119775000D03*
%TD*%
D39*
%TO.P,Cout2,1*%
%TO.N,+3.3V*%
X250695000Y-108850000D03*
%TO.P,Cout2,2*%
%TO.N,GND*%
X253645000Y-108850000D03*
%TD*%
D42*
%TO.P,R17,1*%
%TO.N,GND*%
X236020000Y-106145000D03*
%TO.P,R17,2*%
%TO.N,/BOOT*%
X234370000Y-106145000D03*
%TD*%
D43*
%TO.P,C4,1*%
%TO.N,+3.3V*%
X236575000Y-125250000D03*
%TO.P,C4,2*%
%TO.N,GND*%
X235025000Y-125250000D03*
%TD*%
D38*
%TO.P,R33,1*%
%TO.N,Net-(R10-Pad2)*%
X247082928Y-143653193D03*
%TO.P,R33,2*%
%TO.N,/Phase C*%
X247082928Y-145303193D03*
%TD*%
D42*
%TO.P,R35,1*%
%TO.N,/SOC*%
X228275000Y-96300000D03*
%TO.P,R35,2*%
%TO.N,Net-(U2-PA2)*%
X226625000Y-96300000D03*
%TD*%
D34*
%TO.P,C5,1*%
%TO.N,GND*%
X226800000Y-117875000D03*
%TO.P,C5,2*%
%TO.N,Net-(U18-DVDD)*%
X226800000Y-119425000D03*
%TD*%
D42*
%TO.P,R20,1*%
%TO.N,/nSCS*%
X224375000Y-113850000D03*
%TO.P,R20,2*%
%TO.N,+3.3V*%
X222725000Y-113850000D03*
%TD*%
D43*
%TO.P,C19,1*%
%TO.N,/BEMF Phase C*%
X217687500Y-105812500D03*
%TO.P,C19,2*%
%TO.N,GNDA*%
X216137500Y-105812500D03*
%TD*%
D38*
%TO.P,R31,1*%
%TO.N,Net-(R31-Pad1)*%
X232100000Y-143625000D03*
%TO.P,R31,2*%
%TO.N,/Phase B*%
X232100000Y-145275000D03*
%TD*%
D44*
%TO.P,C_VDD24,1*%
%TO.N,+3.3V*%
X219025000Y-110200000D03*
%TO.P,C_VDD24,2*%
%TO.N,GND*%
X220575000Y-110200000D03*
%TD*%
D45*
%TO.P,R3,1*%
%TO.N,Net-(U18-SPB)*%
X235612500Y-136900000D03*
%TO.P,R3,2*%
%TO.N,GND*%
X229687500Y-136900000D03*
%TD*%
D11*
%TO.P,R25,1*%
%TO.N,/Phase C*%
X219312500Y-106637500D03*
%TO.P,R25,2*%
%TO.N,/BEMF Phase C*%
X219312500Y-104987500D03*
%TD*%
D41*
%TO.P,C15,1*%
%TO.N,/NRST*%
X232950000Y-101025000D03*
%TO.P,C15,2*%
%TO.N,GNDA*%
X232950000Y-99475000D03*
%TD*%
D43*
%TO.P,C18,1*%
%TO.N,/BEMF Phase B*%
X217675000Y-102487500D03*
%TO.P,C18,2*%
%TO.N,GNDA*%
X216125000Y-102487500D03*
%TD*%
D41*
%TO.P,Cboot1,1*%
%TO.N,Net-(U1-BOOT)*%
X261440000Y-98075000D03*
%TO.P,Cboot1,2*%
%TO.N,Net-(U1-SW)*%
X261440000Y-96525000D03*
%TD*%
D39*
%TO.P,Cout4,1*%
%TO.N,+3.3V*%
X250695000Y-115650000D03*
%TO.P,Cout4,2*%
%TO.N,GND*%
X253645000Y-115650000D03*
%TD*%
D34*
%TO.P,Rfbt1,1*%
%TO.N,+3.3V*%
X264740000Y-96525000D03*
%TO.P,Rfbt1,2*%
%TO.N,Net-(U1-FB)*%
X264740000Y-98075000D03*
%TD*%
D44*
%TO.P,C_VDD48,1*%
%TO.N,+3.3V*%
X232925000Y-104500000D03*
%TO.P,C_VDD48,2*%
%TO.N,GND*%
X234475000Y-104500000D03*
%TD*%
%TO.P,C8,1*%
%TO.N,/VAkku +*%
X221825000Y-123550000D03*
%TO.P,C8,2*%
%TO.N,Net-(U18-VCP)*%
X223375000Y-123550000D03*
%TD*%
D43*
%TO.P,C23,1*%
%TO.N,GNDA*%
X231375000Y-99600000D03*
%TO.P,C23,2*%
%TO.N,/SOA*%
X229825000Y-99600000D03*
%TD*%
D35*
%TO.P,R27,1*%
%TO.N,/VAkku +*%
X221675000Y-99100000D03*
%TO.P,R27,2*%
%TO.N,/VBAT Sense*%
X223325000Y-99100000D03*
%TD*%
D36*
%TO.P,C14,1*%
%TO.N,/VAkku +*%
X210485000Y-137652799D03*
%TO.P,C14,2*%
%TO.N,GND*%
X210485000Y-135752799D03*
%TD*%
D46*
%TO.P,J1,1,Pin_1_1*%
%TO.N,GND*%
X244710000Y-94410000D03*
D47*
%TO.P,J1,2,Pin_2_2*%
%TO.N,/DShot*%
X247250000Y-94410000D03*
%TO.P,J1,3,Pin_3_3*%
%TO.N,/3V3 Ext*%
X249790000Y-94410000D03*
%TD*%
D38*
%TO.P,R34,1*%
%TO.N,Net-(R11-Pad2)*%
X252435000Y-133975000D03*
%TO.P,R34,2*%
%TO.N,Net-(U18-SPC)*%
X252435000Y-135625000D03*
%TD*%
D32*
%TO.P,R8,1*%
%TO.N,Net-(U18-GHB)*%
X232000000Y-140187500D03*
%TO.P,R8,2*%
%TO.N,Net-(R31-Pad1)*%
X232000000Y-142012500D03*
%TD*%
D44*
%TO.P,C_VBAT1,1*%
%TO.N,+3.3V*%
X232925000Y-102600000D03*
%TO.P,C_VBAT1,2*%
%TO.N,GND*%
X234475000Y-102600000D03*
%TD*%
D41*
%TO.P,Cvcc1,1*%
%TO.N,Net-(U1-VCC)*%
X263090000Y-98075000D03*
%TO.P,Cvcc1,2*%
%TO.N,GND*%
X263090000Y-96525000D03*
%TD*%
D39*
%TO.P,Cout3,1*%
%TO.N,+3.3V*%
X250695000Y-112250000D03*
%TO.P,Cout3,2*%
%TO.N,GND*%
X253645000Y-112250000D03*
%TD*%
D34*
%TO.P,C6,1*%
%TO.N,Net-(U18-CPL)*%
X223600000Y-119750000D03*
%TO.P,C6,2*%
%TO.N,Net-(U18-CPH)*%
X223600000Y-121300000D03*
%TD*%
D38*
%TO.P,R16,1*%
%TO.N,GNDA*%
X220850000Y-95850000D03*
%TO.P,R16,2*%
%TO.N,/BEMF Phase A*%
X220850000Y-97500000D03*
%TD*%
D44*
%TO.P,R5,1*%
%TO.N,/SDO*%
X235025000Y-122050000D03*
%TO.P,R5,2*%
%TO.N,+3.3V*%
X236575000Y-122050000D03*
%TD*%
D35*
%TO.P,R19,1*%
%TO.N,Net-(U2-PB6)*%
X234375000Y-107800000D03*
%TO.P,R19,2*%
%TO.N,/DShot*%
X236025000Y-107800000D03*
%TD*%
D38*
%TO.P,R14,1*%
%TO.N,GND*%
X237600000Y-106175000D03*
%TO.P,R14,2*%
%TO.N,/DShot*%
X237600000Y-107825000D03*
%TD*%
D43*
%TO.P,C22,1*%
%TO.N,GNDA*%
X231375000Y-97950000D03*
%TO.P,C22,2*%
%TO.N,/SOB*%
X229825000Y-97950000D03*
%TD*%
D35*
%TO.P,R21,1*%
%TO.N,/Phase A*%
X218375000Y-99075000D03*
%TO.P,R21,2*%
%TO.N,/BEMF Phase A*%
X220025000Y-99075000D03*
%TD*%
D34*
%TO.P,Rfbb1,1*%
%TO.N,Net-(U1-FB)*%
X266340000Y-98125000D03*
%TO.P,Rfbb1,2*%
%TO.N,GND*%
X266340000Y-99675000D03*
%TD*%
D43*
%TO.P,C_VDD36,1*%
%TO.N,+3.3V*%
X231025000Y-113700000D03*
%TO.P,C_VDD36,2*%
%TO.N,GND*%
X229475000Y-113700000D03*
%TD*%
%TO.P,Chf1,1*%
%TO.N,/VAkku +*%
X262050000Y-110650000D03*
%TO.P,Chf1,2*%
%TO.N,GND*%
X260500000Y-110650000D03*
%TD*%
D48*
%TO.P,L1,1,1_1*%
%TO.N,+3.3V*%
X251695000Y-100050000D03*
%TO.P,L1,2,2_2*%
%TO.N,Net-(U1-SW)*%
X257145000Y-100050000D03*
%TD*%
D32*
%TO.P,R11,1*%
%TO.N,Net-(U18-GLC)*%
X249085000Y-132287500D03*
%TO.P,R11,2*%
%TO.N,Net-(R11-Pad2)*%
X249085000Y-134112500D03*
%TD*%
D34*
%TO.P,R13,1*%
%TO.N,+3.3V*%
X233700000Y-118225000D03*
%TO.P,R13,2*%
%TO.N,/nSCS*%
X233700000Y-119775000D03*
%TD*%
D32*
%TO.P,R6,1*%
%TO.N,Net-(U18-GHA)*%
X216835000Y-139940299D03*
%TO.P,R6,2*%
%TO.N,Net-(R29-Pad1)*%
X216835000Y-141765299D03*
%TD*%
D36*
%TO.P,C13,1*%
%TO.N,/VAkku +*%
X225600000Y-137800000D03*
%TO.P,C13,2*%
%TO.N,GND*%
X225600000Y-135900000D03*
%TD*%
D45*
%TO.P,R2,1*%
%TO.N,Net-(U18-SPC)*%
X250747500Y-136950000D03*
%TO.P,R2,2*%
%TO.N,GND*%
X244822500Y-136950000D03*
%TD*%
D49*
%TO.P,U1,1,GND_1*%
%TO.N,GND*%
X260590000Y-105450000D03*
%TO.P,U1,2,VIN_2*%
%TO.N,/VAkku +*%
X261860000Y-105450000D03*
%TO.P,U1,3,EN_3*%
X263130000Y-105450000D03*
%TO.P,U1,4,PG_4*%
%TO.N,unconnected-(U1-PG-Pad4)*%
X264400000Y-105450000D03*
%TO.P,U1,5,FB_5*%
%TO.N,Net-(U1-FB)*%
X264400000Y-100050000D03*
%TO.P,U1,6,VCC_6*%
%TO.N,Net-(U1-VCC)*%
X263130000Y-100050000D03*
%TO.P,U1,7,BOOT_7*%
%TO.N,Net-(U1-BOOT)*%
X261860000Y-100050000D03*
%TO.P,U1,8,SW_8*%
%TO.N,Net-(U1-SW)*%
X260590000Y-100050000D03*
D29*
%TO.P,U1,9,GND_9*%
%TO.N,GND*%
X260545000Y-103400000D03*
X261845000Y-103400000D03*
X263145000Y-103400000D03*
X264445000Y-103400000D03*
D50*
X262495000Y-102750000D03*
D29*
X260545000Y-102100000D03*
X261845000Y-102100000D03*
X263145000Y-102100000D03*
X264445000Y-102100000D03*
%TD*%
D43*
%TO.P,C16,1*%
%TO.N,GNDA*%
X220575000Y-108300000D03*
%TO.P,C16,2*%
%TO.N,Net-(U2-VDDA)*%
X219025000Y-108300000D03*
%TD*%
D11*
%TO.P,R23,1*%
%TO.N,/Phase B*%
X219300000Y-103300000D03*
%TO.P,R23,2*%
%TO.N,/BEMF Phase B*%
X219300000Y-101650000D03*
%TD*%
D38*
%TO.P,R30,1*%
%TO.N,Net-(R30-Pad1)*%
X222385000Y-133927799D03*
%TO.P,R30,2*%
%TO.N,Net-(U18-SPA)*%
X222385000Y-135577799D03*
%TD*%
%TO.P,R32,1*%
%TO.N,Net-(R32-Pad1)*%
X237450000Y-133979882D03*
%TO.P,R32,2*%
%TO.N,Net-(U18-SPB)*%
X237450000Y-135629882D03*
%TD*%
D42*
%TO.P,R36,1*%
%TO.N,/SOB*%
X228275000Y-97950000D03*
%TO.P,R36,2*%
%TO.N,Net-(U2-PA1)*%
X226625000Y-97950000D03*
%TD*%
D45*
%TO.P,R12,1*%
%TO.N,Net-(U18-SPA)*%
X220497500Y-137002799D03*
%TO.P,R12,2*%
%TO.N,GND*%
X214572500Y-137002799D03*
%TD*%
D43*
%TO.P,C21,1*%
%TO.N,GNDA*%
X231375000Y-96300000D03*
%TO.P,C21,2*%
%TO.N,/SOC*%
X229825000Y-96300000D03*
%TD*%
D35*
%TO.P,R24,1*%
%TO.N,GNDA*%
X216087500Y-104137500D03*
%TO.P,R24,2*%
%TO.N,/BEMF Phase C*%
X217737500Y-104137500D03*
%TD*%
D44*
%TO.P,R4,1*%
%TO.N,/nFAULT*%
X235025000Y-123650000D03*
%TO.P,R4,2*%
%TO.N,+3.3V*%
X236575000Y-123650000D03*
%TD*%
D41*
%TO.P,C1,1*%
%TO.N,+3.3V*%
X238200000Y-121975000D03*
%TO.P,C1,2*%
%TO.N,GND*%
X238200000Y-120425000D03*
%TD*%
D38*
%TO.P,R26,1*%
%TO.N,GNDA*%
X224150000Y-95875000D03*
%TO.P,R26,2*%
%TO.N,/VBAT Sense*%
X224150000Y-97525000D03*
%TD*%
D42*
%TO.P,R37,1*%
%TO.N,/SOA*%
X228275000Y-99600000D03*
%TO.P,R37,2*%
%TO.N,Net-(U2-PA0)*%
X226625000Y-99600000D03*
%TD*%
D41*
%TO.P,C20,1*%
%TO.N,/VBAT Sense*%
X222500000Y-97475000D03*
%TO.P,C20,2*%
%TO.N,GNDA*%
X222500000Y-95925000D03*
%TD*%
D32*
%TO.P,R10,1*%
%TO.N,Net-(U18-GHC)*%
X246985000Y-140295374D03*
%TO.P,R10,2*%
%TO.N,Net-(R10-Pad2)*%
X246985000Y-142120374D03*
%TD*%
D51*
%TO.N,GND*%
X234750000Y-90050000D03*
X234700000Y-86950000D03*
X247300000Y-87350000D03*
%TO.N,+3.3V*%
X233875735Y-117274265D03*
%TO.N,GND*%
X232275000Y-116800000D03*
%TO.N,/ENABLE*%
X232874265Y-120575735D03*
X232874265Y-120575735D03*
%TO.N,+3.3V*%
X236375000Y-118225000D03*
%TO.N,GND*%
X221325000Y-111175000D03*
%TO.N,GNDA*%
X220385735Y-107284265D03*
X214837500Y-105812500D03*
X214700000Y-102500000D03*
%TO.N,/SOB*%
X229000000Y-98786271D03*
%TO.N,GND*%
X257800000Y-108850000D03*
X257800000Y-107500000D03*
%TO.N,/Phase A*%
X213300000Y-117300000D03*
%TO.N,/Phase C*%
X215023530Y-117326470D03*
%TO.N,/Phase B*%
X214174265Y-117325735D03*
%TO.N,GNDA*%
X224150000Y-94200000D03*
X212600000Y-99200000D03*
X214700000Y-100800000D03*
X214762500Y-104137500D03*
X232950000Y-98000000D03*
%TO.N,GND*%
X259675000Y-142875000D03*
X251050000Y-125400000D03*
X251050000Y-123900000D03*
X249550000Y-125400000D03*
X262475000Y-142850000D03*
X259700000Y-144025000D03*
X258300000Y-144025000D03*
X264075000Y-144025000D03*
X264050000Y-142875000D03*
X264050000Y-141500000D03*
X258275000Y-142875000D03*
X261100000Y-142850000D03*
X264050000Y-138775000D03*
X262500000Y-144000000D03*
X264075000Y-137575000D03*
X264050000Y-140150000D03*
X261125000Y-144000000D03*
X255200000Y-115000000D03*
X255200000Y-116350000D03*
X235500000Y-101700000D03*
X273400000Y-144200000D03*
X273450000Y-137550000D03*
X273400000Y-130925000D03*
D52*
%TO.N,Net-(U18-SPB)*%
X235600000Y-134725000D03*
%TO.N,GND*%
X224950000Y-131500000D03*
X221250000Y-131050000D03*
D51*
%TO.N,Net-(U18-GLB)*%
X232600000Y-132250000D03*
X228079469Y-127769061D03*
%TO.N,+3.3V*%
X236375000Y-114350000D03*
X248775000Y-100875000D03*
X232417892Y-114332108D03*
X239306765Y-100906765D03*
X236650000Y-84000000D03*
%TO.N,GND*%
X273525000Y-107950000D03*
X273400000Y-116925000D03*
X263090000Y-95260000D03*
X242535000Y-137350000D03*
X258900000Y-110600000D03*
X255200000Y-108175000D03*
X227450000Y-136504882D03*
X240900000Y-119800000D03*
X255200000Y-112925000D03*
X243335000Y-136550000D03*
X212385000Y-136552799D03*
X223000000Y-117600000D03*
X213185000Y-137352799D03*
X243335000Y-135750000D03*
X238650000Y-113500000D03*
X220600000Y-126850000D03*
X213185000Y-135752799D03*
X255200000Y-104850000D03*
X212385000Y-138152799D03*
X238700000Y-115550000D03*
X243335000Y-138150000D03*
X226050000Y-128100000D03*
X236475000Y-94965000D03*
X236400000Y-104300000D03*
X211600000Y-114400000D03*
X255875000Y-91600000D03*
X239100000Y-109700000D03*
X273400000Y-124250000D03*
X266345000Y-103450000D03*
X213185000Y-138152799D03*
X269300000Y-95150000D03*
X266345000Y-101550000D03*
X255200000Y-111575000D03*
X236525000Y-98325000D03*
X228250000Y-135704882D03*
X221700000Y-118900000D03*
X227450000Y-135704882D03*
X213185000Y-136552799D03*
X227450000Y-137304882D03*
X221700000Y-120275000D03*
X233200000Y-127326202D03*
X255200000Y-106200000D03*
X218925000Y-113525000D03*
X273500000Y-99450000D03*
X242535000Y-136550000D03*
X228250000Y-138104882D03*
X237600000Y-104300000D03*
X228250000Y-136504882D03*
X267800000Y-99675000D03*
X242535000Y-138150000D03*
X269250000Y-91775000D03*
X242535000Y-135750000D03*
X236475000Y-92425000D03*
X234250735Y-115649265D03*
X228250000Y-137304882D03*
X227450000Y-138104882D03*
X265275000Y-91750000D03*
X212385000Y-137352799D03*
X238700000Y-117700000D03*
X243335000Y-137350000D03*
X237600000Y-103100000D03*
X255200000Y-109525000D03*
X245075000Y-102675000D03*
X239100000Y-111200000D03*
X237700000Y-111200000D03*
X273500000Y-91750000D03*
X240900000Y-117700000D03*
X220825000Y-113550000D03*
X212385000Y-135752799D03*
X221700000Y-117600000D03*
X266345000Y-105350000D03*
X221700000Y-116200000D03*
%TO.N,GNDA*%
X220850000Y-94150000D03*
X222500000Y-94150000D03*
X226900000Y-92275000D03*
X219175000Y-94150000D03*
X215950000Y-97900000D03*
X211875000Y-105850000D03*
X223450000Y-87525000D03*
X229600000Y-92300000D03*
X231350000Y-94750000D03*
X215750000Y-87500000D03*
X211950000Y-102350000D03*
X211025000Y-94975000D03*
X232950000Y-96300000D03*
%TO.N,/VAkku +*%
X210085000Y-140602799D03*
X209625000Y-123175000D03*
X239385000Y-143950000D03*
X225250000Y-143850000D03*
X240185000Y-140750000D03*
X224450000Y-141450000D03*
X225250000Y-140650000D03*
X210085000Y-142202799D03*
X225250000Y-139850000D03*
X210085000Y-143802799D03*
X225250000Y-142250000D03*
X209285000Y-143002799D03*
X209625000Y-122250000D03*
X239385000Y-142350000D03*
X224450000Y-142250000D03*
X225250000Y-143050000D03*
X240185000Y-143950000D03*
X240185000Y-141550000D03*
X224450000Y-139850000D03*
X210085000Y-143002799D03*
X239385000Y-139950000D03*
X209285000Y-141402799D03*
X224450000Y-143050000D03*
X210085000Y-139802799D03*
X239385000Y-143150000D03*
X209285000Y-139802799D03*
X224450000Y-143850000D03*
X209285000Y-143802799D03*
X240185000Y-139950000D03*
X224450000Y-140650000D03*
X225250000Y-141450000D03*
X239385000Y-140750000D03*
X209625000Y-109200000D03*
X209285000Y-140602799D03*
X210085000Y-141402799D03*
X239385000Y-141550000D03*
X240185000Y-143150000D03*
X240185000Y-142350000D03*
X209285000Y-142202799D03*
%TO.N,/ENABLE*%
X234999265Y-110450735D03*
%TO.N,/INLA*%
X225604557Y-107104557D03*
X229349265Y-117850735D03*
%TO.N,/INLB*%
X228974265Y-119175735D03*
X224825000Y-107325000D03*
%TO.N,/INLC*%
X224000000Y-107500000D03*
X227774095Y-119702231D03*
%TO.N,/INHA*%
X229529796Y-117071368D03*
X229500000Y-114800000D03*
%TO.N,/INHB*%
X228700003Y-117200000D03*
X228400000Y-114276470D03*
%TO.N,/INHC*%
X227900000Y-117200000D03*
X228202757Y-113354227D03*
%TO.N,/SWDIO*%
X232721113Y-110783319D03*
X241119146Y-105506466D03*
%TO.N,/SWCLK*%
X232355754Y-110071619D03*
X240511598Y-104985996D03*
%TO.N,/SWO*%
X232149999Y-109298529D03*
X240100000Y-104300000D03*
%TO.N,/Phase A*%
X217950000Y-126050000D03*
%TO.N,/Phase C*%
X230300000Y-128105634D03*
%TO.N,/SOC*%
X229000000Y-97100000D03*
X234474912Y-126616372D03*
%TO.N,/Phase B*%
X227274686Y-128923214D03*
X230500000Y-132150000D03*
%TO.N,Net-(U18-SPB)*%
X227364657Y-128128290D03*
%TO.N,/SOB*%
X233828977Y-126126202D03*
%TO.N,/SOA*%
X229000000Y-100350000D03*
X233226387Y-125600000D03*
%TD*%
%TO.N,/NRST*%
D53*
X238340000Y-101025000D02*
X232950000Y-101025000D01*
X240550000Y-98815000D02*
X238340000Y-101025000D01*
X240550000Y-90240000D02*
X240550000Y-98815000D01*
X240400000Y-90090000D02*
X240550000Y-90240000D01*
%TO.N,/SWDIO*%
X242900000Y-86610000D02*
X242900000Y-103725612D01*
X241300000Y-85010000D02*
X242900000Y-86610000D01*
X240400000Y-85010000D02*
X241300000Y-85010000D01*
%TO.N,/SWCLK*%
X242425000Y-87405000D02*
X242425000Y-103072594D01*
X241300000Y-86280000D02*
X242425000Y-87405000D01*
X240400000Y-86280000D02*
X241300000Y-86280000D01*
%TO.N,/SWO*%
X241975000Y-88225000D02*
X241975000Y-102425000D01*
X241300000Y-87550000D02*
X241975000Y-88225000D01*
X240400000Y-87550000D02*
X241300000Y-87550000D01*
%TO.N,+3.3V*%
D54*
X236650000Y-84000000D02*
X236500000Y-84150000D01*
X236500000Y-84150000D02*
X236500000Y-85010000D01*
%TO.N,Net-(U18-GLB)*%
D53*
X232612500Y-132237500D02*
X232600000Y-132250000D01*
X234050000Y-132237500D02*
X232612500Y-132237500D01*
%TO.N,/SDO*%
X225550000Y-110500000D02*
X225550000Y-111850000D01*
X226050000Y-110000000D02*
X225550000Y-110500000D01*
X231350000Y-111850000D02*
X229500000Y-110000000D01*
X235300000Y-115200000D02*
X231950000Y-111850000D01*
X235300000Y-121775000D02*
X235300000Y-115200000D01*
X231950000Y-111850000D02*
X231350000Y-111850000D01*
X229500000Y-110000000D02*
X226050000Y-110000000D01*
X235025000Y-122050000D02*
X235300000Y-121775000D01*
%TO.N,/SDI*%
X232700000Y-123000000D02*
X232200000Y-123000000D01*
X234900000Y-115450000D02*
X234900000Y-120800000D01*
X231700000Y-112250000D02*
X234900000Y-115450000D01*
X231184314Y-112250000D02*
X231700000Y-112250000D01*
X229384314Y-110450000D02*
X231184314Y-112250000D01*
X234900000Y-120800000D02*
X232700000Y-123000000D01*
X226400000Y-110450000D02*
X229384314Y-110450000D01*
X226050000Y-110800000D02*
X226400000Y-110450000D01*
X226050000Y-111850000D02*
X226050000Y-110800000D01*
%TO.N,/nSCS*%
X232875000Y-118950000D02*
X233700000Y-119775000D01*
X232875000Y-118673696D02*
X232875000Y-118950000D01*
X232875000Y-117776304D02*
X232875000Y-118673696D01*
X232523529Y-116200000D02*
X232875000Y-116551471D01*
X225250000Y-113850000D02*
X227600000Y-116200000D01*
X232875000Y-116551471D02*
X232875000Y-117776304D01*
X224275000Y-113850000D02*
X225250000Y-113850000D01*
X224550000Y-113575000D02*
X224275000Y-113850000D01*
X224550000Y-111850000D02*
X224550000Y-113575000D01*
X227600000Y-116200000D02*
X232523529Y-116200000D01*
%TO.N,+3.3V*%
D54*
X233700000Y-117450000D02*
X233700000Y-118225000D01*
X233875735Y-117274265D02*
X233700000Y-117450000D01*
%TO.N,/SCLK*%
D53*
X232500000Y-122500000D02*
X232200000Y-122500000D01*
X234500000Y-116850000D02*
X234500000Y-120500000D01*
X233450000Y-115800000D02*
X234500000Y-116850000D01*
X227950000Y-115800000D02*
X233450000Y-115800000D01*
X225050000Y-112900000D02*
X227950000Y-115800000D01*
X234500000Y-120500000D02*
X232500000Y-122500000D01*
X225050000Y-111850000D02*
X225050000Y-112900000D01*
%TO.N,GND*%
X230975000Y-115200000D02*
X229475000Y-113700000D01*
X233800735Y-115199265D02*
X233099265Y-115199265D01*
X233098530Y-115200000D02*
X230975000Y-115200000D01*
X234250735Y-115649265D02*
X233800735Y-115199265D01*
X233099265Y-115199265D02*
X233098530Y-115200000D01*
X232275000Y-116800000D02*
X232275000Y-116925000D01*
X232275000Y-116800000D02*
X232150000Y-116800000D01*
X232100000Y-116850000D02*
X232100000Y-118225000D01*
X232150000Y-116800000D02*
X232100000Y-116850000D01*
%TO.N,/ENABLE*%
X232100000Y-119801470D02*
X232874265Y-120575735D01*
X232100000Y-119775000D02*
X232100000Y-119801470D01*
X232100000Y-119775000D02*
X232100000Y-121100000D01*
X232100000Y-121100000D02*
X231700000Y-121500000D01*
X232700000Y-107850000D02*
X231050000Y-107850000D01*
X234999265Y-110450735D02*
X234999265Y-110149265D01*
X234999265Y-110149265D02*
X232700000Y-107850000D01*
%TO.N,/SOA*%
X229000000Y-100350000D02*
X229000000Y-100325000D01*
X229000000Y-100325000D02*
X228275000Y-99600000D01*
X229000000Y-100350000D02*
X229075000Y-100350000D01*
X229075000Y-100350000D02*
X229825000Y-99600000D01*
%TO.N,GND*%
X220575000Y-110425000D02*
X220575000Y-110200000D01*
X221325000Y-111175000D02*
X220575000Y-110425000D01*
%TO.N,+3.3V*%
D54*
X220100000Y-112000000D02*
X220100000Y-112050000D01*
X219025000Y-110200000D02*
X219025000Y-110925000D01*
X219025000Y-110925000D02*
X220100000Y-112000000D01*
D55*
X220100000Y-112050000D02*
X218400000Y-112050000D01*
X217250000Y-110900000D02*
X217250000Y-110162500D01*
X218400000Y-112050000D02*
X217250000Y-110900000D01*
X222300000Y-112050000D02*
X220100000Y-112050000D01*
X222825000Y-111525000D02*
X222300000Y-112050000D01*
%TO.N,GNDA*%
D53*
X220575000Y-107473530D02*
X220385735Y-107284265D01*
X220575000Y-108300000D02*
X220575000Y-107473530D01*
%TO.N,/Phase B*%
X214450000Y-103300000D02*
X219300000Y-103300000D01*
X214150000Y-103600000D02*
X214450000Y-103300000D01*
X214150000Y-117301470D02*
X214150000Y-103600000D01*
X214174265Y-117325735D02*
X214150000Y-117301470D01*
%TO.N,GNDA*%
X214837500Y-105812500D02*
X216137500Y-105812500D01*
X214762500Y-104137500D02*
X216087500Y-104137500D01*
X214712500Y-102487500D02*
X214700000Y-102500000D01*
X216125000Y-102487500D02*
X214712500Y-102487500D01*
X214712500Y-100787500D02*
X214700000Y-100800000D01*
X216075000Y-100787500D02*
X214712500Y-100787500D01*
%TO.N,/Phase A*%
X214825000Y-99075000D02*
X218375000Y-99075000D01*
X213300000Y-100600000D02*
X214825000Y-99075000D01*
X213300000Y-117300000D02*
X213300000Y-100600000D01*
%TO.N,/SOB*%
X229000000Y-98675000D02*
X228275000Y-97950000D01*
X229000000Y-98786271D02*
X229000000Y-98675000D01*
X229000000Y-98775000D02*
X229825000Y-97950000D01*
X229000000Y-98786271D02*
X229000000Y-98775000D01*
X229700000Y-97950000D02*
X229825000Y-97950000D01*
%TO.N,/SOC*%
X229800000Y-96300000D02*
X229000000Y-97100000D01*
X229825000Y-96300000D02*
X229800000Y-96300000D01*
X228275000Y-96375000D02*
X229000000Y-97100000D01*
X228275000Y-96300000D02*
X228275000Y-96375000D01*
%TO.N,GND*%
D55*
X263090000Y-96525000D02*
X263090000Y-95260000D01*
%TO.N,+3.3V*%
X264740000Y-95440000D02*
X264740000Y-96525000D01*
X254795000Y-94300000D02*
X263600000Y-94300000D01*
X251970000Y-97125000D02*
X254795000Y-94300000D01*
X263600000Y-94300000D02*
X264740000Y-95440000D01*
X251970000Y-99775000D02*
X251970000Y-97125000D01*
X251695000Y-100050000D02*
X251970000Y-99775000D01*
%TO.N,GND*%
D54*
X234600000Y-102600000D02*
X235500000Y-101700000D01*
D53*
X234475000Y-102600000D02*
X234600000Y-102600000D01*
%TO.N,/Phase C*%
X215050000Y-107950000D02*
X216362500Y-106637500D01*
X216362500Y-106637500D02*
X219312500Y-106637500D01*
X215050000Y-117300000D02*
X215050000Y-107950000D01*
X215023530Y-117326470D02*
X215050000Y-117300000D01*
%TO.N,/VAkku +*%
X221675000Y-97137352D02*
X221675000Y-99100000D01*
X221237648Y-96700000D02*
X221675000Y-97137352D01*
X213375000Y-96700000D02*
X221237648Y-96700000D01*
X209625000Y-100450000D02*
X213375000Y-96700000D01*
X209625000Y-109200000D02*
X209625000Y-100450000D01*
%TO.N,+3.3V*%
D55*
X236850000Y-101650000D02*
X238563530Y-101650000D01*
X238563530Y-101650000D02*
X239306765Y-100906765D01*
X235375000Y-103125000D02*
X236850000Y-101650000D01*
X234975000Y-103525000D02*
X234985828Y-103525000D01*
X235375000Y-103135828D02*
X235375000Y-103125000D01*
X234950000Y-103550000D02*
X234975000Y-103525000D01*
X234985828Y-103525000D02*
X235375000Y-103135828D01*
X233400000Y-103550000D02*
X234950000Y-103550000D01*
X230800000Y-103550000D02*
X233400000Y-103550000D01*
X226000000Y-108350000D02*
X230800000Y-103550000D01*
D54*
X232925000Y-103175000D02*
X232925000Y-102600000D01*
X233400000Y-103550000D02*
X233300000Y-103550000D01*
X233300000Y-103550000D02*
X232925000Y-103175000D01*
X232925000Y-104025000D02*
X233400000Y-103550000D01*
X232925000Y-104500000D02*
X232925000Y-104025000D01*
X232725000Y-102400000D02*
X232925000Y-102600000D01*
X229800000Y-102400000D02*
X232725000Y-102400000D01*
X229550000Y-103350000D02*
X229550000Y-102650000D01*
X229550000Y-102650000D02*
X229800000Y-102400000D01*
%TO.N,Net-(U18-SPB)*%
D53*
X235600000Y-134900000D02*
X235612500Y-134912500D01*
X235612500Y-134912500D02*
X235612500Y-136900000D01*
X235600000Y-134725000D02*
X235600000Y-134900000D01*
X237450000Y-135284085D02*
X237450000Y-135629882D01*
%TO.N,Net-(U18-SPC)*%
X247597648Y-127950000D02*
X253210000Y-133562352D01*
X231700000Y-127950000D02*
X247597648Y-127950000D01*
X231200000Y-127450000D02*
X231700000Y-127950000D01*
X253210000Y-133562352D02*
X253210000Y-134850000D01*
X231200000Y-127000000D02*
X231200000Y-127450000D01*
X253210000Y-134850000D02*
X252435000Y-135625000D01*
%TO.N,Net-(U18-GLC)*%
D56*
X245747500Y-128950000D02*
X249085000Y-132287500D01*
X231992893Y-128950000D02*
X245747500Y-128950000D01*
X231371446Y-128328553D02*
X231992893Y-128950000D01*
%TO.N,/Phase C*%
D53*
X248035000Y-144845000D02*
X249015000Y-145825000D01*
X248035000Y-135035000D02*
X248035000Y-144845000D01*
X242800000Y-129800000D02*
X248035000Y-135035000D01*
X230300000Y-128105634D02*
X231994366Y-129800000D01*
X231994366Y-129800000D02*
X242800000Y-129800000D01*
%TO.N,Net-(U18-GHC)*%
D56*
X246985000Y-135285000D02*
X246985000Y-140337500D01*
X231400000Y-130750000D02*
X242450000Y-130750000D01*
X242450000Y-130750000D02*
X246985000Y-135285000D01*
X229700000Y-129050000D02*
X231400000Y-130750000D01*
%TO.N,/Phase B*%
D53*
X233000000Y-134650000D02*
X230500000Y-132150000D01*
X233000000Y-144720000D02*
X233000000Y-134650000D01*
%TO.N,Net-(U18-GHB)*%
D56*
X229100000Y-132350000D02*
X229100000Y-128500000D01*
X232000000Y-140187500D02*
X232000000Y-135250000D01*
X232000000Y-135250000D02*
X229100000Y-132350000D01*
D53*
X229200000Y-128400000D02*
X229100000Y-128500000D01*
X229200000Y-127000000D02*
X229200000Y-128400000D01*
%TO.N,GND*%
X226650000Y-127550000D02*
X227200000Y-127000000D01*
X226650000Y-132900000D02*
X226650000Y-127550000D01*
X228250000Y-134500000D02*
X226650000Y-132900000D01*
X228250000Y-135704882D02*
X228250000Y-134500000D01*
%TO.N,Net-(U18-SPA)*%
X223300000Y-128600000D02*
X225900000Y-126000000D01*
X223300000Y-134400000D02*
X223300000Y-128600000D01*
X222385000Y-135315000D02*
X223300000Y-134400000D01*
X225900000Y-126000000D02*
X226700000Y-126000000D01*
X222385000Y-135577799D02*
X222385000Y-135315000D01*
%TO.N,Net-(U18-GLA)*%
D56*
X218885000Y-126365000D02*
X218885000Y-132240299D01*
X219750000Y-125500000D02*
X218885000Y-126365000D01*
X225551471Y-125500000D02*
X219750000Y-125500000D01*
%TO.N,/Phase A*%
D53*
X217835000Y-126165000D02*
X217835000Y-144627799D01*
X217835000Y-144627799D02*
X218935000Y-145727799D01*
X217950000Y-126050000D02*
X217835000Y-126165000D01*
%TO.N,Net-(U18-GHA)*%
D56*
X216835000Y-125915000D02*
X216835000Y-139940299D01*
X218250000Y-124500000D02*
X216835000Y-125915000D01*
X225500000Y-124500000D02*
X218250000Y-124500000D01*
%TO.N,Net-(U18-GLB)*%
D53*
X228200000Y-127648530D02*
X228079469Y-127769061D01*
D56*
X228079469Y-127769061D02*
X228163760Y-127769061D01*
D53*
X228200000Y-127000000D02*
X228200000Y-127648530D01*
%TO.N,Net-(R32-Pad1)*%
D56*
X233980000Y-134132500D02*
X234037500Y-134075000D01*
X234037500Y-134075000D02*
X237450000Y-134075000D01*
X233980000Y-139750000D02*
X233980000Y-134132500D01*
%TO.N,+3.3V*%
D54*
X230850000Y-113700000D02*
X229550000Y-112400000D01*
X231750000Y-113700000D02*
X231025000Y-113700000D01*
D53*
X233551304Y-125000000D02*
X234576304Y-126025000D01*
D54*
X222550000Y-110350000D02*
X224000000Y-110350000D01*
D53*
X236625000Y-122000000D02*
X236575000Y-122050000D01*
X232417892Y-114332108D02*
X232382108Y-114332108D01*
D54*
X232575000Y-104850000D02*
X232925000Y-104500000D01*
D55*
X222825000Y-111525000D02*
X224000000Y-110350000D01*
D54*
X222550000Y-108350000D02*
X226000000Y-108350000D01*
D53*
X222725000Y-111625000D02*
X222825000Y-111525000D01*
D54*
X232382108Y-114332108D02*
X231750000Y-113700000D01*
D53*
X231025000Y-113700000D02*
X230850000Y-113700000D01*
D57*
X250770000Y-99125000D02*
X251695000Y-100050000D01*
D54*
X231050000Y-104850000D02*
X232575000Y-104850000D01*
D53*
X229550000Y-112400000D02*
X229550000Y-111850000D01*
D55*
X224000000Y-110350000D02*
X226000000Y-108350000D01*
D53*
X234576304Y-126025000D02*
X235800000Y-126025000D01*
X235800000Y-126025000D02*
X236575000Y-125250000D01*
X232200000Y-125000000D02*
X233551304Y-125000000D01*
D54*
X222725000Y-113850000D02*
X222725000Y-111625000D01*
%TO.N,Net-(U2-VDDA)*%
X222550000Y-108850000D02*
X221450000Y-108850000D01*
X218112500Y-109200000D02*
X217250000Y-108337500D01*
X221450000Y-108850000D02*
X221100000Y-109200000D01*
D53*
X222550000Y-108850000D02*
X222500000Y-108900000D01*
D54*
X221100000Y-109200000D02*
X219800000Y-109200000D01*
D53*
X219025000Y-108300000D02*
X219025000Y-108425000D01*
D54*
X219800000Y-109200000D02*
X218112500Y-109200000D01*
D53*
X219025000Y-108425000D02*
X219800000Y-109200000D01*
%TO.N,GND*%
X232026202Y-127326202D02*
X233200000Y-127326202D01*
X226050000Y-128100000D02*
X226050000Y-126702942D01*
X227700000Y-121211396D02*
X227238604Y-120750000D01*
X232200000Y-124500000D02*
X234275000Y-124500000D01*
X229475000Y-113275000D02*
X229050000Y-112850000D01*
X231700000Y-127000000D02*
X232026202Y-127326202D01*
X226248529Y-126500000D02*
X226700000Y-126500000D01*
X226050000Y-126702942D02*
X226048529Y-126701471D01*
X226800000Y-117875000D02*
X226750000Y-117875000D01*
X226750000Y-117875000D02*
X225975000Y-118650000D01*
X229050000Y-112850000D02*
X229050000Y-111850000D01*
X234275000Y-124500000D02*
X235025000Y-125250000D01*
X229475000Y-113700000D02*
X229475000Y-113275000D01*
X225975000Y-119825000D02*
X225975000Y-118650000D01*
X225975000Y-118650000D02*
X225200000Y-117875000D01*
D54*
X222550000Y-109850000D02*
X220925000Y-109850000D01*
D53*
X227700000Y-121500000D02*
X227700000Y-121211396D01*
X232200000Y-124500000D02*
X229700000Y-124500000D01*
X227700000Y-121500000D02*
X227700000Y-122500000D01*
X233625000Y-105350000D02*
X234475000Y-104500000D01*
X231050000Y-105350000D02*
X233625000Y-105350000D01*
X226048529Y-126700000D02*
X226248529Y-126500000D01*
X227238604Y-120750000D02*
X226900000Y-120750000D01*
X226900000Y-120750000D02*
X225975000Y-119825000D01*
X220925000Y-109850000D02*
X220575000Y-110200000D01*
X226048529Y-126701471D02*
X226048529Y-126700000D01*
X244710000Y-94410000D02*
X244700000Y-94420000D01*
%TO.N,Net-(U18-VGLS)*%
D54*
X225200000Y-119712500D02*
X226987500Y-121500000D01*
D53*
X225200000Y-119425000D02*
X225200000Y-119700000D01*
D54*
X226987500Y-121500000D02*
X227200000Y-121500000D01*
X225200000Y-119700000D02*
X225200000Y-119712500D01*
%TO.N,GNDA*%
D53*
X220675000Y-108200000D02*
X220575000Y-108300000D01*
X221250000Y-108200000D02*
X220675000Y-108200000D01*
X222550000Y-107850000D02*
X221600000Y-107850000D01*
X221600000Y-107850000D02*
X221250000Y-108200000D01*
%TO.N,/BEMF Phase B*%
X218437500Y-100787500D02*
X219300000Y-101650000D01*
X221150000Y-104850000D02*
X222550000Y-104850000D01*
X217725000Y-100787500D02*
X218437500Y-100787500D01*
X217675000Y-102487500D02*
X218462500Y-102487500D01*
X220750000Y-103100000D02*
X220750000Y-104450000D01*
X220750000Y-104450000D02*
X221150000Y-104850000D01*
X218462500Y-102487500D02*
X219300000Y-101650000D01*
X219300000Y-101650000D02*
X220750000Y-103100000D01*
%TO.N,/VAkku +*%
D55*
X219400000Y-122250000D02*
X209625000Y-122250000D01*
D53*
X223850000Y-122775000D02*
X222600000Y-122775000D01*
D55*
X224100000Y-122250000D02*
X219400000Y-122250000D01*
D53*
X222600000Y-122775000D02*
X221825000Y-123550000D01*
D55*
X220950000Y-123550000D02*
X221825000Y-123550000D01*
X224800000Y-122950000D02*
X224100000Y-122250000D01*
X209625000Y-122250000D02*
X209625000Y-123175000D01*
D53*
X226700000Y-123500000D02*
X224575000Y-123500000D01*
D55*
X219400000Y-122250000D02*
X219650000Y-122250000D01*
D53*
X263165000Y-105485000D02*
X263130000Y-105450000D01*
D55*
X225625000Y-122950000D02*
X224800000Y-122950000D01*
D53*
X226700000Y-123000000D02*
X225675000Y-123000000D01*
X225675000Y-123000000D02*
X225625000Y-122950000D01*
D55*
X219650000Y-122250000D02*
X220950000Y-123550000D01*
D53*
X224575000Y-123500000D02*
X223850000Y-122775000D01*
%TO.N,Net-(U18-GLA)*%
X226700000Y-125500000D02*
X225551471Y-125500000D01*
%TO.N,Net-(R30-Pad1)*%
D56*
X222385000Y-133927799D02*
X219022500Y-133927799D01*
X218885000Y-140027799D02*
X218885000Y-134065299D01*
%TO.N,/NRST*%
D53*
X226550000Y-103350000D02*
X226550000Y-102500000D01*
X228025000Y-101025000D02*
X232950000Y-101025000D01*
X226550000Y-102500000D02*
X228025000Y-101025000D01*
%TO.N,Net-(U2-PA0)*%
X226625000Y-99600000D02*
X226050000Y-100175000D01*
X226050000Y-100175000D02*
X226050000Y-103350000D01*
%TO.N,Net-(U2-PA1)*%
X225550000Y-99025000D02*
X225550000Y-103350000D01*
X226625000Y-97950000D02*
X225550000Y-99025000D01*
%TO.N,Net-(U2-PA2)*%
X226625000Y-96300000D02*
X225050000Y-97875000D01*
X225050000Y-97875000D02*
X225050000Y-103350000D01*
%TO.N,/VBAT Sense*%
X224150000Y-98225000D02*
X223325000Y-99050000D01*
X224150000Y-97525000D02*
X224150000Y-98225000D01*
X223325000Y-99100000D02*
X224550000Y-100325000D01*
X223375000Y-99050000D02*
X223425000Y-99100000D01*
X222500000Y-98225000D02*
X223325000Y-99050000D01*
X224550000Y-100325000D02*
X224550000Y-103350000D01*
X222500000Y-97475000D02*
X222500000Y-98225000D01*
%TO.N,/BEMF Phase A*%
X220025000Y-99075000D02*
X220025000Y-100225000D01*
X220025000Y-100225000D02*
X221000000Y-101200000D01*
X220850000Y-97500000D02*
X220850000Y-98250000D01*
X223250000Y-101200000D02*
X224050000Y-102000000D01*
X221000000Y-101200000D02*
X223250000Y-101200000D01*
X224050000Y-102000000D02*
X224050000Y-103350000D01*
X219175000Y-97475000D02*
X219175000Y-98225000D01*
X220000000Y-99100000D02*
X220025000Y-99100000D01*
X220850000Y-98250000D02*
X220025000Y-99075000D01*
X219175000Y-98225000D02*
X220025000Y-99075000D01*
%TO.N,/INLA*%
X225604557Y-107104557D02*
X224350000Y-105850000D01*
X230700000Y-119200000D02*
X230700000Y-121500000D01*
X224350000Y-105850000D02*
X222550000Y-105850000D01*
X229349265Y-117850735D02*
X229350735Y-117850735D01*
X229350735Y-117850735D02*
X230700000Y-119200000D01*
%TO.N,/INLB*%
X228974265Y-119175735D02*
X229700000Y-119901470D01*
X223850000Y-106350000D02*
X222550000Y-106350000D01*
X229700000Y-119901470D02*
X229700000Y-121500000D01*
X224825000Y-107325000D02*
X223850000Y-106350000D01*
%TO.N,/INLC*%
X223500000Y-106850000D02*
X222550000Y-106850000D01*
X227774095Y-119702231D02*
X228700000Y-120628136D01*
X224000000Y-107350000D02*
X223500000Y-106850000D01*
X228700000Y-120628136D02*
X228700000Y-121500000D01*
X224000000Y-107500000D02*
X224000000Y-107350000D01*
%TO.N,/BEMF Phase C*%
X219312500Y-104987500D02*
X220287500Y-104987500D01*
X220750000Y-105450000D02*
X220750000Y-106800000D01*
X217737500Y-104137500D02*
X218462500Y-104137500D01*
X221300000Y-107350000D02*
X222550000Y-107350000D01*
X222550000Y-107300000D02*
X222550000Y-107350000D01*
X218462500Y-104137500D02*
X219312500Y-104987500D01*
X217687500Y-105812500D02*
X218487500Y-105812500D01*
X218487500Y-105812500D02*
X219312500Y-104987500D01*
X220287500Y-104987500D02*
X220750000Y-105450000D01*
X220750000Y-106800000D02*
X221300000Y-107350000D01*
%TO.N,/nSCS*%
X232200000Y-122000000D02*
X232300000Y-122000000D01*
X232300000Y-122000000D02*
X233700000Y-120600000D01*
X233700000Y-120600000D02*
X233700000Y-119775000D01*
%TO.N,/SDO*%
X233575000Y-123500000D02*
X235025000Y-122050000D01*
X232200000Y-123500000D02*
X233575000Y-123500000D01*
%TO.N,/INHA*%
X229500000Y-114800000D02*
X229400000Y-114900000D01*
X226550000Y-113300000D02*
X226550000Y-111850000D01*
X228150000Y-114900000D02*
X226550000Y-113300000D01*
X229529796Y-117071368D02*
X229529796Y-117129796D01*
X231200000Y-118800000D02*
X231200000Y-121500000D01*
X229400000Y-114900000D02*
X228150000Y-114900000D01*
X229529796Y-117129796D02*
X231200000Y-118800000D01*
%TO.N,/INHB*%
X228276470Y-114276470D02*
X227050000Y-113050000D01*
X228700000Y-117200003D02*
X228700000Y-118050000D01*
X228400000Y-114276470D02*
X228276470Y-114276470D01*
X227050000Y-113050000D02*
X227050000Y-111850000D01*
X228700003Y-117200000D02*
X228700000Y-117200003D01*
X230200000Y-119550000D02*
X230200000Y-121500000D01*
X228700000Y-118050000D02*
X230200000Y-119550000D01*
%TO.N,/INHC*%
X229200000Y-120250000D02*
X229200000Y-121500000D01*
X227900000Y-118950000D02*
X229200000Y-120250000D01*
X227900000Y-117200000D02*
X227900000Y-118950000D01*
X227550000Y-111850000D02*
X227550000Y-112701470D01*
X228329748Y-113227236D02*
X228329748Y-113213508D01*
X228202757Y-113354227D02*
X228329748Y-113227236D01*
X227550000Y-112701470D02*
X228202757Y-113354227D01*
%TO.N,/SWDIO*%
X232721113Y-110783319D02*
X232654432Y-110850000D01*
X232654432Y-110850000D02*
X231550000Y-110850000D01*
X231550000Y-110850000D02*
X231050000Y-110350000D01*
X231050000Y-110350000D02*
X231100000Y-110350000D01*
X241119146Y-105506466D02*
X242900000Y-103725612D01*
%TO.N,/SWCLK*%
X232355754Y-110071619D02*
X232121619Y-110071619D01*
X232121619Y-110071619D02*
X231900000Y-109850000D01*
X240511598Y-104985996D02*
X242425000Y-103072594D01*
X231900000Y-109850000D02*
X231050000Y-109850000D01*
%TO.N,/SWO*%
X241975000Y-102425000D02*
X240100000Y-104300000D01*
X231050000Y-108850000D02*
X231900000Y-108850000D01*
X231900000Y-108850000D02*
X232149999Y-109099999D01*
X232149999Y-109099999D02*
X232149999Y-109298529D01*
%TO.N,/nFAULT*%
X235025000Y-123650000D02*
X234675000Y-124000000D01*
X234675000Y-124000000D02*
X232200000Y-124000000D01*
%TO.N,Net-(U2-PB6)*%
X233550000Y-107750000D02*
X234325000Y-107750000D01*
X234325000Y-107750000D02*
X234375000Y-107800000D01*
X233150000Y-107350000D02*
X233550000Y-107750000D01*
X231050000Y-107350000D02*
X233150000Y-107350000D01*
%TO.N,/BOOT*%
X231050000Y-106350000D02*
X234165000Y-106350000D01*
X234165000Y-106350000D02*
X234370000Y-106145000D01*
%TO.N,Net-(R29-Pad1)*%
X214835000Y-145577799D02*
X214835000Y-145465299D01*
D56*
X216835000Y-143302799D02*
X216835000Y-141765299D01*
X214835000Y-145302799D02*
X216835000Y-143302799D01*
%TO.N,/Phase A*%
D53*
X217950000Y-126050000D02*
X219000000Y-125000000D01*
X219000000Y-125000000D02*
X226700000Y-125000000D01*
%TO.N,/Phase C*%
X230299999Y-128105633D02*
X230255633Y-128105633D01*
X230300000Y-128105634D02*
X230299999Y-128105633D01*
X230300000Y-128105634D02*
X230300000Y-128150000D01*
X230200000Y-128050000D02*
X230200000Y-127000000D01*
X230255633Y-128105633D02*
X230200000Y-128050000D01*
%TO.N,/3V3 Ext*%
D55*
X249325000Y-97087500D02*
X249325000Y-94875000D01*
X249790000Y-94410000D02*
X249325000Y-94875000D01*
%TO.N,Net-(R11-Pad2)*%
D56*
X248965000Y-134182500D02*
X249172500Y-133975000D01*
X249172500Y-133975000D02*
X252435000Y-133975000D01*
X248965000Y-139800000D02*
X248965000Y-134182500D01*
%TO.N,Net-(R10-Pad2)*%
X244990000Y-145675000D02*
X246985000Y-143680000D01*
X246985000Y-143680000D02*
X246985000Y-142162500D01*
%TO.N,/SOC*%
D53*
X232200000Y-126500000D02*
X232426202Y-126726202D01*
X234365082Y-126726202D02*
X234474912Y-126616372D01*
X232426202Y-126726202D02*
X234365082Y-126726202D01*
%TO.N,Net-(U18-DVDD)*%
D54*
X228200000Y-121075000D02*
X228200000Y-121500000D01*
D53*
X226800000Y-119425000D02*
X226800000Y-119600000D01*
D54*
X226800000Y-119600000D02*
X226800000Y-119675000D01*
X226800000Y-119675000D02*
X228200000Y-121075000D01*
%TO.N,Net-(R31-Pad1)*%
D56*
X230000000Y-145350000D02*
X232000000Y-143350000D01*
X232000000Y-143350000D02*
X232000000Y-142012500D01*
%TO.N,/Phase B*%
D53*
X227274686Y-128923214D02*
X227419817Y-129068345D01*
X234030000Y-145750000D02*
X233000000Y-144720000D01*
X228700000Y-128050000D02*
X228700000Y-127000000D01*
X227419817Y-129068345D02*
X227681655Y-129068345D01*
X227681655Y-129068345D02*
X228700000Y-128050000D01*
%TO.N,Net-(U18-SPB)*%
X227700000Y-127300000D02*
X227700000Y-127000000D01*
X227364657Y-127635343D02*
X227700000Y-127300000D01*
X227364657Y-128128290D02*
X227364657Y-127635343D01*
%TO.N,Net-(U18-CPL)*%
D56*
X225975000Y-121650000D02*
X225490118Y-121650000D01*
X223525000Y-119684882D02*
X223525000Y-119500000D01*
D53*
X226325000Y-122000000D02*
X225975000Y-121650000D01*
X226700000Y-122000000D02*
X226325000Y-122000000D01*
D56*
X225490118Y-121650000D02*
X223525000Y-119684882D01*
%TO.N,Net-(U18-CPH)*%
X226094239Y-122500000D02*
X225894239Y-122300000D01*
D53*
X226100000Y-122500000D02*
X226700000Y-122500000D01*
D56*
X225069239Y-122300000D02*
X224069238Y-121300000D01*
X224069238Y-121300000D02*
X223600000Y-121300000D01*
X223819239Y-121050000D02*
X223525000Y-121050000D01*
X225894239Y-122300000D02*
X225069239Y-122300000D01*
X226100000Y-122500000D02*
X226094239Y-122500000D01*
%TO.N,Net-(U18-VCP)*%
D54*
X224375000Y-123950000D02*
X223975000Y-123550000D01*
D53*
X226700000Y-124000000D02*
X226200000Y-124000000D01*
X226200000Y-124000000D02*
X226150000Y-123950000D01*
D54*
X223975000Y-123550000D02*
X223375000Y-123550000D01*
X226150000Y-123950000D02*
X224375000Y-123950000D01*
%TO.N,Net-(U18-GHA)*%
D53*
X226700000Y-124500000D02*
X225500000Y-124500000D01*
%TO.N,Net-(U18-SPA)*%
D56*
X220497500Y-136140299D02*
X220497500Y-137002799D01*
%TO.N,Net-(U18-GHC)*%
D53*
X229700000Y-127000000D02*
X229700000Y-129050000D01*
%TO.N,Net-(U18-GLC)*%
X231371446Y-128328552D02*
X231371446Y-128328553D01*
X230700000Y-127000000D02*
X230700000Y-127657106D01*
X230700000Y-127657106D02*
X231371446Y-128328552D01*
%TO.N,/SOB*%
X232977858Y-126200000D02*
X233755179Y-126200000D01*
X232200000Y-126000000D02*
X232777858Y-126000000D01*
X233755179Y-126200000D02*
X233828977Y-126126202D01*
X232777858Y-126000000D02*
X232977858Y-126200000D01*
%TO.N,/SOA*%
X233126387Y-125500000D02*
X233226387Y-125600000D01*
X232200000Y-125500000D02*
X233126387Y-125500000D01*
%TO.N,Net-(U1-BOOT)*%
D55*
X261440000Y-98600000D02*
X261440000Y-98025000D01*
X261860000Y-100050000D02*
X261860000Y-99020000D01*
X261860000Y-99020000D02*
X261440000Y-98600000D01*
%TO.N,Net-(U1-SW)*%
X260300000Y-97275000D02*
X261050000Y-96525000D01*
X260590000Y-100050000D02*
X260590000Y-98795000D01*
X260300000Y-98500000D02*
X260300000Y-97275000D01*
X260515000Y-98715000D02*
X260300000Y-98500000D01*
D57*
X257145000Y-100050000D02*
X260590000Y-100050000D01*
D53*
X261440000Y-96475000D02*
X261240000Y-96275000D01*
D55*
X261050000Y-96525000D02*
X261440000Y-96525000D01*
%TO.N,Net-(U1-FB)*%
D53*
X264740000Y-98700000D02*
X264740000Y-98075000D01*
X264400000Y-99040000D02*
X264740000Y-98700000D01*
X266440000Y-98075000D02*
X264740000Y-98075000D01*
X264400000Y-100050000D02*
X264400000Y-99040000D01*
%TO.N,/DShot*%
X237600000Y-107825000D02*
X243975000Y-107825000D01*
X237575000Y-107800000D02*
X237600000Y-107825000D01*
X243975000Y-107825000D02*
X247250000Y-104550000D01*
X236025000Y-107800000D02*
X237575000Y-107800000D01*
X247250000Y-104550000D02*
X247250000Y-94410000D01*
%TO.N,Net-(U1-VCC)*%
D55*
X263145000Y-98130000D02*
X263145000Y-99955000D01*
D53*
X263090000Y-100010000D02*
X263130000Y-100050000D01*
D58*
X263090000Y-98075000D02*
X263145000Y-98130000D01*
%TO.N,/nFAULT*%
D53*
X232050000Y-108350000D02*
X231050000Y-108350000D01*
X235775000Y-112075000D02*
X232050000Y-108350000D01*
X235775000Y-122900000D02*
X235775000Y-112075000D01*
X235025000Y-123650000D02*
X235775000Y-122900000D01*
%TO.N,+3.3V*%
D56*
X236375000Y-120450000D02*
X237100000Y-121175000D01*
X236375000Y-118225000D02*
X236375000Y-120450000D01*
X237100000Y-121175000D02*
X237100000Y-122000000D01*
X236375000Y-118225000D02*
X236375000Y-114350000D01*
%TD*%
%TA.AperFunction,Conductor*%
%TO.N,GND*%
G36*
X219304872Y-123005521D02*
G01*
X219330116Y-123012934D01*
X219382862Y-123044230D01*
X219703664Y-123365032D01*
X219913844Y-123575211D01*
X219923856Y-123588585D01*
X219934993Y-123603461D01*
X219940414Y-123613388D01*
X219955268Y-123681661D01*
X219930854Y-123747126D01*
X219874928Y-123788997D01*
X219867742Y-123791678D01*
X219824398Y-123799500D01*
X218180998Y-123799500D01*
X218078697Y-123819848D01*
X218078698Y-123819849D01*
X218078688Y-123819851D01*
X218078567Y-123819875D01*
X218045673Y-123826419D01*
X218045670Y-123826420D01*
X217918193Y-123879222D01*
X217918186Y-123879226D01*
X217803449Y-123955890D01*
X216290888Y-125468451D01*
X216214224Y-125583188D01*
X216214218Y-125583199D01*
X216161419Y-125710670D01*
X216160941Y-125712580D01*
X216160526Y-125715165D01*
X216144391Y-125796284D01*
X216144391Y-125796286D01*
X216134500Y-125846005D01*
X216134500Y-134776000D01*
X216114815Y-134843039D01*
X216062011Y-134888794D01*
X216010500Y-134900000D01*
X208974000Y-134900000D01*
X208906961Y-134880315D01*
X208861206Y-134827511D01*
X208850000Y-134776000D01*
X208850000Y-123849270D01*
X208855021Y-123814343D01*
X208858207Y-123803490D01*
X208895977Y-123744709D01*
X208959531Y-123715680D01*
X209028686Y-123725618D01*
X209035672Y-123728808D01*
X209071843Y-123753922D01*
X209114702Y-123796782D01*
X209114707Y-123796786D01*
X209114711Y-123796789D01*
X209245814Y-123884390D01*
X209245827Y-123884397D01*
X209391498Y-123944735D01*
X209391503Y-123944737D01*
X209546153Y-123975499D01*
X209546156Y-123975500D01*
X209546158Y-123975500D01*
X209703844Y-123975500D01*
X209703845Y-123975499D01*
X209858497Y-123944737D01*
X210004179Y-123884394D01*
X210135289Y-123796789D01*
X210246789Y-123685289D01*
X210334394Y-123554179D01*
X210394737Y-123408497D01*
X210425500Y-123253842D01*
X210425500Y-123142329D01*
X210430523Y-123107393D01*
X210434927Y-123092395D01*
X210472672Y-123033644D01*
X210472700Y-123033619D01*
X210472699Y-123033619D01*
X210474041Y-123032456D01*
X210528920Y-123004977D01*
X210536479Y-123003333D01*
X210562832Y-123000500D01*
X219269940Y-123000500D01*
X219304872Y-123005521D01*
G37*
%TD.AperFunction*%
%TA.AperFunction,Conductor*%
G36*
X225346288Y-127490918D02*
G01*
X225364079Y-127492193D01*
X225378342Y-127502873D01*
X225395041Y-127509101D01*
X225405729Y-127523380D01*
X225420008Y-127534071D01*
X225436903Y-127565024D01*
X225436912Y-127565035D01*
X225436918Y-127565050D01*
X225439611Y-127572273D01*
X225447424Y-127615481D01*
X225448270Y-128562328D01*
X225448270Y-128562330D01*
X225448271Y-128562331D01*
X225719392Y-128833057D01*
X225736199Y-128849840D01*
X226056744Y-128849660D01*
X226091680Y-128854663D01*
X226106680Y-128859058D01*
X226165468Y-128896784D01*
X226166656Y-128898153D01*
X226194155Y-128953004D01*
X226195803Y-128960561D01*
X226198650Y-128986912D01*
X226201409Y-133915588D01*
X226201408Y-133915590D01*
X226201409Y-133915592D01*
X226196405Y-133950529D01*
X226189006Y-133975777D01*
X226157755Y-134028523D01*
X225838253Y-134348489D01*
X225810015Y-134369658D01*
X225786933Y-134382284D01*
X225727541Y-134397494D01*
X224042439Y-134398999D01*
X224042437Y-134398998D01*
X224042437Y-134398999D01*
X224007501Y-134394007D01*
X223992492Y-134389615D01*
X223933686Y-134351895D01*
X223932499Y-134350527D01*
X223905003Y-134295673D01*
X223903343Y-134288057D01*
X223900500Y-134261656D01*
X223900500Y-128917925D01*
X223905522Y-128882992D01*
X223912934Y-128857747D01*
X223944228Y-128805005D01*
X225223129Y-127526104D01*
X225251374Y-127504959D01*
X225261306Y-127499536D01*
X225278731Y-127495745D01*
X225294388Y-127487199D01*
X225312163Y-127488472D01*
X225329576Y-127484685D01*
X225346288Y-127490918D01*
G37*
%TD.AperFunction*%
%TA.AperFunction,Conductor*%
G36*
X224568000Y-126205521D02*
G01*
X224578853Y-126208707D01*
X224637634Y-126246477D01*
X224666663Y-126310031D01*
X224656724Y-126379190D01*
X224656720Y-126379199D01*
X224653535Y-126386173D01*
X224628422Y-126422341D01*
X223784137Y-127266627D01*
X222931286Y-128119477D01*
X222931286Y-128119478D01*
X222819478Y-128231284D01*
X222819470Y-128231296D01*
X222772202Y-128313171D01*
X222772201Y-128313173D01*
X222740423Y-128368213D01*
X222740422Y-128368214D01*
X222740423Y-128368215D01*
X222699499Y-128520943D01*
X222699499Y-128520945D01*
X222699499Y-128691400D01*
X222699500Y-128691451D01*
X222699500Y-132885469D01*
X222699499Y-132885475D01*
X222699500Y-132885478D01*
X222694475Y-132920413D01*
X222690070Y-132935411D01*
X222652327Y-132994154D01*
X222652292Y-132994184D01*
X222652291Y-132994186D01*
X222652289Y-132994186D01*
X222650958Y-132995341D01*
X222596097Y-133022817D01*
X222588539Y-133024462D01*
X222562168Y-133027299D01*
X222053380Y-133027299D01*
X222042390Y-133028297D01*
X222034145Y-133029047D01*
X222017032Y-133030602D01*
X221982805Y-133033712D01*
X221820392Y-133084321D01*
X221674811Y-133172329D01*
X221674802Y-133172338D01*
X221668758Y-133178381D01*
X221640513Y-133199524D01*
X221617428Y-133212130D01*
X221557999Y-133227299D01*
X219989060Y-133227299D01*
X219954125Y-133222276D01*
X219943271Y-133219089D01*
X219928274Y-133209451D01*
X219911171Y-133204430D01*
X219899494Y-133190955D01*
X219884493Y-133181315D01*
X219877087Y-133165098D01*
X219865414Y-133151628D01*
X219862875Y-133133979D01*
X219855468Y-133117759D01*
X219858004Y-133100113D01*
X219855467Y-133082470D01*
X219865406Y-133048614D01*
X219868598Y-133041623D01*
X219893708Y-133005458D01*
X219927712Y-132971455D01*
X220019814Y-132822133D01*
X220074999Y-132655596D01*
X220085500Y-132552808D01*
X220085499Y-131927791D01*
X220074999Y-131825002D01*
X220019814Y-131658465D01*
X219927712Y-131509143D01*
X219803656Y-131385087D01*
X219667609Y-131301173D01*
X219650755Y-131288693D01*
X219631772Y-131271976D01*
X219594605Y-131213366D01*
X219592387Y-131205701D01*
X219590381Y-131198762D01*
X219585500Y-131164314D01*
X219585500Y-126724348D01*
X219590522Y-126689415D01*
X219597934Y-126664170D01*
X219629228Y-126611428D01*
X219991238Y-126249418D01*
X220019483Y-126228275D01*
X220042575Y-126215667D01*
X220102000Y-126200500D01*
X224533073Y-126200500D01*
X224568000Y-126205521D01*
G37*
%TD.AperFunction*%
%TA.AperFunction,Conductor*%
G36*
X215942606Y-108255023D02*
G01*
X215957604Y-108259427D01*
X216016355Y-108297172D01*
X216017542Y-108298541D01*
X216045018Y-108353402D01*
X216046663Y-108360960D01*
X216049500Y-108387331D01*
X216049500Y-108650000D01*
X216049501Y-108650019D01*
X216060000Y-108752796D01*
X216060001Y-108752799D01*
X216115185Y-108919331D01*
X216115187Y-108919336D01*
X216200805Y-109058144D01*
X216207290Y-109068658D01*
X216288344Y-109149712D01*
X216309495Y-109177967D01*
X216316987Y-109191688D01*
X216331839Y-109259948D01*
X216331710Y-109261754D01*
X216312342Y-109319956D01*
X216308163Y-109326459D01*
X216291527Y-109347103D01*
X216207291Y-109431338D01*
X216115186Y-109580665D01*
X216115177Y-109580691D01*
X216098413Y-109631283D01*
X216098412Y-109631286D01*
X216070298Y-109716124D01*
X216061852Y-109729067D01*
X216060365Y-109743630D01*
X216059542Y-109749881D01*
X216059359Y-109753476D01*
X216049500Y-109849973D01*
X216049500Y-110474998D01*
X216049503Y-110475045D01*
X216054605Y-110524992D01*
X216060000Y-110577796D01*
X216060001Y-110577799D01*
X216094459Y-110681784D01*
X216115186Y-110744333D01*
X216115187Y-110744336D01*
X216207289Y-110893657D01*
X216331344Y-111017712D01*
X216463648Y-111099317D01*
X216468185Y-111102254D01*
X216486393Y-111114611D01*
X216486309Y-111114792D01*
X216503002Y-111126346D01*
X216508432Y-111129568D01*
X216511545Y-111131681D01*
X216531451Y-111155852D01*
X216552797Y-111178780D01*
X216555863Y-111185495D01*
X216555962Y-111185615D01*
X216555977Y-111185744D01*
X216556472Y-111186828D01*
X216584915Y-111255493D01*
X216584921Y-111255505D01*
X216604274Y-111284466D01*
X216608254Y-111290423D01*
X216612566Y-111296877D01*
X216612569Y-111296882D01*
X216667046Y-111378414D01*
X216667052Y-111378421D01*
X217786505Y-112497872D01*
X217921585Y-112632952D01*
X217939134Y-112644677D01*
X217947849Y-112650501D01*
X218044498Y-112715080D01*
X218044511Y-112715087D01*
X218081698Y-112730490D01*
X218087729Y-112732988D01*
X218181088Y-112771659D01*
X218297241Y-112794763D01*
X218318266Y-112798945D01*
X218326081Y-112800500D01*
X218326082Y-112800500D01*
X218326083Y-112800500D01*
X218473918Y-112800500D01*
X220026082Y-112800500D01*
X221932671Y-112800500D01*
X221954109Y-112802367D01*
X221963435Y-112804004D01*
X221966269Y-112805405D01*
X221967602Y-112805522D01*
X221971972Y-112806805D01*
X221971687Y-112807774D01*
X221987799Y-112811887D01*
X221988056Y-112811199D01*
X221990902Y-112812261D01*
X221991749Y-112812895D01*
X221993519Y-112813347D01*
X221996227Y-112814584D01*
X221995660Y-112815823D01*
X222007580Y-112824746D01*
X222017305Y-112827599D01*
X222021938Y-112832943D01*
X222026062Y-112834983D01*
X222029979Y-112841514D01*
X222042066Y-112850563D01*
X222043092Y-112849675D01*
X222044007Y-112850731D01*
X222044898Y-112852683D01*
X222046810Y-112854114D01*
X222048637Y-112856554D01*
X222047169Y-112857653D01*
X222051411Y-112866938D01*
X222063074Y-112880391D01*
X222073026Y-112914252D01*
X222073233Y-112915689D01*
X222074500Y-112933369D01*
X222074500Y-112965650D01*
X222069476Y-113000589D01*
X222062064Y-113025829D01*
X222030769Y-113078571D01*
X221969533Y-113139806D01*
X221969532Y-113139807D01*
X221881522Y-113285392D01*
X221830911Y-113447811D01*
X221824500Y-113518377D01*
X221824500Y-114181621D01*
X221830911Y-114252187D01*
X221830913Y-114252192D01*
X221881522Y-114414606D01*
X221969530Y-114560188D01*
X222089811Y-114680469D01*
X222089813Y-114680470D01*
X222089815Y-114680472D01*
X222089822Y-114680476D01*
X222091154Y-114681436D01*
X222094056Y-114683035D01*
X222235394Y-114768478D01*
X222397804Y-114819086D01*
X222468384Y-114825500D01*
X222468387Y-114825500D01*
X222981613Y-114825500D01*
X222981616Y-114825500D01*
X223052196Y-114819086D01*
X223214606Y-114768478D01*
X223360185Y-114680472D01*
X223372441Y-114668216D01*
X223449715Y-114590943D01*
X223477963Y-114569796D01*
X223491689Y-114562301D01*
X223509110Y-114558511D01*
X223511037Y-114557459D01*
X223513226Y-114557615D01*
X223559946Y-114547450D01*
X223561756Y-114547579D01*
X223619953Y-114566945D01*
X223626471Y-114571134D01*
X223647106Y-114587764D01*
X223739811Y-114680469D01*
X223739813Y-114680470D01*
X223739815Y-114680472D01*
X223739823Y-114680476D01*
X223741154Y-114681436D01*
X223744056Y-114683035D01*
X223885394Y-114768478D01*
X224047804Y-114819086D01*
X224118384Y-114825500D01*
X224118387Y-114825500D01*
X224631613Y-114825500D01*
X224631616Y-114825500D01*
X224702196Y-114819086D01*
X224864606Y-114768478D01*
X224955601Y-114713468D01*
X224988084Y-114699698D01*
X225003205Y-114695706D01*
X225073041Y-114697622D01*
X225073043Y-114697623D01*
X225073044Y-114697624D01*
X225080996Y-114700198D01*
X225130490Y-114730490D01*
X227100711Y-116700711D01*
X227121865Y-116728970D01*
X227127285Y-116738897D01*
X227142134Y-116807170D01*
X227117714Y-116872634D01*
X227070769Y-116907773D01*
X227070951Y-116908056D01*
X227067002Y-116910593D01*
X227061784Y-116914500D01*
X227059736Y-116915263D01*
X227059735Y-116915264D01*
X227050000Y-116925000D01*
X227050000Y-117733170D01*
X227049999Y-117733176D01*
X227050000Y-117733179D01*
X227044975Y-117768114D01*
X227040570Y-117783112D01*
X227002827Y-117841855D01*
X227002792Y-117841885D01*
X227002791Y-117841887D01*
X227002789Y-117841887D01*
X227001458Y-117843042D01*
X226946597Y-117870518D01*
X226939039Y-117872163D01*
X226912668Y-117875000D01*
X226800000Y-117875000D01*
X226800000Y-117983170D01*
X226799999Y-117983176D01*
X226800000Y-117983179D01*
X226794975Y-118018112D01*
X226793938Y-118021646D01*
X226790570Y-118033112D01*
X226752827Y-118091855D01*
X226752792Y-118091885D01*
X226752791Y-118091887D01*
X226752789Y-118091887D01*
X226751458Y-118093042D01*
X226696597Y-118120518D01*
X226689039Y-118122163D01*
X226662668Y-118125000D01*
X224225001Y-118125000D01*
X224225001Y-118148331D01*
X224235144Y-118247608D01*
X224288451Y-118408478D01*
X224288456Y-118408490D01*
X224288458Y-118408493D01*
X224377413Y-118552712D01*
X224377432Y-118552739D01*
X224377433Y-118552740D01*
X224379987Y-118555685D01*
X224395148Y-118577510D01*
X224402697Y-118591336D01*
X224417547Y-118659600D01*
X224417546Y-118659606D01*
X224417547Y-118659609D01*
X224417546Y-118659611D01*
X224417239Y-118663909D01*
X224392825Y-118729374D01*
X224381246Y-118742740D01*
X224377034Y-118746952D01*
X224377030Y-118746957D01*
X224338127Y-118810027D01*
X224335486Y-118813037D01*
X224334799Y-118815137D01*
X224310930Y-118841030D01*
X224310879Y-118841089D01*
X224309195Y-118842459D01*
X224301943Y-118848362D01*
X224301917Y-118848385D01*
X224300726Y-118849355D01*
X224272567Y-118861184D01*
X224242132Y-118874832D01*
X224242257Y-118875598D01*
X224240405Y-118875899D01*
X224239861Y-118875850D01*
X224239495Y-118876015D01*
X224239423Y-118876025D01*
X224239393Y-118875809D01*
X224238040Y-118875688D01*
X224236309Y-118876416D01*
X224226105Y-118874627D01*
X224179340Y-118870470D01*
X224166786Y-118866051D01*
X224165207Y-118865495D01*
X224159043Y-118863139D01*
X224158698Y-118862996D01*
X224149713Y-118860019D01*
X224147551Y-118859281D01*
X224127267Y-118852141D01*
X224121738Y-118850750D01*
X224114534Y-118848363D01*
X224114531Y-118848362D01*
X223997710Y-118809651D01*
X223997703Y-118809650D01*
X223898359Y-118799500D01*
X223898352Y-118799500D01*
X223898345Y-118799500D01*
X223593995Y-118799500D01*
X223593993Y-118799500D01*
X223456007Y-118799500D01*
X223456003Y-118799500D01*
X223301663Y-118799500D01*
X223301660Y-118799500D01*
X223301654Y-118799500D01*
X223301644Y-118799501D01*
X223202292Y-118809650D01*
X223202290Y-118809650D01*
X223202286Y-118809651D01*
X223202282Y-118809651D01*
X223202121Y-118809706D01*
X223041304Y-118862996D01*
X223041295Y-118863000D01*
X223041292Y-118863002D01*
X222896974Y-118952018D01*
X222896952Y-118952034D01*
X222896949Y-118952036D01*
X222777036Y-119071949D01*
X222777034Y-119071952D01*
X222777018Y-119071974D01*
X222688002Y-119216292D01*
X222688000Y-119216295D01*
X222687993Y-119216309D01*
X222634652Y-119377285D01*
X222634650Y-119377295D01*
X222624500Y-119476639D01*
X222624500Y-120023334D01*
X222624503Y-120023381D01*
X222634650Y-120122707D01*
X222634653Y-120122715D01*
X222634720Y-120122918D01*
X222687995Y-120283691D01*
X222688000Y-120283703D01*
X222688002Y-120283706D01*
X222777018Y-120428024D01*
X222777025Y-120428034D01*
X222777029Y-120428040D01*
X222777032Y-120428044D01*
X222777034Y-120428046D01*
X222779645Y-120431057D01*
X222794803Y-120452879D01*
X222802343Y-120466688D01*
X222817195Y-120534948D01*
X222817066Y-120536754D01*
X222797696Y-120594959D01*
X222793518Y-120601460D01*
X222779777Y-120618513D01*
X222779914Y-120618632D01*
X222777034Y-120621951D01*
X222777033Y-120621952D01*
X222777018Y-120621974D01*
X222688002Y-120766292D01*
X222688000Y-120766295D01*
X222687993Y-120766309D01*
X222634652Y-120927285D01*
X222634650Y-120927295D01*
X222624500Y-121026639D01*
X222624500Y-121357674D01*
X222619477Y-121392608D01*
X222615074Y-121407603D01*
X222577329Y-121466355D01*
X222575960Y-121467542D01*
X222521096Y-121495019D01*
X222513537Y-121496664D01*
X222487169Y-121499500D01*
X209941815Y-121499500D01*
X209917627Y-121497117D01*
X209897637Y-121493141D01*
X209894131Y-121492444D01*
X209870880Y-121485391D01*
X209858491Y-121480260D01*
X209858490Y-121480259D01*
X209703849Y-121449500D01*
X209703845Y-121449500D01*
X209703842Y-121449500D01*
X209546158Y-121449500D01*
X209546155Y-121449500D01*
X209546153Y-121449500D01*
X209391527Y-121480257D01*
X209391496Y-121480264D01*
X209245833Y-121540598D01*
X209245824Y-121540603D01*
X209245807Y-121540613D01*
X209114715Y-121628207D01*
X209114710Y-121628210D01*
X209114701Y-121628218D01*
X209074287Y-121668633D01*
X209046033Y-121689784D01*
X209036107Y-121695204D01*
X208967834Y-121710056D01*
X208902370Y-121685639D01*
X208860499Y-121629708D01*
X208857813Y-121622504D01*
X208850000Y-121579184D01*
X208850000Y-109874270D01*
X208855021Y-109839343D01*
X208858207Y-109828490D01*
X208867845Y-109813489D01*
X208872868Y-109796382D01*
X208886339Y-109784708D01*
X208895977Y-109769709D01*
X208912197Y-109762300D01*
X208925670Y-109750625D01*
X208943314Y-109748087D01*
X208959531Y-109740680D01*
X208977179Y-109743216D01*
X208994828Y-109740678D01*
X209028683Y-109750616D01*
X209035672Y-109753808D01*
X209071843Y-109778922D01*
X209114702Y-109821782D01*
X209114707Y-109821786D01*
X209114711Y-109821789D01*
X209245814Y-109909390D01*
X209245827Y-109909397D01*
X209314124Y-109937686D01*
X209353483Y-109953989D01*
X209353484Y-109953989D01*
X209362368Y-109957669D01*
X209391503Y-109969737D01*
X209541072Y-109999488D01*
X209543392Y-110000051D01*
X209546155Y-110000500D01*
X209703844Y-110000500D01*
X209707964Y-110000500D01*
X209715814Y-109998118D01*
X209858497Y-109969737D01*
X210004179Y-109909394D01*
X210035131Y-109888711D01*
X210066958Y-109873484D01*
X210081884Y-109868810D01*
X210151718Y-109867560D01*
X210151742Y-109867566D01*
X210151743Y-109867567D01*
X210153028Y-109867919D01*
X210155860Y-109868696D01*
X210205757Y-109895874D01*
X210208915Y-109898699D01*
X210219030Y-109908865D01*
X210219916Y-109909865D01*
X210219923Y-109909872D01*
X210219927Y-109909877D01*
X210308164Y-109998114D01*
X210340123Y-110030073D01*
X210378402Y-110053213D01*
X210485604Y-110118019D01*
X210485603Y-110118019D01*
X210564064Y-110142468D01*
X210571200Y-110145727D01*
X210591690Y-110163482D01*
X210647890Y-110168588D01*
X210647894Y-110168590D01*
X210647892Y-110168590D01*
X210718418Y-110174999D01*
X211300000Y-110174999D01*
X211381580Y-110174999D01*
X211381581Y-110174999D01*
X211399185Y-110173399D01*
X211452094Y-110168592D01*
X211452095Y-110168591D01*
X211452102Y-110168591D01*
X211452107Y-110168590D01*
X211614396Y-110118018D01*
X211691424Y-110071453D01*
X211759871Y-110030076D01*
X211759872Y-110030075D01*
X211759871Y-110030075D01*
X211759877Y-110030072D01*
X211880072Y-109909877D01*
X211968019Y-109764395D01*
X212018590Y-109602106D01*
X212025000Y-109531572D01*
X212025000Y-109525000D01*
X211300000Y-109525000D01*
X211300000Y-110174999D01*
X210718418Y-110174999D01*
X210799999Y-110174998D01*
X210800000Y-110174998D01*
X210800000Y-109416829D01*
X210805023Y-109381893D01*
X210809427Y-109366895D01*
X210819069Y-109351886D01*
X210819685Y-109349790D01*
X210821334Y-109348360D01*
X210847172Y-109308144D01*
X210848541Y-109306957D01*
X210903420Y-109279477D01*
X210910979Y-109277833D01*
X210937332Y-109275000D01*
X211050000Y-109275000D01*
X211050000Y-109166829D01*
X211055023Y-109131893D01*
X211059427Y-109116895D01*
X211059857Y-109116226D01*
X211097172Y-109058144D01*
X211097200Y-109058119D01*
X211097199Y-109058119D01*
X211098541Y-109056956D01*
X211153420Y-109029477D01*
X211160979Y-109027833D01*
X211187332Y-109025000D01*
X212024999Y-109025000D01*
X212024999Y-109018418D01*
X212018592Y-108947904D01*
X212018591Y-108947901D01*
X212018591Y-108947897D01*
X212018590Y-108947892D01*
X212018585Y-108947875D01*
X212008772Y-108916383D01*
X212007620Y-108846523D01*
X212044421Y-108787131D01*
X212107490Y-108757063D01*
X212127145Y-108755493D01*
X212575500Y-108755493D01*
X212642539Y-108775178D01*
X212688294Y-108827982D01*
X212699500Y-108879493D01*
X212699500Y-116702404D01*
X212699499Y-116702405D01*
X212699500Y-116702406D01*
X212694476Y-116737341D01*
X212685136Y-116769148D01*
X212669262Y-116803102D01*
X212590613Y-116920807D01*
X212590603Y-116920824D01*
X212590598Y-116920833D01*
X212530264Y-117066496D01*
X212530257Y-117066527D01*
X212499500Y-117221150D01*
X212499500Y-117221153D01*
X212499500Y-117378846D01*
X212499500Y-117378848D01*
X212499499Y-117378848D01*
X212530257Y-117533471D01*
X212530264Y-117533502D01*
X212590598Y-117679165D01*
X212590603Y-117679174D01*
X212590613Y-117679191D01*
X212678211Y-117810290D01*
X212678212Y-117810291D01*
X212678217Y-117810297D01*
X212789701Y-117921781D01*
X212789707Y-117921786D01*
X212789711Y-117921789D01*
X212920814Y-118009390D01*
X212920827Y-118009397D01*
X213066498Y-118069735D01*
X213066503Y-118069737D01*
X213195871Y-118095470D01*
X213213530Y-118098982D01*
X213216248Y-118099703D01*
X213221155Y-118100500D01*
X213378844Y-118100500D01*
X213382964Y-118100500D01*
X213390814Y-118098118D01*
X213533497Y-118069737D01*
X213649251Y-118021789D01*
X213683445Y-118013062D01*
X213694400Y-118011883D01*
X213704305Y-118010819D01*
X213763991Y-118019129D01*
X213770229Y-118021648D01*
X213792676Y-118033519D01*
X213795086Y-118035129D01*
X213795089Y-118035130D01*
X213795092Y-118035132D01*
X213795129Y-118035152D01*
X213795727Y-118035395D01*
X213795770Y-118035412D01*
X213797938Y-118036310D01*
X213797939Y-118036311D01*
X213797950Y-118036315D01*
X213797971Y-118036324D01*
X213940768Y-118095472D01*
X214089214Y-118125000D01*
X214095418Y-118126234D01*
X214095421Y-118126235D01*
X214095423Y-118126235D01*
X214253109Y-118126235D01*
X214253110Y-118126234D01*
X214407762Y-118095472D01*
X214534091Y-118043144D01*
X214568282Y-118034418D01*
X214594436Y-118031606D01*
X214655143Y-118040333D01*
X214790033Y-118096207D01*
X214934784Y-118125000D01*
X214944683Y-118126969D01*
X214944686Y-118126970D01*
X214944688Y-118126970D01*
X215102374Y-118126970D01*
X215102375Y-118126969D01*
X215257027Y-118096207D01*
X215369696Y-118049537D01*
X215396164Y-118038574D01*
X215398955Y-118037601D01*
X215400398Y-118036934D01*
X215405058Y-118034891D01*
X215414317Y-118031055D01*
X215423201Y-118022171D01*
X215533819Y-117948259D01*
X215645319Y-117836759D01*
X215732924Y-117705649D01*
X215775993Y-117601671D01*
X224225000Y-117601671D01*
X224225000Y-117601677D01*
X224225000Y-117625000D01*
X224950000Y-117625000D01*
X224950000Y-116925000D01*
X225450000Y-116925000D01*
X225450000Y-117625000D01*
X226550000Y-117625000D01*
X226550000Y-116925000D01*
X226549999Y-116924998D01*
X226501713Y-116924999D01*
X226501685Y-116925000D01*
X226501651Y-116925003D01*
X226402390Y-116935144D01*
X226241520Y-116988451D01*
X226241508Y-116988456D01*
X226241505Y-116988458D01*
X226097286Y-117077413D01*
X226097264Y-117077428D01*
X226097263Y-117077429D01*
X226093944Y-117080309D01*
X226093384Y-117079664D01*
X226072026Y-117095562D01*
X226058310Y-117103051D01*
X225990051Y-117117902D01*
X225990036Y-117117900D01*
X225990036Y-117117901D01*
X225990035Y-117117900D01*
X225988245Y-117117773D01*
X225930039Y-117098402D01*
X225923535Y-117094222D01*
X225906142Y-117080206D01*
X225906054Y-117080308D01*
X225903235Y-117077863D01*
X225902895Y-117077589D01*
X225902735Y-117077429D01*
X225902712Y-117077413D01*
X225794990Y-117010969D01*
X225758492Y-116988457D01*
X225758490Y-116988456D01*
X225758476Y-116988449D01*
X225597604Y-116935143D01*
X225498327Y-116925000D01*
X225498322Y-116925000D01*
X225450000Y-116925000D01*
X224950000Y-116925000D01*
X224950000Y-116924999D01*
X224949999Y-116924998D01*
X224949998Y-116924998D01*
X224901713Y-116924999D01*
X224901685Y-116925000D01*
X224901651Y-116925003D01*
X224802390Y-116935144D01*
X224641520Y-116988451D01*
X224641508Y-116988456D01*
X224641505Y-116988458D01*
X224497286Y-117077413D01*
X224497263Y-117077429D01*
X224377431Y-117197261D01*
X224377429Y-117197264D01*
X224377413Y-117197286D01*
X224288458Y-117341505D01*
X224288456Y-117341508D01*
X224288449Y-117341522D01*
X224235143Y-117502394D01*
X224225000Y-117601671D01*
X215775993Y-117601671D01*
X215793267Y-117559967D01*
X215798532Y-117533501D01*
X215823682Y-117407056D01*
X215823717Y-117406889D01*
X215823733Y-117406858D01*
X215824030Y-117405493D01*
X215824030Y-117247443D01*
X215823595Y-117245442D01*
X215814013Y-117197271D01*
X215814013Y-117197270D01*
X215793268Y-117092976D01*
X215793265Y-117092969D01*
X215786829Y-117077428D01*
X215734608Y-116951357D01*
X215734608Y-116951356D01*
X215732922Y-116947287D01*
X215681302Y-116870033D01*
X215681300Y-116870030D01*
X215666070Y-116838196D01*
X215656163Y-116806558D01*
X215650500Y-116769509D01*
X215650500Y-108391824D01*
X215652396Y-108378631D01*
X215652099Y-108378610D01*
X215652453Y-108373659D01*
X215653120Y-108370830D01*
X215652843Y-108369293D01*
X215654727Y-108362421D01*
X215655522Y-108356893D01*
X215656805Y-108352523D01*
X215657393Y-108352695D01*
X215657456Y-108352469D01*
X215661228Y-108336492D01*
X215661187Y-108336477D01*
X215661309Y-108336147D01*
X215661559Y-108335092D01*
X215662413Y-108333027D01*
X215662740Y-108332312D01*
X215662814Y-108332056D01*
X215663858Y-108329536D01*
X215664204Y-108329106D01*
X215664587Y-108328268D01*
X215664800Y-108328365D01*
X215684436Y-108303981D01*
X215700520Y-108282487D01*
X215699623Y-108281452D01*
X215700679Y-108280536D01*
X215702658Y-108279630D01*
X215704110Y-108277691D01*
X215704147Y-108277664D01*
X215706586Y-108275839D01*
X215706832Y-108276168D01*
X215707679Y-108275117D01*
X215725550Y-108269161D01*
X215764216Y-108251478D01*
X215765800Y-108251250D01*
X215783370Y-108250000D01*
X215907670Y-108250000D01*
X215942606Y-108255023D01*
G37*
%TD.AperFunction*%
%TD*%
%TA.AperFunction,Conductor*%
%TO.N,Net-(U18-SPA)*%
G36*
X222878106Y-135002940D02*
G01*
X222893104Y-135007344D01*
X222908094Y-135016974D01*
X222925175Y-135021984D01*
X222951855Y-135045089D01*
X222953042Y-135046458D01*
X222980518Y-135101319D01*
X222982163Y-135108877D01*
X222985000Y-135135248D01*
X222985000Y-140506087D01*
X222979975Y-140541031D01*
X222975570Y-140556029D01*
X222965939Y-140571018D01*
X222960932Y-140588092D01*
X222937827Y-140614772D01*
X222936458Y-140615959D01*
X222881597Y-140643435D01*
X222874039Y-140645080D01*
X222847668Y-140647917D01*
X219926830Y-140647917D01*
X219891889Y-140642892D01*
X219876890Y-140638487D01*
X219861902Y-140628857D01*
X219844824Y-140623849D01*
X219818144Y-140600744D01*
X219816957Y-140599375D01*
X219789477Y-140544500D01*
X219787832Y-140536938D01*
X219785000Y-140510585D01*
X219785000Y-135139746D01*
X219790023Y-135104810D01*
X219794427Y-135089812D01*
X219804057Y-135074821D01*
X219809067Y-135057741D01*
X219832172Y-135031061D01*
X219833541Y-135029874D01*
X219888420Y-135002394D01*
X219895979Y-135000750D01*
X219922332Y-134997917D01*
X222843170Y-134997917D01*
X222878106Y-135002940D01*
G37*
%TD.AperFunction*%
%TD*%
%TA.AperFunction,Conductor*%
%TO.N,GNDA*%
G36*
X218142539Y-97320185D02*
G01*
X218188294Y-97372989D01*
X218199500Y-97424500D01*
X218199500Y-97723336D01*
X218199501Y-97723355D01*
X218209650Y-97822707D01*
X218224272Y-97866833D01*
X218247357Y-97936498D01*
X218249759Y-98006324D01*
X218214027Y-98066366D01*
X218151507Y-98097559D01*
X218129651Y-98099500D01*
X218118384Y-98099500D01*
X218099145Y-98101248D01*
X218047807Y-98105913D01*
X217885393Y-98156522D01*
X217739811Y-98244530D01*
X217619530Y-98364811D01*
X217589402Y-98414650D01*
X217537874Y-98461838D01*
X217483285Y-98474500D01*
X214911670Y-98474500D01*
X214911654Y-98474499D01*
X214904058Y-98474499D01*
X214745943Y-98474499D01*
X214669579Y-98494961D01*
X214593214Y-98515423D01*
X214593209Y-98515426D01*
X214456290Y-98594475D01*
X214456282Y-98594481D01*
X212819479Y-100231284D01*
X212803298Y-100259311D01*
X212796459Y-100271158D01*
X212740423Y-100368215D01*
X212699499Y-100520943D01*
X212699499Y-100520945D01*
X212699499Y-100689046D01*
X212699500Y-100689059D01*
X212699500Y-108125993D01*
X212679815Y-108193032D01*
X212627011Y-108238787D01*
X212575500Y-108249993D01*
X212094285Y-108249994D01*
X212027246Y-108230310D01*
X211981491Y-108177506D01*
X211971547Y-108108347D01*
X211975900Y-108089103D01*
X212018590Y-107952104D01*
X212025000Y-107881572D01*
X212025000Y-107875000D01*
X211174000Y-107875000D01*
X211106961Y-107855315D01*
X211061206Y-107802511D01*
X211050000Y-107751000D01*
X211050000Y-107625000D01*
X210924000Y-107625000D01*
X210856961Y-107605315D01*
X210811206Y-107552511D01*
X210800000Y-107501000D01*
X210800000Y-107375000D01*
X211300000Y-107375000D01*
X212024999Y-107375000D01*
X212024999Y-107368417D01*
X212018591Y-107297897D01*
X212018590Y-107297892D01*
X211968018Y-107135603D01*
X211880072Y-106990122D01*
X211759877Y-106869927D01*
X211614395Y-106781980D01*
X211614396Y-106781980D01*
X211452105Y-106731409D01*
X211452106Y-106731409D01*
X211381572Y-106725000D01*
X211300000Y-106725000D01*
X211300000Y-107375000D01*
X210800000Y-107375000D01*
X210800000Y-106725000D01*
X210799999Y-106724999D01*
X210718417Y-106725000D01*
X210647897Y-106731408D01*
X210647892Y-106731409D01*
X210485602Y-106781981D01*
X210413650Y-106825478D01*
X210346095Y-106843314D01*
X210279621Y-106821796D01*
X210235334Y-106767756D01*
X210225500Y-106719361D01*
X210225500Y-100750097D01*
X210245185Y-100683058D01*
X210261819Y-100662416D01*
X213587416Y-97336819D01*
X213648739Y-97303334D01*
X213675097Y-97300500D01*
X218075500Y-97300500D01*
X218142539Y-97320185D01*
G37*
%TD.AperFunction*%
%TA.AperFunction,Conductor*%
G36*
X233743039Y-83020185D02*
G01*
X233788794Y-83072989D01*
X233800000Y-83124500D01*
X233800000Y-98546087D01*
X233780315Y-98613126D01*
X233727511Y-98658881D01*
X233658353Y-98668825D01*
X233610903Y-98651626D01*
X233508486Y-98588454D01*
X233508481Y-98588452D01*
X233347606Y-98535144D01*
X233248322Y-98525000D01*
X233200000Y-98525000D01*
X233200000Y-99351000D01*
X233180315Y-99418039D01*
X233127511Y-99463794D01*
X233076000Y-99475000D01*
X232950000Y-99475000D01*
X232950000Y-99601000D01*
X232930315Y-99668039D01*
X232877511Y-99713794D01*
X232826000Y-99725000D01*
X232455000Y-99725000D01*
X232455000Y-99726000D01*
X232435315Y-99793039D01*
X232382511Y-99838794D01*
X232331000Y-99850000D01*
X231499000Y-99850000D01*
X231431961Y-99830315D01*
X231386206Y-99777511D01*
X231375000Y-99726000D01*
X231375000Y-99600000D01*
X231249000Y-99600000D01*
X231181961Y-99580315D01*
X231136206Y-99527511D01*
X231125000Y-99476000D01*
X231125000Y-99350000D01*
X231625000Y-99350000D01*
X231845000Y-99350000D01*
X231845000Y-99349000D01*
X231864685Y-99281961D01*
X231917489Y-99236206D01*
X231969000Y-99225000D01*
X232700000Y-99225000D01*
X232700000Y-98525000D01*
X232699999Y-98524999D01*
X232651693Y-98525000D01*
X232651675Y-98525001D01*
X232552391Y-98535144D01*
X232450119Y-98569033D01*
X232380291Y-98571434D01*
X232320249Y-98535702D01*
X232289057Y-98473182D01*
X232293411Y-98412321D01*
X232314855Y-98347607D01*
X232324999Y-98248322D01*
X232325000Y-98248309D01*
X232325000Y-98200000D01*
X231625000Y-98200000D01*
X231625000Y-99350000D01*
X231125000Y-99350000D01*
X231125000Y-97700000D01*
X231625000Y-97700000D01*
X232324999Y-97700000D01*
X232324999Y-97651692D01*
X232324998Y-97651677D01*
X232314855Y-97552392D01*
X232261547Y-97391518D01*
X232261542Y-97391507D01*
X232172575Y-97247271D01*
X232172572Y-97247267D01*
X232137986Y-97212681D01*
X232104501Y-97151358D01*
X232109485Y-97081666D01*
X232137986Y-97037319D01*
X232172572Y-97002732D01*
X232172575Y-97002728D01*
X232261542Y-96858492D01*
X232261547Y-96858481D01*
X232314855Y-96697606D01*
X232324999Y-96598322D01*
X232325000Y-96598309D01*
X232325000Y-96550000D01*
X231625000Y-96550000D01*
X231625000Y-97700000D01*
X231125000Y-97700000D01*
X231125000Y-96050000D01*
X231625000Y-96050000D01*
X232324999Y-96050000D01*
X232324999Y-96001692D01*
X232324998Y-96001677D01*
X232314855Y-95902392D01*
X232261547Y-95741518D01*
X232261542Y-95741507D01*
X232172575Y-95597271D01*
X232172572Y-95597267D01*
X232052732Y-95477427D01*
X232052728Y-95477424D01*
X231908492Y-95388457D01*
X231908481Y-95388452D01*
X231747606Y-95335144D01*
X231648322Y-95325000D01*
X231625000Y-95325000D01*
X231625000Y-96050000D01*
X231125000Y-96050000D01*
X231125000Y-95324999D01*
X231101693Y-95325000D01*
X231101674Y-95325001D01*
X231002392Y-95335144D01*
X230841518Y-95388452D01*
X230841507Y-95388457D01*
X230697271Y-95477424D01*
X230697265Y-95477428D01*
X230688031Y-95486663D01*
X230626707Y-95520146D01*
X230557015Y-95515159D01*
X230512672Y-95486660D01*
X230503044Y-95477032D01*
X230503040Y-95477029D01*
X230358705Y-95388001D01*
X230358699Y-95387998D01*
X230358697Y-95387997D01*
X230339157Y-95381522D01*
X230197709Y-95334651D01*
X230098346Y-95324500D01*
X229551662Y-95324500D01*
X229551644Y-95324501D01*
X229452292Y-95334650D01*
X229452289Y-95334651D01*
X229291305Y-95387996D01*
X229291294Y-95388001D01*
X229146959Y-95477029D01*
X229146958Y-95477029D01*
X229120001Y-95503986D01*
X229058676Y-95537469D01*
X228988985Y-95532482D01*
X228944641Y-95503983D01*
X228910188Y-95469530D01*
X228764606Y-95381522D01*
X228602196Y-95330914D01*
X228602194Y-95330913D01*
X228602192Y-95330913D01*
X228552778Y-95326423D01*
X228531616Y-95324500D01*
X228018384Y-95324500D01*
X227999145Y-95326248D01*
X227947807Y-95330913D01*
X227785393Y-95381522D01*
X227639811Y-95469530D01*
X227639810Y-95469531D01*
X227537681Y-95571661D01*
X227476358Y-95605146D01*
X227406666Y-95600162D01*
X227362319Y-95571661D01*
X227260188Y-95469530D01*
X227114606Y-95381522D01*
X226952196Y-95330914D01*
X226952194Y-95330913D01*
X226952192Y-95330913D01*
X226902778Y-95326423D01*
X226881616Y-95324500D01*
X226368384Y-95324500D01*
X226349145Y-95326248D01*
X226297807Y-95330913D01*
X226135393Y-95381522D01*
X225989811Y-95469530D01*
X225869530Y-95589811D01*
X225781522Y-95735393D01*
X225730913Y-95897807D01*
X225724500Y-95968386D01*
X225724500Y-96299902D01*
X225704815Y-96366941D01*
X225688181Y-96387583D01*
X225169707Y-96906056D01*
X225161211Y-96910695D01*
X225155332Y-96918386D01*
X225131046Y-96927166D01*
X225108384Y-96939541D01*
X225098728Y-96938850D01*
X225089625Y-96942142D01*
X225064449Y-96936399D01*
X225038692Y-96934557D01*
X225029127Y-96928341D01*
X225021506Y-96926603D01*
X225005930Y-96913267D01*
X224993466Y-96905168D01*
X224983776Y-96895281D01*
X224980472Y-96889815D01*
X224877596Y-96786939D01*
X224877105Y-96786438D01*
X224860941Y-96756115D01*
X224844499Y-96726003D01*
X224844545Y-96725355D01*
X224844239Y-96724781D01*
X224847033Y-96690557D01*
X224849483Y-96656311D01*
X224849881Y-96655691D01*
X224849926Y-96655143D01*
X224851857Y-96652615D01*
X224877985Y-96611963D01*
X224980071Y-96509878D01*
X224980072Y-96509877D01*
X225068019Y-96364395D01*
X225118590Y-96202106D01*
X225125000Y-96131572D01*
X225125000Y-96125000D01*
X223605000Y-96125000D01*
X223591319Y-96138681D01*
X223529996Y-96172166D01*
X223503638Y-96175000D01*
X221562546Y-96175000D01*
X221552184Y-96172759D01*
X221545203Y-96173781D01*
X221525504Y-96166990D01*
X221511314Y-96163922D01*
X221505802Y-96161421D01*
X221469433Y-96140423D01*
X221445216Y-96133934D01*
X221435928Y-96129720D01*
X221421194Y-96117017D01*
X221399479Y-96104479D01*
X221395000Y-96100000D01*
X221328637Y-96100000D01*
X221320995Y-96099499D01*
X221316705Y-96099499D01*
X221158591Y-96099499D01*
X221150995Y-96099499D01*
X221150979Y-96099500D01*
X213461669Y-96099500D01*
X213461653Y-96099499D01*
X213454057Y-96099499D01*
X213295943Y-96099499D01*
X213188587Y-96128265D01*
X213143210Y-96140424D01*
X213143209Y-96140425D01*
X213093096Y-96169359D01*
X213093095Y-96169360D01*
X213049689Y-96194420D01*
X213006285Y-96219479D01*
X213006282Y-96219481D01*
X209144481Y-100081282D01*
X209144479Y-100081285D01*
X209107149Y-100145943D01*
X209094360Y-100168095D01*
X209065423Y-100218215D01*
X209042465Y-100303893D01*
X209039906Y-100310405D01*
X209022598Y-100332701D01*
X209007909Y-100356801D01*
X209001461Y-100359933D01*
X208997064Y-100365598D01*
X208970446Y-100374999D01*
X208945062Y-100387330D01*
X208937943Y-100386478D01*
X208931182Y-100388867D01*
X208903707Y-100382385D01*
X208875687Y-100379035D01*
X208870159Y-100374470D01*
X208863179Y-100372824D01*
X208843568Y-100352515D01*
X208821809Y-100334549D01*
X208819626Y-100327720D01*
X208814645Y-100322562D01*
X208809128Y-100294881D01*
X208800535Y-100267997D01*
X208800500Y-100265047D01*
X208800500Y-95626677D01*
X218200000Y-95626677D01*
X218200000Y-95650000D01*
X218925000Y-95650000D01*
X218925000Y-94950000D01*
X219425000Y-94950000D01*
X219425000Y-95650000D01*
X219745000Y-95650000D01*
X219758681Y-95636319D01*
X219820004Y-95602834D01*
X219846362Y-95600000D01*
X220600000Y-95600000D01*
X221100000Y-95600000D01*
X221831000Y-95600000D01*
X221898039Y-95619685D01*
X221916440Y-95640921D01*
X221918681Y-95638681D01*
X221955000Y-95675000D01*
X222250000Y-95675000D01*
X222250000Y-94975000D01*
X222750000Y-94975000D01*
X222750000Y-95675000D01*
X223045000Y-95675000D01*
X223058681Y-95661319D01*
X223120004Y-95627834D01*
X223146362Y-95625000D01*
X223900000Y-95625000D01*
X224400000Y-95625000D01*
X225124999Y-95625000D01*
X225124999Y-95618417D01*
X225118591Y-95547897D01*
X225118590Y-95547892D01*
X225068018Y-95385603D01*
X224980072Y-95240122D01*
X224859877Y-95119927D01*
X224714395Y-95031980D01*
X224714396Y-95031980D01*
X224552105Y-94981409D01*
X224552106Y-94981409D01*
X224481572Y-94975000D01*
X224400000Y-94975000D01*
X224400000Y-95625000D01*
X223900000Y-95625000D01*
X223900000Y-94975000D01*
X223899999Y-94974999D01*
X223818417Y-94975000D01*
X223747897Y-94981408D01*
X223747892Y-94981409D01*
X223585603Y-95031981D01*
X223440122Y-95119927D01*
X223440120Y-95119928D01*
X223405357Y-95154692D01*
X223344034Y-95188177D01*
X223274342Y-95183191D01*
X223229996Y-95154691D01*
X223202732Y-95127427D01*
X223202728Y-95127424D01*
X223058492Y-95038457D01*
X223058481Y-95038452D01*
X222897606Y-94985144D01*
X222798322Y-94975000D01*
X222750000Y-94975000D01*
X222250000Y-94975000D01*
X222249999Y-94974999D01*
X222201693Y-94975000D01*
X222201675Y-94975001D01*
X222102392Y-94985144D01*
X221941518Y-95038452D01*
X221941507Y-95038457D01*
X221797271Y-95127424D01*
X221797266Y-95127428D01*
X221782501Y-95142193D01*
X221721177Y-95175677D01*
X221651486Y-95170691D01*
X221607141Y-95142191D01*
X221559877Y-95094927D01*
X221414395Y-95006980D01*
X221414396Y-95006980D01*
X221252105Y-94956409D01*
X221252106Y-94956409D01*
X221181572Y-94950000D01*
X221100000Y-94950000D01*
X221100000Y-95600000D01*
X220600000Y-95600000D01*
X220600000Y-94950000D01*
X220599999Y-94949999D01*
X220518417Y-94950000D01*
X220447897Y-94956408D01*
X220447892Y-94956409D01*
X220285603Y-95006981D01*
X220140122Y-95094927D01*
X220092857Y-95142192D01*
X220031534Y-95175676D01*
X219961842Y-95170691D01*
X219917496Y-95142191D01*
X219877732Y-95102427D01*
X219877728Y-95102424D01*
X219733492Y-95013457D01*
X219733481Y-95013452D01*
X219572606Y-94960144D01*
X219473322Y-94950000D01*
X219425000Y-94950000D01*
X218925000Y-94950000D01*
X218924999Y-94949999D01*
X218876693Y-94950000D01*
X218876675Y-94950001D01*
X218777392Y-94960144D01*
X218616518Y-95013452D01*
X218616507Y-95013457D01*
X218472271Y-95102424D01*
X218472267Y-95102427D01*
X218352427Y-95222267D01*
X218352424Y-95222271D01*
X218263457Y-95366507D01*
X218263452Y-95366518D01*
X218210144Y-95527393D01*
X218200000Y-95626677D01*
X208800500Y-95626677D01*
X208800500Y-83124500D01*
X208820185Y-83057461D01*
X208872989Y-83011706D01*
X208924500Y-83000500D01*
X233676000Y-83000500D01*
X233743039Y-83020185D01*
G37*
%TD.AperFunction*%
%TD*%
%TA.AperFunction,Conductor*%
%TO.N,/VAkku +*%
G36*
X241328106Y-137200141D02*
G01*
X241343104Y-137204545D01*
X241358094Y-137214175D01*
X241375175Y-137219185D01*
X241401855Y-137242290D01*
X241403042Y-137243659D01*
X241430518Y-137298520D01*
X241432163Y-137306078D01*
X241435000Y-137332449D01*
X241435000Y-139320624D01*
X245193171Y-139320624D01*
X245228106Y-139325647D01*
X245243104Y-139330051D01*
X245301855Y-139367796D01*
X245301879Y-139367824D01*
X245301882Y-139367826D01*
X245301883Y-139367828D01*
X245303042Y-139369165D01*
X245330518Y-139424026D01*
X245332163Y-139431584D01*
X245335000Y-139457955D01*
X245335000Y-144178794D01*
X245334999Y-144178800D01*
X245335000Y-144178803D01*
X245329975Y-144213738D01*
X245325570Y-144228736D01*
X245287827Y-144287479D01*
X245287792Y-144287509D01*
X245287791Y-144287511D01*
X245287789Y-144287511D01*
X245286458Y-144288666D01*
X245231597Y-144316142D01*
X245224039Y-144317787D01*
X245197668Y-144320624D01*
X239176830Y-144320624D01*
X239176825Y-144320623D01*
X239176823Y-144320624D01*
X239141889Y-144315599D01*
X239126890Y-144311194D01*
X239068144Y-144273451D01*
X239068115Y-144273417D01*
X239068114Y-144273417D01*
X239068113Y-144273415D01*
X239066957Y-144272082D01*
X239039477Y-144217207D01*
X239037832Y-144209645D01*
X239035000Y-144183292D01*
X239035000Y-137336947D01*
X239040023Y-137302011D01*
X239044427Y-137287013D01*
X239082172Y-137228262D01*
X239082200Y-137228237D01*
X239082199Y-137228237D01*
X239083541Y-137227074D01*
X239138420Y-137199595D01*
X239145979Y-137197951D01*
X239172332Y-137195118D01*
X241293170Y-137195118D01*
X241328106Y-137200141D01*
G37*
%TD.AperFunction*%
%TD*%
%TA.AperFunction,Conductor*%
%TO.N,/VAkku +*%
G36*
X226343106Y-137155023D02*
G01*
X226358104Y-137159427D01*
X226373094Y-137169057D01*
X226390175Y-137174067D01*
X226416855Y-137197172D01*
X226418042Y-137198541D01*
X226445518Y-137253402D01*
X226447163Y-137260960D01*
X226450000Y-137287331D01*
X226450000Y-139275506D01*
X230208171Y-139275506D01*
X230243106Y-139280529D01*
X230258104Y-139284933D01*
X230316855Y-139322678D01*
X230316879Y-139322706D01*
X230316882Y-139322708D01*
X230316883Y-139322710D01*
X230318042Y-139324047D01*
X230345518Y-139378908D01*
X230347163Y-139386466D01*
X230350000Y-139412837D01*
X230350000Y-143940150D01*
X230349999Y-143940152D01*
X230350000Y-143940153D01*
X230344976Y-143975087D01*
X230337564Y-144000328D01*
X230306269Y-144053072D01*
X230132762Y-144226579D01*
X230104511Y-144247728D01*
X230081423Y-144260336D01*
X230021993Y-144275506D01*
X224191830Y-144275506D01*
X224191825Y-144275505D01*
X224191823Y-144275506D01*
X224156889Y-144270481D01*
X224141890Y-144266076D01*
X224083144Y-144228333D01*
X224083115Y-144228299D01*
X224083114Y-144228299D01*
X224083113Y-144228297D01*
X224081957Y-144226964D01*
X224054477Y-144172089D01*
X224052832Y-144164527D01*
X224050000Y-144138174D01*
X224050000Y-137291829D01*
X224055023Y-137256893D01*
X224059427Y-137241895D01*
X224097172Y-137183144D01*
X224097200Y-137183119D01*
X224097199Y-137183119D01*
X224098541Y-137181956D01*
X224153420Y-137154477D01*
X224160979Y-137152833D01*
X224187332Y-137150000D01*
X226308170Y-137150000D01*
X226343106Y-137155023D01*
G37*
%TD.AperFunction*%
%TD*%
%TA.AperFunction,Conductor*%
%TO.N,+3.3V*%
G36*
X251336736Y-98144685D02*
G01*
X251382491Y-98197489D01*
X251393697Y-98248919D01*
X251408247Y-120413637D01*
X251388606Y-120480689D01*
X251371955Y-120501372D01*
X245918964Y-125957715D01*
X245857651Y-125991219D01*
X245831251Y-125994061D01*
X236020087Y-125993658D01*
X235953048Y-125973971D01*
X235907296Y-125921165D01*
X235897355Y-125852006D01*
X235910434Y-125815937D01*
X235908949Y-125815245D01*
X235911997Y-125808706D01*
X235912003Y-125808697D01*
X235965349Y-125647708D01*
X235975500Y-125548345D01*
X235975499Y-124951656D01*
X235965349Y-124852292D01*
X235912003Y-124691303D01*
X235911999Y-124691297D01*
X235911998Y-124691294D01*
X235819177Y-124540809D01*
X235821662Y-124539275D01*
X235817741Y-124529569D01*
X235804893Y-124509575D01*
X235802259Y-124491251D01*
X235800471Y-124486825D01*
X235799873Y-124474669D01*
X235799875Y-124425341D01*
X235819283Y-124359258D01*
X235819176Y-124359192D01*
X235819419Y-124358797D01*
X235819564Y-124358305D01*
X235820730Y-124356672D01*
X235822968Y-124353044D01*
X235912003Y-124208697D01*
X235965349Y-124047708D01*
X235975500Y-123948345D01*
X235975499Y-123600095D01*
X235984145Y-123570649D01*
X235990667Y-123540669D01*
X235994419Y-123535655D01*
X235995183Y-123533057D01*
X236011813Y-123512420D01*
X236143713Y-123380521D01*
X236143716Y-123380520D01*
X236255520Y-123268716D01*
X236305639Y-123181904D01*
X236334577Y-123131785D01*
X236375500Y-122979057D01*
X236375500Y-122820943D01*
X236375500Y-121524000D01*
X236395185Y-121456961D01*
X236447989Y-121411206D01*
X236499500Y-121400000D01*
X245400000Y-121400000D01*
X248300000Y-118500000D01*
X248300000Y-98249000D01*
X248319685Y-98181961D01*
X248372489Y-98136206D01*
X248424000Y-98125000D01*
X251269697Y-98125000D01*
X251336736Y-98144685D01*
G37*
%TD.AperFunction*%
%TD*%
%TA.AperFunction,Conductor*%
%TO.N,/Phase C*%
G36*
X253128039Y-141619685D02*
G01*
X253173794Y-141672489D01*
X253185000Y-141724000D01*
X253185000Y-149913638D01*
X253165315Y-149980677D01*
X253148681Y-150001319D01*
X251236319Y-151913681D01*
X251174996Y-151947166D01*
X251148638Y-151950000D01*
X242901362Y-151950000D01*
X242834323Y-151930315D01*
X242813681Y-151913681D01*
X240721319Y-149821319D01*
X240687834Y-149759996D01*
X240685000Y-149733638D01*
X240685000Y-145024000D01*
X240704685Y-144956961D01*
X240757489Y-144911206D01*
X240809000Y-144900000D01*
X244120498Y-144900000D01*
X244187537Y-144919685D01*
X244233292Y-144972489D01*
X244243787Y-145037256D01*
X244239500Y-145077119D01*
X244239500Y-146272870D01*
X244239501Y-146272876D01*
X244245908Y-146332483D01*
X244296202Y-146467328D01*
X244296206Y-146467335D01*
X244382452Y-146582544D01*
X244382455Y-146582547D01*
X244497664Y-146668793D01*
X244497671Y-146668797D01*
X244542618Y-146685561D01*
X244632517Y-146719091D01*
X244692127Y-146725500D01*
X245287872Y-146725499D01*
X245347483Y-146719091D01*
X245482331Y-146668796D01*
X245597546Y-146582546D01*
X245683796Y-146467331D01*
X245734091Y-146332483D01*
X245740500Y-146272873D01*
X245740499Y-145966517D01*
X245760183Y-145899479D01*
X245776813Y-145878842D01*
X246719338Y-144936319D01*
X246780661Y-144902834D01*
X246807019Y-144900000D01*
X248685000Y-144900000D01*
X248685000Y-141724000D01*
X248704685Y-141656961D01*
X248757489Y-141611206D01*
X248809000Y-141600000D01*
X253061000Y-141600000D01*
X253128039Y-141619685D01*
G37*
%TD.AperFunction*%
%TD*%
%TA.AperFunction,Conductor*%
%TO.N,GND*%
G36*
X230725084Y-135005021D02*
G01*
X230750328Y-135012434D01*
X230803074Y-135043730D01*
X231250574Y-135491230D01*
X231271723Y-135519481D01*
X231284331Y-135542570D01*
X231299500Y-135601999D01*
X231299500Y-139111262D01*
X231297294Y-139126600D01*
X231297585Y-139126625D01*
X231297150Y-139131843D01*
X231296952Y-139132682D01*
X231297037Y-139133118D01*
X231295850Y-139137366D01*
X231295583Y-139138498D01*
X231294477Y-139146196D01*
X231292991Y-139151257D01*
X231292607Y-139151144D01*
X231288775Y-139167431D01*
X231287102Y-139171630D01*
X231286864Y-139172121D01*
X231286744Y-139172528D01*
X231285222Y-139176350D01*
X231281193Y-139181490D01*
X231252775Y-139221512D01*
X231253292Y-139222041D01*
X231251474Y-139223816D01*
X231250723Y-139224401D01*
X231250351Y-139224927D01*
X231246991Y-139227784D01*
X231246752Y-139227503D01*
X231242584Y-139230759D01*
X231242125Y-139231345D01*
X231241600Y-139231527D01*
X231229943Y-139240632D01*
X231170384Y-139277367D01*
X231139126Y-139291121D01*
X231107202Y-139300176D01*
X231073365Y-139304882D01*
X230939001Y-139304882D01*
X230871962Y-139285197D01*
X230826207Y-139232393D01*
X230822071Y-139222153D01*
X230797502Y-139152543D01*
X230770027Y-139097685D01*
X230770017Y-139097669D01*
X230768730Y-139095743D01*
X230700604Y-138993797D01*
X230700683Y-138993731D01*
X230700659Y-138993703D01*
X230700135Y-138993095D01*
X230700109Y-138993056D01*
X230698949Y-138991717D01*
X230698943Y-138991711D01*
X230698839Y-138991591D01*
X230697357Y-138990307D01*
X230696563Y-138989613D01*
X230597283Y-138902107D01*
X230561157Y-138878023D01*
X230555240Y-138874996D01*
X230531343Y-138859643D01*
X230531338Y-138859640D01*
X230531337Y-138859640D01*
X230400525Y-138799911D01*
X230400520Y-138799909D01*
X230400519Y-138799909D01*
X230393804Y-138797937D01*
X230385527Y-138795507D01*
X230315048Y-138780174D01*
X230315045Y-138780173D01*
X230315038Y-138780172D01*
X230280114Y-138775151D01*
X230208172Y-138770006D01*
X230208171Y-138770006D01*
X227079500Y-138770006D01*
X227012461Y-138750321D01*
X226966706Y-138697517D01*
X226955500Y-138646006D01*
X226955500Y-137287330D01*
X226952600Y-137233269D01*
X226952600Y-137233261D01*
X226949763Y-137206890D01*
X226941099Y-137153455D01*
X226939454Y-137145897D01*
X226928268Y-137114205D01*
X226897502Y-137027037D01*
X226870029Y-136972183D01*
X226870025Y-136972175D01*
X226799969Y-136867389D01*
X226799967Y-136867386D01*
X226798795Y-136866035D01*
X226798782Y-136866020D01*
X226798772Y-136866010D01*
X226798761Y-136865998D01*
X226747801Y-136815069D01*
X226747778Y-136815046D01*
X226721098Y-136791941D01*
X226721093Y-136791937D01*
X226721087Y-136791932D01*
X226663346Y-136748734D01*
X226663342Y-136748732D01*
X226612913Y-136725719D01*
X226612892Y-136725709D01*
X226500526Y-136674405D01*
X226495192Y-136672839D01*
X226485527Y-136670001D01*
X226447588Y-136661747D01*
X226415045Y-136654667D01*
X226380110Y-136649645D01*
X226308172Y-136644500D01*
X226308170Y-136644500D01*
X224187332Y-136644500D01*
X224185521Y-136644597D01*
X224180626Y-136644859D01*
X224112631Y-136628785D01*
X224064119Y-136578501D01*
X224050000Y-136521036D01*
X224050000Y-135141829D01*
X224055023Y-135106893D01*
X224059427Y-135091895D01*
X224097172Y-135033144D01*
X224097200Y-135033119D01*
X224097199Y-135033119D01*
X224098541Y-135031956D01*
X224153420Y-135004477D01*
X224160979Y-135002833D01*
X224187332Y-135000000D01*
X230690152Y-135000000D01*
X230725084Y-135005021D01*
G37*
%TD.AperFunction*%
%TD*%
%TA.AperFunction,Conductor*%
%TO.N,/Phase A*%
G36*
X223028039Y-141522484D02*
G01*
X223073794Y-141575288D01*
X223085000Y-141626799D01*
X223085000Y-149763638D01*
X223065315Y-149830677D01*
X223048681Y-149851319D01*
X221086319Y-151813681D01*
X221024996Y-151847166D01*
X220998638Y-151850000D01*
X212701362Y-151850000D01*
X212634323Y-151830315D01*
X212613681Y-151813681D01*
X210621319Y-149821319D01*
X210587834Y-149759996D01*
X210585000Y-149733638D01*
X210585000Y-144926799D01*
X210604685Y-144859760D01*
X210657489Y-144814005D01*
X210709000Y-144802799D01*
X214014973Y-144802799D01*
X214082012Y-144822484D01*
X214127767Y-144875288D01*
X214138262Y-144940055D01*
X214134500Y-144975036D01*
X214134500Y-146170787D01*
X214134501Y-146170793D01*
X214140908Y-146230400D01*
X214191202Y-146365245D01*
X214191206Y-146365252D01*
X214277452Y-146480461D01*
X214277455Y-146480464D01*
X214392664Y-146566710D01*
X214392671Y-146566714D01*
X214437618Y-146583478D01*
X214527517Y-146617008D01*
X214587127Y-146623417D01*
X215182872Y-146623416D01*
X215242483Y-146617008D01*
X215377331Y-146566713D01*
X215492546Y-146480463D01*
X215578796Y-146365248D01*
X215629091Y-146230400D01*
X215635500Y-146170790D01*
X215635499Y-145544316D01*
X215655183Y-145477278D01*
X215671813Y-145456641D01*
X216289338Y-144839118D01*
X216350661Y-144805633D01*
X216377019Y-144802799D01*
X218585000Y-144802799D01*
X218585000Y-141626799D01*
X218604685Y-141559760D01*
X218657489Y-141514005D01*
X218709000Y-141502799D01*
X222961000Y-141502799D01*
X223028039Y-141522484D01*
G37*
%TD.AperFunction*%
%TD*%
%TA.AperFunction,Conductor*%
%TO.N,GND*%
G36*
X247713834Y-105037914D02*
G01*
X247769767Y-105079786D01*
X247794184Y-105145250D01*
X247794500Y-105154096D01*
X247794500Y-116930196D01*
X247788685Y-116950000D01*
X237081455Y-116950000D01*
X237075500Y-116922577D01*
X237075500Y-114787528D01*
X237077882Y-114763340D01*
X237082557Y-114739834D01*
X237089609Y-114716588D01*
X237143054Y-114587557D01*
X237144221Y-114585001D01*
X237144730Y-114583510D01*
X237144735Y-114583501D01*
X237144737Y-114583497D01*
X237175500Y-114428842D01*
X237175500Y-114271158D01*
X237175500Y-114271155D01*
X237175500Y-114270973D01*
X237175065Y-114268972D01*
X237145397Y-114119824D01*
X237144994Y-114117467D01*
X237144738Y-114116508D01*
X237144737Y-114116506D01*
X237144737Y-114116503D01*
X237144735Y-114116498D01*
X237084397Y-113970827D01*
X237084390Y-113970814D01*
X236996789Y-113839711D01*
X236996786Y-113839707D01*
X236996781Y-113839701D01*
X236885297Y-113728217D01*
X236885291Y-113728212D01*
X236885290Y-113728211D01*
X236754191Y-113640613D01*
X236754190Y-113640612D01*
X236754185Y-113640609D01*
X236754172Y-113640602D01*
X236754165Y-113640598D01*
X236608523Y-113580272D01*
X236608509Y-113580267D01*
X236608501Y-113580264D01*
X236608491Y-113580261D01*
X236608488Y-113580260D01*
X236608484Y-113580259D01*
X236492795Y-113557247D01*
X236459511Y-113545505D01*
X236445657Y-113538258D01*
X236395379Y-113489743D01*
X236391744Y-113483359D01*
X236375500Y-113422003D01*
X236375500Y-112166452D01*
X236375501Y-112166401D01*
X236375501Y-111995944D01*
X236375501Y-111995943D01*
X236334577Y-111843216D01*
X236334573Y-111843209D01*
X236255524Y-111706290D01*
X236255518Y-111706282D01*
X236255514Y-111706278D01*
X236255514Y-111706277D01*
X236030520Y-111481284D01*
X235683707Y-111134472D01*
X235666722Y-111113282D01*
X235664522Y-111109819D01*
X235660263Y-111102019D01*
X235657534Y-111098820D01*
X235652866Y-111091471D01*
X235645514Y-111065937D01*
X235634663Y-111041687D01*
X235634662Y-111041683D01*
X235631977Y-111021912D01*
X235632252Y-110986626D01*
X235636428Y-110959117D01*
X235655919Y-110908842D01*
X235708659Y-110829914D01*
X235769002Y-110684232D01*
X235799765Y-110529577D01*
X235799765Y-110424999D01*
X236275000Y-110424999D01*
X236281580Y-110424999D01*
X236281581Y-110424999D01*
X236299185Y-110423399D01*
X236352094Y-110418592D01*
X236352095Y-110418591D01*
X236352102Y-110418591D01*
X236352107Y-110418590D01*
X236514396Y-110368018D01*
X236589272Y-110322753D01*
X236659871Y-110280076D01*
X236659872Y-110280075D01*
X236659871Y-110280075D01*
X236659877Y-110280072D01*
X236780072Y-110159877D01*
X236868019Y-110014395D01*
X236918590Y-109852106D01*
X236925000Y-109781572D01*
X236925000Y-109700000D01*
X236275000Y-109700000D01*
X236275000Y-110424999D01*
X235799765Y-110424999D01*
X235799765Y-110371893D01*
X235799765Y-110371890D01*
X235778570Y-110265340D01*
X235776786Y-110253309D01*
X235775597Y-110241234D01*
X235775000Y-110229083D01*
X235775000Y-109591829D01*
X235780023Y-109556893D01*
X235784427Y-109541895D01*
X235794069Y-109526886D01*
X235794685Y-109524790D01*
X235796334Y-109523360D01*
X235822172Y-109483144D01*
X235823541Y-109481957D01*
X235878420Y-109454477D01*
X235885979Y-109452833D01*
X235912332Y-109450000D01*
X236025000Y-109450000D01*
X236025000Y-109341829D01*
X236030023Y-109306893D01*
X236034427Y-109291895D01*
X236072172Y-109233144D01*
X236072200Y-109233119D01*
X236072199Y-109233119D01*
X236073541Y-109231956D01*
X236128420Y-109204477D01*
X236135979Y-109202833D01*
X236162332Y-109200000D01*
X236924999Y-109200000D01*
X236924999Y-109118418D01*
X236918592Y-109047904D01*
X236918591Y-109047901D01*
X236918591Y-109047897D01*
X236918590Y-109047892D01*
X236868018Y-108885602D01*
X236834267Y-108829770D01*
X236830150Y-108814179D01*
X236820494Y-108797280D01*
X236817706Y-108786722D01*
X236818194Y-108768897D01*
X236816431Y-108762216D01*
X236816748Y-108756121D01*
X236817459Y-108746868D01*
X236818903Y-108743055D01*
X236819622Y-108716878D01*
X236840335Y-108686512D01*
X236842222Y-108681534D01*
X236845270Y-108679277D01*
X236858994Y-108659158D01*
X236890466Y-108645815D01*
X236898377Y-108639959D01*
X236905374Y-108639495D01*
X236923322Y-108631887D01*
X236957541Y-108636041D01*
X236968094Y-108635343D01*
X236972681Y-108637879D01*
X236980928Y-108638881D01*
X236984427Y-108640186D01*
X237005242Y-108650250D01*
X237035394Y-108668478D01*
X237197804Y-108719086D01*
X237268384Y-108725500D01*
X237268387Y-108725500D01*
X237931613Y-108725500D01*
X237931616Y-108725500D01*
X238002196Y-108719086D01*
X238164606Y-108668478D01*
X238310185Y-108580472D01*
X238310189Y-108580468D01*
X238416235Y-108474423D01*
X238444486Y-108453274D01*
X238467576Y-108440667D01*
X238527001Y-108425500D01*
X243886380Y-108425500D01*
X243886443Y-108425501D01*
X243888347Y-108425501D01*
X243895943Y-108425501D01*
X244054054Y-108425501D01*
X244054057Y-108425501D01*
X244206785Y-108384577D01*
X244256904Y-108355639D01*
X244343716Y-108305520D01*
X244455520Y-108193716D01*
X244455520Y-108193715D01*
X244472960Y-108176275D01*
X244472961Y-108176273D01*
X247582819Y-105066415D01*
X247644142Y-105032930D01*
X247713834Y-105037914D01*
G37*
%TD.AperFunction*%
%TA.AperFunction,Conductor*%
G36*
X246649500Y-96051492D02*
G01*
X246649500Y-104232073D01*
X246649499Y-104232075D01*
X246649500Y-104232076D01*
X246644476Y-104267010D01*
X246637064Y-104292251D01*
X246605769Y-104344995D01*
X243775191Y-107175573D01*
X243746940Y-107196722D01*
X243723852Y-107209330D01*
X243664422Y-107224500D01*
X238534350Y-107224500D01*
X238502110Y-107220235D01*
X238500728Y-107219863D01*
X238487079Y-107215855D01*
X238480646Y-107214455D01*
X238477710Y-107213665D01*
X238450386Y-107196964D01*
X238422270Y-107181612D01*
X238340591Y-107099933D01*
X238319439Y-107071677D01*
X238311947Y-107057956D01*
X238297096Y-106989687D01*
X238297225Y-106987883D01*
X238316590Y-106929693D01*
X238320775Y-106923180D01*
X238337405Y-106902542D01*
X238430071Y-106809878D01*
X238430072Y-106809877D01*
X238518019Y-106664395D01*
X238568590Y-106502106D01*
X238575000Y-106431572D01*
X238575000Y-106425000D01*
X236594192Y-106425000D01*
X236594189Y-106424999D01*
X236594189Y-106425000D01*
X236559254Y-106419976D01*
X236532985Y-106412262D01*
X236507154Y-106398750D01*
X236496523Y-106395000D01*
X236161830Y-106395000D01*
X236161825Y-106394999D01*
X236161823Y-106395000D01*
X236126889Y-106389975D01*
X236111890Y-106385570D01*
X236053144Y-106347827D01*
X236053115Y-106347793D01*
X236053114Y-106347793D01*
X236053113Y-106347791D01*
X236051957Y-106346458D01*
X236024477Y-106291583D01*
X236022832Y-106284021D01*
X236020000Y-106257668D01*
X236020000Y-106145000D01*
X235911830Y-106145000D01*
X235911825Y-106144999D01*
X235911823Y-106145000D01*
X235876889Y-106139975D01*
X235861890Y-106135570D01*
X235803144Y-106097827D01*
X235803115Y-106097793D01*
X235803114Y-106097793D01*
X235803113Y-106097791D01*
X235801957Y-106096458D01*
X235774477Y-106041583D01*
X235772832Y-106034021D01*
X235770000Y-106007668D01*
X235770000Y-105895000D01*
X236270000Y-105895000D01*
X236950808Y-105895000D01*
X236985743Y-105900023D01*
X237012011Y-105907736D01*
X237037845Y-105921249D01*
X237048477Y-105925000D01*
X237350000Y-105925000D01*
X237850000Y-105925000D01*
X238574999Y-105925000D01*
X238574999Y-105918417D01*
X238572021Y-105885639D01*
X238568592Y-105847904D01*
X238568591Y-105847901D01*
X238568591Y-105847897D01*
X238568590Y-105847892D01*
X238518018Y-105685603D01*
X238470976Y-105607785D01*
X238430076Y-105540127D01*
X238430075Y-105540126D01*
X238430073Y-105540124D01*
X238430072Y-105540122D01*
X238309877Y-105419927D01*
X238309876Y-105419926D01*
X238309875Y-105419925D01*
X238241422Y-105378544D01*
X238241418Y-105378542D01*
X238164395Y-105331980D01*
X238164396Y-105331980D01*
X238085938Y-105307532D01*
X238078796Y-105304270D01*
X238058306Y-105286515D01*
X237949381Y-105276618D01*
X237931572Y-105275000D01*
X237931571Y-105275000D01*
X237850000Y-105275000D01*
X237850000Y-105925000D01*
X237350000Y-105925000D01*
X237350000Y-105275000D01*
X237349999Y-105274999D01*
X237268417Y-105274999D01*
X237197904Y-105281406D01*
X237197880Y-105281412D01*
X237035598Y-105331982D01*
X236907341Y-105409516D01*
X236907337Y-105409517D01*
X236907336Y-105409519D01*
X236876024Y-105422790D01*
X236874840Y-105423292D01*
X236859725Y-105427282D01*
X236789889Y-105425363D01*
X236783491Y-105423292D01*
X236781939Y-105422789D01*
X236732445Y-105392497D01*
X236654876Y-105314927D01*
X236654875Y-105314926D01*
X236607878Y-105286515D01*
X236586425Y-105273546D01*
X236586422Y-105273544D01*
X236509395Y-105226980D01*
X236509396Y-105226980D01*
X236430935Y-105202531D01*
X236423795Y-105199270D01*
X236403306Y-105181515D01*
X236294381Y-105171618D01*
X236276572Y-105170000D01*
X236276571Y-105170000D01*
X236270000Y-105170000D01*
X236270000Y-105895000D01*
X235770000Y-105895000D01*
X235770000Y-105219809D01*
X235770000Y-105170000D01*
X235769999Y-105169999D01*
X235763436Y-105170000D01*
X235763417Y-105170001D01*
X235692897Y-105176408D01*
X235692891Y-105176409D01*
X235660799Y-105186409D01*
X235627800Y-105186952D01*
X235627795Y-105186951D01*
X235625951Y-105186982D01*
X235615755Y-105184169D01*
X235613013Y-105183536D01*
X235612585Y-105183295D01*
X235558597Y-105168403D01*
X235511979Y-105116359D01*
X235510710Y-105110750D01*
X235489580Y-105089621D01*
X235487500Y-105088834D01*
X235458315Y-105080265D01*
X235453893Y-105076130D01*
X235450605Y-105074887D01*
X235425759Y-105049820D01*
X235424507Y-105048132D01*
X235402526Y-104988394D01*
X235401142Y-104988594D01*
X235400326Y-104982919D01*
X235400370Y-104982418D01*
X235400157Y-104979229D01*
X235400656Y-104979195D01*
X235405358Y-104926267D01*
X235406842Y-104921789D01*
X235414856Y-104897605D01*
X235424999Y-104798322D01*
X235425000Y-104798309D01*
X235425000Y-104750000D01*
X234616847Y-104750000D01*
X234602925Y-104749216D01*
X234600854Y-104748982D01*
X234596063Y-104746967D01*
X234581977Y-104744685D01*
X234581893Y-104744972D01*
X234581151Y-104744754D01*
X234581207Y-104744560D01*
X234577044Y-104743886D01*
X234564140Y-104739764D01*
X234538094Y-104722587D01*
X234536448Y-104721895D01*
X234535954Y-104721176D01*
X234508157Y-104702844D01*
X234504368Y-104698471D01*
X234478683Y-104650729D01*
X234478457Y-104649924D01*
X234474738Y-104631217D01*
X234453862Y-104456946D01*
X234454694Y-104421669D01*
X234457046Y-104407660D01*
X234487558Y-104344805D01*
X234536012Y-104312005D01*
X234538578Y-104311047D01*
X234538586Y-104311046D01*
X234545911Y-104308313D01*
X234589233Y-104300500D01*
X235023920Y-104300500D01*
X235121462Y-104281096D01*
X235168913Y-104271658D01*
X235194507Y-104261055D01*
X235202222Y-104258970D01*
X235203957Y-104259007D01*
X235210394Y-104257055D01*
X235233891Y-104252382D01*
X235258078Y-104250000D01*
X235424999Y-104250000D01*
X235424999Y-104216387D01*
X235430022Y-104181453D01*
X235437433Y-104156213D01*
X235468727Y-104103468D01*
X235957951Y-103614244D01*
X235969583Y-103596834D01*
X235976825Y-103587066D01*
X235984533Y-103577674D01*
X235992686Y-103568679D01*
X237111944Y-102449423D01*
X237140194Y-102428275D01*
X237163286Y-102415667D01*
X237222711Y-102400500D01*
X238637450Y-102400500D01*
X238734992Y-102381096D01*
X238782443Y-102371658D01*
X238919025Y-102315084D01*
X238968259Y-102282186D01*
X239041946Y-102232952D01*
X239613430Y-101661465D01*
X239632209Y-101646054D01*
X239652139Y-101632737D01*
X239673574Y-101621282D01*
X239685944Y-101616159D01*
X239817054Y-101528554D01*
X239928554Y-101417054D01*
X240016159Y-101285944D01*
X240076502Y-101140262D01*
X240107265Y-100985607D01*
X240107265Y-100827923D01*
X240107265Y-100827920D01*
X240107265Y-100827736D01*
X240106829Y-100825731D01*
X240076504Y-100673275D01*
X240076501Y-100673266D01*
X240023157Y-100544480D01*
X240016162Y-100527592D01*
X240016160Y-100527588D01*
X240016159Y-100527586D01*
X239950613Y-100429491D01*
X239935384Y-100397658D01*
X239935091Y-100396722D01*
X239930712Y-100382739D01*
X239929465Y-100312886D01*
X239931412Y-100305786D01*
X239963308Y-100250924D01*
X240918713Y-99295521D01*
X240918716Y-99295520D01*
X241030520Y-99183716D01*
X241080639Y-99096904D01*
X241109577Y-99046785D01*
X241127374Y-98980363D01*
X241149191Y-98936430D01*
X241150669Y-98934526D01*
X241207323Y-98893643D01*
X241277092Y-98889878D01*
X241313014Y-98910316D01*
X241315957Y-98911133D01*
X241317516Y-98912878D01*
X241337820Y-98924431D01*
X241358010Y-98958210D01*
X241362504Y-98963241D01*
X241363043Y-98966631D01*
X241366724Y-98972789D01*
X241368606Y-98978673D01*
X241374500Y-99016449D01*
X241374500Y-102107073D01*
X241369476Y-102142010D01*
X241362064Y-102167251D01*
X241330769Y-102219995D01*
X240097946Y-103452816D01*
X240097947Y-103452816D01*
X240069693Y-103473967D01*
X240040599Y-103489854D01*
X240005363Y-103502640D01*
X239866515Y-103530259D01*
X239866509Y-103530260D01*
X239866508Y-103530261D01*
X239866498Y-103530264D01*
X239866493Y-103530265D01*
X239866475Y-103530272D01*
X239720833Y-103590598D01*
X239720824Y-103590603D01*
X239720807Y-103590613D01*
X239589708Y-103678211D01*
X239589707Y-103678212D01*
X239589701Y-103678217D01*
X239478217Y-103789701D01*
X239478212Y-103789707D01*
X239478211Y-103789708D01*
X239390613Y-103920807D01*
X239390603Y-103920824D01*
X239390598Y-103920833D01*
X239330264Y-104066496D01*
X239330257Y-104066527D01*
X239299500Y-104221150D01*
X239299500Y-104221153D01*
X239299500Y-104378846D01*
X239299500Y-104378848D01*
X239299499Y-104378848D01*
X239330257Y-104533471D01*
X239330264Y-104533502D01*
X239390598Y-104679165D01*
X239390603Y-104679174D01*
X239390613Y-104679191D01*
X239478211Y-104810290D01*
X239478212Y-104810291D01*
X239478217Y-104810297D01*
X239589703Y-104921783D01*
X239589706Y-104921785D01*
X239589708Y-104921787D01*
X239589711Y-104921789D01*
X239641167Y-104956170D01*
X239641169Y-104956173D01*
X239667421Y-104979753D01*
X239674642Y-104988394D01*
X239680874Y-104995850D01*
X239707123Y-105050090D01*
X239717640Y-105100602D01*
X239719477Y-105106969D01*
X239741855Y-105219467D01*
X239741862Y-105219498D01*
X239802196Y-105365161D01*
X239802201Y-105365170D01*
X239802211Y-105365187D01*
X239889809Y-105496286D01*
X239889810Y-105496287D01*
X239889815Y-105496293D01*
X240001299Y-105607777D01*
X240001305Y-105607782D01*
X240001309Y-105607785D01*
X240132412Y-105695386D01*
X240132425Y-105695393D01*
X240219828Y-105731595D01*
X240278101Y-105755733D01*
X240290467Y-105758192D01*
X240300037Y-105761805D01*
X240303288Y-105764259D01*
X240313719Y-105767939D01*
X240332311Y-105777664D01*
X240377328Y-105817742D01*
X240381109Y-105823294D01*
X240393180Y-105845639D01*
X240402739Y-105868718D01*
X240409748Y-105885639D01*
X240409755Y-105885651D01*
X240467891Y-105972657D01*
X240497357Y-106016756D01*
X240497358Y-106016757D01*
X240497363Y-106016763D01*
X240608847Y-106128247D01*
X240608853Y-106128252D01*
X240608857Y-106128255D01*
X240739960Y-106215856D01*
X240739973Y-106215863D01*
X240885644Y-106276201D01*
X240885649Y-106276203D01*
X241040299Y-106306965D01*
X241040302Y-106306966D01*
X241040304Y-106306966D01*
X241197990Y-106306966D01*
X241197991Y-106306965D01*
X241352643Y-106276203D01*
X241498325Y-106215860D01*
X241629435Y-106128255D01*
X241740935Y-106016755D01*
X241828540Y-105885645D01*
X241888883Y-105739963D01*
X241916306Y-105602095D01*
X241928043Y-105568826D01*
X241943415Y-105539438D01*
X241965605Y-105509240D01*
X243251272Y-104223572D01*
X243251279Y-104223568D01*
X243268715Y-104206132D01*
X243268716Y-104206132D01*
X243380520Y-104094328D01*
X243433008Y-104003416D01*
X243459577Y-103957397D01*
X243500501Y-103804669D01*
X243500501Y-103646555D01*
X243500501Y-103638960D01*
X243500501Y-103637276D01*
X243500500Y-103637202D01*
X243500500Y-96050023D01*
X246649500Y-96051492D01*
G37*
%TD.AperFunction*%
%TA.AperFunction,Conductor*%
G36*
X239949500Y-96048366D02*
G01*
X239949500Y-98497073D01*
X239949499Y-98497075D01*
X239949500Y-98497076D01*
X239944476Y-98532010D01*
X239937064Y-98557251D01*
X239905769Y-98609995D01*
X238140191Y-100375573D01*
X238111940Y-100396722D01*
X238088852Y-100409330D01*
X238029422Y-100424500D01*
X233941992Y-100424500D01*
X233920539Y-100422630D01*
X233911214Y-100420992D01*
X233908381Y-100419590D01*
X233907046Y-100419474D01*
X233902678Y-100418191D01*
X233902961Y-100417225D01*
X233886868Y-100413119D01*
X233886614Y-100413803D01*
X233883767Y-100412741D01*
X233882931Y-100412115D01*
X233881186Y-100411670D01*
X233878471Y-100410431D01*
X233879033Y-100409197D01*
X233867097Y-100400261D01*
X233857363Y-100397407D01*
X233852714Y-100392046D01*
X233848591Y-100390006D01*
X233844675Y-100383476D01*
X233832628Y-100374456D01*
X233831592Y-100375355D01*
X233830673Y-100374295D01*
X233829768Y-100372315D01*
X233827837Y-100370870D01*
X233826015Y-100368436D01*
X233827490Y-100367331D01*
X233823263Y-100358084D01*
X233811588Y-100344620D01*
X233801633Y-100310759D01*
X233801426Y-100309323D01*
X233800157Y-100291658D01*
X233800142Y-100161403D01*
X233804845Y-100127573D01*
X233813897Y-100095649D01*
X233827656Y-100064381D01*
X233862001Y-100008701D01*
X233862001Y-100008699D01*
X233862003Y-100008697D01*
X233915349Y-99847708D01*
X233925500Y-99748345D01*
X233925499Y-99201656D01*
X233925499Y-99201653D01*
X233925444Y-99200575D01*
X233925499Y-99200344D01*
X233925499Y-99198499D01*
X233925940Y-99198499D01*
X233941690Y-99132621D01*
X233982241Y-99089948D01*
X234058543Y-99040912D01*
X234111347Y-98995157D01*
X234205567Y-98886423D01*
X234265338Y-98755546D01*
X234285023Y-98688507D01*
X234285024Y-98688503D01*
X234305500Y-98546087D01*
X234305500Y-96045732D01*
X239949500Y-96048366D01*
G37*
%TD.AperFunction*%
%TD*%
%TA.AperFunction,Conductor*%
%TO.N,GND*%
G36*
X245720201Y-135050139D02*
G01*
X245745445Y-135057552D01*
X245798191Y-135088848D01*
X246235574Y-135526231D01*
X246256723Y-135554482D01*
X246269331Y-135577571D01*
X246284500Y-135637000D01*
X246284500Y-139208170D01*
X246279475Y-139243114D01*
X246275070Y-139258112D01*
X246237327Y-139316855D01*
X246235958Y-139318042D01*
X246181097Y-139345518D01*
X246173539Y-139347163D01*
X246147168Y-139350000D01*
X245924001Y-139350000D01*
X245856962Y-139330315D01*
X245811207Y-139277511D01*
X245807071Y-139267271D01*
X245782502Y-139197661D01*
X245755027Y-139142803D01*
X245755017Y-139142787D01*
X245753730Y-139140861D01*
X245685604Y-139038915D01*
X245685683Y-139038849D01*
X245685659Y-139038821D01*
X245685135Y-139038213D01*
X245685109Y-139038174D01*
X245683949Y-139036835D01*
X245683943Y-139036829D01*
X245683839Y-139036709D01*
X245682357Y-139035425D01*
X245681563Y-139034731D01*
X245582283Y-138947225D01*
X245546157Y-138923141D01*
X245540240Y-138920114D01*
X245516343Y-138904761D01*
X245516338Y-138904758D01*
X245516337Y-138904758D01*
X245385525Y-138845029D01*
X245385520Y-138845027D01*
X245385519Y-138845027D01*
X245378804Y-138843055D01*
X245370527Y-138840625D01*
X245300048Y-138825292D01*
X245300045Y-138825291D01*
X245300038Y-138825290D01*
X245265114Y-138820269D01*
X245193172Y-138815124D01*
X245193171Y-138815124D01*
X242064500Y-138815124D01*
X241997461Y-138795439D01*
X241951706Y-138742635D01*
X241940500Y-138691124D01*
X241940500Y-137332448D01*
X241937600Y-137278387D01*
X241937600Y-137278379D01*
X241934763Y-137252008D01*
X241926099Y-137198573D01*
X241924454Y-137191015D01*
X241913268Y-137159323D01*
X241882502Y-137072155D01*
X241855029Y-137017301D01*
X241855025Y-137017293D01*
X241784969Y-136912507D01*
X241784967Y-136912504D01*
X241783795Y-136911153D01*
X241783782Y-136911138D01*
X241783772Y-136911128D01*
X241783761Y-136911116D01*
X241732801Y-136860187D01*
X241732778Y-136860164D01*
X241706098Y-136837059D01*
X241706093Y-136837055D01*
X241706087Y-136837050D01*
X241648346Y-136793852D01*
X241648342Y-136793850D01*
X241597913Y-136770837D01*
X241597892Y-136770827D01*
X241485526Y-136719523D01*
X241480192Y-136717957D01*
X241470527Y-136715119D01*
X241432588Y-136706865D01*
X241400045Y-136699785D01*
X241365110Y-136694763D01*
X241293172Y-136689618D01*
X241293170Y-136689618D01*
X239172332Y-136689618D01*
X239170521Y-136689715D01*
X239165626Y-136689977D01*
X239097631Y-136673903D01*
X239049119Y-136623619D01*
X239035000Y-136566154D01*
X239035000Y-135186947D01*
X239040023Y-135152011D01*
X239044427Y-135137013D01*
X239082172Y-135078262D01*
X239082200Y-135078237D01*
X239082199Y-135078237D01*
X239083541Y-135077074D01*
X239138420Y-135049595D01*
X239145979Y-135047951D01*
X239172332Y-135045118D01*
X245685269Y-135045118D01*
X245720201Y-135050139D01*
G37*
%TD.AperFunction*%
%TD*%
%TA.AperFunction,Conductor*%
%TO.N,/VAkku +*%
G36*
X211228106Y-137052940D02*
G01*
X211243104Y-137057344D01*
X211258094Y-137066974D01*
X211275175Y-137071984D01*
X211301855Y-137095089D01*
X211303042Y-137096458D01*
X211330518Y-137151319D01*
X211332163Y-137158877D01*
X211335000Y-137185248D01*
X211335000Y-139223423D01*
X215093171Y-139223423D01*
X215128106Y-139228446D01*
X215143104Y-139232850D01*
X215201855Y-139270595D01*
X215201879Y-139270623D01*
X215201882Y-139270625D01*
X215201883Y-139270627D01*
X215203042Y-139271964D01*
X215230518Y-139326825D01*
X215232163Y-139334383D01*
X215235000Y-139360754D01*
X215235000Y-143842949D01*
X215234999Y-143842951D01*
X215235000Y-143842952D01*
X215229976Y-143877886D01*
X215222564Y-143903127D01*
X215191269Y-143955871D01*
X214972644Y-144174496D01*
X214944393Y-144195645D01*
X214921305Y-144208253D01*
X214861875Y-144223423D01*
X208942330Y-144223423D01*
X208942325Y-144223422D01*
X208942323Y-144223423D01*
X208907389Y-144218398D01*
X208892390Y-144213993D01*
X208833644Y-144176250D01*
X208833615Y-144176216D01*
X208833614Y-144176216D01*
X208833613Y-144176214D01*
X208832457Y-144174881D01*
X208804977Y-144120006D01*
X208803332Y-144112444D01*
X208800500Y-144086091D01*
X208800500Y-137189746D01*
X208805523Y-137154810D01*
X208809927Y-137139812D01*
X208847672Y-137081061D01*
X208847700Y-137081036D01*
X208847699Y-137081036D01*
X208849041Y-137079873D01*
X208903920Y-137052394D01*
X208911479Y-137050750D01*
X208937832Y-137047917D01*
X211193170Y-137047917D01*
X211228106Y-137052940D01*
G37*
%TD.AperFunction*%
%TD*%
%TA.AperFunction,Conductor*%
%TO.N,Net-(U18-SPC)*%
G36*
X252978106Y-135100141D02*
G01*
X252993104Y-135104545D01*
X253008094Y-135114175D01*
X253025175Y-135119185D01*
X253051855Y-135142290D01*
X253053042Y-135143659D01*
X253080518Y-135198520D01*
X253082163Y-135206078D01*
X253085000Y-135232449D01*
X253085000Y-140603288D01*
X253079975Y-140638232D01*
X253075570Y-140653230D01*
X253065939Y-140668219D01*
X253060932Y-140685293D01*
X253037827Y-140711973D01*
X253036458Y-140713160D01*
X252981597Y-140740636D01*
X252974039Y-140742281D01*
X252947668Y-140745118D01*
X250026830Y-140745118D01*
X249991889Y-140740093D01*
X249976890Y-140735688D01*
X249961902Y-140726058D01*
X249944824Y-140721050D01*
X249918144Y-140697945D01*
X249916957Y-140696576D01*
X249889477Y-140641701D01*
X249887832Y-140634139D01*
X249885000Y-140607786D01*
X249885000Y-135236947D01*
X249890023Y-135202011D01*
X249894427Y-135187013D01*
X249904057Y-135172022D01*
X249909067Y-135154942D01*
X249932172Y-135128262D01*
X249933541Y-135127075D01*
X249988420Y-135099595D01*
X249995979Y-135097951D01*
X250022332Y-135095118D01*
X252943170Y-135095118D01*
X252978106Y-135100141D01*
G37*
%TD.AperFunction*%
%TD*%
%TA.AperFunction,Conductor*%
%TO.N,/Phase B*%
G36*
X238143039Y-141574567D02*
G01*
X238188794Y-141627371D01*
X238200000Y-141678882D01*
X238200000Y-149848640D01*
X238180315Y-149915679D01*
X238163681Y-149936321D01*
X236236321Y-151863681D01*
X236174998Y-151897166D01*
X236148640Y-151900000D01*
X227901362Y-151900000D01*
X227834323Y-151880315D01*
X227813681Y-151863681D01*
X225736319Y-149786319D01*
X225702834Y-149724996D01*
X225700000Y-149698638D01*
X225700000Y-144978882D01*
X225719685Y-144911843D01*
X225772489Y-144866088D01*
X225824000Y-144854882D01*
X229129973Y-144854882D01*
X229197012Y-144874567D01*
X229242767Y-144927371D01*
X229253262Y-144992138D01*
X229249500Y-145027119D01*
X229249500Y-146222870D01*
X229249501Y-146222876D01*
X229255908Y-146282483D01*
X229306202Y-146417328D01*
X229306206Y-146417335D01*
X229392452Y-146532544D01*
X229392455Y-146532547D01*
X229507664Y-146618793D01*
X229507671Y-146618797D01*
X229552618Y-146635561D01*
X229642517Y-146669091D01*
X229702127Y-146675500D01*
X230297872Y-146675499D01*
X230357483Y-146669091D01*
X230492331Y-146618796D01*
X230607546Y-146532546D01*
X230693796Y-146417331D01*
X230744091Y-146282483D01*
X230750500Y-146222873D01*
X230750499Y-145641517D01*
X230770183Y-145574479D01*
X230786813Y-145553842D01*
X231449456Y-144891201D01*
X231510779Y-144857716D01*
X231537137Y-144854882D01*
X233700000Y-144854882D01*
X233700000Y-141678882D01*
X233719685Y-141611843D01*
X233772489Y-141566088D01*
X233824000Y-141554882D01*
X238076000Y-141554882D01*
X238143039Y-141574567D01*
G37*
%TD.AperFunction*%
%TD*%
%TA.AperFunction,Conductor*%
%TO.N,GND*%
G36*
X216077539Y-134917602D02*
G01*
X216123294Y-134970406D01*
X216134500Y-135021917D01*
X216134500Y-138864060D01*
X216134499Y-138864064D01*
X216134500Y-138864066D01*
X216129475Y-138899001D01*
X216124994Y-138914259D01*
X216087599Y-138972703D01*
X216069041Y-138988915D01*
X216052559Y-139001068D01*
X215984800Y-139042863D01*
X215984799Y-139042863D01*
X215916340Y-139085089D01*
X215916337Y-139085091D01*
X215876969Y-139124459D01*
X215855834Y-139135999D01*
X215837138Y-139151173D01*
X215825726Y-139152439D01*
X215815646Y-139157944D01*
X215791625Y-139156225D01*
X215767695Y-139158882D01*
X215757408Y-139153777D01*
X215745954Y-139152958D01*
X215726678Y-139138527D01*
X215705108Y-139127824D01*
X215695756Y-139115379D01*
X215690021Y-139111086D01*
X215682867Y-139100419D01*
X215680491Y-139096446D01*
X215655025Y-139045598D01*
X215608011Y-138975245D01*
X215606414Y-138972574D01*
X215603913Y-138962916D01*
X215587474Y-138943737D01*
X215587041Y-138943203D01*
X215583849Y-138939518D01*
X215583839Y-138939508D01*
X215582357Y-138938224D01*
X215581563Y-138937530D01*
X215482283Y-138850024D01*
X215446157Y-138825940D01*
X215440240Y-138822913D01*
X215416343Y-138807560D01*
X215416338Y-138807557D01*
X215416337Y-138807557D01*
X215285525Y-138747828D01*
X215285520Y-138747826D01*
X215285519Y-138747826D01*
X215278804Y-138745854D01*
X215270527Y-138743424D01*
X215200048Y-138728091D01*
X215200045Y-138728090D01*
X215200038Y-138728089D01*
X215165114Y-138723068D01*
X215093172Y-138717923D01*
X215093171Y-138717923D01*
X211964500Y-138717923D01*
X211897461Y-138698238D01*
X211851706Y-138645434D01*
X211840500Y-138593923D01*
X211840500Y-137185247D01*
X211837600Y-137131186D01*
X211837600Y-137131178D01*
X211834763Y-137104807D01*
X211826099Y-137051372D01*
X211824454Y-137043814D01*
X211813268Y-137012122D01*
X211782502Y-136924954D01*
X211755029Y-136870100D01*
X211755025Y-136870092D01*
X211684969Y-136765306D01*
X211684967Y-136765303D01*
X211683795Y-136763952D01*
X211683782Y-136763937D01*
X211683772Y-136763927D01*
X211683761Y-136763915D01*
X211632801Y-136712986D01*
X211632778Y-136712963D01*
X211606098Y-136689858D01*
X211606093Y-136689854D01*
X211606087Y-136689849D01*
X211548346Y-136646651D01*
X211548342Y-136646649D01*
X211497913Y-136623636D01*
X211497892Y-136623626D01*
X211385526Y-136572322D01*
X211380192Y-136570756D01*
X211370527Y-136567918D01*
X211332588Y-136559664D01*
X211300045Y-136552584D01*
X211265110Y-136547562D01*
X211193172Y-136542417D01*
X211193170Y-136542417D01*
X208974000Y-136542417D01*
X208906961Y-136522732D01*
X208861206Y-136469928D01*
X208850000Y-136418417D01*
X208850000Y-135021917D01*
X208869685Y-134954878D01*
X208922489Y-134909123D01*
X208964425Y-134900000D01*
X216017594Y-134900000D01*
X216077539Y-134917602D01*
G37*
%TD.AperFunction*%
%TD*%
%TA.AperFunction,Conductor*%
%TO.N,Net-(U18-SPB)*%
G36*
X237993106Y-135055023D02*
G01*
X238008104Y-135059427D01*
X238023094Y-135069057D01*
X238040175Y-135074067D01*
X238066855Y-135097172D01*
X238068042Y-135098541D01*
X238095518Y-135153402D01*
X238097163Y-135160960D01*
X238100000Y-135187331D01*
X238100000Y-140558170D01*
X238094975Y-140593114D01*
X238090570Y-140608112D01*
X238080939Y-140623101D01*
X238075932Y-140640175D01*
X238052827Y-140666855D01*
X238051458Y-140668042D01*
X237996597Y-140695518D01*
X237989039Y-140697163D01*
X237962668Y-140700000D01*
X235041830Y-140700000D01*
X235006889Y-140694975D01*
X234991890Y-140690570D01*
X234976902Y-140680940D01*
X234959824Y-140675932D01*
X234933144Y-140652827D01*
X234931957Y-140651458D01*
X234904477Y-140596583D01*
X234902832Y-140589021D01*
X234900000Y-140562668D01*
X234900000Y-135191829D01*
X234905023Y-135156893D01*
X234909427Y-135141895D01*
X234919057Y-135126904D01*
X234924067Y-135109824D01*
X234947172Y-135083144D01*
X234948541Y-135081957D01*
X235003420Y-135054477D01*
X235010979Y-135052833D01*
X235037332Y-135050000D01*
X237958170Y-135050000D01*
X237993106Y-135055023D01*
G37*
%TD.AperFunction*%
%TD*%
%TA.AperFunction,Conductor*%
%TO.N,/VAkku +*%
G36*
X263492302Y-104745184D02*
G01*
X263538057Y-104797988D01*
X263549262Y-104849482D01*
X263549935Y-110959145D01*
X263550655Y-117497968D01*
X263530978Y-117565010D01*
X263514336Y-117585663D01*
X262099667Y-119000332D01*
X262100785Y-122461233D01*
X262081122Y-122528279D01*
X262028333Y-122574051D01*
X261976723Y-122585273D01*
X258122701Y-122583359D01*
X258055672Y-122563641D01*
X258009943Y-122510814D01*
X257998763Y-122459299D01*
X257999964Y-119994786D01*
X258019680Y-119927760D01*
X258036267Y-119907184D01*
X261450644Y-116492070D01*
X261450044Y-110959119D01*
X261450434Y-110951508D01*
X261450339Y-110951504D01*
X261450498Y-110948362D01*
X261450500Y-110948345D01*
X261450499Y-110351656D01*
X261450499Y-110351653D01*
X261450338Y-110348496D01*
X261450398Y-110348492D01*
X261449977Y-110340256D01*
X261449382Y-104849511D01*
X261469059Y-104782471D01*
X261521858Y-104736710D01*
X261573382Y-104725499D01*
X263425263Y-104725499D01*
X263492302Y-104745184D01*
G37*
%TD.AperFunction*%
%TD*%
%TA.AperFunction,Conductor*%
%TO.N,GND*%
G36*
X247737539Y-116969685D02*
G01*
X247783294Y-117022489D01*
X247794500Y-117074000D01*
X247794500Y-118239254D01*
X247774815Y-118306293D01*
X247758181Y-118326935D01*
X245226935Y-120858181D01*
X245165612Y-120891666D01*
X245139254Y-120894500D01*
X237821339Y-120894500D01*
X237813721Y-120892263D01*
X237805886Y-120893533D01*
X237780676Y-120882559D01*
X237754300Y-120874815D01*
X237747470Y-120868106D01*
X237741822Y-120865648D01*
X237718237Y-120839391D01*
X237644183Y-120728561D01*
X237644173Y-120728529D01*
X237644117Y-120728460D01*
X237644117Y-120728461D01*
X237644114Y-120728457D01*
X237644112Y-120728454D01*
X237644110Y-120728452D01*
X237644107Y-120728448D01*
X237124426Y-120208768D01*
X237124421Y-120208763D01*
X237103274Y-120180512D01*
X237090667Y-120157423D01*
X237075500Y-120097998D01*
X237075500Y-118662528D01*
X237077882Y-118638340D01*
X237082557Y-118614834D01*
X237089609Y-118591588D01*
X237143054Y-118462557D01*
X237144221Y-118460001D01*
X237144730Y-118458510D01*
X237144735Y-118458501D01*
X237144737Y-118458497D01*
X237167835Y-118342375D01*
X237175500Y-118303844D01*
X237175500Y-118145973D01*
X237175065Y-118143972D01*
X237145398Y-117994830D01*
X237144983Y-117992403D01*
X237144738Y-117991507D01*
X237144737Y-117991505D01*
X237144737Y-117991503D01*
X237089609Y-117858411D01*
X237082557Y-117835162D01*
X237077881Y-117811658D01*
X237075500Y-117787471D01*
X237075500Y-117074000D01*
X237095185Y-117006961D01*
X237147989Y-116961206D01*
X237199500Y-116950000D01*
X247670500Y-116950000D01*
X247737539Y-116969685D01*
G37*
%TD.AperFunction*%
%TD*%
%TA.AperFunction,Conductor*%
%TO.N,GND*%
G36*
X236364907Y-83005521D02*
G01*
X236373539Y-83008055D01*
X236385791Y-83015927D01*
X236399967Y-83019277D01*
X236414595Y-83034435D01*
X236432320Y-83045825D01*
X236438372Y-83059075D01*
X236448485Y-83069555D01*
X236452595Y-83090214D01*
X236461349Y-83109379D01*
X236459276Y-83123796D01*
X236462119Y-83138081D01*
X236454406Y-83157684D01*
X236451410Y-83178538D01*
X236441407Y-83190727D01*
X236436540Y-83203100D01*
X236411143Y-83227609D01*
X236406990Y-83230604D01*
X236381911Y-83244590D01*
X236270840Y-83290596D01*
X236270822Y-83290604D01*
X236270807Y-83290613D01*
X236139708Y-83378211D01*
X236139707Y-83378212D01*
X236139701Y-83378217D01*
X236028217Y-83489701D01*
X236028212Y-83489707D01*
X236028211Y-83489708D01*
X235940613Y-83620807D01*
X235940603Y-83620824D01*
X235940598Y-83620833D01*
X235880264Y-83766496D01*
X235880257Y-83766527D01*
X235849500Y-83921150D01*
X235849500Y-83997670D01*
X235849499Y-83997676D01*
X235849500Y-83997679D01*
X235844475Y-84032614D01*
X235840070Y-84047612D01*
X235802327Y-84106355D01*
X235802292Y-84106385D01*
X235802291Y-84106387D01*
X235802289Y-84106387D01*
X235800958Y-84107542D01*
X235746097Y-84135018D01*
X235738539Y-84136663D01*
X235712168Y-84139500D01*
X235252123Y-84139500D01*
X235250192Y-84139659D01*
X235248545Y-84139885D01*
X235192516Y-84145908D01*
X235057666Y-84196204D01*
X235057665Y-84196205D01*
X234942456Y-84282450D01*
X234942450Y-84282456D01*
X234856205Y-84397665D01*
X234856203Y-84397668D01*
X234805908Y-84532516D01*
X234799500Y-84592125D01*
X234799500Y-85427876D01*
X234799659Y-85429806D01*
X234799885Y-85431454D01*
X234805907Y-85487482D01*
X234833690Y-85561971D01*
X234856202Y-85622328D01*
X234856206Y-85622335D01*
X234892906Y-85671359D01*
X234942450Y-85737542D01*
X234942452Y-85737544D01*
X234942455Y-85737547D01*
X235057664Y-85823793D01*
X235057671Y-85823797D01*
X235192517Y-85874091D01*
X235192516Y-85874091D01*
X235199444Y-85874835D01*
X235252127Y-85880500D01*
X237747872Y-85880499D01*
X237807483Y-85874091D01*
X237942331Y-85823796D01*
X238057546Y-85737546D01*
X238143796Y-85622331D01*
X238194091Y-85487483D01*
X238200500Y-85427873D01*
X238200499Y-84592128D01*
X238194091Y-84532517D01*
X238143796Y-84397669D01*
X238143795Y-84397668D01*
X238143793Y-84397664D01*
X238143782Y-84397649D01*
X238141392Y-84393929D01*
X238141391Y-84393928D01*
X238138489Y-84390579D01*
X238057547Y-84282455D01*
X238057544Y-84282452D01*
X238057542Y-84282450D01*
X237999616Y-84239086D01*
X237942335Y-84196206D01*
X237942332Y-84196204D01*
X237942330Y-84196203D01*
X237942328Y-84196202D01*
X237807482Y-84145908D01*
X237807483Y-84145908D01*
X237747883Y-84139501D01*
X237747881Y-84139500D01*
X237747873Y-84139500D01*
X237747865Y-84139500D01*
X237746841Y-84139500D01*
X237592330Y-84139500D01*
X237557389Y-84134475D01*
X237542390Y-84130070D01*
X237527402Y-84120440D01*
X237510324Y-84115432D01*
X237483644Y-84092327D01*
X237482457Y-84090958D01*
X237454977Y-84036083D01*
X237453332Y-84028521D01*
X237450500Y-84002168D01*
X237450500Y-83920973D01*
X237450065Y-83918972D01*
X237420397Y-83769824D01*
X237419994Y-83767467D01*
X237419738Y-83766508D01*
X237419737Y-83766506D01*
X237419737Y-83766503D01*
X237419735Y-83766498D01*
X237359397Y-83620827D01*
X237359390Y-83620814D01*
X237271789Y-83489711D01*
X237271786Y-83489707D01*
X237271781Y-83489701D01*
X237160297Y-83378217D01*
X237160291Y-83378212D01*
X237160290Y-83378211D01*
X237029191Y-83290613D01*
X237029190Y-83290612D01*
X237029185Y-83290609D01*
X237029172Y-83290602D01*
X236921208Y-83245883D01*
X236919520Y-83244522D01*
X236917373Y-83244218D01*
X236890856Y-83227874D01*
X236883851Y-83222229D01*
X236873684Y-83207585D01*
X236866807Y-83202044D01*
X236860037Y-83187931D01*
X236844003Y-83164837D01*
X236841509Y-83095012D01*
X236877161Y-83034923D01*
X236933151Y-83004999D01*
X236938138Y-83003821D01*
X236946458Y-83002851D01*
X236948756Y-83001797D01*
X236951802Y-83002229D01*
X236966644Y-83000500D01*
X277657670Y-83000500D01*
X277692606Y-83005523D01*
X277707604Y-83009927D01*
X277766355Y-83047672D01*
X277767542Y-83049041D01*
X277795018Y-83103902D01*
X277796663Y-83111460D01*
X277799500Y-83137831D01*
X277799500Y-151857670D01*
X277799499Y-151857676D01*
X277799500Y-151857679D01*
X277794475Y-151892614D01*
X277790070Y-151907612D01*
X277752327Y-151966355D01*
X277752292Y-151966385D01*
X277752291Y-151966387D01*
X277752289Y-151966387D01*
X277750958Y-151967542D01*
X277696097Y-151995018D01*
X277688539Y-151996663D01*
X277662168Y-151999500D01*
X253991830Y-151999500D01*
X253991825Y-151999499D01*
X253991823Y-151999500D01*
X253956889Y-151994475D01*
X253941890Y-151990070D01*
X253883144Y-151952327D01*
X253883115Y-151952293D01*
X253883114Y-151952293D01*
X253883113Y-151952291D01*
X253881957Y-151950958D01*
X253854477Y-151896083D01*
X253852832Y-151888521D01*
X253850000Y-151862168D01*
X253850000Y-134200000D01*
X253847064Y-134192913D01*
X253838274Y-134181170D01*
X253825667Y-134158081D01*
X253810500Y-134098656D01*
X253810500Y-133483295D01*
X253810496Y-133483281D01*
X253796458Y-133430889D01*
X253796458Y-133430888D01*
X253796458Y-133430887D01*
X253769577Y-133330567D01*
X253723350Y-133250500D01*
X253723349Y-133250498D01*
X253698402Y-133207287D01*
X253698401Y-133207286D01*
X253690521Y-133193637D01*
X253574385Y-133077501D01*
X253574374Y-133077491D01*
X253573342Y-133076459D01*
X253573342Y-133076458D01*
X253573320Y-133076437D01*
X251924015Y-131427132D01*
X264549500Y-131427132D01*
X264549500Y-132422876D01*
X264549659Y-132424806D01*
X264549885Y-132426454D01*
X264555907Y-132482482D01*
X264583690Y-132556971D01*
X264606202Y-132617328D01*
X264606203Y-132617330D01*
X264606204Y-132617332D01*
X264606205Y-132617333D01*
X264692450Y-132732542D01*
X264692452Y-132732544D01*
X264692455Y-132732547D01*
X264807664Y-132818793D01*
X264807671Y-132818797D01*
X264942517Y-132869091D01*
X264942516Y-132869091D01*
X264949444Y-132869835D01*
X265002127Y-132875500D01*
X267097872Y-132875499D01*
X267157483Y-132869091D01*
X267292331Y-132818796D01*
X267407546Y-132732546D01*
X267493796Y-132617331D01*
X267544091Y-132482483D01*
X267550500Y-132422873D01*
X267550499Y-131427128D01*
X267544091Y-131367517D01*
X267544090Y-131367512D01*
X267533897Y-131340185D01*
X267493797Y-131232671D01*
X267493795Y-131232668D01*
X267493793Y-131232664D01*
X267407547Y-131117455D01*
X267407544Y-131117452D01*
X267407542Y-131117450D01*
X267349616Y-131074086D01*
X267292335Y-131031206D01*
X267292332Y-131031204D01*
X267292330Y-131031203D01*
X267292328Y-131031202D01*
X267157482Y-130980908D01*
X267157483Y-130980908D01*
X267097883Y-130974501D01*
X267097881Y-130974500D01*
X267097873Y-130974500D01*
X267097864Y-130974500D01*
X267096841Y-130974500D01*
X265002123Y-130974500D01*
X265000192Y-130974659D01*
X264998545Y-130974885D01*
X264942516Y-130980908D01*
X264807666Y-131031204D01*
X264807665Y-131031205D01*
X264692456Y-131117450D01*
X264692450Y-131117456D01*
X264606205Y-131232665D01*
X264606203Y-131232668D01*
X264555909Y-131367512D01*
X264555908Y-131367515D01*
X264555908Y-131367517D01*
X264549881Y-131423580D01*
X264549879Y-131423595D01*
X264549501Y-131427110D01*
X264549500Y-131427132D01*
X251924015Y-131427132D01*
X249128638Y-128631755D01*
X257499500Y-128631755D01*
X257499500Y-128918243D01*
X257531569Y-129202875D01*
X257531572Y-129202893D01*
X257595317Y-129482180D01*
X257595321Y-129482196D01*
X257595328Y-129482217D01*
X257689926Y-129752559D01*
X257689932Y-129752574D01*
X257689933Y-129752576D01*
X257814219Y-130010659D01*
X257814426Y-130011022D01*
X257815112Y-130012081D01*
X257966634Y-130253227D01*
X258145243Y-130477195D01*
X258347805Y-130679757D01*
X258571773Y-130858366D01*
X258814331Y-131010775D01*
X259072428Y-131135068D01*
X259072432Y-131135069D01*
X259072534Y-131135111D01*
X259073296Y-131135371D01*
X259155088Y-131163992D01*
X259342781Y-131229670D01*
X259342802Y-131229677D01*
X259342806Y-131229678D01*
X259342818Y-131229682D01*
X259520024Y-131270127D01*
X259546437Y-131284901D01*
X259622108Y-131293427D01*
X259622107Y-131293427D01*
X259764434Y-131309463D01*
X259889366Y-131323539D01*
X259896969Y-131325500D01*
X260193236Y-131325500D01*
X260217710Y-131325500D01*
X260219668Y-131324989D01*
X260223868Y-131322696D01*
X260236335Y-131320642D01*
X260316905Y-131311565D01*
X260414355Y-131300586D01*
X260414355Y-131300585D01*
X260470992Y-131294204D01*
X260479918Y-131293703D01*
X260488078Y-131291102D01*
X260757182Y-131229682D01*
X261027572Y-131135068D01*
X261285669Y-131010775D01*
X261528227Y-130858366D01*
X261752195Y-130679757D01*
X261954757Y-130477195D01*
X262133366Y-130253227D01*
X262285775Y-130010669D01*
X262410068Y-129752572D01*
X262504682Y-129482182D01*
X262568426Y-129202898D01*
X262600500Y-128918233D01*
X262600500Y-128631767D01*
X262582087Y-128468351D01*
X262568427Y-128347108D01*
X262504682Y-128067818D01*
X262504678Y-128067806D01*
X262410070Y-127797434D01*
X262410068Y-127797428D01*
X262285775Y-127539331D01*
X262133366Y-127296773D01*
X261954757Y-127072805D01*
X261752195Y-126870243D01*
X261752192Y-126870241D01*
X261695315Y-126824883D01*
X261528227Y-126691634D01*
X261312570Y-126556128D01*
X261287081Y-126540112D01*
X261286022Y-126539426D01*
X261285659Y-126539219D01*
X261027576Y-126414933D01*
X261027574Y-126414932D01*
X261027559Y-126414926D01*
X260757217Y-126320328D01*
X260757196Y-126320321D01*
X260757184Y-126320318D01*
X260757181Y-126320317D01*
X260675563Y-126301688D01*
X260579974Y-126279871D01*
X260553562Y-126265097D01*
X260193243Y-126224500D01*
X260193237Y-126224500D01*
X260193233Y-126224500D01*
X259906767Y-126224500D01*
X259906762Y-126224500D01*
X259906755Y-126224500D01*
X259622123Y-126256569D01*
X259622105Y-126256572D01*
X259342818Y-126320317D01*
X259342802Y-126320321D01*
X259342781Y-126320328D01*
X259072439Y-126414926D01*
X259072424Y-126414932D01*
X259072422Y-126414933D01*
X258814338Y-126539219D01*
X258571775Y-126691632D01*
X258347805Y-126870241D01*
X258145241Y-127072805D01*
X257966632Y-127296775D01*
X257814219Y-127539338D01*
X257689933Y-127797422D01*
X257689932Y-127797424D01*
X257689926Y-127797439D01*
X257595328Y-128067781D01*
X257595321Y-128067802D01*
X257595317Y-128067818D01*
X257531572Y-128347105D01*
X257531569Y-128347123D01*
X257499500Y-128631755D01*
X249128638Y-128631755D01*
X248089576Y-127592693D01*
X248085238Y-127588355D01*
X248085236Y-127588352D01*
X247966365Y-127469481D01*
X247966364Y-127469480D01*
X247966363Y-127469479D01*
X247966360Y-127469477D01*
X247900446Y-127431421D01*
X247900446Y-127431422D01*
X247864491Y-127410664D01*
X247864490Y-127410663D01*
X247829434Y-127390423D01*
X247791251Y-127380192D01*
X247676705Y-127349499D01*
X247676702Y-127349499D01*
X247509091Y-127349499D01*
X247509028Y-127349500D01*
X236266830Y-127349500D01*
X236266825Y-127349499D01*
X236266823Y-127349500D01*
X236231889Y-127344475D01*
X236216890Y-127340070D01*
X236158144Y-127302327D01*
X236158115Y-127302293D01*
X236158114Y-127302293D01*
X236158113Y-127302291D01*
X236156957Y-127300958D01*
X236129477Y-127246083D01*
X236127832Y-127238521D01*
X236125000Y-127212168D01*
X236125000Y-126623167D01*
X236144685Y-126556128D01*
X236197489Y-126510373D01*
X236249004Y-126499167D01*
X245831230Y-126499561D01*
X245885356Y-126496657D01*
X245911756Y-126493815D01*
X245965255Y-126485134D01*
X246100048Y-126434811D01*
X246161361Y-126401307D01*
X246276516Y-126315048D01*
X248474934Y-124115279D01*
X250130143Y-122459053D01*
X257493263Y-122459053D01*
X257498842Y-122511188D01*
X257498870Y-122511459D01*
X257498841Y-122511610D01*
X257499500Y-122523947D01*
X257499500Y-122670354D01*
X257499557Y-122671103D01*
X257508361Y-122795806D01*
X257509718Y-122815027D01*
X257509718Y-122815031D01*
X257509719Y-122815034D01*
X257509720Y-122815038D01*
X257512049Y-122825379D01*
X257512051Y-122825392D01*
X257563505Y-123053854D01*
X257563768Y-123055094D01*
X257563836Y-123055322D01*
X257649518Y-123268215D01*
X257655792Y-123283803D01*
X257655795Y-123283809D01*
X257783216Y-123494590D01*
X257784756Y-123496555D01*
X257786456Y-123498398D01*
X257942798Y-123682201D01*
X258022506Y-123750000D01*
X258130411Y-123841784D01*
X258341191Y-123969205D01*
X258569683Y-124061165D01*
X258809966Y-124115281D01*
X258954705Y-124125500D01*
X261145294Y-124125499D01*
X261290034Y-124115281D01*
X261530317Y-124061165D01*
X261758809Y-123969205D01*
X261969589Y-123841784D01*
X262157201Y-123682201D01*
X262316784Y-123494589D01*
X262444205Y-123283809D01*
X262536165Y-123055317D01*
X262590281Y-122815034D01*
X262600500Y-122670295D01*
X262600499Y-122510247D01*
X262601756Y-122492637D01*
X262606285Y-122461070D01*
X262605250Y-119261030D01*
X262624913Y-119193987D01*
X262641564Y-119173317D01*
X263871778Y-117943105D01*
X263886132Y-117927125D01*
X264549500Y-117927125D01*
X264549500Y-118922876D01*
X264549659Y-118924806D01*
X264549885Y-118926454D01*
X264555907Y-118982482D01*
X264583690Y-119056971D01*
X264606202Y-119117328D01*
X264606203Y-119117330D01*
X264606204Y-119117332D01*
X264606205Y-119117333D01*
X264692450Y-119232542D01*
X264692452Y-119232544D01*
X264692455Y-119232547D01*
X264807664Y-119318793D01*
X264807671Y-119318797D01*
X264942517Y-119369091D01*
X264942516Y-119369091D01*
X264949444Y-119369835D01*
X265002127Y-119375500D01*
X267097872Y-119375499D01*
X267157483Y-119369091D01*
X267292331Y-119318796D01*
X267407546Y-119232546D01*
X267493796Y-119117331D01*
X267544091Y-118982483D01*
X267550500Y-118922873D01*
X267550499Y-117927128D01*
X267544091Y-117867517D01*
X267538318Y-117852037D01*
X267531034Y-117832509D01*
X267531034Y-117832508D01*
X267493798Y-117732673D01*
X267493797Y-117732671D01*
X267493795Y-117732668D01*
X267493793Y-117732664D01*
X267407547Y-117617455D01*
X267407544Y-117617452D01*
X267407542Y-117617450D01*
X267349616Y-117574086D01*
X267292335Y-117531206D01*
X267292332Y-117531204D01*
X267292330Y-117531203D01*
X267292328Y-117531202D01*
X267157482Y-117480908D01*
X267157483Y-117480908D01*
X267097883Y-117474501D01*
X267097881Y-117474500D01*
X267097873Y-117474500D01*
X267097864Y-117474500D01*
X267096841Y-117474500D01*
X265002123Y-117474500D01*
X265000192Y-117474659D01*
X264998545Y-117474885D01*
X264942516Y-117480908D01*
X264807666Y-117531204D01*
X264807665Y-117531205D01*
X264692456Y-117617450D01*
X264692450Y-117617456D01*
X264606205Y-117732665D01*
X264606203Y-117732668D01*
X264555908Y-117867516D01*
X264549500Y-117927125D01*
X263886132Y-117927125D01*
X263907951Y-117902834D01*
X263924593Y-117882181D01*
X263935166Y-117867516D01*
X263946327Y-117852037D01*
X263946329Y-117852034D01*
X263956261Y-117838259D01*
X264016017Y-117707373D01*
X264016018Y-117707369D01*
X264035695Y-117640328D01*
X264056155Y-117497912D01*
X264054982Y-106849513D01*
X264074659Y-106782471D01*
X264127458Y-106736710D01*
X264178982Y-106725499D01*
X264747871Y-106725499D01*
X264747872Y-106725499D01*
X264807483Y-106719091D01*
X264942331Y-106668796D01*
X265057546Y-106582546D01*
X265143796Y-106467331D01*
X265194091Y-106332483D01*
X265200500Y-106272873D01*
X265200499Y-104627128D01*
X265194091Y-104567517D01*
X265194091Y-104567516D01*
X265194089Y-104567510D01*
X265181418Y-104533539D01*
X265181413Y-104533526D01*
X265181402Y-104533497D01*
X265143797Y-104432671D01*
X265143793Y-104432664D01*
X265079229Y-104346419D01*
X265057548Y-104317456D01*
X265057542Y-104317450D01*
X264993306Y-104269363D01*
X264942335Y-104231206D01*
X264942331Y-104231204D01*
X264942327Y-104231201D01*
X264942325Y-104231200D01*
X264817654Y-104184702D01*
X264817651Y-104184701D01*
X264807486Y-104180910D01*
X264807485Y-104180909D01*
X264807483Y-104180909D01*
X264794021Y-104179461D01*
X264794014Y-104179460D01*
X264747883Y-104174501D01*
X264747881Y-104174500D01*
X264747873Y-104174500D01*
X264747865Y-104174500D01*
X264052123Y-104174500D01*
X264050192Y-104174659D01*
X264048545Y-104174885D01*
X263992515Y-104180908D01*
X263992514Y-104180908D01*
X263857671Y-104231201D01*
X263857669Y-104231202D01*
X263857656Y-104231210D01*
X263853578Y-104234264D01*
X263822601Y-104251178D01*
X263807959Y-104256639D01*
X263738268Y-104261623D01*
X263738264Y-104261622D01*
X263728957Y-104259597D01*
X263681008Y-104237698D01*
X263672336Y-104231206D01*
X263672334Y-104231205D01*
X263672328Y-104231202D01*
X263537486Y-104180910D01*
X263537485Y-104180909D01*
X263537483Y-104180909D01*
X263524008Y-104179460D01*
X263524007Y-104179460D01*
X263477883Y-104174501D01*
X263477881Y-104174500D01*
X263477873Y-104174500D01*
X263477865Y-104174500D01*
X262785414Y-104174500D01*
X262782129Y-104174500D01*
X262782123Y-104174501D01*
X262722516Y-104180908D01*
X262632770Y-104214380D01*
X262626681Y-104215972D01*
X262618945Y-104215739D01*
X262595336Y-104219999D01*
X262394661Y-104219999D01*
X262351330Y-104212181D01*
X262277656Y-104184703D01*
X262269578Y-104181690D01*
X262266562Y-104180503D01*
X262260871Y-104180198D01*
X262207883Y-104174501D01*
X262207881Y-104174500D01*
X262207873Y-104174500D01*
X262207865Y-104174500D01*
X261512123Y-104174500D01*
X261510192Y-104174659D01*
X261508545Y-104174885D01*
X261459121Y-104180198D01*
X261452516Y-104180908D01*
X261317677Y-104231200D01*
X261317666Y-104231204D01*
X261317665Y-104231205D01*
X261202456Y-104317450D01*
X261202456Y-104317451D01*
X261202455Y-104317452D01*
X261202452Y-104317455D01*
X261202448Y-104317460D01*
X261202444Y-104317465D01*
X261152511Y-104384164D01*
X261140949Y-104397511D01*
X261137980Y-104400480D01*
X261043776Y-104509220D01*
X260984018Y-104640109D01*
X260964342Y-104707147D01*
X260964343Y-104707148D01*
X260943882Y-104849561D01*
X260944476Y-110340321D01*
X260944958Y-110359104D01*
X260944999Y-110362280D01*
X260944999Y-110939729D01*
X260944959Y-110942885D01*
X260944544Y-110959179D01*
X260945115Y-116231376D01*
X260925438Y-116298417D01*
X260908806Y-116319061D01*
X257678780Y-119549786D01*
X257678779Y-119549787D01*
X257642730Y-119589915D01*
X257626136Y-119610501D01*
X257626106Y-119610539D01*
X257594560Y-119654257D01*
X257534725Y-119785110D01*
X257515009Y-119852135D01*
X257494464Y-119994534D01*
X257494463Y-119994538D01*
X257493304Y-122374660D01*
X257493263Y-122459053D01*
X250130143Y-122459053D01*
X250214484Y-122374660D01*
X251729502Y-120858710D01*
X251729501Y-120858710D01*
X251729507Y-120858705D01*
X251765711Y-120818368D01*
X251782362Y-120797685D01*
X251814037Y-120753707D01*
X251873722Y-120622790D01*
X251893363Y-120555738D01*
X251893364Y-120555734D01*
X251913747Y-120413305D01*
X251902971Y-103999079D01*
X251922612Y-103932029D01*
X251975385Y-103886239D01*
X252026971Y-103875000D01*
X257250000Y-103875000D01*
X258937400Y-102187599D01*
X258977546Y-102157546D01*
X259007599Y-102117400D01*
X259849592Y-101275406D01*
X259877847Y-101254256D01*
X259891567Y-101246765D01*
X259916605Y-101241318D01*
X259924381Y-101236504D01*
X259937707Y-101236727D01*
X259959833Y-101231915D01*
X259966155Y-101232367D01*
X259981027Y-101237455D01*
X259994241Y-101237678D01*
X260026095Y-101252877D01*
X260026098Y-101252879D01*
X260031628Y-101256788D01*
X260038982Y-101262293D01*
X260047667Y-101268795D01*
X260047671Y-101268797D01*
X260092618Y-101285561D01*
X260182517Y-101319091D01*
X260242127Y-101325500D01*
X260937872Y-101325499D01*
X260997483Y-101319091D01*
X261086355Y-101285944D01*
X261132329Y-101268797D01*
X261132329Y-101268796D01*
X261132331Y-101268796D01*
X261132333Y-101268793D01*
X261149039Y-101262564D01*
X261149041Y-101262563D01*
X261155308Y-101260226D01*
X261171045Y-101247544D01*
X261175160Y-101245925D01*
X261182030Y-101243362D01*
X261206046Y-101241642D01*
X261208331Y-101240395D01*
X261215898Y-101240936D01*
X261251721Y-101238372D01*
X261261036Y-101240398D01*
X261270829Y-101244870D01*
X261278022Y-101245386D01*
X261308974Y-101262293D01*
X261308995Y-101262303D01*
X261309661Y-101262801D01*
X261310578Y-101263487D01*
X261310580Y-101263490D01*
X261313934Y-101266396D01*
X261317669Y-101268796D01*
X261317670Y-101268797D01*
X261363645Y-101285944D01*
X261452517Y-101319091D01*
X261512127Y-101325500D01*
X262207872Y-101325499D01*
X262267483Y-101319091D01*
X262356355Y-101285944D01*
X262402329Y-101268797D01*
X262402329Y-101268796D01*
X262402331Y-101268796D01*
X262402333Y-101268793D01*
X262419039Y-101262564D01*
X262419041Y-101262563D01*
X262425308Y-101260226D01*
X262441045Y-101247544D01*
X262445160Y-101245925D01*
X262452030Y-101243362D01*
X262476046Y-101241642D01*
X262478331Y-101240395D01*
X262485898Y-101240936D01*
X262521721Y-101238372D01*
X262531036Y-101240398D01*
X262540829Y-101244870D01*
X262548022Y-101245386D01*
X262578974Y-101262293D01*
X262578995Y-101262303D01*
X262579661Y-101262801D01*
X262580578Y-101263487D01*
X262580580Y-101263490D01*
X262583934Y-101266396D01*
X262587669Y-101268796D01*
X262587670Y-101268797D01*
X262633645Y-101285944D01*
X262722517Y-101319091D01*
X262782127Y-101325500D01*
X263477872Y-101325499D01*
X263537483Y-101319091D01*
X263626355Y-101285944D01*
X263672329Y-101268797D01*
X263672329Y-101268796D01*
X263672331Y-101268796D01*
X263672333Y-101268793D01*
X263689039Y-101262564D01*
X263689041Y-101262563D01*
X263695308Y-101260226D01*
X263711045Y-101247544D01*
X263715160Y-101245925D01*
X263722030Y-101243362D01*
X263746046Y-101241642D01*
X263748331Y-101240395D01*
X263755898Y-101240936D01*
X263791721Y-101238372D01*
X263801036Y-101240398D01*
X263810829Y-101244870D01*
X263818022Y-101245386D01*
X263848974Y-101262293D01*
X263848995Y-101262303D01*
X263849661Y-101262801D01*
X263850578Y-101263487D01*
X263850580Y-101263490D01*
X263853934Y-101266396D01*
X263857669Y-101268796D01*
X263857670Y-101268797D01*
X263903645Y-101285944D01*
X263992517Y-101319091D01*
X264052127Y-101325500D01*
X264747872Y-101325499D01*
X264807483Y-101319091D01*
X264942331Y-101268796D01*
X264986931Y-101235407D01*
X265017886Y-101218505D01*
X265046544Y-101207816D01*
X265089872Y-101200000D01*
X265124999Y-101200000D01*
X265125000Y-101200000D01*
X265124957Y-101149205D01*
X265128795Y-101118489D01*
X265135953Y-101090398D01*
X265139926Y-101077704D01*
X265143794Y-101067333D01*
X265143796Y-101067331D01*
X265194091Y-100932483D01*
X265200500Y-100872873D01*
X265200499Y-99227128D01*
X265195233Y-99178140D01*
X265195432Y-99149907D01*
X265195861Y-99146380D01*
X265197309Y-99138355D01*
X265197213Y-99135272D01*
X265198355Y-99125894D01*
X265208418Y-99102531D01*
X265214650Y-99077865D01*
X265218696Y-99071872D01*
X265220515Y-99068720D01*
X265220520Y-99068716D01*
X265249618Y-99018314D01*
X265268049Y-98993930D01*
X265288868Y-98972495D01*
X265312717Y-98953355D01*
X265361983Y-98922967D01*
X265433439Y-98878891D01*
X265465797Y-98864832D01*
X265480882Y-98860705D01*
X265550731Y-98861998D01*
X265558500Y-98864436D01*
X265609053Y-98895065D01*
X265636955Y-98922967D01*
X265636959Y-98922970D01*
X265636965Y-98922973D01*
X265636974Y-98922980D01*
X265779447Y-99010859D01*
X265781300Y-99012002D01*
X265781302Y-99012002D01*
X265781303Y-99012003D01*
X265942292Y-99065349D01*
X266041655Y-99075500D01*
X266638344Y-99075499D01*
X266638352Y-99075498D01*
X266638355Y-99075498D01*
X266638363Y-99075497D01*
X266638653Y-99075479D01*
X266639669Y-99075363D01*
X266692760Y-99069940D01*
X266737708Y-99065349D01*
X266898697Y-99012003D01*
X267043044Y-98922968D01*
X267162968Y-98803044D01*
X267252003Y-98658697D01*
X267305349Y-98497708D01*
X267315500Y-98398345D01*
X267315499Y-97851656D01*
X267305349Y-97752292D01*
X267252003Y-97591303D01*
X267251854Y-97590998D01*
X267250861Y-97589450D01*
X267162980Y-97446974D01*
X267162975Y-97446967D01*
X267162970Y-97446959D01*
X267162967Y-97446955D01*
X267162964Y-97446952D01*
X267162962Y-97446949D01*
X267043049Y-97327036D01*
X267043046Y-97327034D01*
X267043044Y-97327032D01*
X267043040Y-97327029D01*
X266984619Y-97290994D01*
X266898709Y-97238003D01*
X266898699Y-97237998D01*
X266898700Y-97237998D01*
X266884887Y-97233421D01*
X266737709Y-97184651D01*
X266737702Y-97184650D01*
X266638353Y-97174500D01*
X266638346Y-97174500D01*
X266041662Y-97174500D01*
X266041644Y-97174501D01*
X266041622Y-97174503D01*
X266041612Y-97174504D01*
X265942294Y-97184649D01*
X265942281Y-97184653D01*
X265819278Y-97225411D01*
X265791017Y-97230472D01*
X265784540Y-97231632D01*
X265773237Y-97232021D01*
X265705560Y-97214654D01*
X265658016Y-97163455D01*
X265645700Y-97094680D01*
X265647026Y-97082493D01*
X265652589Y-97056927D01*
X265705349Y-96897708D01*
X265715500Y-96798345D01*
X265715499Y-96251656D01*
X265705349Y-96152292D01*
X265671734Y-96050848D01*
X265652004Y-95991305D01*
X265651854Y-95990998D01*
X265650861Y-95989450D01*
X265562980Y-95846974D01*
X265562966Y-95846954D01*
X265559438Y-95843426D01*
X265539423Y-95823411D01*
X265534461Y-95816783D01*
X265518272Y-95795155D01*
X265505666Y-95772067D01*
X265490500Y-95712644D01*
X265490500Y-95366076D01*
X265461419Y-95219886D01*
X265459337Y-95215484D01*
X265443520Y-95177298D01*
X265405087Y-95084511D01*
X265405080Y-95084498D01*
X265389729Y-95061524D01*
X265322955Y-94961589D01*
X265322949Y-94961581D01*
X265289780Y-94928413D01*
X265087606Y-94726239D01*
X264078428Y-93717059D01*
X264078424Y-93717055D01*
X264078421Y-93717052D01*
X264078414Y-93717046D01*
X264062069Y-93706125D01*
X263955493Y-93634914D01*
X263955488Y-93634912D01*
X263938571Y-93627904D01*
X263818932Y-93578348D01*
X263818921Y-93578345D01*
X263818917Y-93578343D01*
X263818907Y-93578340D01*
X263818904Y-93578339D01*
X263818900Y-93578338D01*
X263673922Y-93549500D01*
X263673920Y-93549500D01*
X263673918Y-93549500D01*
X254868917Y-93549500D01*
X254721082Y-93549500D01*
X254721080Y-93549500D01*
X254721078Y-93549500D01*
X254576096Y-93578338D01*
X254576079Y-93578344D01*
X254439517Y-93634908D01*
X254439508Y-93634913D01*
X254439491Y-93634923D01*
X254316581Y-93717049D01*
X254316580Y-93717050D01*
X254316574Y-93717055D01*
X252028603Y-96005027D01*
X252000349Y-96026178D01*
X251977269Y-96038781D01*
X251917783Y-96053950D01*
X250217276Y-96053155D01*
X250204109Y-96051255D01*
X250204088Y-96051554D01*
X250199134Y-96051198D01*
X250196306Y-96050529D01*
X250194767Y-96050807D01*
X250187851Y-96048910D01*
X250182339Y-96048115D01*
X250177981Y-96046833D01*
X250178152Y-96046250D01*
X250177785Y-96046149D01*
X250161928Y-96042399D01*
X250161915Y-96042436D01*
X250161624Y-96042327D01*
X250160569Y-96042078D01*
X250158519Y-96041229D01*
X250157788Y-96040895D01*
X250157529Y-96040818D01*
X250154997Y-96039770D01*
X250154570Y-96039425D01*
X250153786Y-96039068D01*
X250153877Y-96038867D01*
X250129474Y-96019202D01*
X250107909Y-96003050D01*
X250106882Y-96003940D01*
X250105954Y-96002868D01*
X250105064Y-96000919D01*
X250103167Y-95999498D01*
X250101351Y-95997071D01*
X250101693Y-95996814D01*
X250100594Y-95995929D01*
X250094684Y-95978175D01*
X250076968Y-95939354D01*
X250076762Y-95937921D01*
X250075500Y-95920277D01*
X250075500Y-95845155D01*
X250075749Y-95843426D01*
X250080523Y-95810219D01*
X250084927Y-95795221D01*
X250122691Y-95736453D01*
X250122701Y-95736444D01*
X250130564Y-95729630D01*
X250173452Y-95705408D01*
X250308412Y-95661557D01*
X250497816Y-95565051D01*
X250588040Y-95499500D01*
X250669786Y-95440109D01*
X250669787Y-95440106D01*
X250669790Y-95440105D01*
X250669792Y-95440104D01*
X250669793Y-95440102D01*
X250669844Y-95440066D01*
X250670605Y-95439290D01*
X250820104Y-95289792D01*
X250820106Y-95289788D01*
X250820109Y-95289786D01*
X250945048Y-95117820D01*
X250945047Y-95117820D01*
X250945051Y-95117816D01*
X250945053Y-95117810D01*
X250965445Y-95089744D01*
X250973730Y-95061529D01*
X251041557Y-94928412D01*
X251107246Y-94726243D01*
X251140500Y-94516287D01*
X251140500Y-94303713D01*
X251107246Y-94093757D01*
X251041557Y-93891588D01*
X250945051Y-93702184D01*
X250945049Y-93702181D01*
X250945048Y-93702179D01*
X250944702Y-93701703D01*
X250944700Y-93701699D01*
X250820112Y-93530216D01*
X250669788Y-93379892D01*
X250669786Y-93379890D01*
X250497820Y-93254951D01*
X250484167Y-93247994D01*
X250330245Y-93169567D01*
X250330240Y-93169565D01*
X250308414Y-93158444D01*
X250308413Y-93158443D01*
X250308412Y-93158443D01*
X250211550Y-93126970D01*
X250115074Y-93095623D01*
X250110552Y-93093770D01*
X250101362Y-93091600D01*
X250096599Y-93091226D01*
X249944957Y-93067208D01*
X249925489Y-93064124D01*
X249896290Y-93059500D01*
X249896287Y-93059500D01*
X249683713Y-93059500D01*
X249683709Y-93059500D01*
X249644776Y-93065666D01*
X249635042Y-93067208D01*
X249597654Y-93073129D01*
X249473763Y-93092752D01*
X249271582Y-93158445D01*
X249082182Y-93254949D01*
X248910210Y-93379892D01*
X248759892Y-93530210D01*
X248759890Y-93530213D01*
X248634952Y-93702179D01*
X248634945Y-93702188D01*
X248634634Y-93702696D01*
X248633499Y-93704177D01*
X248632085Y-93706125D01*
X248632036Y-93706089D01*
X248619060Y-93723041D01*
X248609353Y-93733319D01*
X248549011Y-93768542D01*
X248479205Y-93765550D01*
X248425488Y-93729378D01*
X248419285Y-93722219D01*
X248407274Y-93705811D01*
X248405053Y-93702187D01*
X248405051Y-93702184D01*
X248405050Y-93702182D01*
X248280109Y-93530213D01*
X248129786Y-93379890D01*
X247957820Y-93254951D01*
X247944167Y-93247994D01*
X247790245Y-93169567D01*
X247790240Y-93169565D01*
X247768414Y-93158444D01*
X247768413Y-93158443D01*
X247768412Y-93158443D01*
X247671550Y-93126970D01*
X247575074Y-93095623D01*
X247570552Y-93093770D01*
X247561362Y-93091600D01*
X247556599Y-93091226D01*
X247404957Y-93067208D01*
X247385489Y-93064124D01*
X247356290Y-93059500D01*
X247356287Y-93059500D01*
X247143713Y-93059500D01*
X247143709Y-93059500D01*
X247104776Y-93065666D01*
X247095042Y-93067208D01*
X247057654Y-93073129D01*
X246933763Y-93092752D01*
X246731582Y-93158445D01*
X246542182Y-93254949D01*
X246370210Y-93379892D01*
X246219892Y-93530210D01*
X246094949Y-93702182D01*
X245998445Y-93891580D01*
X245932752Y-94093759D01*
X245899500Y-94303707D01*
X245899500Y-94516291D01*
X245932753Y-94726239D01*
X245932752Y-94726239D01*
X245998445Y-94928418D01*
X246091532Y-95111111D01*
X246094951Y-95117820D01*
X246219890Y-95289786D01*
X246370213Y-95440109D01*
X246542184Y-95565051D01*
X246542184Y-95565052D01*
X246570132Y-95579292D01*
X246574175Y-95581757D01*
X246577232Y-95585121D01*
X246594754Y-95597473D01*
X246607165Y-95609195D01*
X246641719Y-95666955D01*
X246645196Y-95679809D01*
X246649500Y-95712193D01*
X246649500Y-95927433D01*
X246629815Y-95994472D01*
X246577011Y-96040227D01*
X246525442Y-96051433D01*
X243624442Y-96050079D01*
X243557412Y-96030363D01*
X243511682Y-95977538D01*
X243500500Y-95926079D01*
X243500500Y-86701452D01*
X243500501Y-86701401D01*
X243500501Y-86530946D01*
X243500501Y-86530944D01*
X243459576Y-86378214D01*
X243459573Y-86378209D01*
X243459573Y-86378208D01*
X243459549Y-86378151D01*
X243459068Y-86377334D01*
X243441853Y-86347517D01*
X243380524Y-86241290D01*
X243380518Y-86241282D01*
X243380514Y-86241278D01*
X243380513Y-86241276D01*
X242149425Y-85010189D01*
X242149420Y-85010184D01*
X242128273Y-84981933D01*
X242115666Y-84958844D01*
X242100499Y-84899419D01*
X242100499Y-84592122D01*
X242100339Y-84590197D01*
X242100112Y-84588538D01*
X242094091Y-84532517D01*
X242094091Y-84532516D01*
X242043796Y-84397669D01*
X242043795Y-84397668D01*
X242043793Y-84397664D01*
X242043782Y-84397649D01*
X242041392Y-84393929D01*
X242041391Y-84393928D01*
X242038489Y-84390579D01*
X241957547Y-84282455D01*
X241957544Y-84282452D01*
X241957542Y-84282450D01*
X241899616Y-84239086D01*
X241842335Y-84196206D01*
X241842332Y-84196204D01*
X241842330Y-84196203D01*
X241842328Y-84196202D01*
X241707482Y-84145908D01*
X241707483Y-84145908D01*
X241647883Y-84139501D01*
X241647881Y-84139500D01*
X241647873Y-84139500D01*
X241647864Y-84139500D01*
X241646841Y-84139500D01*
X239152123Y-84139500D01*
X239150192Y-84139659D01*
X239148545Y-84139885D01*
X239092516Y-84145908D01*
X238957666Y-84196204D01*
X238957665Y-84196205D01*
X238842456Y-84282450D01*
X238842450Y-84282456D01*
X238756205Y-84397665D01*
X238756203Y-84397668D01*
X238705908Y-84532516D01*
X238699500Y-84592125D01*
X238699500Y-84592129D01*
X238699500Y-84592135D01*
X238699500Y-85427870D01*
X238699501Y-85427876D01*
X238705908Y-85487483D01*
X238744292Y-85590396D01*
X238745809Y-85596023D01*
X238745703Y-85600768D01*
X238749767Y-85619449D01*
X238751772Y-85647481D01*
X238744270Y-85699661D01*
X238705907Y-85802516D01*
X238703620Y-85823796D01*
X238699501Y-85862116D01*
X238699500Y-85862135D01*
X238699500Y-86697870D01*
X238699501Y-86697876D01*
X238705908Y-86757483D01*
X238744292Y-86860396D01*
X238745809Y-86866023D01*
X238745703Y-86870768D01*
X238749767Y-86889449D01*
X238751772Y-86917481D01*
X238744270Y-86969661D01*
X238705907Y-87072516D01*
X238699501Y-87132114D01*
X238699501Y-87132116D01*
X238699500Y-87132135D01*
X238699500Y-87967870D01*
X238699501Y-87967876D01*
X238705908Y-88027483D01*
X238744292Y-88130396D01*
X238745809Y-88136023D01*
X238745703Y-88140768D01*
X238749767Y-88159449D01*
X238751772Y-88187481D01*
X238744270Y-88239661D01*
X238705907Y-88342516D01*
X238699500Y-88402123D01*
X238699500Y-88402129D01*
X238699500Y-88402135D01*
X238699500Y-89237870D01*
X238699501Y-89237876D01*
X238705908Y-89297483D01*
X238744292Y-89400396D01*
X238745809Y-89406023D01*
X238745703Y-89410768D01*
X238749767Y-89429449D01*
X238751772Y-89457481D01*
X238744270Y-89509661D01*
X238705907Y-89612516D01*
X238699501Y-89672114D01*
X238699500Y-89672139D01*
X238699500Y-90507876D01*
X238699659Y-90509806D01*
X238699885Y-90511454D01*
X238705907Y-90567482D01*
X238733690Y-90641971D01*
X238756202Y-90702328D01*
X238756203Y-90702330D01*
X238756204Y-90702332D01*
X238756205Y-90702333D01*
X238842450Y-90817542D01*
X238842452Y-90817544D01*
X238842455Y-90817547D01*
X238957664Y-90903793D01*
X238957671Y-90903797D01*
X239092517Y-90954091D01*
X239092516Y-90954091D01*
X239099444Y-90954835D01*
X239152127Y-90960500D01*
X239807674Y-90960499D01*
X239842606Y-90965521D01*
X239857603Y-90969925D01*
X239916355Y-91007670D01*
X239917542Y-91009039D01*
X239945019Y-91063903D01*
X239946664Y-91071462D01*
X239949500Y-91097830D01*
X239949500Y-95924308D01*
X239929815Y-95991347D01*
X239877011Y-96037102D01*
X239825442Y-96048308D01*
X234429442Y-96045789D01*
X234362412Y-96026073D01*
X234316682Y-95973248D01*
X234305500Y-95921789D01*
X234305500Y-88402125D01*
X234799500Y-88402125D01*
X234799500Y-89237876D01*
X234799659Y-89239806D01*
X234799885Y-89241454D01*
X234805907Y-89297482D01*
X234833690Y-89371971D01*
X234856202Y-89432328D01*
X234856206Y-89432335D01*
X234892906Y-89481359D01*
X234942450Y-89547542D01*
X234942452Y-89547544D01*
X234942455Y-89547547D01*
X235057664Y-89633793D01*
X235057671Y-89633797D01*
X235192517Y-89684091D01*
X235192516Y-89684091D01*
X235199444Y-89684835D01*
X235252127Y-89690500D01*
X237747872Y-89690499D01*
X237807483Y-89684091D01*
X237942331Y-89633796D01*
X238057546Y-89547546D01*
X238143796Y-89432331D01*
X238194091Y-89297483D01*
X238200500Y-89237873D01*
X238200499Y-88402128D01*
X238194091Y-88342517D01*
X238145172Y-88211359D01*
X238143797Y-88207671D01*
X238143793Y-88207664D01*
X238057547Y-88092455D01*
X238057544Y-88092452D01*
X238057542Y-88092450D01*
X237970757Y-88027483D01*
X237942335Y-88006206D01*
X237942332Y-88006204D01*
X237942330Y-88006203D01*
X237942328Y-88006202D01*
X237807482Y-87955908D01*
X237807483Y-87955908D01*
X237747883Y-87949501D01*
X237747881Y-87949500D01*
X237747873Y-87949500D01*
X237747864Y-87949500D01*
X237746841Y-87949500D01*
X235252123Y-87949500D01*
X235250192Y-87949659D01*
X235248545Y-87949885D01*
X235192516Y-87955908D01*
X235057666Y-88006204D01*
X235057665Y-88006205D01*
X234942456Y-88092450D01*
X234942450Y-88092456D01*
X234856205Y-88207665D01*
X234856203Y-88207668D01*
X234805908Y-88342516D01*
X234799500Y-88402125D01*
X234305500Y-88402125D01*
X234305500Y-83124500D01*
X234325185Y-83057461D01*
X234377989Y-83011706D01*
X234429500Y-83000500D01*
X236329980Y-83000500D01*
X236364907Y-83005521D01*
G37*
%TD.AperFunction*%
%TD*%
%TA.AperFunction,NonConductor*%
G36*
X248506844Y-95164070D02*
G01*
X248556942Y-95212753D01*
X248558466Y-95215451D01*
X248574500Y-95276437D01*
X248574500Y-95910502D01*
X248574499Y-95910508D01*
X248574500Y-95910511D01*
X248569475Y-95945446D01*
X248565070Y-95960444D01*
X248527309Y-96019203D01*
X248525951Y-96020380D01*
X248471068Y-96047849D01*
X248463484Y-96049497D01*
X248437095Y-96052325D01*
X247992275Y-96052118D01*
X247970849Y-96050243D01*
X247961538Y-96048605D01*
X247958688Y-96047193D01*
X247957331Y-96047075D01*
X247952974Y-96045793D01*
X247953257Y-96044830D01*
X247937167Y-96040722D01*
X247936915Y-96041399D01*
X247934081Y-96040341D01*
X247933256Y-96039723D01*
X247931524Y-96039281D01*
X247928786Y-96038031D01*
X247929349Y-96036796D01*
X247917398Y-96027845D01*
X247907664Y-96024987D01*
X247903024Y-96019633D01*
X247898923Y-96017602D01*
X247895014Y-96011080D01*
X247882909Y-96002013D01*
X247881882Y-96002903D01*
X247880954Y-96001831D01*
X247880064Y-95999882D01*
X247878167Y-95998461D01*
X247876351Y-95996034D01*
X247877810Y-95994942D01*
X247873558Y-95985625D01*
X247861910Y-95972182D01*
X247851968Y-95938317D01*
X247851762Y-95936884D01*
X247850500Y-95919240D01*
X247850500Y-95713547D01*
X247855522Y-95678613D01*
X247860332Y-95662231D01*
X247896114Y-95605221D01*
X247904673Y-95597477D01*
X247905989Y-95596286D01*
X247932877Y-95577757D01*
X247949135Y-95569474D01*
X247958164Y-95565734D01*
X247966516Y-95560617D01*
X247970203Y-95558738D01*
X247977765Y-95550556D01*
X248049193Y-95498661D01*
X248129786Y-95440109D01*
X248129787Y-95440107D01*
X248129790Y-95440104D01*
X248129792Y-95440104D01*
X248129793Y-95440102D01*
X248129846Y-95440064D01*
X248130548Y-95439347D01*
X248280104Y-95289792D01*
X248339706Y-95207754D01*
X248364294Y-95182454D01*
X248373259Y-95175541D01*
X248438366Y-95150194D01*
X248506844Y-95164070D01*
G37*
%TD.AperFunction*%
M02*
